<?xml version="1.0" encoding="UTF-8" standalone="no"?>
<!DOCTYPE svg PUBLIC "-//W3C//DTD SVG 1.1//EN"
 "http://www.w3.org/Graphics/SVG/1.1/DTD/svg11.dtd">
<!-- Generated by graphviz version 2.38.0 (20140413.2041)
 -->
<!-- Title: anonymous_graph Pages: 1 -->
<svg width="269pt" height="445pt"
 viewBox="0.00 0.00 268.54 445.00" xmlns="http://www.w3.org/2000/svg" xmlns:xlink="http://www.w3.org/1999/xlink">
<g id="graph0" class="graph" transform="scale(1 1) rotate(0) translate(4 441)">
<title>anonymous_graph</title>
<polygon fill="white" stroke="none" points="-4,4 -4,-441 264.54,-441 264.54,4 -4,4"/>
<!-- N0 -->
<g id="node1" class="node"><title>N0</title>
<ellipse fill="none" stroke="black" cx="108.54" cy="-419" rx="29.4969" ry="18"/>
<text text-anchor="middle" x="108.54" y="-415.3" font-family="Times New Roman,serif" font-size="14.00">initial</text>
</g>
<!-- N4 -->
<g id="node5" class="node"><title>N4</title>
<ellipse fill="none" stroke="black" cx="108.54" cy="-332" rx="34.394" ry="18"/>
<text text-anchor="middle" x="108.54" y="-328.3" font-family="Times New Roman,serif" font-size="14.00">N4358</text>
</g>
<!-- N0&#45;&gt;N4 -->
<g id="edge1" class="edge"><title>N0&#45;&gt;N4</title>
<path fill="none" stroke="black" d="M108.54,-400.799C108.54,-389.163 108.54,-373.548 108.54,-360.237"/>
<polygon fill="black" stroke="black" points="112.04,-360.175 108.54,-350.175 105.04,-360.175 112.04,-360.175"/>
<text text-anchor="middle" x="127.04" y="-371.8" font-family="Times New Roman,serif" font-size="14.00">i2 = 2;</text>
</g>
<!-- N1 -->
<g id="node2" class="node"><title>N1</title>
<ellipse fill="none" stroke="black" cx="155.54" cy="-22" rx="27" ry="18"/>
<ellipse fill="none" stroke="black" cx="155.54" cy="-22" rx="31" ry="22"/>
<text text-anchor="middle" x="155.54" y="-18.3" font-family="Times New Roman,serif" font-size="14.00">final</text>
</g>
<!-- N2 -->
<g id="node3" class="node"><title>N2</title>
<ellipse fill="none" stroke="black" cx="72.5403" cy="-230" rx="34.394" ry="18"/>
<text text-anchor="middle" x="72.5403" y="-226.3" font-family="Times New Roman,serif" font-size="14.00">N2519</text>
</g>
<!-- N3 -->
<g id="node4" class="node"><title>N3</title>
<ellipse fill="none" stroke="black" cx="100.54" cy="-128" rx="34.394" ry="18"/>
<text text-anchor="middle" x="100.54" y="-124.3" font-family="Times New Roman,serif" font-size="14.00">N3240</text>
</g>
<!-- N2&#45;&gt;N3 -->
<g id="edge2" class="edge"><title>N2&#45;&gt;N3</title>
<path fill="none" stroke="black" d="M42.4655,-221.133C28.6787,-215.859 13.6324,-207.357 5.54032,-194 -1.36849,-182.596 -2.08592,-174.937 5.54032,-164 17.13,-147.379 37.5462,-138.63 56.4893,-134.034"/>
<polygon fill="black" stroke="black" points="57.4306,-137.412 66.5003,-131.936 55.9951,-130.561 57.4306,-137.412"/>
<text text-anchor="middle" x="42.0403" y="-182.8" font-family="Times New Roman,serif" font-size="14.00">i3 &lt; i0/</text>
<text text-anchor="middle" x="42.0403" y="-167.8" font-family="Times New Roman,serif" font-size="14.00">i1 = (i2 * i3);</text>
</g>
<!-- N2&#45;&gt;N4 -->
<g id="edge3" class="edge"><title>N2&#45;&gt;N4</title>
<path fill="none" stroke="black" d="M79.4194,-247.664C81.7485,-253.443 84.3205,-259.983 86.5403,-266 91.1648,-278.535 95.9596,-292.562 99.888,-304.368"/>
<polygon fill="black" stroke="black" points="96.6344,-305.677 103.091,-314.077 103.282,-303.484 96.6344,-305.677"/>
<text text-anchor="middle" x="132.04" y="-284.8" font-family="Times New Roman,serif" font-size="14.00">!(i3 &lt; i0)/</text>
<text text-anchor="middle" x="132.04" y="-269.8" font-family="Times New Roman,serif" font-size="14.00">i2 = (i2 + 1);</text>
</g>
<!-- N3&#45;&gt;N1 -->
<g id="edge5" class="edge"><title>N3&#45;&gt;N1</title>
<path fill="none" stroke="black" d="M108.354,-110.26C114.633,-97.0278 123.814,-78.1584 132.54,-62 134.42,-58.5202 136.449,-54.9017 138.496,-51.3336"/>
<polygon fill="black" stroke="black" points="141.531,-53.0765 143.547,-42.6753 135.485,-49.5488 141.531,-53.0765"/>
<text text-anchor="middle" x="156.54" y="-80.8" font-family="Times New Roman,serif" font-size="14.00">i0 == i1/</text>
<text text-anchor="middle" x="156.54" y="-65.8" font-family="Times New Roman,serif" font-size="14.00">return;</text>
</g>
<!-- N3&#45;&gt;N2 -->
<g id="edge4" class="edge"><title>N3&#45;&gt;N2</title>
<path fill="none" stroke="black" d="M95.7672,-146.047C91.4555,-161.446 85.0388,-184.363 80.0417,-202.209"/>
<polygon fill="black" stroke="black" points="76.6161,-201.463 77.2901,-212.036 83.3569,-203.35 76.6161,-201.463"/>
<text text-anchor="middle" x="126.04" y="-182.8" font-family="Times New Roman,serif" font-size="14.00">!(i0 == i1)/</text>
<text text-anchor="middle" x="126.04" y="-167.8" font-family="Times New Roman,serif" font-size="14.00">i3 = (i3 + 1);</text>
</g>
<!-- N4&#45;&gt;N1 -->
<g id="edge7" class="edge"><title>N4&#45;&gt;N1</title>
<path fill="none" stroke="black" d="M137.607,-322.121C150.255,-316.687 163.906,-308.344 171.54,-296 226.285,-207.484 209.804,-161.878 180.54,-62 179.345,-57.9191 177.576,-53.8602 175.523,-49.9883"/>
<polygon fill="black" stroke="black" points="178.498,-48.1433 170.35,-41.371 172.496,-51.7462 178.498,-48.1433"/>
<text text-anchor="middle" x="234.04" y="-182.8" font-family="Times New Roman,serif" font-size="14.00">!(i2 &lt; i0)/</text>
<text text-anchor="middle" x="234.04" y="-167.8" font-family="Times New Roman,serif" font-size="14.00">return;</text>
</g>
<!-- N4&#45;&gt;N2 -->
<g id="edge6" class="edge"><title>N4&#45;&gt;N2</title>
<path fill="none" stroke="black" d="M78.5588,-322.886C65.0688,-317.575 50.4299,-309.114 42.5403,-296 35.6669,-284.575 37.9144,-278.505 42.5403,-266 44.1456,-261.661 46.5558,-257.496 49.3255,-253.649"/>
<polygon fill="black" stroke="black" points="52.1411,-255.735 55.7902,-245.789 46.7348,-251.289 52.1411,-255.735"/>
<text text-anchor="middle" x="62.5403" y="-284.8" font-family="Times New Roman,serif" font-size="14.00">i2 &lt; i0/</text>
<text text-anchor="middle" x="62.5403" y="-269.8" font-family="Times New Roman,serif" font-size="14.00">i3 = 1;</text>
</g>
</g>
</svg>
