<?xml version="1.0" encoding="UTF-8" standalone="no"?>
<!DOCTYPE svg PUBLIC "-//W3C//DTD SVG 1.1//EN"
 "http://www.w3.org/Graphics/SVG/1.1/DTD/svg11.dtd">
<!-- Generated by graphviz version 2.38.0 (20140413.2041)
 -->
<!-- Title: anonymous_graph Pages: 1 -->
<svg width="384pt" height="1459pt"
 viewBox="0.00 0.00 384.00 1459.00" xmlns="http://www.w3.org/2000/svg" xmlns:xlink="http://www.w3.org/1999/xlink">
<g id="graph0" class="graph" transform="scale(1 1) rotate(0) translate(4 1455)">
<title>anonymous_graph</title>
<polygon fill="white" stroke="none" points="-4,4 -4,-1455 380,-1455 380,4 -4,4"/>
<!-- N0 -->
<g id="node1" class="node"><title>N0</title>
<ellipse fill="none" stroke="black" cx="123" cy="-1433" rx="29.4969" ry="18"/>
<text text-anchor="middle" x="123" y="-1429.3" font-family="Times New Roman,serif" font-size="14.00">initial</text>
</g>
<!-- N16 -->
<g id="node17" class="node"><title>N16</title>
<ellipse fill="none" stroke="black" cx="123" cy="-1346" rx="34.394" ry="18"/>
<text text-anchor="middle" x="123" y="-1342.3" font-family="Times New Roman,serif" font-size="14.00">N4358</text>
</g>
<!-- N0&#45;&gt;N16 -->
<g id="edge1" class="edge"><title>N0&#45;&gt;N16</title>
<path fill="none" stroke="black" d="M123,-1414.8C123,-1403.16 123,-1387.55 123,-1374.24"/>
<polygon fill="black" stroke="black" points="126.5,-1374.18 123,-1364.18 119.5,-1374.18 126.5,-1374.18"/>
<text text-anchor="middle" x="141.5" y="-1385.8" font-family="Times New Roman,serif" font-size="14.00">i2 = 2;</text>
</g>
<!-- N1 -->
<g id="node2" class="node"><title>N1</title>
<ellipse fill="none" stroke="black" cx="31" cy="-22" rx="27" ry="18"/>
<ellipse fill="none" stroke="black" cx="31" cy="-22" rx="31" ry="22"/>
<text text-anchor="middle" x="31" y="-18.3" font-family="Times New Roman,serif" font-size="14.00">final</text>
</g>
<!-- N2 -->
<g id="node3" class="node"><title>N2</title>
<ellipse fill="none" stroke="black" cx="123" cy="-563" rx="30.5947" ry="18"/>
<text text-anchor="middle" x="123" y="-559.3" font-family="Times New Roman,serif" font-size="14.00">N258</text>
</g>
<!-- N5 -->
<g id="node6" class="node"><title>N5</title>
<ellipse fill="none" stroke="black" cx="123" cy="-476" rx="34.394" ry="18"/>
<text text-anchor="middle" x="123" y="-472.3" font-family="Times New Roman,serif" font-size="14.00">N1685</text>
</g>
<!-- N2&#45;&gt;N5 -->
<g id="edge2" class="edge"><title>N2&#45;&gt;N5</title>
<path fill="none" stroke="black" d="M123,-544.799C123,-533.163 123,-517.548 123,-504.237"/>
<polygon fill="black" stroke="black" points="126.5,-504.175 123,-494.175 119.5,-504.175 126.5,-504.175"/>
<text text-anchor="middle" x="159.5" y="-515.8" font-family="Times New Roman,serif" font-size="14.00">i1 = (i2 * i3);</text>
</g>
<!-- N3 -->
<g id="node4" class="node"><title>N3</title>
<ellipse fill="none" stroke="black" cx="123" cy="-824" rx="34.394" ry="18"/>
<text text-anchor="middle" x="123" y="-820.3" font-family="Times New Roman,serif" font-size="14.00">N1619</text>
</g>
<!-- N4 -->
<g id="node5" class="node"><title>N4</title>
<ellipse fill="none" stroke="black" cx="123" cy="-737" rx="34.394" ry="18"/>
<text text-anchor="middle" x="123" y="-733.3" font-family="Times New Roman,serif" font-size="14.00">N1620</text>
</g>
<!-- N3&#45;&gt;N4 -->
<g id="edge3" class="edge"><title>N3&#45;&gt;N4</title>
<path fill="none" stroke="black" d="M123,-805.799C123,-794.163 123,-778.548 123,-765.237"/>
<polygon fill="black" stroke="black" points="126.5,-765.175 123,-755.175 119.5,-765.175 126.5,-765.175"/>
<text text-anchor="middle" x="158.5" y="-776.8" font-family="Times New Roman,serif" font-size="14.00">i3 = (i3 + 1);</text>
</g>
<!-- N6 -->
<g id="node7" class="node"><title>N6</title>
<ellipse fill="none" stroke="black" cx="123" cy="-650" rx="34.394" ry="18"/>
<text text-anchor="middle" x="123" y="-646.3" font-family="Times New Roman,serif" font-size="14.00">N1745</text>
</g>
<!-- N4&#45;&gt;N6 -->
<g id="edge4" class="edge"><title>N4&#45;&gt;N6</title>
<path fill="none" stroke="black" d="M123,-718.799C123,-707.163 123,-691.548 123,-678.237"/>
<polygon fill="black" stroke="black" points="126.5,-678.175 123,-668.175 119.5,-678.175 126.5,-678.175"/>
<text text-anchor="middle" x="159.5" y="-689.8" font-family="Times New Roman,serif" font-size="14.00">i1 = (i2 * i3);</text>
</g>
<!-- N8 -->
<g id="node9" class="node"><title>N8</title>
<ellipse fill="none" stroke="black" cx="123" cy="-389" rx="34.394" ry="18"/>
<text text-anchor="middle" x="123" y="-385.3" font-family="Times New Roman,serif" font-size="14.00">N2519</text>
</g>
<!-- N5&#45;&gt;N8 -->
<g id="edge5" class="edge"><title>N5&#45;&gt;N8</title>
<path fill="none" stroke="black" d="M123,-457.799C123,-446.163 123,-430.548 123,-417.237"/>
<polygon fill="black" stroke="black" points="126.5,-417.175 123,-407.175 119.5,-417.175 126.5,-417.175"/>
<text text-anchor="middle" x="158.5" y="-428.8" font-family="Times New Roman,serif" font-size="14.00">i3 = (i3 + 1);</text>
</g>
<!-- N6&#45;&gt;N2 -->
<g id="edge6" class="edge"><title>N6&#45;&gt;N2</title>
<path fill="none" stroke="black" d="M123,-631.799C123,-620.163 123,-604.548 123,-591.237"/>
<polygon fill="black" stroke="black" points="126.5,-591.175 123,-581.175 119.5,-591.175 126.5,-591.175"/>
<text text-anchor="middle" x="158.5" y="-602.8" font-family="Times New Roman,serif" font-size="14.00">i3 = (i3 + 1);</text>
</g>
<!-- N7 -->
<g id="node8" class="node"><title>N7</title>
<ellipse fill="none" stroke="black" cx="123" cy="-1172" rx="34.394" ry="18"/>
<text text-anchor="middle" x="123" y="-1168.3" font-family="Times New Roman,serif" font-size="14.00">N2214</text>
</g>
<!-- N10 -->
<g id="node11" class="node"><title>N10</title>
<ellipse fill="none" stroke="black" cx="123" cy="-1085" rx="34.394" ry="18"/>
<text text-anchor="middle" x="123" y="-1081.3" font-family="Times New Roman,serif" font-size="14.00">N2881</text>
</g>
<!-- N7&#45;&gt;N10 -->
<g id="edge7" class="edge"><title>N7&#45;&gt;N10</title>
<path fill="none" stroke="black" d="M123,-1153.8C123,-1142.16 123,-1126.55 123,-1113.24"/>
<polygon fill="black" stroke="black" points="126.5,-1113.18 123,-1103.18 119.5,-1113.18 126.5,-1113.18"/>
<text text-anchor="middle" x="158.5" y="-1124.8" font-family="Times New Roman,serif" font-size="14.00">i3 = (i3 + 1);</text>
</g>
<!-- N12 -->
<g id="node13" class="node"><title>N12</title>
<ellipse fill="none" stroke="black" cx="123" cy="-302" rx="34.394" ry="18"/>
<text text-anchor="middle" x="123" y="-298.3" font-family="Times New Roman,serif" font-size="14.00">N3852</text>
</g>
<!-- N8&#45;&gt;N12 -->
<g id="edge8" class="edge"><title>N8&#45;&gt;N12</title>
<path fill="none" stroke="black" d="M123,-370.799C123,-359.163 123,-343.548 123,-330.237"/>
<polygon fill="black" stroke="black" points="126.5,-330.175 123,-320.175 119.5,-330.175 126.5,-330.175"/>
<text text-anchor="middle" x="159.5" y="-341.8" font-family="Times New Roman,serif" font-size="14.00">i1 = (i2 * i3);</text>
</g>
<!-- N9 -->
<g id="node10" class="node"><title>N9</title>
<ellipse fill="none" stroke="black" cx="123" cy="-998" rx="34.394" ry="18"/>
<text text-anchor="middle" x="123" y="-994.3" font-family="Times New Roman,serif" font-size="14.00">N2734</text>
</g>
<!-- N17 -->
<g id="node18" class="node"><title>N17</title>
<ellipse fill="none" stroke="black" cx="123" cy="-911" rx="34.394" ry="18"/>
<text text-anchor="middle" x="123" y="-907.3" font-family="Times New Roman,serif" font-size="14.00">N4437</text>
</g>
<!-- N9&#45;&gt;N17 -->
<g id="edge9" class="edge"><title>N9&#45;&gt;N17</title>
<path fill="none" stroke="black" d="M123,-979.799C123,-968.163 123,-952.548 123,-939.237"/>
<polygon fill="black" stroke="black" points="126.5,-939.175 123,-929.175 119.5,-939.175 126.5,-939.175"/>
<text text-anchor="middle" x="158.5" y="-950.8" font-family="Times New Roman,serif" font-size="14.00">i3 = (i3 + 1);</text>
</g>
<!-- N10&#45;&gt;N9 -->
<g id="edge10" class="edge"><title>N10&#45;&gt;N9</title>
<path fill="none" stroke="black" d="M123,-1066.8C123,-1055.16 123,-1039.55 123,-1026.24"/>
<polygon fill="black" stroke="black" points="126.5,-1026.18 123,-1016.18 119.5,-1026.18 126.5,-1026.18"/>
<text text-anchor="middle" x="159.5" y="-1037.8" font-family="Times New Roman,serif" font-size="14.00">i1 = (i2 * i3);</text>
</g>
<!-- N11 -->
<g id="node12" class="node"><title>N11</title>
<ellipse fill="none" stroke="black" cx="123" cy="-128" rx="34.394" ry="18"/>
<text text-anchor="middle" x="123" y="-124.3" font-family="Times New Roman,serif" font-size="14.00">N3240</text>
</g>
<!-- N11&#45;&gt;N1 -->
<g id="edge12" class="edge"><title>N11&#45;&gt;N1</title>
<path fill="none" stroke="black" d="M92.3898,-119.532C76.973,-114.268 59.2209,-105.655 48,-92 39.2853,-81.395 34.9345,-66.9753 32.8005,-54.0597"/>
<polygon fill="black" stroke="black" points="36.27,-53.5978 31.5233,-44.1258 29.3272,-54.4905 36.27,-53.5978"/>
<text text-anchor="middle" x="74.5" y="-80.8" font-family="Times New Roman,serif" font-size="14.00">!(i1 &lt; i0)/</text>
<text text-anchor="middle" x="74.5" y="-65.8" font-family="Times New Roman,serif" font-size="14.00">return;</text>
</g>
<!-- N13 -->
<g id="node14" class="node"><title>N13</title>
<ellipse fill="none" stroke="black" cx="219" cy="-22" rx="34.394" ry="18"/>
<text text-anchor="middle" x="219" y="-18.3" font-family="Times New Roman,serif" font-size="14.00">N3859</text>
</g>
<!-- N11&#45;&gt;N13 -->
<g id="edge11" class="edge"><title>N11&#45;&gt;N13</title>
<path fill="none" stroke="black" d="M153.215,-118.996C168.241,-113.609 185.583,-105.048 197,-92 207.161,-80.3878 212.635,-64.0528 215.582,-50.1914"/>
<polygon fill="black" stroke="black" points="219.055,-50.6541 217.378,-40.1928 212.165,-49.4164 219.055,-50.6541"/>
<text text-anchor="middle" x="248.5" y="-73.3" font-family="Times New Roman,serif" font-size="14.00">i3 = (i3 + 1);</text>
</g>
<!-- N14 -->
<g id="node15" class="node"><title>N14</title>
<ellipse fill="none" stroke="black" cx="123" cy="-215" rx="34.394" ry="18"/>
<text text-anchor="middle" x="123" y="-211.3" font-family="Times New Roman,serif" font-size="14.00">N4075</text>
</g>
<!-- N12&#45;&gt;N14 -->
<g id="edge13" class="edge"><title>N12&#45;&gt;N14</title>
<path fill="none" stroke="black" d="M123,-283.799C123,-272.163 123,-256.548 123,-243.237"/>
<polygon fill="black" stroke="black" points="126.5,-243.175 123,-233.175 119.5,-243.175 126.5,-243.175"/>
<text text-anchor="middle" x="158.5" y="-254.8" font-family="Times New Roman,serif" font-size="14.00">i3 = (i3 + 1);</text>
</g>
<!-- N13&#45;&gt;N11 -->
<g id="edge14" class="edge"><title>N13&#45;&gt;N11</title>
<path fill="none" stroke="black" d="M185.406,-26.5979C162.799,-30.9626 134.555,-40.6223 120,-62 112.55,-72.9428 112.549,-87.4877 114.739,-100.044"/>
<polygon fill="black" stroke="black" points="111.369,-101.012 116.978,-110.001 118.198,-99.4764 111.369,-101.012"/>
<text text-anchor="middle" x="156.5" y="-73.3" font-family="Times New Roman,serif" font-size="14.00">i1 = (i2 * i3);</text>
</g>
<!-- N13&#45;&gt;N16 -->
<g id="edge15" class="edge"><title>N13&#45;&gt;N16</title>
<path fill="none" stroke="black" d="M246.815,-32.6298C261.078,-38.907 277.592,-48.4796 288,-62 306.215,-85.6613 305,-97.1394 305,-127 305,-1260 305,-1260 305,-1260 305,-1320.61 221.115,-1338.1 167.244,-1343.08"/>
<polygon fill="black" stroke="black" points="166.915,-1339.6 157.233,-1343.9 167.484,-1346.58 166.915,-1339.6"/>
<text text-anchor="middle" x="340.5" y="-689.8" font-family="Times New Roman,serif" font-size="14.00">i2 = (i2 + 1);</text>
</g>
<!-- N14&#45;&gt;N11 -->
<g id="edge16" class="edge"><title>N14&#45;&gt;N11</title>
<path fill="none" stroke="black" d="M123,-196.799C123,-185.163 123,-169.548 123,-156.237"/>
<polygon fill="black" stroke="black" points="126.5,-156.175 123,-146.175 119.5,-156.175 126.5,-156.175"/>
<text text-anchor="middle" x="159.5" y="-167.8" font-family="Times New Roman,serif" font-size="14.00">i1 = (i2 * i3);</text>
</g>
<!-- N15 -->
<g id="node16" class="node"><title>N15</title>
<ellipse fill="none" stroke="black" cx="123" cy="-1259" rx="34.394" ry="18"/>
<text text-anchor="middle" x="123" y="-1255.3" font-family="Times New Roman,serif" font-size="14.00">N4137</text>
</g>
<!-- N15&#45;&gt;N7 -->
<g id="edge17" class="edge"><title>N15&#45;&gt;N7</title>
<path fill="none" stroke="black" d="M123,-1240.8C123,-1229.16 123,-1213.55 123,-1200.24"/>
<polygon fill="black" stroke="black" points="126.5,-1200.18 123,-1190.18 119.5,-1200.18 126.5,-1200.18"/>
<text text-anchor="middle" x="159.5" y="-1211.8" font-family="Times New Roman,serif" font-size="14.00">i1 = (i2 * i3);</text>
</g>
<!-- N16&#45;&gt;N1 -->
<g id="edge19" class="edge"><title>N16&#45;&gt;N1</title>
<path fill="none" stroke="black" d="M93.79,-1336.27C61.5029,-1324.61 14,-1300.56 14,-1260 14,-1260 14,-1260 14,-127 14,-102.115 18.7992,-74.3141 23.2978,-53.7211"/>
<polygon fill="black" stroke="black" points="26.715,-54.4777 25.5275,-43.9497 19.8904,-52.9204 26.715,-54.4777"/>
<text text-anchor="middle" x="32.5" y="-689.8" font-family="Times New Roman,serif" font-size="14.00">return;</text>
</g>
<!-- N16&#45;&gt;N15 -->
<g id="edge18" class="edge"><title>N16&#45;&gt;N15</title>
<path fill="none" stroke="black" d="M123,-1327.8C123,-1316.16 123,-1300.55 123,-1287.24"/>
<polygon fill="black" stroke="black" points="126.5,-1287.18 123,-1277.18 119.5,-1287.18 126.5,-1287.18"/>
<text text-anchor="middle" x="141.5" y="-1298.8" font-family="Times New Roman,serif" font-size="14.00">i3 = 1;</text>
</g>
<!-- N17&#45;&gt;N3 -->
<g id="edge20" class="edge"><title>N17&#45;&gt;N3</title>
<path fill="none" stroke="black" d="M123,-892.799C123,-881.163 123,-865.548 123,-852.237"/>
<polygon fill="black" stroke="black" points="126.5,-852.175 123,-842.175 119.5,-852.175 126.5,-852.175"/>
<text text-anchor="middle" x="159.5" y="-863.8" font-family="Times New Roman,serif" font-size="14.00">i1 = (i2 * i3);</text>
</g>
</g>
</svg>
