<?xml version="1.0" encoding="UTF-8" standalone="no"?>
<!DOCTYPE svg PUBLIC "-//W3C//DTD SVG 1.1//EN"
 "http://www.w3.org/Graphics/SVG/1.1/DTD/svg11.dtd">
<!-- Generated by graphviz version 2.38.0 (20140413.2041)
 -->
<!-- Title: anonymous_graph Pages: 1 -->
<svg width="299pt" height="1183pt"
 viewBox="0.00 0.00 299.25 1183.00" xmlns="http://www.w3.org/2000/svg" xmlns:xlink="http://www.w3.org/1999/xlink">
<g id="graph0" class="graph" transform="scale(1 1) rotate(0) translate(4 1179)">
<title>anonymous_graph</title>
<polygon fill="white" stroke="none" points="-4,4 -4,-1179 295.247,-1179 295.247,4 -4,4"/>
<!-- N0 -->
<g id="node1" class="node"><title>N0</title>
<ellipse fill="none" stroke="black" cx="29.2474" cy="-1157" rx="29.4969" ry="18"/>
<text text-anchor="middle" x="29.2474" y="-1153.3" font-family="Times New Roman,serif" font-size="14.00">initial</text>
</g>
<!-- N2 -->
<g id="node3" class="node"><title>N2</title>
<ellipse fill="none" stroke="black" cx="29.2474" cy="-1070" rx="27" ry="18"/>
<text text-anchor="middle" x="29.2474" y="-1066.3" font-family="Times New Roman,serif" font-size="14.00">N1</text>
</g>
<!-- N0&#45;&gt;N2 -->
<g id="edge1" class="edge"><title>N0&#45;&gt;N2</title>
<path fill="none" stroke="black" d="M29.2474,-1138.8C29.2474,-1127.16 29.2474,-1111.55 29.2474,-1098.24"/>
<polygon fill="black" stroke="black" points="32.7475,-1098.18 29.2474,-1088.18 25.7475,-1098.18 32.7475,-1098.18"/>
<text text-anchor="middle" x="47.7474" y="-1109.8" font-family="Times New Roman,serif" font-size="14.00">i1 = 1;</text>
</g>
<!-- N1 -->
<g id="node2" class="node"><title>N1</title>
<ellipse fill="none" stroke="black" cx="111.247" cy="-22" rx="27" ry="18"/>
<ellipse fill="none" stroke="black" cx="111.247" cy="-22" rx="31" ry="22"/>
<text text-anchor="middle" x="111.247" y="-18.3" font-family="Times New Roman,serif" font-size="14.00">final</text>
</g>
<!-- N3 -->
<g id="node4" class="node"><title>N3</title>
<ellipse fill="none" stroke="black" cx="29.2474" cy="-983" rx="27" ry="18"/>
<text text-anchor="middle" x="29.2474" y="-979.3" font-family="Times New Roman,serif" font-size="14.00">N2</text>
</g>
<!-- N2&#45;&gt;N3 -->
<g id="edge2" class="edge"><title>N2&#45;&gt;N3</title>
<path fill="none" stroke="black" d="M29.2474,-1051.8C29.2474,-1040.16 29.2474,-1024.55 29.2474,-1011.24"/>
<polygon fill="black" stroke="black" points="32.7475,-1011.18 29.2474,-1001.18 25.7475,-1011.18 32.7475,-1011.18"/>
<text text-anchor="middle" x="47.7474" y="-1022.8" font-family="Times New Roman,serif" font-size="14.00">i2 = 1;</text>
</g>
<!-- N4 -->
<g id="node5" class="node"><title>N4</title>
<ellipse fill="none" stroke="black" cx="29.2474" cy="-896" rx="27" ry="18"/>
<text text-anchor="middle" x="29.2474" y="-892.3" font-family="Times New Roman,serif" font-size="14.00">N3</text>
</g>
<!-- N3&#45;&gt;N4 -->
<g id="edge3" class="edge"><title>N3&#45;&gt;N4</title>
<path fill="none" stroke="black" d="M29.2474,-964.799C29.2474,-953.163 29.2474,-937.548 29.2474,-924.237"/>
<polygon fill="black" stroke="black" points="32.7475,-924.175 29.2474,-914.175 25.7475,-924.175 32.7475,-924.175"/>
<text text-anchor="middle" x="65.7474" y="-935.8" font-family="Times New Roman,serif" font-size="14.00">i1 = (i1 * i2);</text>
</g>
<!-- N5 -->
<g id="node6" class="node"><title>N5</title>
<ellipse fill="none" stroke="black" cx="29.2474" cy="-809" rx="27" ry="18"/>
<text text-anchor="middle" x="29.2474" y="-805.3" font-family="Times New Roman,serif" font-size="14.00">N4</text>
</g>
<!-- N4&#45;&gt;N5 -->
<g id="edge4" class="edge"><title>N4&#45;&gt;N5</title>
<path fill="none" stroke="black" d="M29.2474,-877.799C29.2474,-866.163 29.2474,-850.548 29.2474,-837.237"/>
<polygon fill="black" stroke="black" points="32.7475,-837.175 29.2474,-827.175 25.7475,-837.175 32.7475,-837.175"/>
<text text-anchor="middle" x="64.7474" y="-848.8" font-family="Times New Roman,serif" font-size="14.00">i2 = (i2 + 1);</text>
</g>
<!-- N5&#45;&gt;N1 -->
<g id="edge6" class="edge"><title>N5&#45;&gt;N1</title>
<path fill="none" stroke="black" d="M22.2865,-791.395C15.8412,-774.495 7.2474,-747.389 7.2474,-723 7.2474,-723 7.2474,-723 7.2474,-112 7.2474,-75.5457 44.5892,-50.8232 74.5215,-36.8619"/>
<polygon fill="black" stroke="black" points="76.1916,-39.9504 83.9226,-32.706 73.3613,-33.5481 76.1916,-39.9504"/>
<text text-anchor="middle" x="25.7474" y="-413.8" font-family="Times New Roman,serif" font-size="14.00">return;</text>
</g>
<!-- N6 -->
<g id="node7" class="node"><title>N6</title>
<ellipse fill="none" stroke="black" cx="62.2474" cy="-722" rx="27" ry="18"/>
<text text-anchor="middle" x="62.2474" y="-718.3" font-family="Times New Roman,serif" font-size="14.00">N5</text>
</g>
<!-- N5&#45;&gt;N6 -->
<g id="edge5" class="edge"><title>N5&#45;&gt;N6</title>
<path fill="none" stroke="black" d="M35.7671,-791.207C40.4225,-779.216 46.7758,-762.851 52.0923,-749.157"/>
<polygon fill="black" stroke="black" points="55.3847,-750.347 55.7412,-739.758 48.8592,-747.814 55.3847,-750.347"/>
<text text-anchor="middle" x="83.7474" y="-761.8" font-family="Times New Roman,serif" font-size="14.00">i1 = (i1 * i2);</text>
</g>
<!-- N7 -->
<g id="node8" class="node"><title>N7</title>
<ellipse fill="none" stroke="black" cx="62.2474" cy="-635" rx="27" ry="18"/>
<text text-anchor="middle" x="62.2474" y="-631.3" font-family="Times New Roman,serif" font-size="14.00">N6</text>
</g>
<!-- N6&#45;&gt;N7 -->
<g id="edge7" class="edge"><title>N6&#45;&gt;N7</title>
<path fill="none" stroke="black" d="M62.2474,-703.799C62.2474,-692.163 62.2474,-676.548 62.2474,-663.237"/>
<polygon fill="black" stroke="black" points="65.7475,-663.175 62.2474,-653.175 58.7475,-663.175 65.7475,-663.175"/>
<text text-anchor="middle" x="97.7474" y="-674.8" font-family="Times New Roman,serif" font-size="14.00">i2 = (i2 + 1);</text>
</g>
<!-- N7&#45;&gt;N1 -->
<g id="edge9" class="edge"><title>N7&#45;&gt;N1</title>
<path fill="none" stroke="black" d="M61.2817,-616.75C60.4047,-599.581 59.2474,-572.478 59.2474,-549 59.2474,-549 59.2474,-549 59.2474,-112 59.2474,-88.0089 73.508,-64.7377 87.0932,-48.0117"/>
<polygon fill="black" stroke="black" points="89.804,-50.227 93.6426,-40.352 84.4836,-45.6779 89.804,-50.227"/>
<text text-anchor="middle" x="77.7474" y="-326.8" font-family="Times New Roman,serif" font-size="14.00">return;</text>
</g>
<!-- N8 -->
<g id="node9" class="node"><title>N8</title>
<ellipse fill="none" stroke="black" cx="114.247" cy="-548" rx="27" ry="18"/>
<text text-anchor="middle" x="114.247" y="-544.3" font-family="Times New Roman,serif" font-size="14.00">N7</text>
</g>
<!-- N7&#45;&gt;N8 -->
<g id="edge8" class="edge"><title>N7&#45;&gt;N8</title>
<path fill="none" stroke="black" d="M72.0282,-618.012C79.6545,-605.546 90.3805,-588.013 99.1127,-573.739"/>
<polygon fill="black" stroke="black" points="102.277,-575.273 104.51,-564.916 96.3062,-571.62 102.277,-575.273"/>
<text text-anchor="middle" x="127.747" y="-587.8" font-family="Times New Roman,serif" font-size="14.00">i1 = (i1 * i2);</text>
</g>
<!-- N9 -->
<g id="node10" class="node"><title>N9</title>
<ellipse fill="none" stroke="black" cx="114.247" cy="-461" rx="27" ry="18"/>
<text text-anchor="middle" x="114.247" y="-457.3" font-family="Times New Roman,serif" font-size="14.00">N8</text>
</g>
<!-- N8&#45;&gt;N9 -->
<g id="edge10" class="edge"><title>N8&#45;&gt;N9</title>
<path fill="none" stroke="black" d="M114.247,-529.799C114.247,-518.163 114.247,-502.548 114.247,-489.237"/>
<polygon fill="black" stroke="black" points="117.748,-489.175 114.247,-479.175 110.748,-489.175 117.748,-489.175"/>
<text text-anchor="middle" x="149.747" y="-500.8" font-family="Times New Roman,serif" font-size="14.00">i2 = (i2 + 1);</text>
</g>
<!-- N9&#45;&gt;N1 -->
<g id="edge11" class="edge"><title>N9&#45;&gt;N1</title>
<path fill="none" stroke="black" d="M113.282,-442.75C112.405,-425.581 111.247,-398.478 111.247,-375 111.247,-375 111.247,-375 111.247,-112 111.247,-92.9875 111.247,-71.6905 111.247,-54.6974"/>
<polygon fill="black" stroke="black" points="114.748,-54.2193 111.247,-44.2193 107.748,-54.2194 114.748,-54.2193"/>
<text text-anchor="middle" x="129.747" y="-239.8" font-family="Times New Roman,serif" font-size="14.00">return;</text>
</g>
<!-- N10 -->
<g id="node11" class="node"><title>N10</title>
<ellipse fill="none" stroke="black" cx="166.247" cy="-374" rx="27" ry="18"/>
<text text-anchor="middle" x="166.247" y="-370.3" font-family="Times New Roman,serif" font-size="14.00">N9</text>
</g>
<!-- N9&#45;&gt;N10 -->
<g id="edge12" class="edge"><title>N9&#45;&gt;N10</title>
<path fill="none" stroke="black" d="M124.028,-444.012C131.654,-431.546 142.38,-414.013 151.113,-399.739"/>
<polygon fill="black" stroke="black" points="154.277,-401.273 156.51,-390.916 148.306,-397.62 154.277,-401.273"/>
<text text-anchor="middle" x="179.747" y="-413.8" font-family="Times New Roman,serif" font-size="14.00">i1 = (i1 * i2);</text>
</g>
<!-- N11 -->
<g id="node12" class="node"><title>N11</title>
<ellipse fill="none" stroke="black" cx="166.247" cy="-287" rx="27" ry="18"/>
<text text-anchor="middle" x="166.247" y="-283.3" font-family="Times New Roman,serif" font-size="14.00">N10</text>
</g>
<!-- N10&#45;&gt;N11 -->
<g id="edge13" class="edge"><title>N10&#45;&gt;N11</title>
<path fill="none" stroke="black" d="M166.247,-355.799C166.247,-344.163 166.247,-328.548 166.247,-315.237"/>
<polygon fill="black" stroke="black" points="169.748,-315.175 166.247,-305.175 162.748,-315.175 169.748,-315.175"/>
<text text-anchor="middle" x="201.747" y="-326.8" font-family="Times New Roman,serif" font-size="14.00">i2 = (i2 + 1);</text>
</g>
<!-- N11&#45;&gt;N1 -->
<g id="edge14" class="edge"><title>N11&#45;&gt;N1</title>
<path fill="none" stroke="black" d="M164.095,-268.929C159.125,-231.187 145.689,-137.973 125.247,-62 124.451,-59.0389 123.531,-55.9827 122.552,-52.9451"/>
<polygon fill="black" stroke="black" points="125.849,-51.7705 119.297,-43.4449 119.227,-54.0395 125.849,-51.7705"/>
<text text-anchor="middle" x="165.747" y="-152.8" font-family="Times New Roman,serif" font-size="14.00">return;</text>
</g>
<!-- N12 -->
<g id="node13" class="node"><title>N12</title>
<ellipse fill="none" stroke="black" cx="221.247" cy="-200" rx="27" ry="18"/>
<text text-anchor="middle" x="221.247" y="-196.3" font-family="Times New Roman,serif" font-size="14.00">N11</text>
</g>
<!-- N11&#45;&gt;N12 -->
<g id="edge15" class="edge"><title>N11&#45;&gt;N12</title>
<path fill="none" stroke="black" d="M176.592,-270.012C184.736,-257.427 196.22,-239.679 205.503,-225.333"/>
<polygon fill="black" stroke="black" points="208.455,-227.213 210.949,-216.916 202.578,-223.41 208.455,-227.213"/>
<text text-anchor="middle" x="232.747" y="-239.8" font-family="Times New Roman,serif" font-size="14.00">i1 = (i1 * i2);</text>
</g>
<!-- N13 -->
<g id="node14" class="node"><title>N13</title>
<ellipse fill="none" stroke="black" cx="220.247" cy="-113" rx="27" ry="18"/>
<text text-anchor="middle" x="220.247" y="-109.3" font-family="Times New Roman,serif" font-size="14.00">N12</text>
</g>
<!-- N12&#45;&gt;N13 -->
<g id="edge16" class="edge"><title>N12&#45;&gt;N13</title>
<path fill="none" stroke="black" d="M221.045,-181.799C220.908,-170.163 220.724,-154.548 220.568,-141.237"/>
<polygon fill="black" stroke="black" points="224.067,-141.134 220.449,-131.175 217.067,-141.216 224.067,-141.134"/>
<text text-anchor="middle" x="255.747" y="-152.8" font-family="Times New Roman,serif" font-size="14.00">i2 = (i2 + 1);</text>
</g>
<!-- N13&#45;&gt;N1 -->
<g id="edge17" class="edge"><title>N13&#45;&gt;N1</title>
<path fill="none" stroke="black" d="M208.983,-96.3892C200.91,-85.8806 189.361,-72.1436 177.247,-62 167.522,-53.8558 155.889,-46.3699 145.118,-40.1811"/>
<polygon fill="black" stroke="black" points="146.775,-37.0978 136.333,-35.3015 143.376,-43.2171 146.775,-37.0978"/>
<text text-anchor="middle" x="209.747" y="-65.8" font-family="Times New Roman,serif" font-size="14.00">return;</text>
</g>
</g>
</svg>
