<?xml version="1.0" encoding="UTF-8" standalone="no"?>
<!DOCTYPE svg PUBLIC "-//W3C//DTD SVG 1.1//EN"
 "http://www.w3.org/Graphics/SVG/1.1/DTD/svg11.dtd">
<!-- Generated by graphviz version 2.38.0 (20140413.2041)
 -->
<!-- Title: anonymous_graph Pages: 1 -->
<svg width="889pt" height="1981pt"
 viewBox="0.00 0.00 889.45 1981.00" xmlns="http://www.w3.org/2000/svg" xmlns:xlink="http://www.w3.org/1999/xlink">
<g id="graph0" class="graph" transform="scale(1 1) rotate(0) translate(4 1977)">
<title>anonymous_graph</title>
<polygon fill="white" stroke="none" points="-4,4 -4,-1977 885.447,-1977 885.447,4 -4,4"/>
<!-- N0 -->
<g id="node1" class="node"><title>N0</title>
<ellipse fill="none" stroke="black" cx="130.447" cy="-1955" rx="29.4969" ry="18"/>
<text text-anchor="middle" x="130.447" y="-1951.3" font-family="Times New Roman,serif" font-size="14.00">initial</text>
</g>
<!-- N29 -->
<g id="node30" class="node"><title>N29</title>
<ellipse fill="none" stroke="black" cx="130.447" cy="-1868" rx="34.394" ry="18"/>
<text text-anchor="middle" x="130.447" y="-1864.3" font-family="Times New Roman,serif" font-size="14.00">N4358</text>
</g>
<!-- N0&#45;&gt;N29 -->
<g id="edge1" class="edge"><title>N0&#45;&gt;N29</title>
<path fill="none" stroke="black" d="M130.447,-1936.8C130.447,-1925.16 130.447,-1909.55 130.447,-1896.24"/>
<polygon fill="black" stroke="black" points="133.947,-1896.18 130.447,-1886.18 126.947,-1896.18 133.947,-1896.18"/>
<text text-anchor="middle" x="148.947" y="-1907.8" font-family="Times New Roman,serif" font-size="14.00">i2 = 2;</text>
</g>
<!-- N1 -->
<g id="node2" class="node"><title>N1</title>
<ellipse fill="none" stroke="black" cx="792.447" cy="-544" rx="27" ry="18"/>
<ellipse fill="none" stroke="black" cx="792.447" cy="-544" rx="31" ry="22"/>
<text text-anchor="middle" x="792.447" y="-540.3" font-family="Times New Roman,serif" font-size="14.00">final</text>
</g>
<!-- N2 -->
<g id="node3" class="node"><title>N2</title>
<ellipse fill="none" stroke="black" cx="699.447" cy="-544" rx="30.5947" ry="18"/>
<text text-anchor="middle" x="699.447" y="-540.3" font-family="Times New Roman,serif" font-size="14.00">N202</text>
</g>
<!-- N23 -->
<g id="node24" class="node"><title>N23</title>
<ellipse fill="none" stroke="black" cx="722.447" cy="-453" rx="34.394" ry="18"/>
<text text-anchor="middle" x="722.447" y="-449.3" font-family="Times New Roman,serif" font-size="14.00">N3782</text>
</g>
<!-- N2&#45;&gt;N23 -->
<g id="edge2" class="edge"><title>N2&#45;&gt;N23</title>
<path fill="none" stroke="black" d="M703.882,-525.84C707.159,-513.158 711.686,-495.64 715.449,-481.077"/>
<polygon fill="black" stroke="black" points="718.912,-481.665 718.026,-471.107 712.135,-479.914 718.912,-481.665"/>
<text text-anchor="middle" x="748.947" y="-492.8" font-family="Times New Roman,serif" font-size="14.00">i1 = (i2 * i3);</text>
</g>
<!-- N3 -->
<g id="node4" class="node"><title>N3</title>
<ellipse fill="none" stroke="black" cx="41.4469" cy="-1085" rx="30.5947" ry="18"/>
<text text-anchor="middle" x="41.4469" y="-1081.3" font-family="Times New Roman,serif" font-size="14.00">N258</text>
</g>
<!-- N8 -->
<g id="node9" class="node"><title>N8</title>
<ellipse fill="none" stroke="black" cx="42.4469" cy="-998" rx="34.394" ry="18"/>
<text text-anchor="middle" x="42.4469" y="-994.3" font-family="Times New Roman,serif" font-size="14.00">N1685</text>
</g>
<!-- N3&#45;&gt;N8 -->
<g id="edge3" class="edge"><title>N3&#45;&gt;N8</title>
<path fill="none" stroke="black" d="M41.6493,-1066.8C41.7862,-1055.16 41.9699,-1039.55 42.1265,-1026.24"/>
<polygon fill="black" stroke="black" points="45.6269,-1026.22 42.2449,-1016.18 38.6274,-1026.13 45.6269,-1026.22"/>
<text text-anchor="middle" x="78.9469" y="-1037.8" font-family="Times New Roman,serif" font-size="14.00">i1 = (i2 * i3);</text>
</g>
<!-- N4 -->
<g id="node5" class="node"><title>N4</title>
<ellipse fill="none" stroke="black" cx="278.447" cy="-453" rx="34.394" ry="18"/>
<text text-anchor="middle" x="278.447" y="-449.3" font-family="Times New Roman,serif" font-size="14.00">N1203</text>
</g>
<!-- N5 -->
<g id="node6" class="node"><title>N5</title>
<ellipse fill="none" stroke="black" cx="328.447" cy="-366" rx="34.394" ry="18"/>
<text text-anchor="middle" x="328.447" y="-362.3" font-family="Times New Roman,serif" font-size="14.00">N1266</text>
</g>
<!-- N4&#45;&gt;N5 -->
<g id="edge4" class="edge"><title>N4&#45;&gt;N5</title>
<path fill="none" stroke="black" d="M278.245,-434.804C278.82,-424.671 280.795,-411.933 286.447,-402 289.651,-396.37 294.132,-391.254 298.981,-386.778"/>
<polygon fill="black" stroke="black" points="301.328,-389.379 306.773,-380.29 296.849,-383.999 301.328,-389.379"/>
<text text-anchor="middle" x="321.947" y="-405.8" font-family="Times New Roman,serif" font-size="14.00">i3 = (i3 + 1);</text>
</g>
<!-- N20 -->
<g id="node21" class="node"><title>N20</title>
<ellipse fill="none" stroke="black" cx="472.447" cy="-650" rx="34.394" ry="18"/>
<text text-anchor="middle" x="472.447" y="-646.3" font-family="Times New Roman,serif" font-size="14.00">N3240</text>
</g>
<!-- N5&#45;&gt;N20 -->
<g id="edge5" class="edge"><title>N5&#45;&gt;N20</title>
<path fill="none" stroke="black" d="M343.362,-382.465C348.353,-388.251 353.616,-395.101 357.447,-402 380.643,-443.778 372.154,-460.282 391.447,-504 410.692,-547.61 438.859,-595.362 456.4,-623.721"/>
<polygon fill="black" stroke="black" points="453.651,-625.928 461.913,-632.561 459.591,-622.224 453.651,-625.928"/>
<text text-anchor="middle" x="427.947" y="-492.8" font-family="Times New Roman,serif" font-size="14.00">i1 = (i2 * i3);</text>
</g>
<!-- N6 -->
<g id="node7" class="node"><title>N6</title>
<ellipse fill="none" stroke="black" cx="35.4469" cy="-1346" rx="34.394" ry="18"/>
<text text-anchor="middle" x="35.4469" y="-1342.3" font-family="Times New Roman,serif" font-size="14.00">N1619</text>
</g>
<!-- N7 -->
<g id="node8" class="node"><title>N7</title>
<ellipse fill="none" stroke="black" cx="34.4469" cy="-1259" rx="34.394" ry="18"/>
<text text-anchor="middle" x="34.4469" y="-1255.3" font-family="Times New Roman,serif" font-size="14.00">N1620</text>
</g>
<!-- N6&#45;&gt;N7 -->
<g id="edge6" class="edge"><title>N6&#45;&gt;N7</title>
<path fill="none" stroke="black" d="M35.2446,-1327.8C35.1077,-1316.16 34.924,-1300.55 34.7674,-1287.24"/>
<polygon fill="black" stroke="black" points="38.2665,-1287.13 34.649,-1277.18 31.267,-1287.22 38.2665,-1287.13"/>
<text text-anchor="middle" x="70.9469" y="-1298.8" font-family="Times New Roman,serif" font-size="14.00">i3 = (i3 + 1);</text>
</g>
<!-- N9 -->
<g id="node10" class="node"><title>N9</title>
<ellipse fill="none" stroke="black" cx="35.4469" cy="-1172" rx="34.394" ry="18"/>
<text text-anchor="middle" x="35.4469" y="-1168.3" font-family="Times New Roman,serif" font-size="14.00">N1745</text>
</g>
<!-- N7&#45;&gt;N9 -->
<g id="edge7" class="edge"><title>N7&#45;&gt;N9</title>
<path fill="none" stroke="black" d="M34.6493,-1240.8C34.7862,-1229.16 34.9699,-1213.55 35.1265,-1200.24"/>
<polygon fill="black" stroke="black" points="38.6269,-1200.22 35.2449,-1190.18 31.6274,-1200.13 38.6269,-1200.22"/>
<text text-anchor="middle" x="71.9469" y="-1211.8" font-family="Times New Roman,serif" font-size="14.00">i1 = (i2 * i3);</text>
</g>
<!-- N13 -->
<g id="node14" class="node"><title>N13</title>
<ellipse fill="none" stroke="black" cx="42.4469" cy="-911" rx="34.394" ry="18"/>
<text text-anchor="middle" x="42.4469" y="-907.3" font-family="Times New Roman,serif" font-size="14.00">N2519</text>
</g>
<!-- N8&#45;&gt;N13 -->
<g id="edge8" class="edge"><title>N8&#45;&gt;N13</title>
<path fill="none" stroke="black" d="M42.4469,-979.799C42.4469,-968.163 42.4469,-952.548 42.4469,-939.237"/>
<polygon fill="black" stroke="black" points="45.947,-939.175 42.4469,-929.175 38.947,-939.175 45.947,-939.175"/>
<text text-anchor="middle" x="77.9469" y="-950.8" font-family="Times New Roman,serif" font-size="14.00">i3 = (i3 + 1);</text>
</g>
<!-- N9&#45;&gt;N3 -->
<g id="edge9" class="edge"><title>N9&#45;&gt;N3</title>
<path fill="none" stroke="black" d="M36.6611,-1153.8C37.4825,-1142.16 38.5847,-1126.55 39.5243,-1113.24"/>
<polygon fill="black" stroke="black" points="43.0217,-1113.4 40.2346,-1103.18 36.039,-1112.9 43.0217,-1113.4"/>
<text text-anchor="middle" x="74.9469" y="-1124.8" font-family="Times New Roman,serif" font-size="14.00">i3 = (i3 + 1);</text>
</g>
<!-- N10 -->
<g id="node11" class="node"><title>N10</title>
<ellipse fill="none" stroke="black" cx="470.447" cy="-453" rx="34.394" ry="18"/>
<text text-anchor="middle" x="470.447" y="-449.3" font-family="Times New Roman,serif" font-size="14.00">N1929</text>
</g>
<!-- N15 -->
<g id="node16" class="node"><title>N15</title>
<ellipse fill="none" stroke="black" cx="517.447" cy="-366" rx="34.394" ry="18"/>
<text text-anchor="middle" x="517.447" y="-362.3" font-family="Times New Roman,serif" font-size="14.00">N2537</text>
</g>
<!-- N10&#45;&gt;N15 -->
<g id="edge10" class="edge"><title>N10&#45;&gt;N15</title>
<path fill="none" stroke="black" d="M470.378,-434.878C471,-424.771 472.978,-412.035 478.447,-402 481.292,-396.78 485.225,-391.945 489.507,-387.638"/>
<polygon fill="black" stroke="black" points="491.86,-390.228 496.908,-380.913 487.153,-385.047 491.86,-390.228"/>
<text text-anchor="middle" x="513.947" y="-405.8" font-family="Times New Roman,serif" font-size="14.00">i3 = (i3 + 1);</text>
</g>
<!-- N11 -->
<g id="node12" class="node"><title>N11</title>
<ellipse fill="none" stroke="black" cx="301.447" cy="-544" rx="34.394" ry="18"/>
<text text-anchor="middle" x="301.447" y="-540.3" font-family="Times New Roman,serif" font-size="14.00">N2087</text>
</g>
<!-- N11&#45;&gt;N4 -->
<g id="edge11" class="edge"><title>N11&#45;&gt;N4</title>
<path fill="none" stroke="black" d="M288.225,-526.948C283.542,-520.274 278.844,-512.181 276.447,-504 274.322,-496.747 273.872,-488.649 274.204,-481.118"/>
<polygon fill="black" stroke="black" points="277.705,-481.267 275.102,-470.996 270.732,-480.648 277.705,-481.267"/>
<text text-anchor="middle" x="312.947" y="-492.8" font-family="Times New Roman,serif" font-size="14.00">i1 = (i2 * i3);</text>
</g>
<!-- N12 -->
<g id="node13" class="node"><title>N12</title>
<ellipse fill="none" stroke="black" cx="36.4469" cy="-1694" rx="34.394" ry="18"/>
<text text-anchor="middle" x="36.4469" y="-1690.3" font-family="Times New Roman,serif" font-size="14.00">N2214</text>
</g>
<!-- N18 -->
<g id="node19" class="node"><title>N18</title>
<ellipse fill="none" stroke="black" cx="35.4469" cy="-1607" rx="34.394" ry="18"/>
<text text-anchor="middle" x="35.4469" y="-1603.3" font-family="Times New Roman,serif" font-size="14.00">N2881</text>
</g>
<!-- N12&#45;&gt;N18 -->
<g id="edge12" class="edge"><title>N12&#45;&gt;N18</title>
<path fill="none" stroke="black" d="M36.2446,-1675.8C36.1077,-1664.16 35.924,-1648.55 35.7674,-1635.24"/>
<polygon fill="black" stroke="black" points="39.2665,-1635.13 35.649,-1625.18 32.267,-1635.22 39.2665,-1635.13"/>
<text text-anchor="middle" x="71.9469" y="-1646.8" font-family="Times New Roman,serif" font-size="14.00">i3 = (i3 + 1);</text>
</g>
<!-- N24 -->
<g id="node25" class="node"><title>N24</title>
<ellipse fill="none" stroke="black" cx="42.4469" cy="-824" rx="34.394" ry="18"/>
<text text-anchor="middle" x="42.4469" y="-820.3" font-family="Times New Roman,serif" font-size="14.00">N3852</text>
</g>
<!-- N13&#45;&gt;N24 -->
<g id="edge13" class="edge"><title>N13&#45;&gt;N24</title>
<path fill="none" stroke="black" d="M42.4469,-892.799C42.4469,-881.163 42.4469,-865.548 42.4469,-852.237"/>
<polygon fill="black" stroke="black" points="45.947,-852.175 42.4469,-842.175 38.947,-852.175 45.947,-852.175"/>
<text text-anchor="middle" x="78.9469" y="-863.8" font-family="Times New Roman,serif" font-size="14.00">i1 = (i2 * i3);</text>
</g>
<!-- N14 -->
<g id="node15" class="node"><title>N14</title>
<ellipse fill="none" stroke="black" cx="469.447" cy="-544" rx="34.394" ry="18"/>
<text text-anchor="middle" x="469.447" y="-540.3" font-family="Times New Roman,serif" font-size="14.00">N2535</text>
</g>
<!-- N14&#45;&gt;N10 -->
<g id="edge14" class="edge"><title>N14&#45;&gt;N10</title>
<path fill="none" stroke="black" d="M468.722,-525.973C468.371,-515.342 468.094,-501.372 468.447,-489 468.52,-486.445 468.623,-483.786 468.744,-481.126"/>
<polygon fill="black" stroke="black" points="472.242,-481.252 469.275,-471.081 465.252,-480.883 472.242,-481.252"/>
<text text-anchor="middle" x="504.947" y="-492.8" font-family="Times New Roman,serif" font-size="14.00">i1 = (i2 * i3);</text>
</g>
<!-- N15&#45;&gt;N20 -->
<g id="edge15" class="edge"><title>N15&#45;&gt;N20</title>
<path fill="none" stroke="black" d="M535.294,-381.6C540.933,-387.305 546.467,-394.325 549.447,-402 566.499,-445.922 571.956,-574.387 546.447,-614 538.905,-625.712 526.291,-633.586 513.593,-638.844"/>
<polygon fill="black" stroke="black" points="512.137,-635.65 503.95,-642.376 514.544,-642.223 512.137,-635.65"/>
<text text-anchor="middle" x="600.947" y="-492.8" font-family="Times New Roman,serif" font-size="14.00">i1 = (i2 * i3);</text>
</g>
<!-- N16 -->
<g id="node17" class="node"><title>N16</title>
<ellipse fill="none" stroke="black" cx="675.447" cy="-18" rx="34.394" ry="18"/>
<text text-anchor="middle" x="675.447" y="-14.3" font-family="Times New Roman,serif" font-size="14.00">N2603</text>
</g>
<!-- N16&#45;&gt;N20 -->
<g id="edge16" class="edge"><title>N16&#45;&gt;N20</title>
<path fill="none" stroke="black" d="M667.721,-35.8613C660.705,-52.7345 651.447,-79.6191 651.447,-104 651.447,-454 651.447,-454 651.447,-454 651.447,-534.523 629.21,-563.554 566.447,-614 551.356,-626.129 531.644,-634.325 514.17,-639.715"/>
<polygon fill="black" stroke="black" points="512.842,-636.455 504.192,-642.574 514.77,-643.184 512.842,-636.455"/>
<text text-anchor="middle" x="687.947" y="-318.8" font-family="Times New Roman,serif" font-size="14.00">i1 = (i2 * i3);</text>
</g>
<!-- N17 -->
<g id="node18" class="node"><title>N17</title>
<ellipse fill="none" stroke="black" cx="35.4469" cy="-1520" rx="34.394" ry="18"/>
<text text-anchor="middle" x="35.4469" y="-1516.3" font-family="Times New Roman,serif" font-size="14.00">N2734</text>
</g>
<!-- N30 -->
<g id="node31" class="node"><title>N30</title>
<ellipse fill="none" stroke="black" cx="35.4469" cy="-1433" rx="34.394" ry="18"/>
<text text-anchor="middle" x="35.4469" y="-1429.3" font-family="Times New Roman,serif" font-size="14.00">N4437</text>
</g>
<!-- N17&#45;&gt;N30 -->
<g id="edge17" class="edge"><title>N17&#45;&gt;N30</title>
<path fill="none" stroke="black" d="M35.4469,-1501.8C35.4469,-1490.16 35.4469,-1474.55 35.4469,-1461.24"/>
<polygon fill="black" stroke="black" points="38.947,-1461.18 35.4469,-1451.18 31.947,-1461.18 38.947,-1461.18"/>
<text text-anchor="middle" x="70.9469" y="-1472.8" font-family="Times New Roman,serif" font-size="14.00">i3 = (i3 + 1);</text>
</g>
<!-- N18&#45;&gt;N17 -->
<g id="edge18" class="edge"><title>N18&#45;&gt;N17</title>
<path fill="none" stroke="black" d="M35.4469,-1588.8C35.4469,-1577.16 35.4469,-1561.55 35.4469,-1548.24"/>
<polygon fill="black" stroke="black" points="38.947,-1548.18 35.4469,-1538.18 31.947,-1548.18 38.947,-1548.18"/>
<text text-anchor="middle" x="71.9469" y="-1559.8" font-family="Times New Roman,serif" font-size="14.00">i1 = (i2 * i3);</text>
</g>
<!-- N19 -->
<g id="node20" class="node"><title>N19</title>
<ellipse fill="none" stroke="black" cx="730.447" cy="-279" rx="34.394" ry="18"/>
<text text-anchor="middle" x="730.447" y="-275.3" font-family="Times New Roman,serif" font-size="14.00">N3192</text>
</g>
<!-- N25 -->
<g id="node26" class="node"><title>N25</title>
<ellipse fill="none" stroke="black" cx="717.447" cy="-192" rx="34.394" ry="18"/>
<text text-anchor="middle" x="717.447" y="-188.3" font-family="Times New Roman,serif" font-size="14.00">N3859</text>
</g>
<!-- N19&#45;&gt;N25 -->
<g id="edge19" class="edge"><title>N19&#45;&gt;N25</title>
<path fill="none" stroke="black" d="M727.816,-260.799C726.037,-249.163 723.648,-233.548 721.613,-220.237"/>
<polygon fill="black" stroke="black" points="725.045,-219.531 720.074,-210.175 718.126,-220.59 725.045,-219.531"/>
<text text-anchor="middle" x="759.947" y="-231.8" font-family="Times New Roman,serif" font-size="14.00">i3 = (i3 + 1);</text>
</g>
<!-- N20&#45;&gt;N1 -->
<g id="edge22" class="edge"><title>N20&#45;&gt;N1</title>
<path fill="none" stroke="black" d="M506.606,-646.708C560.753,-642.566 663.343,-632.499 694.447,-614 708.887,-605.412 704.577,-594.799 717.447,-584 729.027,-574.284 743.43,-566.073 756.509,-559.728"/>
<polygon fill="black" stroke="black" points="758.143,-562.829 765.74,-555.444 755.196,-556.479 758.143,-562.829"/>
<text text-anchor="middle" x="743.947" y="-602.8" font-family="Times New Roman,serif" font-size="14.00">!(i1 &lt; i0)/</text>
<text text-anchor="middle" x="743.947" y="-587.8" font-family="Times New Roman,serif" font-size="14.00">return;</text>
</g>
<!-- N20&#45;&gt;N1 -->
<g id="edge23" class="edge"><title>N20&#45;&gt;N1</title>
<path fill="none" stroke="black" d="M507.125,-649.484C576.91,-649.748 731.009,-646.518 770.447,-614 781.656,-604.758 787.228,-589.802 789.969,-576.173"/>
<polygon fill="black" stroke="black" points="793.453,-576.55 791.559,-566.126 786.539,-575.456 793.453,-576.55"/>
<text text-anchor="middle" x="805.947" y="-595.3" font-family="Times New Roman,serif" font-size="14.00">return;</text>
</g>
<!-- N20&#45;&gt;N2 -->
<g id="edge25" class="edge"><title>N20&#45;&gt;N2</title>
<path fill="none" stroke="black" d="M506.183,-645.764C533.53,-641.806 572.054,-633.085 600.447,-614 614.391,-604.627 610.547,-594.764 623.447,-584 635.844,-573.655 651.443,-565.055 665.278,-558.587"/>
<polygon fill="black" stroke="black" points="666.814,-561.734 674.513,-554.455 663.955,-555.345 666.814,-561.734"/>
<text text-anchor="middle" x="658.947" y="-595.3" font-family="Times New Roman,serif" font-size="14.00">i3 = (i3 + 1);</text>
</g>
<!-- N20&#45;&gt;N11 -->
<g id="edge24" class="edge"><title>N20&#45;&gt;N11</title>
<path fill="none" stroke="black" d="M439.27,-644.824C414.203,-640.394 379.887,-631.499 354.447,-614 340.605,-604.478 341.68,-597.325 331.447,-584 327.714,-579.139 323.717,-573.939 319.897,-568.972"/>
<polygon fill="black" stroke="black" points="322.585,-566.726 313.713,-560.935 317.037,-570.995 322.585,-566.726"/>
<text text-anchor="middle" x="389.947" y="-595.3" font-family="Times New Roman,serif" font-size="14.00">i3 = (i3 + 1);</text>
</g>
<!-- N20&#45;&gt;N14 -->
<g id="edge20" class="edge"><title>N20&#45;&gt;N14</title>
<path fill="none" stroke="black" d="M471.952,-631.827C471.485,-615.643 470.778,-591.131 470.234,-572.273"/>
<polygon fill="black" stroke="black" points="473.73,-572.094 469.943,-562.199 466.733,-572.296 473.73,-572.094"/>
<text text-anchor="middle" x="506.947" y="-595.3" font-family="Times New Roman,serif" font-size="14.00">i3 = (i3 + 1);</text>
</g>
<!-- N26 -->
<g id="node27" class="node"><title>N26</title>
<ellipse fill="none" stroke="black" cx="163.447" cy="-544" rx="34.394" ry="18"/>
<text text-anchor="middle" x="163.447" y="-540.3" font-family="Times New Roman,serif" font-size="14.00">N3985</text>
</g>
<!-- N20&#45;&gt;N26 -->
<g id="edge21" class="edge"><title>N20&#45;&gt;N26</title>
<path fill="none" stroke="black" d="M438.135,-647.61C361.675,-644.163 182.58,-634.017 164.447,-614 154.448,-602.962 153.924,-586.374 156.031,-572.228"/>
<polygon fill="black" stroke="black" points="159.543,-572.508 158.042,-562.02 152.675,-571.155 159.543,-572.508"/>
<text text-anchor="middle" x="199.947" y="-595.3" font-family="Times New Roman,serif" font-size="14.00">i3 = (i3 + 1);</text>
</g>
<!-- N21 -->
<g id="node22" class="node"><title>N21</title>
<ellipse fill="none" stroke="black" cx="714.447" cy="-105" rx="34.394" ry="18"/>
<text text-anchor="middle" x="714.447" y="-101.3" font-family="Times New Roman,serif" font-size="14.00">N3342</text>
</g>
<!-- N21&#45;&gt;N16 -->
<g id="edge26" class="edge"><title>N21&#45;&gt;N16</title>
<path fill="none" stroke="black" d="M706.742,-87.2067C701.24,-75.2156 693.732,-58.8511 687.448,-45.1571"/>
<polygon fill="black" stroke="black" points="690.488,-43.3877 683.136,-35.7584 684.125,-46.3069 690.488,-43.3877"/>
<text text-anchor="middle" x="731.947" y="-57.8" font-family="Times New Roman,serif" font-size="14.00">i3 = (i3 + 1);</text>
</g>
<!-- N22 -->
<g id="node23" class="node"><title>N22</title>
<ellipse fill="none" stroke="black" cx="730.447" cy="-366" rx="34.394" ry="18"/>
<text text-anchor="middle" x="730.447" y="-362.3" font-family="Times New Roman,serif" font-size="14.00">N3561</text>
</g>
<!-- N22&#45;&gt;N19 -->
<g id="edge27" class="edge"><title>N22&#45;&gt;N19</title>
<path fill="none" stroke="black" d="M730.447,-347.799C730.447,-336.163 730.447,-320.548 730.447,-307.237"/>
<polygon fill="black" stroke="black" points="733.947,-307.175 730.447,-297.175 726.947,-307.175 733.947,-307.175"/>
<text text-anchor="middle" x="766.947" y="-318.8" font-family="Times New Roman,serif" font-size="14.00">i1 = (i2 * i3);</text>
</g>
<!-- N23&#45;&gt;N22 -->
<g id="edge28" class="edge"><title>N23&#45;&gt;N22</title>
<path fill="none" stroke="black" d="M724.066,-434.799C725.161,-423.163 726.631,-407.548 727.883,-394.237"/>
<polygon fill="black" stroke="black" points="731.378,-394.459 728.83,-384.175 724.409,-393.803 731.378,-394.459"/>
<text text-anchor="middle" x="761.947" y="-405.8" font-family="Times New Roman,serif" font-size="14.00">i3 = (i3 + 1);</text>
</g>
<!-- N27 -->
<g id="node28" class="node"><title>N27</title>
<ellipse fill="none" stroke="black" cx="42.4469" cy="-737" rx="34.394" ry="18"/>
<text text-anchor="middle" x="42.4469" y="-733.3" font-family="Times New Roman,serif" font-size="14.00">N4075</text>
</g>
<!-- N24&#45;&gt;N27 -->
<g id="edge29" class="edge"><title>N24&#45;&gt;N27</title>
<path fill="none" stroke="black" d="M42.4469,-805.799C42.4469,-794.163 42.4469,-778.548 42.4469,-765.237"/>
<polygon fill="black" stroke="black" points="45.947,-765.175 42.4469,-755.175 38.947,-765.175 45.947,-765.175"/>
<text text-anchor="middle" x="77.9469" y="-776.8" font-family="Times New Roman,serif" font-size="14.00">i3 = (i3 + 1);</text>
</g>
<!-- N25&#45;&gt;N21 -->
<g id="edge30" class="edge"><title>N25&#45;&gt;N21</title>
<path fill="none" stroke="black" d="M716.84,-173.799C716.429,-162.163 715.878,-146.548 715.408,-133.237"/>
<polygon fill="black" stroke="black" points="718.904,-133.046 715.053,-123.175 711.908,-133.293 718.904,-133.046"/>
<text text-anchor="middle" x="751.947" y="-144.8" font-family="Times New Roman,serif" font-size="14.00">i1 = (i2 * i3);</text>
</g>
<!-- N26&#45;&gt;N20 -->
<g id="edge31" class="edge"><title>N26&#45;&gt;N20</title>
<path fill="none" stroke="black" d="M190.164,-555.498C204.711,-562.134 222.357,-571.773 235.447,-584 246.981,-594.773 241.269,-605.315 254.447,-614 282.26,-632.33 372.786,-641.903 428.054,-646.161"/>
<polygon fill="black" stroke="black" points="428.043,-649.67 438.275,-646.919 428.561,-642.689 428.043,-649.67"/>
<text text-anchor="middle" x="290.947" y="-595.3" font-family="Times New Roman,serif" font-size="14.00">i1 = (i2 * i3);</text>
</g>
<!-- N26&#45;&gt;N29 -->
<g id="edge32" class="edge"><title>N26&#45;&gt;N29</title>
<path fill="none" stroke="black" d="M154.777,-561.422C144.999,-581.502 130.447,-616.797 130.447,-649 130.447,-1782 130.447,-1782 130.447,-1782 130.447,-1801.25 130.447,-1822.95 130.447,-1839.6"/>
<polygon fill="black" stroke="black" points="126.947,-1839.74 130.447,-1849.74 133.947,-1839.74 126.947,-1839.74"/>
<text text-anchor="middle" x="165.947" y="-1211.8" font-family="Times New Roman,serif" font-size="14.00">i2 = (i2 + 1);</text>
</g>
<!-- N27&#45;&gt;N20 -->
<g id="edge33" class="edge"><title>N27&#45;&gt;N20</title>
<path fill="none" stroke="black" d="M74.0659,-729.75C150.48,-714.645 345.186,-676.156 430.886,-659.216"/>
<polygon fill="black" stroke="black" points="431.65,-662.632 440.782,-657.259 430.293,-655.765 431.65,-662.632"/>
<text text-anchor="middle" x="319.947" y="-689.8" font-family="Times New Roman,serif" font-size="14.00">i1 = (i2 * i3);</text>
</g>
<!-- N28 -->
<g id="node29" class="node"><title>N28</title>
<ellipse fill="none" stroke="black" cx="47.4469" cy="-1781" rx="34.394" ry="18"/>
<text text-anchor="middle" x="47.4469" y="-1777.3" font-family="Times New Roman,serif" font-size="14.00">N4137</text>
</g>
<!-- N28&#45;&gt;N12 -->
<g id="edge34" class="edge"><title>N28&#45;&gt;N12</title>
<path fill="none" stroke="black" d="M45.2209,-1762.8C43.715,-1751.16 41.6943,-1735.55 39.9717,-1722.24"/>
<polygon fill="black" stroke="black" points="43.4242,-1721.64 38.6696,-1712.18 36.4821,-1722.54 43.4242,-1721.64"/>
<text text-anchor="middle" x="79.9469" y="-1733.8" font-family="Times New Roman,serif" font-size="14.00">i1 = (i2 * i3);</text>
</g>
<!-- N29&#45;&gt;N1 -->
<g id="edge36" class="edge"><title>N29&#45;&gt;N1</title>
<path fill="none" stroke="black" d="M164.885,-1866.57C307.509,-1864.32 844.447,-1851.28 844.447,-1782 844.447,-1782 844.447,-1782 844.447,-649 844.447,-619.249 842.537,-610.203 828.447,-584 825.719,-578.928 822.178,-574.008 818.382,-569.468"/>
<polygon fill="black" stroke="black" points="820.705,-566.818 811.397,-561.756 815.516,-571.517 820.705,-566.818"/>
<text text-anchor="middle" x="862.947" y="-1211.8" font-family="Times New Roman,serif" font-size="14.00">return;</text>
</g>
<!-- N29&#45;&gt;N28 -->
<g id="edge35" class="edge"><title>N29&#45;&gt;N28</title>
<path fill="none" stroke="black" d="M107.877,-1854.28C98.4285,-1848.28 87.7391,-1840.56 79.4469,-1832 72.3917,-1824.71 66.0321,-1815.64 60.8759,-1807.23"/>
<polygon fill="black" stroke="black" points="63.8364,-1805.36 55.7771,-1798.48 57.7886,-1808.89 63.8364,-1805.36"/>
<text text-anchor="middle" x="97.9469" y="-1820.8" font-family="Times New Roman,serif" font-size="14.00">i3 = 1;</text>
</g>
<!-- N30&#45;&gt;N6 -->
<g id="edge37" class="edge"><title>N30&#45;&gt;N6</title>
<path fill="none" stroke="black" d="M35.4469,-1414.8C35.4469,-1403.16 35.4469,-1387.55 35.4469,-1374.24"/>
<polygon fill="black" stroke="black" points="38.947,-1374.18 35.4469,-1364.18 31.947,-1374.18 38.947,-1374.18"/>
<text text-anchor="middle" x="71.9469" y="-1385.8" font-family="Times New Roman,serif" font-size="14.00">i1 = (i2 * i3);</text>
</g>
</g>
</svg>
