<?xml version="1.0" encoding="UTF-8" standalone="no"?>
<!DOCTYPE svg PUBLIC "-//W3C//DTD SVG 1.1//EN"
 "http://www.w3.org/Graphics/SVG/1.1/DTD/svg11.dtd">
<!-- Generated by graphviz version 2.38.0 (20140413.2041)
 -->
<!-- Title: anonymous_graph Pages: 1 -->
<svg width="333pt" height="415pt"
 viewBox="0.00 0.00 333.00 415.00" xmlns="http://www.w3.org/2000/svg" xmlns:xlink="http://www.w3.org/1999/xlink">
<g id="graph0" class="graph" transform="scale(1 1) rotate(0) translate(4 411)">
<title>anonymous_graph</title>
<polygon fill="white" stroke="none" points="-4,4 -4,-411 329,-411 329,4 -4,4"/>
<!-- N0 -->
<g id="node1" class="node"><title>N0</title>
<ellipse fill="none" stroke="black" cx="123" cy="-389" rx="29.4969" ry="18"/>
<text text-anchor="middle" x="123" y="-385.3" font-family="Times New Roman,serif" font-size="14.00">initial</text>
</g>
<!-- N5 -->
<g id="node6" class="node"><title>N5</title>
<ellipse fill="none" stroke="black" cx="123" cy="-302" rx="34.394" ry="18"/>
<text text-anchor="middle" x="123" y="-298.3" font-family="Times New Roman,serif" font-size="14.00">N4358</text>
</g>
<!-- N0&#45;&gt;N5 -->
<g id="edge1" class="edge"><title>N0&#45;&gt;N5</title>
<path fill="none" stroke="black" d="M123,-370.799C123,-359.163 123,-343.548 123,-330.237"/>
<polygon fill="black" stroke="black" points="126.5,-330.175 123,-320.175 119.5,-330.175 126.5,-330.175"/>
<text text-anchor="middle" x="141.5" y="-341.8" font-family="Times New Roman,serif" font-size="14.00">i2 = 2;</text>
</g>
<!-- N1 -->
<g id="node2" class="node"><title>N1</title>
<ellipse fill="none" stroke="black" cx="31" cy="-22" rx="27" ry="18"/>
<ellipse fill="none" stroke="black" cx="31" cy="-22" rx="31" ry="22"/>
<text text-anchor="middle" x="31" y="-18.3" font-family="Times New Roman,serif" font-size="14.00">final</text>
</g>
<!-- N2 -->
<g id="node3" class="node"><title>N2</title>
<ellipse fill="none" stroke="black" cx="219" cy="-22" rx="34.394" ry="18"/>
<text text-anchor="middle" x="219" y="-18.3" font-family="Times New Roman,serif" font-size="14.00">N2519</text>
</g>
<!-- N3 -->
<g id="node4" class="node"><title>N3</title>
<ellipse fill="none" stroke="black" cx="123" cy="-128" rx="34.394" ry="18"/>
<text text-anchor="middle" x="123" y="-124.3" font-family="Times New Roman,serif" font-size="14.00">N3240</text>
</g>
<!-- N2&#45;&gt;N3 -->
<g id="edge2" class="edge"><title>N2&#45;&gt;N3</title>
<path fill="none" stroke="black" d="M185.888,-27.2616C164.381,-31.9256 137.858,-41.6703 124,-62 116.551,-72.9283 115.712,-87.4721 116.992,-100.031"/>
<polygon fill="black" stroke="black" points="113.54,-100.612 118.468,-109.991 120.464,-99.5862 113.54,-100.612"/>
<text text-anchor="middle" x="160.5" y="-73.3" font-family="Times New Roman,serif" font-size="14.00">i1 = (i2 * i3);</text>
</g>
<!-- N2&#45;&gt;N5 -->
<g id="edge3" class="edge"><title>N2&#45;&gt;N5</title>
<path fill="none" stroke="black" d="M248.197,-31.9131C262.584,-37.9462 278.609,-47.5152 287,-62 293.683,-73.5374 291.038,-79.2928 287,-92 258.32,-182.257 227.841,-196.049 164,-266 159.611,-270.809 154.58,-275.588 149.58,-280"/>
<polygon fill="black" stroke="black" points="147.194,-277.434 141.845,-286.58 151.73,-282.766 147.194,-277.434"/>
<text text-anchor="middle" x="289.5" y="-167.8" font-family="Times New Roman,serif" font-size="14.00">i2 = (i2 + 1);</text>
</g>
<!-- N3&#45;&gt;N1 -->
<g id="edge5" class="edge"><title>N3&#45;&gt;N1</title>
<path fill="none" stroke="black" d="M92.3898,-119.532C76.973,-114.268 59.2209,-105.655 48,-92 39.2853,-81.395 34.9345,-66.9753 32.8005,-54.0597"/>
<polygon fill="black" stroke="black" points="36.27,-53.5978 31.5233,-44.1258 29.3272,-54.4905 36.27,-53.5978"/>
<text text-anchor="middle" x="74.5" y="-80.8" font-family="Times New Roman,serif" font-size="14.00">!(i1 &lt; i0)/</text>
<text text-anchor="middle" x="74.5" y="-65.8" font-family="Times New Roman,serif" font-size="14.00">return;</text>
</g>
<!-- N3&#45;&gt;N2 -->
<g id="edge4" class="edge"><title>N3&#45;&gt;N2</title>
<path fill="none" stroke="black" d="M153.215,-118.996C168.241,-113.609 185.583,-105.048 197,-92 207.161,-80.3878 212.635,-64.0528 215.582,-50.1914"/>
<polygon fill="black" stroke="black" points="219.055,-50.6541 217.378,-40.1928 212.165,-49.4164 219.055,-50.6541"/>
<text text-anchor="middle" x="247.5" y="-73.3" font-family="Times New Roman,serif" font-size="14.00">i3 = (i3 + 1);</text>
</g>
<!-- N4 -->
<g id="node5" class="node"><title>N4</title>
<ellipse fill="none" stroke="black" cx="123" cy="-215" rx="34.394" ry="18"/>
<text text-anchor="middle" x="123" y="-211.3" font-family="Times New Roman,serif" font-size="14.00">N4137</text>
</g>
<!-- N4&#45;&gt;N3 -->
<g id="edge6" class="edge"><title>N4&#45;&gt;N3</title>
<path fill="none" stroke="black" d="M123,-196.799C123,-185.163 123,-169.548 123,-156.237"/>
<polygon fill="black" stroke="black" points="126.5,-156.175 123,-146.175 119.5,-156.175 126.5,-156.175"/>
<text text-anchor="middle" x="159.5" y="-167.8" font-family="Times New Roman,serif" font-size="14.00">i1 = (i2 * i3);</text>
</g>
<!-- N5&#45;&gt;N1 -->
<g id="edge8" class="edge"><title>N5&#45;&gt;N1</title>
<path fill="none" stroke="black" d="M111.291,-284.847C101.946,-271.44 88.9763,-251.622 80,-233 51.193,-173.238 42.0429,-157.417 31,-92 28.9391,-79.7911 28.5423,-66.193 28.8019,-54.3177"/>
<polygon fill="black" stroke="black" points="32.3122,-54.1115 29.1959,-43.9854 25.3173,-53.8447 32.3122,-54.1115"/>
<text text-anchor="middle" x="73.5" y="-167.8" font-family="Times New Roman,serif" font-size="14.00">return;</text>
</g>
<!-- N5&#45;&gt;N4 -->
<g id="edge7" class="edge"><title>N5&#45;&gt;N4</title>
<path fill="none" stroke="black" d="M123,-283.799C123,-272.163 123,-256.548 123,-243.237"/>
<polygon fill="black" stroke="black" points="126.5,-243.175 123,-233.175 119.5,-243.175 126.5,-243.175"/>
<text text-anchor="middle" x="141.5" y="-254.8" font-family="Times New Roman,serif" font-size="14.00">i3 = 1;</text>
</g>
</g>
</svg>
