<?xml version="1.0" encoding="UTF-8" standalone="no"?>
<!DOCTYPE svg PUBLIC "-//W3C//DTD SVG 1.1//EN"
 "http://www.w3.org/Graphics/SVG/1.1/DTD/svg11.dtd">
<!-- Generated by graphviz version 2.38.0 (20140413.2041)
 -->
<!-- Title: anonymous_graph Pages: 1 -->
<svg width="1437pt" height="415pt"
 viewBox="0.00 0.00 1437.45 415.00" xmlns="http://www.w3.org/2000/svg" xmlns:xlink="http://www.w3.org/1999/xlink">
<g id="graph0" class="graph" transform="scale(1 1) rotate(0) translate(4 411)">
<title>anonymous_graph</title>
<polygon fill="white" stroke="none" points="-4,4 -4,-411 1433.45,-411 1433.45,4 -4,4"/>
<!-- N0 -->
<g id="node1" class="node"><title>N0</title>
<ellipse fill="none" stroke="black" cx="698.447" cy="-389" rx="29.4969" ry="18"/>
<text text-anchor="middle" x="698.447" y="-385.3" font-family="Times New Roman,serif" font-size="14.00">initial</text>
</g>
<!-- N10 -->
<g id="node11" class="node"><title>N10</title>
<ellipse fill="none" stroke="black" cx="698.447" cy="-302" rx="34.394" ry="18"/>
<text text-anchor="middle" x="698.447" y="-298.3" font-family="Times New Roman,serif" font-size="14.00">N4358</text>
</g>
<!-- N0&#45;&gt;N10 -->
<g id="edge1" class="edge"><title>N0&#45;&gt;N10</title>
<path fill="none" stroke="black" d="M698.447,-370.799C698.447,-359.163 698.447,-343.548 698.447,-330.237"/>
<polygon fill="black" stroke="black" points="701.947,-330.175 698.447,-320.175 694.947,-330.175 701.947,-330.175"/>
<text text-anchor="middle" x="716.947" y="-341.8" font-family="Times New Roman,serif" font-size="14.00">i2 = 2;</text>
</g>
<!-- N1 -->
<g id="node2" class="node"><title>N1</title>
<ellipse fill="none" stroke="black" cx="1398.45" cy="-22" rx="27" ry="18"/>
<ellipse fill="none" stroke="black" cx="1398.45" cy="-22" rx="31" ry="22"/>
<text text-anchor="middle" x="1398.45" y="-18.3" font-family="Times New Roman,serif" font-size="14.00">final</text>
</g>
<!-- N2 -->
<g id="node3" class="node"><title>N2</title>
<ellipse fill="none" stroke="black" cx="651.447" cy="-22" rx="30.5947" ry="18"/>
<text text-anchor="middle" x="651.447" y="-18.3" font-family="Times New Roman,serif" font-size="14.00">N258</text>
</g>
<!-- N6 -->
<g id="node7" class="node"><title>N6</title>
<ellipse fill="none" stroke="black" cx="698.447" cy="-128" rx="34.394" ry="18"/>
<text text-anchor="middle" x="698.447" y="-124.3" font-family="Times New Roman,serif" font-size="14.00">N3240</text>
</g>
<!-- N2&#45;&gt;N6 -->
<g id="edge2" class="edge"><title>N2&#45;&gt;N6</title>
<path fill="none" stroke="black" d="M662.825,-38.8064C667.458,-45.7052 672.613,-54.027 676.447,-62 682.277,-74.1243 687.244,-88.1995 690.975,-100.146"/>
<polygon fill="black" stroke="black" points="687.703,-101.419 693.927,-109.993 694.408,-99.4091 687.703,-101.419"/>
<text text-anchor="middle" x="724.947" y="-73.3" font-family="Times New Roman,serif" font-size="14.00">i1 = (i2 * i3);</text>
</g>
<!-- N3 -->
<g id="node4" class="node"><title>N3</title>
<ellipse fill="none" stroke="black" cx="841.447" cy="-22" rx="34.394" ry="18"/>
<text text-anchor="middle" x="841.447" y="-18.3" font-family="Times New Roman,serif" font-size="14.00">N1620</text>
</g>
<!-- N3&#45;&gt;N6 -->
<g id="edge3" class="edge"><title>N3&#45;&gt;N6</title>
<path fill="none" stroke="black" d="M855.216,-38.7264C866.648,-53.7581 879.147,-76.3808 866.447,-92 851.102,-110.872 786.987,-119.908 742.558,-123.979"/>
<polygon fill="black" stroke="black" points="742.228,-120.494 732.566,-124.842 742.83,-127.468 742.228,-120.494"/>
<text text-anchor="middle" x="908.947" y="-73.3" font-family="Times New Roman,serif" font-size="14.00">i1 = (i2 * i3);</text>
</g>
<!-- N4 -->
<g id="node5" class="node"><title>N4</title>
<ellipse fill="none" stroke="black" cx="1032.45" cy="-22" rx="34.394" ry="18"/>
<text text-anchor="middle" x="1032.45" y="-18.3" font-family="Times New Roman,serif" font-size="14.00">N2519</text>
</g>
<!-- N4&#45;&gt;N6 -->
<g id="edge4" class="edge"><title>N4&#45;&gt;N6</title>
<path fill="none" stroke="black" d="M1014.59,-37.8067C1005.8,-45.0893 995.067,-54.0003 985.447,-62 969.433,-75.3166 968.493,-83.5713 949.447,-92 913.315,-107.99 804.331,-118.772 742.506,-123.782"/>
<polygon fill="black" stroke="black" points="741.965,-120.314 732.273,-124.593 742.518,-127.292 741.965,-120.314"/>
<text text-anchor="middle" x="1021.95" y="-73.3" font-family="Times New Roman,serif" font-size="14.00">i1 = (i2 * i3);</text>
</g>
<!-- N5 -->
<g id="node6" class="node"><title>N5</title>
<ellipse fill="none" stroke="black" cx="1221.45" cy="-22" rx="34.394" ry="18"/>
<text text-anchor="middle" x="1221.45" y="-18.3" font-family="Times New Roman,serif" font-size="14.00">N2881</text>
</g>
<!-- N5&#45;&gt;N6 -->
<g id="edge5" class="edge"><title>N5&#45;&gt;N6</title>
<path fill="none" stroke="black" d="M1235.24,-38.5599C1247.14,-53.8964 1260.4,-77.1327 1246.45,-92 1212.34,-128.354 868.174,-128.668 743.356,-127.565"/>
<polygon fill="black" stroke="black" points="743.047,-124.062 733.014,-127.466 742.98,-131.062 743.047,-124.062"/>
<text text-anchor="middle" x="1288.95" y="-73.3" font-family="Times New Roman,serif" font-size="14.00">i1 = (i2 * i3);</text>
</g>
<!-- N6&#45;&gt;N1 -->
<g id="edge11" class="edge"><title>N6&#45;&gt;N1</title>
<path fill="none" stroke="black" d="M732.846,-126.522C856.627,-124.607 1274.92,-116.376 1329.45,-92 1340.44,-87.0834 1360.52,-66.3343 1376.19,-48.8613"/>
<polygon fill="black" stroke="black" points="1379.02,-50.94 1383.03,-41.1324 1373.78,-46.3 1379.02,-50.94"/>
<text text-anchor="middle" x="1387.95" y="-80.8" font-family="Times New Roman,serif" font-size="14.00">!(i1 &lt; i0)/</text>
<text text-anchor="middle" x="1387.95" y="-65.8" font-family="Times New Roman,serif" font-size="14.00">return;</text>
</g>
<!-- N6&#45;&gt;N2 -->
<g id="edge10" class="edge"><title>N6&#45;&gt;N2</title>
<path fill="none" stroke="black" d="M664.669,-124.434C642.724,-120.809 615.646,-112.218 601.447,-92 593.784,-81.0886 595.597,-73.9816 601.447,-62 605.703,-53.282 612.954,-45.9446 620.634,-40.0704"/>
<polygon fill="black" stroke="black" points="622.78,-42.8416 629.014,-34.2745 618.798,-37.0844 622.78,-42.8416"/>
<text text-anchor="middle" x="636.947" y="-73.3" font-family="Times New Roman,serif" font-size="14.00">i3 = (i3 + 1);</text>
</g>
<!-- N6&#45;&gt;N3 -->
<g id="edge8" class="edge"><title>N6&#45;&gt;N3</title>
<path fill="none" stroke="black" d="M724.624,-116.132C737.6,-110.069 753.094,-101.768 765.447,-92 779.287,-81.0565 778.653,-74.1497 791.447,-62 798.217,-55.5705 805.99,-49.1206 813.357,-43.3695"/>
<polygon fill="black" stroke="black" points="815.905,-45.8285 821.735,-36.9823 811.661,-40.2617 815.905,-45.8285"/>
<text text-anchor="middle" x="826.947" y="-73.3" font-family="Times New Roman,serif" font-size="14.00">i3 = (i3 + 1);</text>
</g>
<!-- N6&#45;&gt;N4 -->
<g id="edge6" class="edge"><title>N6&#45;&gt;N4</title>
<path fill="none" stroke="black" d="M732.728,-126.232C818.448,-123.959 1036.79,-115.861 1058.45,-92 1069.77,-79.5178 1062.57,-61.622 1052.9,-47.1836"/>
<polygon fill="black" stroke="black" points="1055.44,-44.7221 1046.71,-38.7198 1049.79,-48.8565 1055.44,-44.7221"/>
<text text-anchor="middle" x="1099.95" y="-73.3" font-family="Times New Roman,serif" font-size="14.00">i3 = (i3 + 1);</text>
</g>
<!-- N6&#45;&gt;N5 -->
<g id="edge13" class="edge"><title>N6&#45;&gt;N5</title>
<path fill="none" stroke="black" d="M733.07,-127.176C823.866,-127.178 1066.83,-124.097 1139.45,-92 1157.28,-84.1189 1156.63,-74.6747 1171.45,-62 1178.54,-55.9295 1186.42,-49.6008 1193.79,-43.8511"/>
<polygon fill="black" stroke="black" points="1196.35,-46.2981 1202.13,-37.4177 1192.07,-40.7563 1196.35,-46.2981"/>
<text text-anchor="middle" x="1206.95" y="-73.3" font-family="Times New Roman,serif" font-size="14.00">i3 = (i3 + 1);</text>
</g>
<!-- N7 -->
<g id="node8" class="node"><title>N7</title>
<ellipse fill="none" stroke="black" cx="34.4469" cy="-22" rx="34.394" ry="18"/>
<text text-anchor="middle" x="34.4469" y="-18.3" font-family="Times New Roman,serif" font-size="14.00">N3859</text>
</g>
<!-- N6&#45;&gt;N7 -->
<g id="edge7" class="edge"><title>N6&#45;&gt;N7</title>
<path fill="none" stroke="black" d="M664.105,-126.473C531.271,-124.272 57.4279,-114.838 35.4469,-92 24.9511,-81.0948 24.5711,-64.1486 26.8788,-49.7798"/>
<polygon fill="black" stroke="black" points="30.325,-50.3981 28.928,-39.8958 23.4707,-48.977 30.325,-50.3981"/>
<text text-anchor="middle" x="70.9469" y="-73.3" font-family="Times New Roman,serif" font-size="14.00">i3 = (i3 + 1);</text>
</g>
<!-- N8 -->
<g id="node9" class="node"><title>N8</title>
<ellipse fill="none" stroke="black" cx="271.447" cy="-22" rx="34.394" ry="18"/>
<text text-anchor="middle" x="271.447" y="-18.3" font-family="Times New Roman,serif" font-size="14.00">N4075</text>
</g>
<!-- N6&#45;&gt;N8 -->
<g id="edge9" class="edge"><title>N6&#45;&gt;N8</title>
<path fill="none" stroke="black" d="M663.963,-127.088C560.035,-126.995 255.146,-123.978 225.447,-92 216.373,-82.2302 219.843,-74.0984 225.447,-62 228.912,-54.5185 234.599,-47.9493 240.812,-42.4392"/>
<polygon fill="black" stroke="black" points="243.202,-45.0099 248.835,-36.0372 238.836,-39.5382 243.202,-45.0099"/>
<text text-anchor="middle" x="260.947" y="-73.3" font-family="Times New Roman,serif" font-size="14.00">i3 = (i3 + 1);</text>
</g>
<!-- N11 -->
<g id="node12" class="node"><title>N11</title>
<ellipse fill="none" stroke="black" cx="461.447" cy="-22" rx="34.394" ry="18"/>
<text text-anchor="middle" x="461.447" y="-18.3" font-family="Times New Roman,serif" font-size="14.00">N4437</text>
</g>
<!-- N6&#45;&gt;N11 -->
<g id="edge12" class="edge"><title>N6&#45;&gt;N11</title>
<path fill="none" stroke="black" d="M664.221,-125.267C592.499,-121.284 431.697,-110.384 415.447,-92 406.616,-82.0101 409.843,-74.0984 415.447,-62 418.912,-54.5185 424.599,-47.9493 430.812,-42.4392"/>
<polygon fill="black" stroke="black" points="433.202,-45.0099 438.835,-36.0372 428.836,-39.5382 433.202,-45.0099"/>
<text text-anchor="middle" x="450.947" y="-73.3" font-family="Times New Roman,serif" font-size="14.00">i3 = (i3 + 1);</text>
</g>
<!-- N7&#45;&gt;N6 -->
<g id="edge14" class="edge"><title>N7&#45;&gt;N6</title>
<path fill="none" stroke="black" d="M58.7656,-34.7512C73.0338,-41.9911 91.197,-51.8145 106.447,-62 124.052,-73.7585 123.725,-84.3022 143.447,-92 236.003,-128.127 538.491,-128.786 653.51,-127.657"/>
<polygon fill="black" stroke="black" points="653.76,-131.155 663.722,-127.547 653.685,-124.155 653.76,-131.155"/>
<text text-anchor="middle" x="179.947" y="-73.3" font-family="Times New Roman,serif" font-size="14.00">i1 = (i2 * i3);</text>
</g>
<!-- N7&#45;&gt;N10 -->
<g id="edge15" class="edge"><title>N7&#45;&gt;N10</title>
<path fill="none" stroke="black" d="M25.2305,-39.3724C18.1072,-54.4517 11.1883,-76.7347 22.4469,-92 100.349,-197.626 519.187,-272.535 655.526,-294.414"/>
<polygon fill="black" stroke="black" points="655.17,-297.901 665.595,-296.016 656.269,-290.988 655.17,-297.901"/>
<text text-anchor="middle" x="199.947" y="-167.8" font-family="Times New Roman,serif" font-size="14.00">i2 = (i2 + 1);</text>
</g>
<!-- N8&#45;&gt;N6 -->
<g id="edge16" class="edge"><title>N8&#45;&gt;N6</title>
<path fill="none" stroke="black" d="M280.964,-39.3245C291.513,-55.7398 310.153,-80.2498 333.447,-92 388.486,-119.763 569.151,-125.551 653.862,-126.723"/>
<polygon fill="black" stroke="black" points="653.902,-130.224 663.944,-126.847 653.988,-123.225 653.902,-130.224"/>
<text text-anchor="middle" x="369.947" y="-73.3" font-family="Times New Roman,serif" font-size="14.00">i1 = (i2 * i3);</text>
</g>
<!-- N9 -->
<g id="node10" class="node"><title>N9</title>
<ellipse fill="none" stroke="black" cx="698.447" cy="-215" rx="34.394" ry="18"/>
<text text-anchor="middle" x="698.447" y="-211.3" font-family="Times New Roman,serif" font-size="14.00">N4137</text>
</g>
<!-- N9&#45;&gt;N6 -->
<g id="edge17" class="edge"><title>N9&#45;&gt;N6</title>
<path fill="none" stroke="black" d="M698.447,-196.799C698.447,-185.163 698.447,-169.548 698.447,-156.237"/>
<polygon fill="black" stroke="black" points="701.947,-156.175 698.447,-146.175 694.947,-156.175 701.947,-156.175"/>
<text text-anchor="middle" x="734.947" y="-167.8" font-family="Times New Roman,serif" font-size="14.00">i1 = (i2 * i3);</text>
</g>
<!-- N10&#45;&gt;N1 -->
<g id="edge19" class="edge"><title>N10&#45;&gt;N1</title>
<path fill="none" stroke="black" d="M731.613,-296.616C861.459,-278.715 1332.37,-206.616 1418.45,-92 1427.39,-80.0885 1423.64,-64.2724 1417.09,-50.7878"/>
<polygon fill="black" stroke="black" points="1420.09,-48.995 1412.22,-41.9015 1413.95,-52.3544 1420.09,-48.995"/>
<text text-anchor="middle" x="1322.95" y="-167.8" font-family="Times New Roman,serif" font-size="14.00">return;</text>
</g>
<!-- N10&#45;&gt;N9 -->
<g id="edge18" class="edge"><title>N10&#45;&gt;N9</title>
<path fill="none" stroke="black" d="M698.447,-283.799C698.447,-272.163 698.447,-256.548 698.447,-243.237"/>
<polygon fill="black" stroke="black" points="701.947,-243.175 698.447,-233.175 694.947,-243.175 701.947,-243.175"/>
<text text-anchor="middle" x="716.947" y="-254.8" font-family="Times New Roman,serif" font-size="14.00">i3 = 1;</text>
</g>
<!-- N11&#45;&gt;N6 -->
<g id="edge20" class="edge"><title>N11&#45;&gt;N6</title>
<path fill="none" stroke="black" d="M470.698,-39.4697C480.611,-55.5139 497.875,-79.2894 519.447,-92 560.593,-116.243 615.386,-124.069 653.465,-126.408"/>
<polygon fill="black" stroke="black" points="653.571,-129.917 663.737,-126.931 653.927,-122.927 653.571,-129.917"/>
<text text-anchor="middle" x="555.947" y="-73.3" font-family="Times New Roman,serif" font-size="14.00">i1 = (i2 * i3);</text>
</g>
</g>
</svg>
