<?xml version="1.0" encoding="UTF-8" standalone="no"?>
<!DOCTYPE svg PUBLIC "-//W3C//DTD SVG 1.1//EN"
 "http://www.w3.org/Graphics/SVG/1.1/DTD/svg11.dtd">
<!-- Generated by graphviz version 2.38.0 (20140413.2041)
 -->
<!-- Title: anonymous_graph Pages: 1 -->
<svg width="479pt" height="2851pt"
 viewBox="0.00 0.00 479.45 2851.00" xmlns="http://www.w3.org/2000/svg" xmlns:xlink="http://www.w3.org/1999/xlink">
<g id="graph0" class="graph" transform="scale(1 1) rotate(0) translate(4 2847)">
<title>anonymous_graph</title>
<polygon fill="white" stroke="none" points="-4,4 -4,-2847 475.447,-2847 475.447,4 -4,4"/>
<!-- N0 -->
<g id="node1" class="node"><title>N0</title>
<ellipse fill="none" stroke="black" cx="321.447" cy="-2825" rx="29.4969" ry="18"/>
<text text-anchor="middle" x="321.447" y="-2821.3" font-family="Times New Roman,serif" font-size="14.00">initial</text>
</g>
<!-- N32 -->
<g id="node33" class="node"><title>N32</title>
<ellipse fill="none" stroke="black" cx="321.447" cy="-2738" rx="34.394" ry="18"/>
<text text-anchor="middle" x="321.447" y="-2734.3" font-family="Times New Roman,serif" font-size="14.00">N4358</text>
</g>
<!-- N0&#45;&gt;N32 -->
<g id="edge1" class="edge"><title>N0&#45;&gt;N32</title>
<path fill="none" stroke="black" d="M321.447,-2806.8C321.447,-2795.16 321.447,-2779.55 321.447,-2766.24"/>
<polygon fill="black" stroke="black" points="324.947,-2766.18 321.447,-2756.18 317.947,-2766.18 324.947,-2766.18"/>
<text text-anchor="middle" x="339.947" y="-2777.8" font-family="Times New Roman,serif" font-size="14.00">i2 = 2;</text>
</g>
<!-- N1 -->
<g id="node2" class="node"><title>N1</title>
<ellipse fill="none" stroke="black" cx="330.447" cy="-22" rx="27" ry="18"/>
<ellipse fill="none" stroke="black" cx="330.447" cy="-22" rx="31" ry="22"/>
<text text-anchor="middle" x="330.447" y="-18.3" font-family="Times New Roman,serif" font-size="14.00">final</text>
</g>
<!-- N2 -->
<g id="node3" class="node"><title>N2</title>
<ellipse fill="none" stroke="black" cx="295.447" cy="-1433" rx="30.5947" ry="18"/>
<text text-anchor="middle" x="295.447" y="-1429.3" font-family="Times New Roman,serif" font-size="14.00">N202</text>
</g>
<!-- N26 -->
<g id="node27" class="node"><title>N26</title>
<ellipse fill="none" stroke="black" cx="294.447" cy="-1346" rx="34.394" ry="18"/>
<text text-anchor="middle" x="294.447" y="-1342.3" font-family="Times New Roman,serif" font-size="14.00">N3782</text>
</g>
<!-- N2&#45;&gt;N26 -->
<g id="edge2" class="edge"><title>N2&#45;&gt;N26</title>
<path fill="none" stroke="black" d="M295.245,-1414.8C295.108,-1403.16 294.924,-1387.55 294.767,-1374.24"/>
<polygon fill="black" stroke="black" points="298.267,-1374.13 294.649,-1364.18 291.267,-1374.22 298.267,-1374.13"/>
<text text-anchor="middle" x="330.947" y="-1385.8" font-family="Times New Roman,serif" font-size="14.00">i1 = (i2 * i3);</text>
</g>
<!-- N3 -->
<g id="node4" class="node"><title>N3</title>
<ellipse fill="none" stroke="black" cx="321.447" cy="-1955" rx="30.5947" ry="18"/>
<text text-anchor="middle" x="321.447" y="-1951.3" font-family="Times New Roman,serif" font-size="14.00">N258</text>
</g>
<!-- N10 -->
<g id="node11" class="node"><title>N10</title>
<ellipse fill="none" stroke="black" cx="321.447" cy="-1868" rx="34.394" ry="18"/>
<text text-anchor="middle" x="321.447" y="-1864.3" font-family="Times New Roman,serif" font-size="14.00">N1685</text>
</g>
<!-- N3&#45;&gt;N10 -->
<g id="edge3" class="edge"><title>N3&#45;&gt;N10</title>
<path fill="none" stroke="black" d="M321.447,-1936.8C321.447,-1925.16 321.447,-1909.55 321.447,-1896.24"/>
<polygon fill="black" stroke="black" points="324.947,-1896.18 321.447,-1886.18 317.947,-1896.18 324.947,-1896.18"/>
<text text-anchor="middle" x="357.947" y="-1907.8" font-family="Times New Roman,serif" font-size="14.00">i1 = (i2 * i3);</text>
</g>
<!-- N4 -->
<g id="node5" class="node"><title>N4</title>
<ellipse fill="none" stroke="black" cx="321.447" cy="-1520" rx="30.5947" ry="18"/>
<text text-anchor="middle" x="321.447" y="-1516.3" font-family="Times New Roman,serif" font-size="14.00">N511</text>
</g>
<!-- N4&#45;&gt;N1 -->
<g id="edge5" class="edge"><title>N4&#45;&gt;N1</title>
<path fill="none" stroke="black" d="M343.207,-1507.15C352.193,-1501.27 361.996,-1493.39 368.447,-1484 381.513,-1464.98 382.447,-1457.08 382.447,-1434 382.447,-1434 382.447,-1434 382.447,-127 382.447,-98.3372 366.45,-69.4763 352.202,-49.4546"/>
<polygon fill="black" stroke="black" points="354.823,-47.1139 346.049,-41.1759 349.205,-51.2897 354.823,-47.1139"/>
<text text-anchor="middle" x="400.947" y="-776.8" font-family="Times New Roman,serif" font-size="14.00">return;</text>
</g>
<!-- N4&#45;&gt;N2 -->
<g id="edge4" class="edge"><title>N4&#45;&gt;N2</title>
<path fill="none" stroke="black" d="M308.158,-1503.64C303.938,-1497.86 299.768,-1490.99 297.447,-1484 295.066,-1476.83 294.072,-1468.75 293.798,-1461.22"/>
<polygon fill="black" stroke="black" points="297.298,-1461.09 293.819,-1451.08 290.298,-1461.08 297.298,-1461.09"/>
<text text-anchor="middle" x="332.947" y="-1472.8" font-family="Times New Roman,serif" font-size="14.00">i3 = (i3 + 1);</text>
</g>
<!-- N5 -->
<g id="node6" class="node"><title>N5</title>
<ellipse fill="none" stroke="black" cx="294.447" cy="-824" rx="34.394" ry="18"/>
<text text-anchor="middle" x="294.447" y="-820.3" font-family="Times New Roman,serif" font-size="14.00">N1139</text>
</g>
<!-- N5&#45;&gt;N1 -->
<g id="edge7" class="edge"><title>N5&#45;&gt;N1</title>
<path fill="none" stroke="black" d="M305.838,-806.923C316.384,-790.434 330.447,-763.641 330.447,-738 330.447,-738 330.447,-738 330.447,-127 330.447,-102.553 330.447,-74.8736 330.447,-54.2197"/>
<polygon fill="black" stroke="black" points="333.947,-54.1137 330.447,-44.1138 326.947,-54.1138 333.947,-54.1137"/>
<text text-anchor="middle" x="348.947" y="-428.8" font-family="Times New Roman,serif" font-size="14.00">return;</text>
</g>
<!-- N13 -->
<g id="node14" class="node"><title>N13</title>
<ellipse fill="none" stroke="black" cx="243.447" cy="-737" rx="34.394" ry="18"/>
<text text-anchor="middle" x="243.447" y="-733.3" font-family="Times New Roman,serif" font-size="14.00">N2087</text>
</g>
<!-- N5&#45;&gt;N13 -->
<g id="edge6" class="edge"><title>N5&#45;&gt;N13</title>
<path fill="none" stroke="black" d="M269.632,-811.392C260.372,-805.715 250.813,-797.934 245.447,-788 241.757,-781.168 240.399,-773.013 240.196,-765.29"/>
<polygon fill="black" stroke="black" points="243.697,-765.301 240.523,-755.193 236.701,-765.074 243.697,-765.301"/>
<text text-anchor="middle" x="280.947" y="-776.8" font-family="Times New Roman,serif" font-size="14.00">i3 = (i3 + 1);</text>
</g>
<!-- N6 -->
<g id="node7" class="node"><title>N6</title>
<ellipse fill="none" stroke="black" cx="242.447" cy="-650" rx="34.394" ry="18"/>
<text text-anchor="middle" x="242.447" y="-646.3" font-family="Times New Roman,serif" font-size="14.00">N1203</text>
</g>
<!-- N7 -->
<g id="node8" class="node"><title>N7</title>
<ellipse fill="none" stroke="black" cx="242.447" cy="-563" rx="34.394" ry="18"/>
<text text-anchor="middle" x="242.447" y="-559.3" font-family="Times New Roman,serif" font-size="14.00">N1266</text>
</g>
<!-- N6&#45;&gt;N7 -->
<g id="edge8" class="edge"><title>N6&#45;&gt;N7</title>
<path fill="none" stroke="black" d="M242.447,-631.799C242.447,-620.163 242.447,-604.548 242.447,-591.237"/>
<polygon fill="black" stroke="black" points="245.947,-591.175 242.447,-581.175 238.947,-591.175 245.947,-591.175"/>
<text text-anchor="middle" x="277.947" y="-602.8" font-family="Times New Roman,serif" font-size="14.00">i3 = (i3 + 1);</text>
</g>
<!-- N25 -->
<g id="node26" class="node"><title>N25</title>
<ellipse fill="none" stroke="black" cx="242.447" cy="-476" rx="34.394" ry="18"/>
<text text-anchor="middle" x="242.447" y="-472.3" font-family="Times New Roman,serif" font-size="14.00">N3644</text>
</g>
<!-- N7&#45;&gt;N25 -->
<g id="edge9" class="edge"><title>N7&#45;&gt;N25</title>
<path fill="none" stroke="black" d="M242.447,-544.799C242.447,-533.163 242.447,-517.548 242.447,-504.237"/>
<polygon fill="black" stroke="black" points="245.947,-504.175 242.447,-494.175 238.947,-504.175 245.947,-504.175"/>
<text text-anchor="middle" x="278.947" y="-515.8" font-family="Times New Roman,serif" font-size="14.00">i1 = (i2 * i3);</text>
</g>
<!-- N8 -->
<g id="node9" class="node"><title>N8</title>
<ellipse fill="none" stroke="black" cx="321.447" cy="-2216" rx="34.394" ry="18"/>
<text text-anchor="middle" x="321.447" y="-2212.3" font-family="Times New Roman,serif" font-size="14.00">N1619</text>
</g>
<!-- N9 -->
<g id="node10" class="node"><title>N9</title>
<ellipse fill="none" stroke="black" cx="321.447" cy="-2129" rx="34.394" ry="18"/>
<text text-anchor="middle" x="321.447" y="-2125.3" font-family="Times New Roman,serif" font-size="14.00">N1620</text>
</g>
<!-- N8&#45;&gt;N9 -->
<g id="edge10" class="edge"><title>N8&#45;&gt;N9</title>
<path fill="none" stroke="black" d="M321.447,-2197.8C321.447,-2186.16 321.447,-2170.55 321.447,-2157.24"/>
<polygon fill="black" stroke="black" points="324.947,-2157.18 321.447,-2147.18 317.947,-2157.18 324.947,-2157.18"/>
<text text-anchor="middle" x="356.947" y="-2168.8" font-family="Times New Roman,serif" font-size="14.00">i3 = (i3 + 1);</text>
</g>
<!-- N11 -->
<g id="node12" class="node"><title>N11</title>
<ellipse fill="none" stroke="black" cx="321.447" cy="-2042" rx="34.394" ry="18"/>
<text text-anchor="middle" x="321.447" y="-2038.3" font-family="Times New Roman,serif" font-size="14.00">N1745</text>
</g>
<!-- N9&#45;&gt;N11 -->
<g id="edge11" class="edge"><title>N9&#45;&gt;N11</title>
<path fill="none" stroke="black" d="M321.447,-2110.8C321.447,-2099.16 321.447,-2083.55 321.447,-2070.24"/>
<polygon fill="black" stroke="black" points="324.947,-2070.18 321.447,-2060.18 317.947,-2070.18 324.947,-2070.18"/>
<text text-anchor="middle" x="357.947" y="-2081.8" font-family="Times New Roman,serif" font-size="14.00">i1 = (i2 * i3);</text>
</g>
<!-- N15 -->
<g id="node16" class="node"><title>N15</title>
<ellipse fill="none" stroke="black" cx="321.447" cy="-1781" rx="34.394" ry="18"/>
<text text-anchor="middle" x="321.447" y="-1777.3" font-family="Times New Roman,serif" font-size="14.00">N2519</text>
</g>
<!-- N10&#45;&gt;N15 -->
<g id="edge12" class="edge"><title>N10&#45;&gt;N15</title>
<path fill="none" stroke="black" d="M321.447,-1849.8C321.447,-1838.16 321.447,-1822.55 321.447,-1809.24"/>
<polygon fill="black" stroke="black" points="324.947,-1809.18 321.447,-1799.18 317.947,-1809.18 324.947,-1809.18"/>
<text text-anchor="middle" x="356.947" y="-1820.8" font-family="Times New Roman,serif" font-size="14.00">i3 = (i3 + 1);</text>
</g>
<!-- N11&#45;&gt;N3 -->
<g id="edge13" class="edge"><title>N11&#45;&gt;N3</title>
<path fill="none" stroke="black" d="M321.447,-2023.8C321.447,-2012.16 321.447,-1996.55 321.447,-1983.24"/>
<polygon fill="black" stroke="black" points="324.947,-1983.18 321.447,-1973.18 317.947,-1983.18 324.947,-1983.18"/>
<text text-anchor="middle" x="356.947" y="-1994.8" font-family="Times New Roman,serif" font-size="14.00">i3 = (i3 + 1);</text>
</g>
<!-- N12 -->
<g id="node13" class="node"><title>N12</title>
<ellipse fill="none" stroke="black" cx="175.447" cy="-302" rx="34.394" ry="18"/>
<text text-anchor="middle" x="175.447" y="-298.3" font-family="Times New Roman,serif" font-size="14.00">N1929</text>
</g>
<!-- N17 -->
<g id="node18" class="node"><title>N17</title>
<ellipse fill="none" stroke="black" cx="163.447" cy="-215" rx="34.394" ry="18"/>
<text text-anchor="middle" x="163.447" y="-211.3" font-family="Times New Roman,serif" font-size="14.00">N2537</text>
</g>
<!-- N12&#45;&gt;N17 -->
<g id="edge14" class="edge"><title>N12&#45;&gt;N17</title>
<path fill="none" stroke="black" d="M173.019,-283.799C171.376,-272.163 169.171,-256.548 167.292,-243.237"/>
<polygon fill="black" stroke="black" points="170.735,-242.588 165.872,-233.175 163.804,-243.567 170.735,-242.588"/>
<text text-anchor="middle" x="205.947" y="-254.8" font-family="Times New Roman,serif" font-size="14.00">i3 = (i3 + 1);</text>
</g>
<!-- N13&#45;&gt;N6 -->
<g id="edge15" class="edge"><title>N13&#45;&gt;N6</title>
<path fill="none" stroke="black" d="M243.245,-718.799C243.108,-707.163 242.924,-691.548 242.767,-678.237"/>
<polygon fill="black" stroke="black" points="246.267,-678.134 242.649,-668.175 239.267,-678.216 246.267,-678.134"/>
<text text-anchor="middle" x="279.947" y="-689.8" font-family="Times New Roman,serif" font-size="14.00">i1 = (i2 * i3);</text>
</g>
<!-- N14 -->
<g id="node15" class="node"><title>N14</title>
<ellipse fill="none" stroke="black" cx="321.447" cy="-2564" rx="34.394" ry="18"/>
<text text-anchor="middle" x="321.447" y="-2560.3" font-family="Times New Roman,serif" font-size="14.00">N2214</text>
</g>
<!-- N20 -->
<g id="node21" class="node"><title>N20</title>
<ellipse fill="none" stroke="black" cx="321.447" cy="-2477" rx="34.394" ry="18"/>
<text text-anchor="middle" x="321.447" y="-2473.3" font-family="Times New Roman,serif" font-size="14.00">N2881</text>
</g>
<!-- N14&#45;&gt;N20 -->
<g id="edge16" class="edge"><title>N14&#45;&gt;N20</title>
<path fill="none" stroke="black" d="M321.447,-2545.8C321.447,-2534.16 321.447,-2518.55 321.447,-2505.24"/>
<polygon fill="black" stroke="black" points="324.947,-2505.18 321.447,-2495.18 317.947,-2505.18 324.947,-2505.18"/>
<text text-anchor="middle" x="356.947" y="-2516.8" font-family="Times New Roman,serif" font-size="14.00">i3 = (i3 + 1);</text>
</g>
<!-- N27 -->
<g id="node28" class="node"><title>N27</title>
<ellipse fill="none" stroke="black" cx="321.447" cy="-1694" rx="34.394" ry="18"/>
<text text-anchor="middle" x="321.447" y="-1690.3" font-family="Times New Roman,serif" font-size="14.00">N3852</text>
</g>
<!-- N15&#45;&gt;N27 -->
<g id="edge17" class="edge"><title>N15&#45;&gt;N27</title>
<path fill="none" stroke="black" d="M321.447,-1762.8C321.447,-1751.16 321.447,-1735.55 321.447,-1722.24"/>
<polygon fill="black" stroke="black" points="324.947,-1722.18 321.447,-1712.18 317.947,-1722.18 324.947,-1722.18"/>
<text text-anchor="middle" x="357.947" y="-1733.8" font-family="Times New Roman,serif" font-size="14.00">i1 = (i2 * i3);</text>
</g>
<!-- N16 -->
<g id="node17" class="node"><title>N16</title>
<ellipse fill="none" stroke="black" cx="183.447" cy="-389" rx="34.394" ry="18"/>
<text text-anchor="middle" x="183.447" y="-385.3" font-family="Times New Roman,serif" font-size="14.00">N2535</text>
</g>
<!-- N16&#45;&gt;N12 -->
<g id="edge18" class="edge"><title>N16&#45;&gt;N12</title>
<path fill="none" stroke="black" d="M181.828,-370.799C180.733,-359.163 179.263,-343.548 178.01,-330.237"/>
<polygon fill="black" stroke="black" points="181.485,-329.803 177.063,-320.175 174.516,-330.459 181.485,-329.803"/>
<text text-anchor="middle" x="216.947" y="-341.8" font-family="Times New Roman,serif" font-size="14.00">i1 = (i2 * i3);</text>
</g>
<!-- N22 -->
<g id="node23" class="node"><title>N22</title>
<ellipse fill="none" stroke="black" cx="132.447" cy="-128" rx="34.394" ry="18"/>
<text text-anchor="middle" x="132.447" y="-124.3" font-family="Times New Roman,serif" font-size="14.00">N3240</text>
</g>
<!-- N17&#45;&gt;N22 -->
<g id="edge19" class="edge"><title>N17&#45;&gt;N22</title>
<path fill="none" stroke="black" d="M157.322,-197.207C152.949,-185.216 146.981,-168.851 141.987,-155.157"/>
<polygon fill="black" stroke="black" points="145.273,-153.954 138.559,-145.758 138.697,-156.352 145.273,-153.954"/>
<text text-anchor="middle" x="186.947" y="-167.8" font-family="Times New Roman,serif" font-size="14.00">i1 = (i2 * i3);</text>
</g>
<!-- N18 -->
<g id="node19" class="node"><title>N18</title>
<ellipse fill="none" stroke="black" cx="294.447" cy="-911" rx="34.394" ry="18"/>
<text text-anchor="middle" x="294.447" y="-907.3" font-family="Times New Roman,serif" font-size="14.00">N2603</text>
</g>
<!-- N18&#45;&gt;N5 -->
<g id="edge20" class="edge"><title>N18&#45;&gt;N5</title>
<path fill="none" stroke="black" d="M294.447,-892.799C294.447,-881.163 294.447,-865.548 294.447,-852.237"/>
<polygon fill="black" stroke="black" points="297.947,-852.175 294.447,-842.175 290.947,-852.175 297.947,-852.175"/>
<text text-anchor="middle" x="330.947" y="-863.8" font-family="Times New Roman,serif" font-size="14.00">i1 = (i2 * i3);</text>
</g>
<!-- N19 -->
<g id="node20" class="node"><title>N19</title>
<ellipse fill="none" stroke="black" cx="321.447" cy="-2390" rx="34.394" ry="18"/>
<text text-anchor="middle" x="321.447" y="-2386.3" font-family="Times New Roman,serif" font-size="14.00">N2734</text>
</g>
<!-- N33 -->
<g id="node34" class="node"><title>N33</title>
<ellipse fill="none" stroke="black" cx="321.447" cy="-2303" rx="34.394" ry="18"/>
<text text-anchor="middle" x="321.447" y="-2299.3" font-family="Times New Roman,serif" font-size="14.00">N4437</text>
</g>
<!-- N19&#45;&gt;N33 -->
<g id="edge21" class="edge"><title>N19&#45;&gt;N33</title>
<path fill="none" stroke="black" d="M321.447,-2371.8C321.447,-2360.16 321.447,-2344.55 321.447,-2331.24"/>
<polygon fill="black" stroke="black" points="324.947,-2331.18 321.447,-2321.18 317.947,-2331.18 324.947,-2331.18"/>
<text text-anchor="middle" x="356.947" y="-2342.8" font-family="Times New Roman,serif" font-size="14.00">i3 = (i3 + 1);</text>
</g>
<!-- N20&#45;&gt;N19 -->
<g id="edge22" class="edge"><title>N20&#45;&gt;N19</title>
<path fill="none" stroke="black" d="M321.447,-2458.8C321.447,-2447.16 321.447,-2431.55 321.447,-2418.24"/>
<polygon fill="black" stroke="black" points="324.947,-2418.18 321.447,-2408.18 317.947,-2418.18 324.947,-2418.18"/>
<text text-anchor="middle" x="357.947" y="-2429.8" font-family="Times New Roman,serif" font-size="14.00">i1 = (i2 * i3);</text>
</g>
<!-- N21 -->
<g id="node22" class="node"><title>N21</title>
<ellipse fill="none" stroke="black" cx="294.447" cy="-1172" rx="34.394" ry="18"/>
<text text-anchor="middle" x="294.447" y="-1168.3" font-family="Times New Roman,serif" font-size="14.00">N3192</text>
</g>
<!-- N28 -->
<g id="node29" class="node"><title>N28</title>
<ellipse fill="none" stroke="black" cx="294.447" cy="-1085" rx="34.394" ry="18"/>
<text text-anchor="middle" x="294.447" y="-1081.3" font-family="Times New Roman,serif" font-size="14.00">N3859</text>
</g>
<!-- N21&#45;&gt;N28 -->
<g id="edge23" class="edge"><title>N21&#45;&gt;N28</title>
<path fill="none" stroke="black" d="M294.447,-1153.8C294.447,-1142.16 294.447,-1126.55 294.447,-1113.24"/>
<polygon fill="black" stroke="black" points="297.947,-1113.18 294.447,-1103.18 290.947,-1113.18 297.947,-1113.18"/>
<text text-anchor="middle" x="329.947" y="-1124.8" font-family="Times New Roman,serif" font-size="14.00">i3 = (i3 + 1);</text>
</g>
<!-- N22&#45;&gt;N1 -->
<g id="edge25" class="edge"><title>N22&#45;&gt;N1</title>
<path fill="none" stroke="black" d="M159.104,-116.299C172.296,-110.279 188.015,-101.965 200.447,-92 213.989,-81.1447 211.279,-72.0258 225.447,-62 245.09,-48.0992 270.278,-38.5243 291.06,-32.3414"/>
<polygon fill="black" stroke="black" points="292.191,-35.659 300.865,-29.5745 290.29,-28.9221 292.191,-35.659"/>
<text text-anchor="middle" x="251.947" y="-80.8" font-family="Times New Roman,serif" font-size="14.00">!(i1 &lt; i0)/</text>
<text text-anchor="middle" x="251.947" y="-65.8" font-family="Times New Roman,serif" font-size="14.00">return;</text>
</g>
<!-- N29 -->
<g id="node30" class="node"><title>N29</title>
<ellipse fill="none" stroke="black" cx="34.4469" cy="-22" rx="34.394" ry="18"/>
<text text-anchor="middle" x="34.4469" y="-18.3" font-family="Times New Roman,serif" font-size="14.00">N3985</text>
</g>
<!-- N22&#45;&gt;N29 -->
<g id="edge24" class="edge"><title>N22&#45;&gt;N29</title>
<path fill="none" stroke="black" d="M98.2854,-124.287C76.4668,-120.589 49.6881,-111.969 35.4469,-92 26.9104,-80.0299 26.3284,-63.6801 28.0362,-49.9003"/>
<polygon fill="black" stroke="black" points="31.498,-50.4191 29.6948,-39.9789 24.5938,-49.2649 31.498,-50.4191"/>
<text text-anchor="middle" x="70.9469" y="-73.3" font-family="Times New Roman,serif" font-size="14.00">i3 = (i3 + 1);</text>
</g>
<!-- N23 -->
<g id="node24" class="node"><title>N23</title>
<ellipse fill="none" stroke="black" cx="294.447" cy="-998" rx="34.394" ry="18"/>
<text text-anchor="middle" x="294.447" y="-994.3" font-family="Times New Roman,serif" font-size="14.00">N3342</text>
</g>
<!-- N23&#45;&gt;N18 -->
<g id="edge26" class="edge"><title>N23&#45;&gt;N18</title>
<path fill="none" stroke="black" d="M294.447,-979.799C294.447,-968.163 294.447,-952.548 294.447,-939.237"/>
<polygon fill="black" stroke="black" points="297.947,-939.175 294.447,-929.175 290.947,-939.175 297.947,-939.175"/>
<text text-anchor="middle" x="329.947" y="-950.8" font-family="Times New Roman,serif" font-size="14.00">i3 = (i3 + 1);</text>
</g>
<!-- N24 -->
<g id="node25" class="node"><title>N24</title>
<ellipse fill="none" stroke="black" cx="294.447" cy="-1259" rx="34.394" ry="18"/>
<text text-anchor="middle" x="294.447" y="-1255.3" font-family="Times New Roman,serif" font-size="14.00">N3561</text>
</g>
<!-- N24&#45;&gt;N21 -->
<g id="edge27" class="edge"><title>N24&#45;&gt;N21</title>
<path fill="none" stroke="black" d="M294.447,-1240.8C294.447,-1229.16 294.447,-1213.55 294.447,-1200.24"/>
<polygon fill="black" stroke="black" points="297.947,-1200.18 294.447,-1190.18 290.947,-1200.18 297.947,-1200.18"/>
<text text-anchor="middle" x="330.947" y="-1211.8" font-family="Times New Roman,serif" font-size="14.00">i1 = (i2 * i3);</text>
</g>
<!-- N25&#45;&gt;N1 -->
<g id="edge28" class="edge"><title>N25&#45;&gt;N1</title>
<path fill="none" stroke="black" d="M254.714,-459.089C258.49,-453.37 262.233,-446.676 264.447,-440 290.968,-360.018 268.001,-334.483 279.447,-251 291.074,-166.199 293.7,-144.517 316.447,-62 317.262,-59.0439 318.194,-55.9909 319.18,-52.9554"/>
<polygon fill="black" stroke="black" points="322.504,-54.0528 322.446,-43.4581 315.885,-51.7766 322.504,-54.0528"/>
<text text-anchor="middle" x="297.947" y="-254.8" font-family="Times New Roman,serif" font-size="14.00">return;</text>
</g>
<!-- N25&#45;&gt;N16 -->
<g id="edge29" class="edge"><title>N25&#45;&gt;N16</title>
<path fill="none" stroke="black" d="M218.398,-462.939C209.256,-457.192 199.577,-449.481 193.447,-440 189.151,-433.356 186.636,-425.257 185.182,-417.528"/>
<polygon fill="black" stroke="black" points="188.617,-416.821 183.789,-407.391 181.683,-417.774 188.617,-416.821"/>
<text text-anchor="middle" x="228.947" y="-428.8" font-family="Times New Roman,serif" font-size="14.00">i3 = (i3 + 1);</text>
</g>
<!-- N26&#45;&gt;N24 -->
<g id="edge30" class="edge"><title>N26&#45;&gt;N24</title>
<path fill="none" stroke="black" d="M294.447,-1327.8C294.447,-1316.16 294.447,-1300.55 294.447,-1287.24"/>
<polygon fill="black" stroke="black" points="297.947,-1287.18 294.447,-1277.18 290.947,-1287.18 297.947,-1287.18"/>
<text text-anchor="middle" x="329.947" y="-1298.8" font-family="Times New Roman,serif" font-size="14.00">i3 = (i3 + 1);</text>
</g>
<!-- N30 -->
<g id="node31" class="node"><title>N30</title>
<ellipse fill="none" stroke="black" cx="321.447" cy="-1607" rx="34.394" ry="18"/>
<text text-anchor="middle" x="321.447" y="-1603.3" font-family="Times New Roman,serif" font-size="14.00">N4075</text>
</g>
<!-- N27&#45;&gt;N30 -->
<g id="edge31" class="edge"><title>N27&#45;&gt;N30</title>
<path fill="none" stroke="black" d="M321.447,-1675.8C321.447,-1664.16 321.447,-1648.55 321.447,-1635.24"/>
<polygon fill="black" stroke="black" points="324.947,-1635.18 321.447,-1625.18 317.947,-1635.18 324.947,-1635.18"/>
<text text-anchor="middle" x="356.947" y="-1646.8" font-family="Times New Roman,serif" font-size="14.00">i3 = (i3 + 1);</text>
</g>
<!-- N28&#45;&gt;N23 -->
<g id="edge32" class="edge"><title>N28&#45;&gt;N23</title>
<path fill="none" stroke="black" d="M294.447,-1066.8C294.447,-1055.16 294.447,-1039.55 294.447,-1026.24"/>
<polygon fill="black" stroke="black" points="297.947,-1026.18 294.447,-1016.18 290.947,-1026.18 297.947,-1026.18"/>
<text text-anchor="middle" x="330.947" y="-1037.8" font-family="Times New Roman,serif" font-size="14.00">i1 = (i2 * i3);</text>
</g>
<!-- N29&#45;&gt;N22 -->
<g id="edge33" class="edge"><title>N29&#45;&gt;N22</title>
<path fill="none" stroke="black" d="M62.4298,-32.7593C77.1875,-39.1186 94.6306,-48.728 106.447,-62 116.076,-72.8158 122.374,-87.644 126.356,-100.407"/>
<polygon fill="black" stroke="black" points="123,-101.401 129.072,-110.083 129.739,-99.5095 123,-101.401"/>
<text text-anchor="middle" x="159.947" y="-73.3" font-family="Times New Roman,serif" font-size="14.00">i1 = (i2 * i3);</text>
</g>
<!-- N29&#45;&gt;N32 -->
<g id="edge34" class="edge"><title>N29&#45;&gt;N32</title>
<path fill="none" stroke="black" d="M25.7766,-39.4222C15.9993,-59.5021 1.44694,-94.7974 1.44694,-127 1.44694,-2652 1.44694,-2652 1.44694,-2652 1.44694,-2708.34 189.085,-2728.24 276.994,-2734.47"/>
<polygon fill="black" stroke="black" points="276.987,-2737.97 287.201,-2735.16 277.462,-2730.99 276.987,-2737.97"/>
<text text-anchor="middle" x="36.9469" y="-1385.8" font-family="Times New Roman,serif" font-size="14.00">i2 = (i2 + 1);</text>
</g>
<!-- N30&#45;&gt;N4 -->
<g id="edge35" class="edge"><title>N30&#45;&gt;N4</title>
<path fill="none" stroke="black" d="M321.447,-1588.8C321.447,-1577.16 321.447,-1561.55 321.447,-1548.24"/>
<polygon fill="black" stroke="black" points="324.947,-1548.18 321.447,-1538.18 317.947,-1548.18 324.947,-1548.18"/>
<text text-anchor="middle" x="357.947" y="-1559.8" font-family="Times New Roman,serif" font-size="14.00">i1 = (i2 * i3);</text>
</g>
<!-- N31 -->
<g id="node32" class="node"><title>N31</title>
<ellipse fill="none" stroke="black" cx="321.447" cy="-2651" rx="34.394" ry="18"/>
<text text-anchor="middle" x="321.447" y="-2647.3" font-family="Times New Roman,serif" font-size="14.00">N4137</text>
</g>
<!-- N31&#45;&gt;N14 -->
<g id="edge36" class="edge"><title>N31&#45;&gt;N14</title>
<path fill="none" stroke="black" d="M321.447,-2632.8C321.447,-2621.16 321.447,-2605.55 321.447,-2592.24"/>
<polygon fill="black" stroke="black" points="324.947,-2592.18 321.447,-2582.18 317.947,-2592.18 324.947,-2592.18"/>
<text text-anchor="middle" x="357.947" y="-2603.8" font-family="Times New Roman,serif" font-size="14.00">i1 = (i2 * i3);</text>
</g>
<!-- N32&#45;&gt;N1 -->
<g id="edge38" class="edge"><title>N32&#45;&gt;N1</title>
<path fill="none" stroke="black" d="M351.136,-2728.8C384.616,-2717.52 434.447,-2693.73 434.447,-2652 434.447,-2652 434.447,-2652 434.447,-127 434.447,-86.8511 395.214,-56.7882 364.942,-39.5673"/>
<polygon fill="black" stroke="black" points="366.345,-36.3458 355.888,-34.6382 362.997,-42.4938 366.345,-36.3458"/>
<text text-anchor="middle" x="452.947" y="-1385.8" font-family="Times New Roman,serif" font-size="14.00">return;</text>
</g>
<!-- N32&#45;&gt;N31 -->
<g id="edge37" class="edge"><title>N32&#45;&gt;N31</title>
<path fill="none" stroke="black" d="M321.447,-2719.8C321.447,-2708.16 321.447,-2692.55 321.447,-2679.24"/>
<polygon fill="black" stroke="black" points="324.947,-2679.18 321.447,-2669.18 317.947,-2679.18 324.947,-2679.18"/>
<text text-anchor="middle" x="339.947" y="-2690.8" font-family="Times New Roman,serif" font-size="14.00">i3 = 1;</text>
</g>
<!-- N33&#45;&gt;N8 -->
<g id="edge39" class="edge"><title>N33&#45;&gt;N8</title>
<path fill="none" stroke="black" d="M321.447,-2284.8C321.447,-2273.16 321.447,-2257.55 321.447,-2244.24"/>
<polygon fill="black" stroke="black" points="324.947,-2244.18 321.447,-2234.18 317.947,-2244.18 324.947,-2244.18"/>
<text text-anchor="middle" x="357.947" y="-2255.8" font-family="Times New Roman,serif" font-size="14.00">i1 = (i2 * i3);</text>
</g>
</g>
</svg>
