<?xml version="1.0" encoding="UTF-8" standalone="no"?>
<!DOCTYPE svg PUBLIC "-//W3C//DTD SVG 1.1//EN"
 "http://www.w3.org/Graphics/SVG/1.1/DTD/svg11.dtd">
<!-- Generated by graphviz version 2.38.0 (20140413.2041)
 -->
<!-- Title: anonymous_graph Pages: 1 -->
<svg width="246pt" height="415pt"
 viewBox="0.00 0.00 245.52 415.00" xmlns="http://www.w3.org/2000/svg" xmlns:xlink="http://www.w3.org/1999/xlink">
<g id="graph0" class="graph" transform="scale(1 1) rotate(0) translate(4 411)">
<title>anonymous_graph</title>
<polygon fill="white" stroke="none" points="-4,4 -4,-411 241.517,-411 241.517,4 -4,4"/>
<!-- N0 -->
<g id="node1" class="node"><title>N0</title>
<ellipse fill="none" stroke="black" cx="106.517" cy="-389" rx="29.4969" ry="18"/>
<text text-anchor="middle" x="106.517" y="-385.3" font-family="Times New Roman,serif" font-size="14.00">initial</text>
</g>
<!-- N4 -->
<g id="node5" class="node"><title>N4</title>
<ellipse fill="none" stroke="black" cx="106.517" cy="-302" rx="34.394" ry="18"/>
<text text-anchor="middle" x="106.517" y="-298.3" font-family="Times New Roman,serif" font-size="14.00">N4358</text>
</g>
<!-- N0&#45;&gt;N4 -->
<g id="edge1" class="edge"><title>N0&#45;&gt;N4</title>
<path fill="none" stroke="black" d="M106.517,-370.799C106.517,-359.163 106.517,-343.548 106.517,-330.237"/>
<polygon fill="black" stroke="black" points="110.017,-330.175 106.517,-320.175 103.017,-330.175 110.017,-330.175"/>
<text text-anchor="middle" x="125.017" y="-341.8" font-family="Times New Roman,serif" font-size="14.00">i2 = 2;</text>
</g>
<!-- N1 -->
<g id="node2" class="node"><title>N1</title>
<ellipse fill="none" stroke="black" cx="151.517" cy="-22" rx="27" ry="18"/>
<ellipse fill="none" stroke="black" cx="151.517" cy="-22" rx="31" ry="22"/>
<text text-anchor="middle" x="151.517" y="-18.3" font-family="Times New Roman,serif" font-size="14.00">final</text>
</g>
<!-- N2 -->
<g id="node3" class="node"><title>N2</title>
<ellipse fill="none" stroke="black" cx="72.5167" cy="-215" rx="34.394" ry="18"/>
<text text-anchor="middle" x="72.5167" y="-211.3" font-family="Times New Roman,serif" font-size="14.00">N2519</text>
</g>
<!-- N3 -->
<g id="node4" class="node"><title>N3</title>
<ellipse fill="none" stroke="black" cx="98.5167" cy="-128" rx="34.394" ry="18"/>
<text text-anchor="middle" x="98.5167" y="-124.3" font-family="Times New Roman,serif" font-size="14.00">N3240</text>
</g>
<!-- N2&#45;&gt;N3 -->
<g id="edge2" class="edge"><title>N2&#45;&gt;N3</title>
<path fill="none" stroke="black" d="M42.6464,-205.576C18.4628,-197.171 -9.5986,-182.809 3.51673,-164 15.1064,-147.379 35.5226,-138.63 54.4657,-134.034"/>
<polygon fill="black" stroke="black" points="55.407,-137.412 64.4767,-131.936 53.9715,-130.561 55.407,-137.412"/>
<text text-anchor="middle" x="40.0167" y="-167.8" font-family="Times New Roman,serif" font-size="14.00">i1 = (i2 * i3);</text>
</g>
<!-- N2&#45;&gt;N4 -->
<g id="edge3" class="edge"><title>N2&#45;&gt;N4</title>
<path fill="none" stroke="black" d="M79.2201,-232.758C84.0132,-244.741 90.5583,-261.104 96.038,-274.803"/>
<polygon fill="black" stroke="black" points="92.8358,-276.222 99.7994,-284.207 99.3351,-273.622 92.8358,-276.222"/>
<text text-anchor="middle" x="127.017" y="-254.8" font-family="Times New Roman,serif" font-size="14.00">i2 = (i2 + 1);</text>
</g>
<!-- N3&#45;&gt;N1 -->
<g id="edge5" class="edge"><title>N3&#45;&gt;N1</title>
<path fill="none" stroke="black" d="M104.53,-110.025C109.508,-96.6632 117.107,-77.7342 125.517,-62 127.545,-58.2053 129.844,-54.3144 132.217,-50.5289"/>
<polygon fill="black" stroke="black" points="135.26,-52.2704 137.791,-41.9823 129.396,-48.4465 135.26,-52.2704"/>
<text text-anchor="middle" x="152.017" y="-80.8" font-family="Times New Roman,serif" font-size="14.00">!(i1 &lt; i0)/</text>
<text text-anchor="middle" x="152.017" y="-65.8" font-family="Times New Roman,serif" font-size="14.00">return;</text>
</g>
<!-- N3&#45;&gt;N2 -->
<g id="edge4" class="edge"><title>N3&#45;&gt;N2</title>
<path fill="none" stroke="black" d="M93.3518,-145.885C89.7561,-157.64 84.885,-173.565 80.7568,-187.061"/>
<polygon fill="black" stroke="black" points="77.3564,-186.213 77.7782,-196.799 84.0503,-188.26 77.3564,-186.213"/>
<text text-anchor="middle" x="122.017" y="-167.8" font-family="Times New Roman,serif" font-size="14.00">i3 = (i3 + 1);</text>
</g>
<!-- N4&#45;&gt;N1 -->
<g id="edge7" class="edge"><title>N4&#45;&gt;N1</title>
<path fill="none" stroke="black" d="M134.724,-291.42C146.572,-285.896 159.263,-277.678 166.517,-266 214.436,-188.847 205.597,-148.692 178.517,-62 177.218,-57.8438 175.305,-53.7407 173.085,-49.8461"/>
<polygon fill="black" stroke="black" points="175.868,-47.704 167.496,-41.2101 169.991,-51.5071 175.868,-47.704"/>
<text text-anchor="middle" x="219.017" y="-167.8" font-family="Times New Roman,serif" font-size="14.00">return;</text>
</g>
<!-- N4&#45;&gt;N2 -->
<g id="edge6" class="edge"><title>N4&#45;&gt;N2</title>
<path fill="none" stroke="black" d="M77.7904,-291.901C65.578,-286.447 52.5536,-278.151 45.5167,-266 40.4737,-257.292 43.7356,-247.586 49.4851,-239.059"/>
<polygon fill="black" stroke="black" points="52.3947,-241.022 55.8484,-231.006 46.9024,-236.682 52.3947,-241.022"/>
<text text-anchor="middle" x="64.0167" y="-254.8" font-family="Times New Roman,serif" font-size="14.00">i3 = 1;</text>
</g>
</g>
</svg>
