<?xml version="1.0" encoding="UTF-8" standalone="no"?>
<!DOCTYPE svg PUBLIC "-//W3C//DTD SVG 1.1//EN"
 "http://www.w3.org/Graphics/SVG/1.1/DTD/svg11.dtd">
<!-- Generated by graphviz version 2.38.0 (20140413.2041)
 -->
<!-- Title: store Pages: 1 -->
<svg width="64pt" height="206pt"
 viewBox="0.00 0.00 64.00 206.00" xmlns="http://www.w3.org/2000/svg" xmlns:xlink="http://www.w3.org/1999/xlink">
<g id="graph0" class="graph" transform="scale(1 1) rotate(0) translate(4 202)">
<title>store</title>
<polygon fill="white" stroke="none" points="-4,4 -4,-202 60,-202 60,4 -4,4"/>
<!-- null -->
<g id="node1" class="node"><title>null</title>
<text text-anchor="middle" x="28" y="-14.3" font-family="Times New Roman,serif" font-size="14.00">null</text>
</g>
<!-- N0 -->
<g id="node2" class="node"><title>N0</title>
<polygon fill="none" stroke="black" points="56,-125 3.55271e-015,-125 3.55271e-015,-87 56,-87 56,-125"/>
<text text-anchor="middle" x="28" y="-109.8" font-family="Times New Roman,serif" font-size="14.00">SLL#0</text>
<text text-anchor="middle" x="28" y="-94.8" font-family="Times New Roman,serif" font-size="14.00"> &#160;d=0</text>
</g>
<!-- N0&#45;&gt;null -->
<g id="edge2" class="edge"><title>N0&#45;&gt;null</title>
<path fill="none" stroke="black" d="M22.0522,-86.6531C19.6027,-76.9751 17.6232,-64.8822 19,-54 19.3239,-51.4402 19.7759,-48.7996 20.3066,-46.1702"/>
<polygon fill="black" stroke="black" points="23.7503,-46.8159 22.6385,-36.2796 16.9371,-45.2095 23.7503,-46.8159"/>
<text text-anchor="middle" x="21.5" y="-57.8" font-family="Times New Roman,serif" font-size="14.00">r</text>
</g>
<!-- N0&#45;&gt;null -->
<g id="edge3" class="edge"><title>N0&#45;&gt;null</title>
<path fill="none" stroke="black" d="M28,-86.7616C28,-74.9344 28,-59.3159 28,-46.0547"/>
<polygon fill="black" stroke="black" points="31.5001,-46.0422 28,-36.0422 24.5001,-46.0423 31.5001,-46.0422"/>
<text text-anchor="middle" x="30" y="-57.8" font-family="Times New Roman,serif" font-size="14.00">l</text>
</g>
<!-- r0 -->
<g id="node3" class="node"><title>r0</title>
<text text-anchor="middle" x="28" y="-176.3" font-family="Times New Roman,serif" font-size="14.00">r0</text>
</g>
<!-- r0&#45;&gt;N0 -->
<g id="edge1" class="edge"><title>r0&#45;&gt;N0</title>
<path fill="none" stroke="black" d="M28,-161.937C28,-153.987 28,-144.313 28,-135.313"/>
<polygon fill="black" stroke="black" points="31.5001,-135.199 28,-125.199 24.5001,-135.199 31.5001,-135.199"/>
</g>
</g>
</svg>
