<?xml version="1.0" encoding="UTF-8" standalone="no"?>
<!DOCTYPE svg PUBLIC "-//W3C//DTD SVG 1.1//EN"
 "http://www.w3.org/Graphics/SVG/1.1/DTD/svg11.dtd">
<!-- Generated by graphviz version 2.38.0 (20140413.2041)
 -->
<!-- Title: anonymous_graph Pages: 1 -->
<svg width="423pt" height="1096pt"
 viewBox="0.00 0.00 423.00 1096.00" xmlns="http://www.w3.org/2000/svg" xmlns:xlink="http://www.w3.org/1999/xlink">
<g id="graph0" class="graph" transform="scale(1 1) rotate(0) translate(4 1092)">
<title>anonymous_graph</title>
<polygon fill="white" stroke="none" points="-4,4 -4,-1092 419,-1092 419,4 -4,4"/>
<!-- N0 -->
<g id="node1" class="node"><title>N0</title>
<ellipse fill="none" stroke="black" cx="41" cy="-1070" rx="29.4969" ry="18"/>
<text text-anchor="middle" x="41" y="-1066.3" font-family="Times New Roman,serif" font-size="14.00">initial</text>
</g>
<!-- N2 -->
<g id="node3" class="node"><title>N2</title>
<ellipse fill="none" stroke="black" cx="41" cy="-983" rx="27" ry="18"/>
<text text-anchor="middle" x="41" y="-979.3" font-family="Times New Roman,serif" font-size="14.00">N1</text>
</g>
<!-- N0&#45;&gt;N2 -->
<g id="edge1" class="edge"><title>N0&#45;&gt;N2</title>
<path fill="none" stroke="black" d="M41,-1051.8C41,-1040.16 41,-1024.55 41,-1011.24"/>
<polygon fill="black" stroke="black" points="44.5001,-1011.18 41,-1001.18 37.5001,-1011.18 44.5001,-1011.18"/>
<text text-anchor="middle" x="62.5" y="-1022.8" font-family="Times New Roman,serif" font-size="14.00">i5 = 33;</text>
</g>
<!-- N1 -->
<g id="node2" class="node"><title>N1</title>
<ellipse fill="none" stroke="black" cx="173" cy="-283" rx="27" ry="18"/>
<ellipse fill="none" stroke="black" cx="173" cy="-283" rx="31" ry="22"/>
<text text-anchor="middle" x="173" y="-279.3" font-family="Times New Roman,serif" font-size="14.00">final</text>
</g>
<!-- N3 -->
<g id="node4" class="node"><title>N3</title>
<ellipse fill="none" stroke="black" cx="41" cy="-896" rx="27" ry="18"/>
<text text-anchor="middle" x="41" y="-892.3" font-family="Times New Roman,serif" font-size="14.00">N2</text>
</g>
<!-- N2&#45;&gt;N3 -->
<g id="edge2" class="edge"><title>N2&#45;&gt;N3</title>
<path fill="none" stroke="black" d="M41,-964.799C41,-953.163 41,-937.548 41,-924.237"/>
<polygon fill="black" stroke="black" points="44.5001,-924.175 41,-914.175 37.5001,-924.175 44.5001,-924.175"/>
<text text-anchor="middle" x="81.5" y="-935.8" font-family="Times New Roman,serif" font-size="14.00">loc_SLL = r1;</text>
</g>
<!-- N10 -->
<g id="node11" class="node"><title>N10</title>
<ellipse fill="none" stroke="black" cx="41" cy="-809" rx="27" ry="18"/>
<text text-anchor="middle" x="41" y="-805.3" font-family="Times New Roman,serif" font-size="14.00">N11</text>
</g>
<!-- N3&#45;&gt;N10 -->
<g id="edge3" class="edge"><title>N3&#45;&gt;N10</title>
<path fill="none" stroke="black" d="M41,-877.799C41,-866.163 41,-850.548 41,-837.237"/>
<polygon fill="black" stroke="black" points="44.5001,-837.175 41,-827.175 37.5001,-837.175 44.5001,-837.175"/>
<text text-anchor="middle" x="88" y="-848.8" font-family="Times New Roman,serif" font-size="14.00">loc_SLL.d = 13;</text>
</g>
<!-- N4 -->
<g id="node5" class="node"><title>N4</title>
<ellipse fill="none" stroke="black" cx="116" cy="-635" rx="27" ry="18"/>
<text text-anchor="middle" x="116" y="-631.3" font-family="Times New Roman,serif" font-size="14.00">N5</text>
</g>
<!-- N5 -->
<g id="node6" class="node"><title>N5</title>
<ellipse fill="none" stroke="black" cx="116" cy="-548" rx="27" ry="18"/>
<text text-anchor="middle" x="116" y="-544.3" font-family="Times New Roman,serif" font-size="14.00">N6</text>
</g>
<!-- N4&#45;&gt;N5 -->
<g id="edge4" class="edge"><title>N4&#45;&gt;N5</title>
<path fill="none" stroke="black" d="M116,-616.799C116,-605.163 116,-589.548 116,-576.237"/>
<polygon fill="black" stroke="black" points="119.5,-576.175 116,-566.175 112.5,-576.175 119.5,-576.175"/>
<text text-anchor="middle" x="156.5" y="-587.8" font-family="Times New Roman,serif" font-size="14.00">loc_SLL = r3;</text>
</g>
<!-- N6 -->
<g id="node7" class="node"><title>N6</title>
<ellipse fill="none" stroke="black" cx="102" cy="-461" rx="27" ry="18"/>
<text text-anchor="middle" x="102" y="-457.3" font-family="Times New Roman,serif" font-size="14.00">N7</text>
</g>
<!-- N5&#45;&gt;N6 -->
<g id="edge5" class="edge"><title>N5&#45;&gt;N6</title>
<path fill="none" stroke="black" d="M113.167,-529.799C111.25,-518.163 108.678,-502.548 106.486,-489.237"/>
<polygon fill="black" stroke="black" points="109.908,-488.474 104.829,-479.175 103.001,-489.611 109.908,-488.474"/>
<text text-anchor="middle" x="156" y="-500.8" font-family="Times New Roman,serif" font-size="14.00">loc_SLL.d = 11;</text>
</g>
<!-- N7 -->
<g id="node8" class="node"><title>N7</title>
<ellipse fill="none" stroke="black" cx="88" cy="-374" rx="27" ry="18"/>
<text text-anchor="middle" x="88" y="-370.3" font-family="Times New Roman,serif" font-size="14.00">N8</text>
</g>
<!-- N6&#45;&gt;N7 -->
<g id="edge6" class="edge"><title>N6&#45;&gt;N7</title>
<path fill="none" stroke="black" d="M99.1669,-442.799C97.2503,-431.163 94.6785,-415.548 92.4861,-402.237"/>
<polygon fill="black" stroke="black" points="95.9076,-401.474 90.8289,-392.175 89.0007,-402.611 95.9076,-401.474"/>
<text text-anchor="middle" x="135.5" y="-413.8" font-family="Times New Roman,serif" font-size="14.00">loc_SLL = r4;</text>
</g>
<!-- N8 -->
<g id="node9" class="node"><title>N8</title>
<ellipse fill="none" stroke="black" cx="60" cy="-283" rx="27" ry="18"/>
<text text-anchor="middle" x="60" y="-279.3" font-family="Times New Roman,serif" font-size="14.00">N9</text>
</g>
<!-- N7&#45;&gt;N8 -->
<g id="edge7" class="edge"><title>N7&#45;&gt;N8</title>
<path fill="none" stroke="black" d="M73.5451,-358.6C68.5971,-352.719 63.6451,-345.53 61,-338 58.0396,-329.572 57.1441,-319.939 57.1865,-311.164"/>
<polygon fill="black" stroke="black" points="60.6896,-311.169 57.6278,-301.026 53.6962,-310.864 60.6896,-311.169"/>
<text text-anchor="middle" x="108" y="-326.8" font-family="Times New Roman,serif" font-size="14.00">loc_SLL.d = 10;</text>
</g>
<!-- N9 -->
<g id="node10" class="node"><title>N9</title>
<ellipse fill="none" stroke="black" cx="27" cy="-192" rx="27" ry="18"/>
<text text-anchor="middle" x="27" y="-188.3" font-family="Times New Roman,serif" font-size="14.00">N10</text>
</g>
<!-- N8&#45;&gt;N9 -->
<g id="edge8" class="edge"><title>N8&#45;&gt;N9</title>
<path fill="none" stroke="black" d="M53.793,-265.26C48.9993,-252.331 42.2758,-234.198 36.7634,-219.332"/>
<polygon fill="black" stroke="black" points="39.9375,-217.825 33.1792,-209.665 33.3742,-220.258 39.9375,-217.825"/>
<text text-anchor="middle" x="86.5" y="-231.8" font-family="Times New Roman,serif" font-size="14.00">loc_SLL = r1;</text>
</g>
<!-- N9&#45;&gt;N10 -->
<g id="edge9" class="edge"><title>N9&#45;&gt;N10</title>
<path fill="none" stroke="black" d="M20.2797,-209.757C13.8099,-227.424 5,-256.215 5,-282 5,-723 5,-723 5,-723 5,-744.703 15.074,-767.23 24.5638,-783.636"/>
<polygon fill="black" stroke="black" points="21.8019,-785.829 30.0032,-792.536 27.7747,-782.179 21.8019,-785.829"/>
<text text-anchor="middle" x="49" y="-500.8" font-family="Times New Roman,serif" font-size="14.00">loc_SLL.l = r2;</text>
</g>
<!-- N11 -->
<g id="node12" class="node"><title>N11</title>
<ellipse fill="none" stroke="black" cx="116" cy="-722" rx="27" ry="18"/>
<text text-anchor="middle" x="116" y="-718.3" font-family="Times New Roman,serif" font-size="14.00">N12</text>
</g>
<!-- N10&#45;&gt;N11 -->
<g id="edge10" class="edge"><title>N10&#45;&gt;N11</title>
<path fill="none" stroke="black" d="M54.064,-793.194C65.608,-780.111 82.6243,-760.826 95.9012,-745.779"/>
<polygon fill="black" stroke="black" points="98.8423,-747.735 102.834,-737.921 93.5934,-743.104 98.8423,-747.735"/>
<text text-anchor="middle" x="123.5" y="-761.8" font-family="Times New Roman,serif" font-size="14.00">loc_SLL = r2;</text>
</g>
<!-- N11&#45;&gt;N4 -->
<g id="edge11" class="edge"><title>N11&#45;&gt;N4</title>
<path fill="none" stroke="black" d="M116,-703.799C116,-692.163 116,-676.548 116,-663.237"/>
<polygon fill="black" stroke="black" points="119.5,-663.175 116,-653.175 112.5,-663.175 119.5,-663.175"/>
<text text-anchor="middle" x="163" y="-674.8" font-family="Times New Roman,serif" font-size="14.00">loc_SLL.d = 12;</text>
</g>
<!-- N12 -->
<g id="node13" class="node"><title>N12</title>
<ellipse fill="none" stroke="black" cx="235" cy="-635" rx="27" ry="18"/>
<text text-anchor="middle" x="235" y="-631.3" font-family="Times New Roman,serif" font-size="14.00">N13</text>
</g>
<!-- N11&#45;&gt;N12 -->
<g id="edge12" class="edge"><title>N11&#45;&gt;N12</title>
<path fill="none" stroke="black" d="M142.454,-717.311C163.844,-713.077 193.505,-704.208 213,-686 219.775,-679.672 224.583,-670.887 227.94,-662.443"/>
<polygon fill="black" stroke="black" points="231.294,-663.451 231.243,-652.856 224.676,-661.17 231.294,-663.451"/>
<text text-anchor="middle" x="267" y="-674.8" font-family="Times New Roman,serif" font-size="14.00">loc_SLL.l = r3;</text>
</g>
<!-- N13 -->
<g id="node14" class="node"><title>N13</title>
<ellipse fill="none" stroke="black" cx="236" cy="-548" rx="27" ry="18"/>
<text text-anchor="middle" x="236" y="-544.3" font-family="Times New Roman,serif" font-size="14.00">N14</text>
</g>
<!-- N12&#45;&gt;N13 -->
<g id="edge13" class="edge"><title>N12&#45;&gt;N13</title>
<path fill="none" stroke="black" d="M235.202,-616.799C235.339,-605.163 235.523,-589.548 235.68,-576.237"/>
<polygon fill="black" stroke="black" points="239.18,-576.216 235.798,-566.175 232.18,-576.134 239.18,-576.216"/>
<text text-anchor="middle" x="275.5" y="-587.8" font-family="Times New Roman,serif" font-size="14.00">loc_SLL = r3;</text>
</g>
<!-- N14 -->
<g id="node15" class="node"><title>N14</title>
<ellipse fill="none" stroke="black" cx="245" cy="-461" rx="27" ry="18"/>
<text text-anchor="middle" x="245" y="-457.3" font-family="Times New Roman,serif" font-size="14.00">N15</text>
</g>
<!-- N13&#45;&gt;N14 -->
<g id="edge14" class="edge"><title>N13&#45;&gt;N14</title>
<path fill="none" stroke="black" d="M237.821,-529.799C239.053,-518.163 240.707,-502.548 242.116,-489.237"/>
<polygon fill="black" stroke="black" points="245.609,-489.488 243.181,-479.175 238.648,-488.751 245.609,-489.488"/>
<text text-anchor="middle" x="285" y="-500.8" font-family="Times New Roman,serif" font-size="14.00">loc_SLL.l = r4;</text>
</g>
<!-- N15 -->
<g id="node16" class="node"><title>N15</title>
<ellipse fill="none" stroke="black" cx="245" cy="-374" rx="27" ry="18"/>
<text text-anchor="middle" x="245" y="-370.3" font-family="Times New Roman,serif" font-size="14.00">N21</text>
</g>
<!-- N14&#45;&gt;N15 -->
<g id="edge15" class="edge"><title>N14&#45;&gt;N15</title>
<path fill="none" stroke="black" d="M245,-442.799C245,-431.163 245,-415.548 245,-402.237"/>
<polygon fill="black" stroke="black" points="248.5,-402.175 245,-392.175 241.5,-402.175 248.5,-402.175"/>
<text text-anchor="middle" x="266.5" y="-413.8" font-family="Times New Roman,serif" font-size="14.00">r5 = r1;</text>
</g>
<!-- N15&#45;&gt;N1 -->
<g id="edge17" class="edge"><title>N15&#45;&gt;N1</title>
<path fill="none" stroke="black" d="M227.54,-359.78C220.088,-353.641 211.606,-345.948 205,-338 198.657,-330.368 192.777,-321.333 187.834,-312.859"/>
<polygon fill="black" stroke="black" points="190.8,-310.992 182.86,-303.977 184.692,-314.412 190.8,-310.992"/>
<text text-anchor="middle" x="223.5" y="-326.8" font-family="Times New Roman,serif" font-size="14.00">return;</text>
</g>
<!-- N18 -->
<g id="node19" class="node"><title>N18</title>
<ellipse fill="none" stroke="black" cx="249" cy="-283" rx="27" ry="18"/>
<text text-anchor="middle" x="249" y="-279.3" font-family="Times New Roman,serif" font-size="14.00">N32</text>
</g>
<!-- N15&#45;&gt;N18 -->
<g id="edge16" class="edge"><title>N15&#45;&gt;N18</title>
<path fill="none" stroke="black" d="M245.771,-355.84C246.336,-343.281 247.113,-325.979 247.764,-311.502"/>
<polygon fill="black" stroke="black" points="251.279,-311.255 248.231,-301.107 244.286,-310.94 251.279,-311.255"/>
<text text-anchor="middle" x="282.5" y="-326.8" font-family="Times New Roman,serif" font-size="14.00">i5 = (i5 + 1);</text>
</g>
<!-- N16 -->
<g id="node17" class="node"><title>N16</title>
<ellipse fill="none" stroke="black" cx="241" cy="-192" rx="27" ry="18"/>
<text text-anchor="middle" x="241" y="-188.3" font-family="Times New Roman,serif" font-size="14.00">N28</text>
</g>
<!-- N19 -->
<g id="node20" class="node"><title>N19</title>
<ellipse fill="none" stroke="black" cx="237" cy="-105" rx="27" ry="18"/>
<text text-anchor="middle" x="237" y="-101.3" font-family="Times New Roman,serif" font-size="14.00">N34</text>
</g>
<!-- N16&#45;&gt;N19 -->
<g id="edge18" class="edge"><title>N16&#45;&gt;N19</title>
<path fill="none" stroke="black" d="M240.191,-173.799C239.643,-162.163 238.908,-146.548 238.282,-133.237"/>
<polygon fill="black" stroke="black" points="241.775,-133 237.808,-123.175 234.782,-133.329 241.775,-133"/>
<text text-anchor="middle" x="279.5" y="-144.8" font-family="Times New Roman,serif" font-size="14.00">loc_SLL = r5;</text>
</g>
<!-- N17 -->
<g id="node18" class="node"><title>N17</title>
<ellipse fill="none" stroke="black" cx="287" cy="-18" rx="27" ry="18"/>
<text text-anchor="middle" x="287" y="-14.3" font-family="Times New Roman,serif" font-size="14.00">N30</text>
</g>
<!-- N17&#45;&gt;N15 -->
<g id="edge19" class="edge"><title>N17&#45;&gt;N15</title>
<path fill="none" stroke="black" d="M304.952,-31.9585C312.104,-37.9425 319.845,-45.5876 325,-54 337.057,-73.6768 339,-80.9231 339,-104 339,-284 339,-284 339,-284 339,-309.161 338.677,-319.16 322,-338 311.087,-350.328 294.962,-358.572 280.285,-363.943"/>
<polygon fill="black" stroke="black" points="278.821,-360.741 270.436,-367.218 281.03,-367.384 278.821,-360.741"/>
<text text-anchor="middle" x="377" y="-188.3" font-family="Times New Roman,serif" font-size="14.00">i4 = (i4 + &#45;1);</text>
</g>
<!-- N18&#45;&gt;N16 -->
<g id="edge20" class="edge"><title>N18&#45;&gt;N16</title>
<path fill="none" stroke="black" d="M247.458,-264.84C246.318,-252.158 244.743,-234.64 243.434,-220.077"/>
<polygon fill="black" stroke="black" points="246.919,-219.754 242.538,-210.107 239.947,-220.381 246.919,-219.754"/>
<text text-anchor="middle" x="271" y="-231.8" font-family="Times New Roman,serif" font-size="14.00">i0 = r5.d;</text>
</g>
<!-- N19&#45;&gt;N17 -->
<g id="edge21" class="edge"><title>N19&#45;&gt;N17</title>
<path fill="none" stroke="black" d="M233.213,-86.8601C231.87,-76.7466 231.789,-64.0093 237,-54 241.256,-45.8263 248.39,-39.1668 255.957,-33.936"/>
<polygon fill="black" stroke="black" points="258.203,-36.6639 264.891,-28.4467 254.538,-30.6997 258.203,-36.6639"/>
<text text-anchor="middle" x="281" y="-57.8" font-family="Times New Roman,serif" font-size="14.00">r5 = loc_SLL.l;</text>
</g>
</g>
</svg>
