<?xml version="1.0" encoding="UTF-8" standalone="no"?>
<!DOCTYPE svg PUBLIC "-//W3C//DTD SVG 1.1//EN"
 "http://www.w3.org/Graphics/SVG/1.1/DTD/svg11.dtd">
<!-- Generated by graphviz version 2.38.0 (20140413.2041)
 -->
<!-- Title: anonymous_graph Pages: 1 -->
<svg width="419pt" height="1096pt"
 viewBox="0.00 0.00 419.00 1096.00" xmlns="http://www.w3.org/2000/svg" xmlns:xlink="http://www.w3.org/1999/xlink">
<g id="graph0" class="graph" transform="scale(1 1) rotate(0) translate(4 1092)">
<title>anonymous_graph</title>
<polygon fill="white" stroke="none" points="-4,4 -4,-1092 415,-1092 415,4 -4,4"/>
<!-- N0 -->
<g id="node1" class="node"><title>N0</title>
<ellipse fill="none" stroke="black" cx="116" cy="-1070" rx="29.4969" ry="18"/>
<text text-anchor="middle" x="116" y="-1066.3" font-family="Times New Roman,serif" font-size="14.00">initial</text>
</g>
<!-- N2 -->
<g id="node3" class="node"><title>N2</title>
<ellipse fill="none" stroke="black" cx="116" cy="-983" rx="27" ry="18"/>
<text text-anchor="middle" x="116" y="-979.3" font-family="Times New Roman,serif" font-size="14.00">N1</text>
</g>
<!-- N0&#45;&gt;N2 -->
<g id="edge1" class="edge"><title>N0&#45;&gt;N2</title>
<path fill="none" stroke="black" d="M116,-1051.8C116,-1040.16 116,-1024.55 116,-1011.24"/>
<polygon fill="black" stroke="black" points="119.5,-1011.18 116,-1001.18 112.5,-1011.18 119.5,-1011.18"/>
<text text-anchor="middle" x="137.5" y="-1022.8" font-family="Times New Roman,serif" font-size="14.00">i5 = 33;</text>
</g>
<!-- N1 -->
<g id="node2" class="node"><title>N1</title>
<ellipse fill="none" stroke="black" cx="173" cy="-283" rx="27" ry="18"/>
<ellipse fill="none" stroke="black" cx="173" cy="-283" rx="31" ry="22"/>
<text text-anchor="middle" x="173" y="-279.3" font-family="Times New Roman,serif" font-size="14.00">final</text>
</g>
<!-- N3 -->
<g id="node4" class="node"><title>N3</title>
<ellipse fill="none" stroke="black" cx="116" cy="-896" rx="27" ry="18"/>
<text text-anchor="middle" x="116" y="-892.3" font-family="Times New Roman,serif" font-size="14.00">N2</text>
</g>
<!-- N2&#45;&gt;N3 -->
<g id="edge2" class="edge"><title>N2&#45;&gt;N3</title>
<path fill="none" stroke="black" d="M116,-964.799C116,-953.163 116,-937.548 116,-924.237"/>
<polygon fill="black" stroke="black" points="119.5,-924.175 116,-914.175 112.5,-924.175 119.5,-924.175"/>
<text text-anchor="middle" x="156.5" y="-935.8" font-family="Times New Roman,serif" font-size="14.00">loc_SLL = r1;</text>
</g>
<!-- N11 -->
<g id="node12" class="node"><title>N11</title>
<ellipse fill="none" stroke="black" cx="116" cy="-809" rx="27" ry="18"/>
<text text-anchor="middle" x="116" y="-805.3" font-family="Times New Roman,serif" font-size="14.00">N11</text>
</g>
<!-- N3&#45;&gt;N11 -->
<g id="edge3" class="edge"><title>N3&#45;&gt;N11</title>
<path fill="none" stroke="black" d="M116,-877.799C116,-866.163 116,-850.548 116,-837.237"/>
<polygon fill="black" stroke="black" points="119.5,-837.175 116,-827.175 112.5,-837.175 119.5,-837.175"/>
<text text-anchor="middle" x="163" y="-848.8" font-family="Times New Roman,serif" font-size="14.00">loc_SLL.d = 13;</text>
</g>
<!-- N4 -->
<g id="node5" class="node"><title>N4</title>
<ellipse fill="none" stroke="black" cx="116" cy="-722" rx="27" ry="18"/>
<text text-anchor="middle" x="116" y="-718.3" font-family="Times New Roman,serif" font-size="14.00">N4</text>
</g>
<!-- N5 -->
<g id="node6" class="node"><title>N5</title>
<ellipse fill="none" stroke="black" cx="116" cy="-635" rx="27" ry="18"/>
<text text-anchor="middle" x="116" y="-631.3" font-family="Times New Roman,serif" font-size="14.00">N5</text>
</g>
<!-- N4&#45;&gt;N5 -->
<g id="edge4" class="edge"><title>N4&#45;&gt;N5</title>
<path fill="none" stroke="black" d="M116,-703.799C116,-692.163 116,-676.548 116,-663.237"/>
<polygon fill="black" stroke="black" points="119.5,-663.175 116,-653.175 112.5,-663.175 119.5,-663.175"/>
<text text-anchor="middle" x="163" y="-674.8" font-family="Times New Roman,serif" font-size="14.00">loc_SLL.d = 12;</text>
</g>
<!-- N6 -->
<g id="node7" class="node"><title>N6</title>
<ellipse fill="none" stroke="black" cx="116" cy="-548" rx="27" ry="18"/>
<text text-anchor="middle" x="116" y="-544.3" font-family="Times New Roman,serif" font-size="14.00">N6</text>
</g>
<!-- N5&#45;&gt;N6 -->
<g id="edge5" class="edge"><title>N5&#45;&gt;N6</title>
<path fill="none" stroke="black" d="M116,-616.799C116,-605.163 116,-589.548 116,-576.237"/>
<polygon fill="black" stroke="black" points="119.5,-576.175 116,-566.175 112.5,-576.175 119.5,-576.175"/>
<text text-anchor="middle" x="156.5" y="-587.8" font-family="Times New Roman,serif" font-size="14.00">loc_SLL = r3;</text>
</g>
<!-- N7 -->
<g id="node8" class="node"><title>N7</title>
<ellipse fill="none" stroke="black" cx="88" cy="-461" rx="27" ry="18"/>
<text text-anchor="middle" x="88" y="-457.3" font-family="Times New Roman,serif" font-size="14.00">N7</text>
</g>
<!-- N6&#45;&gt;N7 -->
<g id="edge6" class="edge"><title>N6&#45;&gt;N7</title>
<path fill="none" stroke="black" d="M110.468,-530.207C106.556,-518.332 101.232,-502.168 96.7481,-488.557"/>
<polygon fill="black" stroke="black" points="99.9735,-487.161 93.5204,-478.758 93.3249,-489.351 99.9735,-487.161"/>
<text text-anchor="middle" x="151" y="-500.8" font-family="Times New Roman,serif" font-size="14.00">loc_SLL.d = 11;</text>
</g>
<!-- N8 -->
<g id="node9" class="node"><title>N8</title>
<ellipse fill="none" stroke="black" cx="67" cy="-374" rx="27" ry="18"/>
<text text-anchor="middle" x="67" y="-370.3" font-family="Times New Roman,serif" font-size="14.00">N8</text>
</g>
<!-- N7&#45;&gt;N8 -->
<g id="edge7" class="edge"><title>N7&#45;&gt;N8</title>
<path fill="none" stroke="black" d="M83.8511,-443.207C80.9364,-431.409 76.9758,-415.378 73.6266,-401.822"/>
<polygon fill="black" stroke="black" points="77.0086,-400.918 71.2122,-392.049 70.2129,-402.597 77.0086,-400.918"/>
<text text-anchor="middle" x="119.5" y="-413.8" font-family="Times New Roman,serif" font-size="14.00">loc_SLL = r4;</text>
</g>
<!-- N9 -->
<g id="node10" class="node"><title>N9</title>
<ellipse fill="none" stroke="black" cx="60" cy="-283" rx="27" ry="18"/>
<text text-anchor="middle" x="60" y="-279.3" font-family="Times New Roman,serif" font-size="14.00">N9</text>
</g>
<!-- N8&#45;&gt;N9 -->
<g id="edge8" class="edge"><title>N8&#45;&gt;N9</title>
<path fill="none" stroke="black" d="M63.5504,-355.979C62.5392,-350.287 61.5564,-343.892 61,-338 60.1819,-329.336 59.8255,-319.856 59.7037,-311.291"/>
<polygon fill="black" stroke="black" points="63.2027,-311.046 59.6576,-301.062 56.2028,-311.077 63.2027,-311.046"/>
<text text-anchor="middle" x="108" y="-326.8" font-family="Times New Roman,serif" font-size="14.00">loc_SLL.d = 10;</text>
</g>
<!-- N10 -->
<g id="node11" class="node"><title>N10</title>
<ellipse fill="none" stroke="black" cx="27" cy="-192" rx="27" ry="18"/>
<text text-anchor="middle" x="27" y="-188.3" font-family="Times New Roman,serif" font-size="14.00">N10</text>
</g>
<!-- N9&#45;&gt;N10 -->
<g id="edge9" class="edge"><title>N9&#45;&gt;N10</title>
<path fill="none" stroke="black" d="M53.793,-265.26C48.9993,-252.331 42.2758,-234.198 36.7634,-219.332"/>
<polygon fill="black" stroke="black" points="39.9375,-217.825 33.1792,-209.665 33.3742,-220.258 39.9375,-217.825"/>
<text text-anchor="middle" x="86.5" y="-231.8" font-family="Times New Roman,serif" font-size="14.00">loc_SLL = r1;</text>
</g>
<!-- N10&#45;&gt;N11 -->
<g id="edge10" class="edge"><title>N10&#45;&gt;N11</title>
<path fill="none" stroke="black" d="M20.2797,-209.757C13.8099,-227.424 5,-256.215 5,-282 5,-723 5,-723 5,-723 5,-762.154 49.0737,-785.714 81.677,-797.786"/>
<polygon fill="black" stroke="black" points="80.7707,-801.177 91.3655,-801.168 83.0778,-794.568 80.7707,-801.177"/>
<text text-anchor="middle" x="49" y="-500.8" font-family="Times New Roman,serif" font-size="14.00">loc_SLL.l = r2;</text>
</g>
<!-- N11&#45;&gt;N4 -->
<g id="edge12" class="edge"><title>N11&#45;&gt;N4</title>
<path fill="none" stroke="black" d="M116,-790.799C116,-779.163 116,-763.548 116,-750.237"/>
<polygon fill="black" stroke="black" points="119.5,-750.175 116,-740.175 112.5,-750.175 119.5,-750.175"/>
<text text-anchor="middle" x="156.5" y="-761.8" font-family="Times New Roman,serif" font-size="14.00">loc_SLL = r2;</text>
</g>
<!-- N12 -->
<g id="node13" class="node"><title>N12</title>
<ellipse fill="none" stroke="black" cx="229" cy="-722" rx="27" ry="18"/>
<text text-anchor="middle" x="229" y="-718.3" font-family="Times New Roman,serif" font-size="14.00">N12</text>
</g>
<!-- N11&#45;&gt;N12 -->
<g id="edge11" class="edge"><title>N11&#45;&gt;N12</title>
<path fill="none" stroke="black" d="M141.468,-802.304C159.746,-797.16 184.045,-788.036 201,-773 208.355,-766.477 214.204,-757.541 218.614,-749.026"/>
<polygon fill="black" stroke="black" points="221.892,-750.28 222.984,-739.742 215.558,-747.299 221.892,-750.28"/>
<text text-anchor="middle" x="252.5" y="-761.8" font-family="Times New Roman,serif" font-size="14.00">loc_SLL = r2;</text>
</g>
<!-- N13 -->
<g id="node14" class="node"><title>N13</title>
<ellipse fill="none" stroke="black" cx="233" cy="-635" rx="27" ry="18"/>
<text text-anchor="middle" x="233" y="-631.3" font-family="Times New Roman,serif" font-size="14.00">N13</text>
</g>
<!-- N12&#45;&gt;N13 -->
<g id="edge13" class="edge"><title>N12&#45;&gt;N13</title>
<path fill="none" stroke="black" d="M229.809,-703.799C230.357,-692.163 231.092,-676.548 231.718,-663.237"/>
<polygon fill="black" stroke="black" points="235.218,-663.329 232.192,-653.175 228.225,-663 235.218,-663.329"/>
<text text-anchor="middle" x="275" y="-674.8" font-family="Times New Roman,serif" font-size="14.00">loc_SLL.l = r3;</text>
</g>
<!-- N14 -->
<g id="node15" class="node"><title>N14</title>
<ellipse fill="none" stroke="black" cx="234" cy="-548" rx="27" ry="18"/>
<text text-anchor="middle" x="234" y="-544.3" font-family="Times New Roman,serif" font-size="14.00">N14</text>
</g>
<!-- N13&#45;&gt;N14 -->
<g id="edge14" class="edge"><title>N13&#45;&gt;N14</title>
<path fill="none" stroke="black" d="M233.202,-616.799C233.339,-605.163 233.523,-589.548 233.68,-576.237"/>
<polygon fill="black" stroke="black" points="237.18,-576.216 233.798,-566.175 230.18,-576.134 237.18,-576.216"/>
<text text-anchor="middle" x="273.5" y="-587.8" font-family="Times New Roman,serif" font-size="14.00">loc_SLL = r3;</text>
</g>
<!-- N15 -->
<g id="node16" class="node"><title>N15</title>
<ellipse fill="none" stroke="black" cx="237" cy="-461" rx="27" ry="18"/>
<text text-anchor="middle" x="237" y="-457.3" font-family="Times New Roman,serif" font-size="14.00">N15</text>
</g>
<!-- N14&#45;&gt;N15 -->
<g id="edge15" class="edge"><title>N14&#45;&gt;N15</title>
<path fill="none" stroke="black" d="M234.607,-529.799C235.018,-518.163 235.569,-502.548 236.039,-489.237"/>
<polygon fill="black" stroke="black" points="239.539,-489.293 236.394,-479.175 232.543,-489.046 239.539,-489.293"/>
<text text-anchor="middle" x="279" y="-500.8" font-family="Times New Roman,serif" font-size="14.00">loc_SLL.l = r4;</text>
</g>
<!-- N16 -->
<g id="node17" class="node"><title>N16</title>
<ellipse fill="none" stroke="black" cx="244" cy="-374" rx="27" ry="18"/>
<text text-anchor="middle" x="244" y="-370.3" font-family="Times New Roman,serif" font-size="14.00">N21</text>
</g>
<!-- N15&#45;&gt;N16 -->
<g id="edge16" class="edge"><title>N15&#45;&gt;N16</title>
<path fill="none" stroke="black" d="M238.417,-442.799C239.375,-431.163 240.661,-415.548 241.757,-402.237"/>
<polygon fill="black" stroke="black" points="245.253,-402.429 242.586,-392.175 238.277,-401.854 245.253,-402.429"/>
<text text-anchor="middle" x="261.5" y="-413.8" font-family="Times New Roman,serif" font-size="14.00">r5 = r1;</text>
</g>
<!-- N16&#45;&gt;N1 -->
<g id="edge18" class="edge"><title>N16&#45;&gt;N1</title>
<path fill="none" stroke="black" d="M226.998,-359.713C219.736,-353.561 211.464,-345.877 205,-338 198.705,-330.329 192.839,-321.282 187.894,-312.81"/>
<polygon fill="black" stroke="black" points="190.859,-310.941 182.913,-303.933 184.755,-314.367 190.859,-310.941"/>
<text text-anchor="middle" x="223.5" y="-326.8" font-family="Times New Roman,serif" font-size="14.00">return;</text>
</g>
<!-- N19 -->
<g id="node20" class="node"><title>N19</title>
<ellipse fill="none" stroke="black" cx="249" cy="-283" rx="27" ry="18"/>
<text text-anchor="middle" x="249" y="-279.3" font-family="Times New Roman,serif" font-size="14.00">N32</text>
</g>
<!-- N16&#45;&gt;N19 -->
<g id="edge17" class="edge"><title>N16&#45;&gt;N19</title>
<path fill="none" stroke="black" d="M244.964,-355.84C245.67,-343.281 246.642,-325.979 247.455,-311.502"/>
<polygon fill="black" stroke="black" points="250.972,-311.288 248.039,-301.107 243.983,-310.895 250.972,-311.288"/>
<text text-anchor="middle" x="281.5" y="-326.8" font-family="Times New Roman,serif" font-size="14.00">i5 = (i5 + 1);</text>
</g>
<!-- N17 -->
<g id="node18" class="node"><title>N17</title>
<ellipse fill="none" stroke="black" cx="239" cy="-192" rx="27" ry="18"/>
<text text-anchor="middle" x="239" y="-188.3" font-family="Times New Roman,serif" font-size="14.00">N28</text>
</g>
<!-- N20 -->
<g id="node21" class="node"><title>N20</title>
<ellipse fill="none" stroke="black" cx="233" cy="-105" rx="27" ry="18"/>
<text text-anchor="middle" x="233" y="-101.3" font-family="Times New Roman,serif" font-size="14.00">N34</text>
</g>
<!-- N17&#45;&gt;N20 -->
<g id="edge19" class="edge"><title>N17&#45;&gt;N20</title>
<path fill="none" stroke="black" d="M237.786,-173.799C236.964,-162.163 235.862,-146.548 234.923,-133.237"/>
<polygon fill="black" stroke="black" points="238.408,-132.904 234.212,-123.175 231.425,-133.397 238.408,-132.904"/>
<text text-anchor="middle" x="276.5" y="-144.8" font-family="Times New Roman,serif" font-size="14.00">loc_SLL = r5;</text>
</g>
<!-- N18 -->
<g id="node19" class="node"><title>N18</title>
<ellipse fill="none" stroke="black" cx="283" cy="-18" rx="27" ry="18"/>
<text text-anchor="middle" x="283" y="-14.3" font-family="Times New Roman,serif" font-size="14.00">N30</text>
</g>
<!-- N18&#45;&gt;N16 -->
<g id="edge20" class="edge"><title>N18&#45;&gt;N16</title>
<path fill="none" stroke="black" d="M300.952,-31.9585C308.104,-37.9425 315.845,-45.5876 321,-54 333.057,-73.6768 335,-80.9231 335,-104 335,-284 335,-284 335,-284 335,-308.793 336.952,-319.02 321,-338 310.227,-350.818 293.775,-359.161 278.841,-364.472"/>
<polygon fill="black" stroke="black" points="277.764,-361.142 269.32,-367.542 279.912,-367.804 277.764,-361.142"/>
<text text-anchor="middle" x="373" y="-188.3" font-family="Times New Roman,serif" font-size="14.00">i4 = (i4 + &#45;1);</text>
</g>
<!-- N19&#45;&gt;N17 -->
<g id="edge21" class="edge"><title>N19&#45;&gt;N17</title>
<path fill="none" stroke="black" d="M247.072,-264.84C245.647,-252.158 243.679,-234.64 242.042,-220.077"/>
<polygon fill="black" stroke="black" points="245.517,-219.654 240.922,-210.107 238.561,-220.436 245.517,-219.654"/>
<text text-anchor="middle" x="270" y="-231.8" font-family="Times New Roman,serif" font-size="14.00">i0 = r5.d;</text>
</g>
<!-- N20&#45;&gt;N18 -->
<g id="edge22" class="edge"><title>N20&#45;&gt;N18</title>
<path fill="none" stroke="black" d="M229.213,-86.8601C227.87,-76.7466 227.789,-64.0093 233,-54 237.256,-45.8263 244.39,-39.1668 251.957,-33.936"/>
<polygon fill="black" stroke="black" points="254.203,-36.6639 260.891,-28.4467 250.538,-30.6997 254.203,-36.6639"/>
<text text-anchor="middle" x="277" y="-57.8" font-family="Times New Roman,serif" font-size="14.00">r5 = loc_SLL.l;</text>
</g>
</g>
</svg>
