<?xml version="1.0" encoding="UTF-8" standalone="no"?>
<!DOCTYPE svg PUBLIC "-//W3C//DTD SVG 1.1//EN"
 "http://www.w3.org/Graphics/SVG/1.1/DTD/svg11.dtd">
<!-- Generated by graphviz version 2.38.0 (20140413.2041)
 -->
<!-- Title: anonymous_graph Pages: 1 -->
<svg width="297pt" height="2140pt"
 viewBox="0.00 0.00 297.00 2140.00" xmlns="http://www.w3.org/2000/svg" xmlns:xlink="http://www.w3.org/1999/xlink">
<g id="graph0" class="graph" transform="scale(1 1) rotate(0) translate(4 2136)">
<title>anonymous_graph</title>
<polygon fill="white" stroke="none" points="-4,4 -4,-2136 293,-2136 293,4 -4,4"/>
<!-- N0 -->
<g id="node1" class="node"><title>N0</title>
<ellipse fill="none" stroke="black" cx="154" cy="-2114" rx="29.4969" ry="18"/>
<text text-anchor="middle" x="154" y="-2110.3" font-family="Times New Roman,serif" font-size="14.00">initial</text>
</g>
<!-- N2 -->
<g id="node3" class="node"><title>N2</title>
<ellipse fill="none" stroke="black" cx="154" cy="-2027" rx="27" ry="18"/>
<text text-anchor="middle" x="154" y="-2023.3" font-family="Times New Roman,serif" font-size="14.00">N1</text>
</g>
<!-- N0&#45;&gt;N2 -->
<g id="edge1" class="edge"><title>N0&#45;&gt;N2</title>
<path fill="none" stroke="black" d="M154,-2095.8C154,-2084.16 154,-2068.55 154,-2055.24"/>
<polygon fill="black" stroke="black" points="157.5,-2055.18 154,-2045.18 150.5,-2055.18 157.5,-2055.18"/>
<text text-anchor="middle" x="175.5" y="-2066.8" font-family="Times New Roman,serif" font-size="14.00">i5 = 33;</text>
</g>
<!-- N1 -->
<g id="node2" class="node"><title>N1</title>
<ellipse fill="none" stroke="black" cx="31" cy="-196" rx="27" ry="18"/>
<ellipse fill="none" stroke="black" cx="31" cy="-196" rx="31" ry="22"/>
<text text-anchor="middle" x="31" y="-192.3" font-family="Times New Roman,serif" font-size="14.00">final</text>
</g>
<!-- N3 -->
<g id="node4" class="node"><title>N3</title>
<ellipse fill="none" stroke="black" cx="154" cy="-1940" rx="27" ry="18"/>
<text text-anchor="middle" x="154" y="-1936.3" font-family="Times New Roman,serif" font-size="14.00">N2</text>
</g>
<!-- N2&#45;&gt;N3 -->
<g id="edge2" class="edge"><title>N2&#45;&gt;N3</title>
<path fill="none" stroke="black" d="M154,-2008.8C154,-1997.16 154,-1981.55 154,-1968.24"/>
<polygon fill="black" stroke="black" points="157.5,-1968.18 154,-1958.18 150.5,-1968.18 157.5,-1968.18"/>
<text text-anchor="middle" x="194.5" y="-1979.8" font-family="Times New Roman,serif" font-size="14.00">loc_SLL = r1;</text>
</g>
<!-- N4 -->
<g id="node5" class="node"><title>N4</title>
<ellipse fill="none" stroke="black" cx="154" cy="-1853" rx="27" ry="18"/>
<text text-anchor="middle" x="154" y="-1849.3" font-family="Times New Roman,serif" font-size="14.00">N3</text>
</g>
<!-- N3&#45;&gt;N4 -->
<g id="edge3" class="edge"><title>N3&#45;&gt;N4</title>
<path fill="none" stroke="black" d="M154,-1921.8C154,-1910.16 154,-1894.55 154,-1881.24"/>
<polygon fill="black" stroke="black" points="157.5,-1881.18 154,-1871.18 150.5,-1881.18 157.5,-1881.18"/>
<text text-anchor="middle" x="201" y="-1892.8" font-family="Times New Roman,serif" font-size="14.00">loc_SLL.d = 13;</text>
</g>
<!-- N5 -->
<g id="node6" class="node"><title>N5</title>
<ellipse fill="none" stroke="black" cx="154" cy="-1766" rx="27" ry="18"/>
<text text-anchor="middle" x="154" y="-1762.3" font-family="Times New Roman,serif" font-size="14.00">N4</text>
</g>
<!-- N4&#45;&gt;N5 -->
<g id="edge4" class="edge"><title>N4&#45;&gt;N5</title>
<path fill="none" stroke="black" d="M154,-1834.8C154,-1823.16 154,-1807.55 154,-1794.24"/>
<polygon fill="black" stroke="black" points="157.5,-1794.18 154,-1784.18 150.5,-1794.18 157.5,-1794.18"/>
<text text-anchor="middle" x="194.5" y="-1805.8" font-family="Times New Roman,serif" font-size="14.00">loc_SLL = r2;</text>
</g>
<!-- N6 -->
<g id="node7" class="node"><title>N6</title>
<ellipse fill="none" stroke="black" cx="154" cy="-1679" rx="27" ry="18"/>
<text text-anchor="middle" x="154" y="-1675.3" font-family="Times New Roman,serif" font-size="14.00">N5</text>
</g>
<!-- N5&#45;&gt;N6 -->
<g id="edge5" class="edge"><title>N5&#45;&gt;N6</title>
<path fill="none" stroke="black" d="M154,-1747.8C154,-1736.16 154,-1720.55 154,-1707.24"/>
<polygon fill="black" stroke="black" points="157.5,-1707.18 154,-1697.18 150.5,-1707.18 157.5,-1707.18"/>
<text text-anchor="middle" x="201" y="-1718.8" font-family="Times New Roman,serif" font-size="14.00">loc_SLL.d = 12;</text>
</g>
<!-- N7 -->
<g id="node8" class="node"><title>N7</title>
<ellipse fill="none" stroke="black" cx="154" cy="-1592" rx="27" ry="18"/>
<text text-anchor="middle" x="154" y="-1588.3" font-family="Times New Roman,serif" font-size="14.00">N6</text>
</g>
<!-- N6&#45;&gt;N7 -->
<g id="edge6" class="edge"><title>N6&#45;&gt;N7</title>
<path fill="none" stroke="black" d="M154,-1660.8C154,-1649.16 154,-1633.55 154,-1620.24"/>
<polygon fill="black" stroke="black" points="157.5,-1620.18 154,-1610.18 150.5,-1620.18 157.5,-1620.18"/>
<text text-anchor="middle" x="194.5" y="-1631.8" font-family="Times New Roman,serif" font-size="14.00">loc_SLL = r3;</text>
</g>
<!-- N8 -->
<g id="node9" class="node"><title>N8</title>
<ellipse fill="none" stroke="black" cx="154" cy="-1505" rx="27" ry="18"/>
<text text-anchor="middle" x="154" y="-1501.3" font-family="Times New Roman,serif" font-size="14.00">N7</text>
</g>
<!-- N7&#45;&gt;N8 -->
<g id="edge7" class="edge"><title>N7&#45;&gt;N8</title>
<path fill="none" stroke="black" d="M154,-1573.8C154,-1562.16 154,-1546.55 154,-1533.24"/>
<polygon fill="black" stroke="black" points="157.5,-1533.18 154,-1523.18 150.5,-1533.18 157.5,-1533.18"/>
<text text-anchor="middle" x="201" y="-1544.8" font-family="Times New Roman,serif" font-size="14.00">loc_SLL.d = 11;</text>
</g>
<!-- N9 -->
<g id="node10" class="node"><title>N9</title>
<ellipse fill="none" stroke="black" cx="154" cy="-1418" rx="27" ry="18"/>
<text text-anchor="middle" x="154" y="-1414.3" font-family="Times New Roman,serif" font-size="14.00">N8</text>
</g>
<!-- N8&#45;&gt;N9 -->
<g id="edge8" class="edge"><title>N8&#45;&gt;N9</title>
<path fill="none" stroke="black" d="M154,-1486.8C154,-1475.16 154,-1459.55 154,-1446.24"/>
<polygon fill="black" stroke="black" points="157.5,-1446.18 154,-1436.18 150.5,-1446.18 157.5,-1446.18"/>
<text text-anchor="middle" x="194.5" y="-1457.8" font-family="Times New Roman,serif" font-size="14.00">loc_SLL = r4;</text>
</g>
<!-- N10 -->
<g id="node11" class="node"><title>N10</title>
<ellipse fill="none" stroke="black" cx="154" cy="-1331" rx="27" ry="18"/>
<text text-anchor="middle" x="154" y="-1327.3" font-family="Times New Roman,serif" font-size="14.00">N9</text>
</g>
<!-- N9&#45;&gt;N10 -->
<g id="edge9" class="edge"><title>N9&#45;&gt;N10</title>
<path fill="none" stroke="black" d="M154,-1399.8C154,-1388.16 154,-1372.55 154,-1359.24"/>
<polygon fill="black" stroke="black" points="157.5,-1359.18 154,-1349.18 150.5,-1359.18 157.5,-1359.18"/>
<text text-anchor="middle" x="201" y="-1370.8" font-family="Times New Roman,serif" font-size="14.00">loc_SLL.d = 10;</text>
</g>
<!-- N11 -->
<g id="node12" class="node"><title>N11</title>
<ellipse fill="none" stroke="black" cx="154" cy="-1244" rx="27" ry="18"/>
<text text-anchor="middle" x="154" y="-1240.3" font-family="Times New Roman,serif" font-size="14.00">N10</text>
</g>
<!-- N10&#45;&gt;N11 -->
<g id="edge10" class="edge"><title>N10&#45;&gt;N11</title>
<path fill="none" stroke="black" d="M154,-1312.8C154,-1301.16 154,-1285.55 154,-1272.24"/>
<polygon fill="black" stroke="black" points="157.5,-1272.18 154,-1262.18 150.5,-1272.18 157.5,-1272.18"/>
<text text-anchor="middle" x="194.5" y="-1283.8" font-family="Times New Roman,serif" font-size="14.00">loc_SLL = r1;</text>
</g>
<!-- N12 -->
<g id="node13" class="node"><title>N12</title>
<ellipse fill="none" stroke="black" cx="154" cy="-1157" rx="27" ry="18"/>
<text text-anchor="middle" x="154" y="-1153.3" font-family="Times New Roman,serif" font-size="14.00">N11</text>
</g>
<!-- N11&#45;&gt;N12 -->
<g id="edge11" class="edge"><title>N11&#45;&gt;N12</title>
<path fill="none" stroke="black" d="M154,-1225.8C154,-1214.16 154,-1198.55 154,-1185.24"/>
<polygon fill="black" stroke="black" points="157.5,-1185.18 154,-1175.18 150.5,-1185.18 157.5,-1185.18"/>
<text text-anchor="middle" x="198" y="-1196.8" font-family="Times New Roman,serif" font-size="14.00">loc_SLL.l = r2;</text>
</g>
<!-- N13 -->
<g id="node14" class="node"><title>N13</title>
<ellipse fill="none" stroke="black" cx="154" cy="-1070" rx="27" ry="18"/>
<text text-anchor="middle" x="154" y="-1066.3" font-family="Times New Roman,serif" font-size="14.00">N12</text>
</g>
<!-- N12&#45;&gt;N13 -->
<g id="edge12" class="edge"><title>N12&#45;&gt;N13</title>
<path fill="none" stroke="black" d="M154,-1138.8C154,-1127.16 154,-1111.55 154,-1098.24"/>
<polygon fill="black" stroke="black" points="157.5,-1098.18 154,-1088.18 150.5,-1098.18 157.5,-1098.18"/>
<text text-anchor="middle" x="194.5" y="-1109.8" font-family="Times New Roman,serif" font-size="14.00">loc_SLL = r2;</text>
</g>
<!-- N14 -->
<g id="node15" class="node"><title>N14</title>
<ellipse fill="none" stroke="black" cx="154" cy="-983" rx="27" ry="18"/>
<text text-anchor="middle" x="154" y="-979.3" font-family="Times New Roman,serif" font-size="14.00">N13</text>
</g>
<!-- N13&#45;&gt;N14 -->
<g id="edge13" class="edge"><title>N13&#45;&gt;N14</title>
<path fill="none" stroke="black" d="M154,-1051.8C154,-1040.16 154,-1024.55 154,-1011.24"/>
<polygon fill="black" stroke="black" points="157.5,-1011.18 154,-1001.18 150.5,-1011.18 157.5,-1011.18"/>
<text text-anchor="middle" x="198" y="-1022.8" font-family="Times New Roman,serif" font-size="14.00">loc_SLL.l = r3;</text>
</g>
<!-- N15 -->
<g id="node16" class="node"><title>N15</title>
<ellipse fill="none" stroke="black" cx="154" cy="-896" rx="27" ry="18"/>
<text text-anchor="middle" x="154" y="-892.3" font-family="Times New Roman,serif" font-size="14.00">N14</text>
</g>
<!-- N14&#45;&gt;N15 -->
<g id="edge14" class="edge"><title>N14&#45;&gt;N15</title>
<path fill="none" stroke="black" d="M154,-964.799C154,-953.163 154,-937.548 154,-924.237"/>
<polygon fill="black" stroke="black" points="157.5,-924.175 154,-914.175 150.5,-924.175 157.5,-924.175"/>
<text text-anchor="middle" x="194.5" y="-935.8" font-family="Times New Roman,serif" font-size="14.00">loc_SLL = r3;</text>
</g>
<!-- N16 -->
<g id="node17" class="node"><title>N16</title>
<ellipse fill="none" stroke="black" cx="154" cy="-809" rx="27" ry="18"/>
<text text-anchor="middle" x="154" y="-805.3" font-family="Times New Roman,serif" font-size="14.00">N15</text>
</g>
<!-- N15&#45;&gt;N16 -->
<g id="edge15" class="edge"><title>N15&#45;&gt;N16</title>
<path fill="none" stroke="black" d="M154,-877.799C154,-866.163 154,-850.548 154,-837.237"/>
<polygon fill="black" stroke="black" points="157.5,-837.175 154,-827.175 150.5,-837.175 157.5,-837.175"/>
<text text-anchor="middle" x="198" y="-848.8" font-family="Times New Roman,serif" font-size="14.00">loc_SLL.l = r4;</text>
</g>
<!-- N17 -->
<g id="node18" class="node"><title>N17</title>
<ellipse fill="none" stroke="black" cx="154" cy="-722" rx="27" ry="18"/>
<text text-anchor="middle" x="154" y="-718.3" font-family="Times New Roman,serif" font-size="14.00">N16</text>
</g>
<!-- N16&#45;&gt;N17 -->
<g id="edge16" class="edge"><title>N16&#45;&gt;N17</title>
<path fill="none" stroke="black" d="M154,-790.799C154,-779.163 154,-763.548 154,-750.237"/>
<polygon fill="black" stroke="black" points="157.5,-750.175 154,-740.175 150.5,-750.175 157.5,-750.175"/>
<text text-anchor="middle" x="175.5" y="-761.8" font-family="Times New Roman,serif" font-size="14.00">r5 = r1;</text>
</g>
<!-- N18 -->
<g id="node19" class="node"><title>N18</title>
<ellipse fill="none" stroke="black" cx="154" cy="-635" rx="27" ry="18"/>
<text text-anchor="middle" x="154" y="-631.3" font-family="Times New Roman,serif" font-size="14.00">N17</text>
</g>
<!-- N17&#45;&gt;N18 -->
<g id="edge17" class="edge"><title>N17&#45;&gt;N18</title>
<path fill="none" stroke="black" d="M154,-703.799C154,-692.163 154,-676.548 154,-663.237"/>
<polygon fill="black" stroke="black" points="157.5,-663.175 154,-653.175 150.5,-663.175 157.5,-663.175"/>
<text text-anchor="middle" x="189.5" y="-674.8" font-family="Times New Roman,serif" font-size="14.00">i5 = (i5 + 1);</text>
</g>
<!-- N19 -->
<g id="node20" class="node"><title>N19</title>
<ellipse fill="none" stroke="black" cx="154" cy="-548" rx="27" ry="18"/>
<text text-anchor="middle" x="154" y="-544.3" font-family="Times New Roman,serif" font-size="14.00">N18</text>
</g>
<!-- N18&#45;&gt;N19 -->
<g id="edge18" class="edge"><title>N18&#45;&gt;N19</title>
<path fill="none" stroke="black" d="M154,-616.799C154,-605.163 154,-589.548 154,-576.237"/>
<polygon fill="black" stroke="black" points="157.5,-576.175 154,-566.175 150.5,-576.175 157.5,-576.175"/>
<text text-anchor="middle" x="180" y="-587.8" font-family="Times New Roman,serif" font-size="14.00">i0 = r5.d;</text>
</g>
<!-- N20 -->
<g id="node21" class="node"><title>N20</title>
<ellipse fill="none" stroke="black" cx="154" cy="-461" rx="27" ry="18"/>
<text text-anchor="middle" x="154" y="-457.3" font-family="Times New Roman,serif" font-size="14.00">N19</text>
</g>
<!-- N19&#45;&gt;N20 -->
<g id="edge19" class="edge"><title>N19&#45;&gt;N20</title>
<path fill="none" stroke="black" d="M154,-529.799C154,-518.163 154,-502.548 154,-489.237"/>
<polygon fill="black" stroke="black" points="157.5,-489.175 154,-479.175 150.5,-489.175 157.5,-489.175"/>
<text text-anchor="middle" x="194.5" y="-500.8" font-family="Times New Roman,serif" font-size="14.00">loc_SLL = r5;</text>
</g>
<!-- N23 -->
<g id="node24" class="node"><title>N23</title>
<ellipse fill="none" stroke="black" cx="154" cy="-374" rx="27" ry="18"/>
<text text-anchor="middle" x="154" y="-370.3" font-family="Times New Roman,serif" font-size="14.00">N30</text>
</g>
<!-- N20&#45;&gt;N23 -->
<g id="edge20" class="edge"><title>N20&#45;&gt;N23</title>
<path fill="none" stroke="black" d="M154,-442.799C154,-431.163 154,-415.548 154,-402.237"/>
<polygon fill="black" stroke="black" points="157.5,-402.175 154,-392.175 150.5,-402.175 157.5,-402.175"/>
<text text-anchor="middle" x="198" y="-413.8" font-family="Times New Roman,serif" font-size="14.00">r5 = loc_SLL.l;</text>
</g>
<!-- N21 -->
<g id="node22" class="node"><title>N21</title>
<ellipse fill="none" stroke="black" cx="107" cy="-287" rx="27" ry="18"/>
<text text-anchor="middle" x="107" y="-283.3" font-family="Times New Roman,serif" font-size="14.00">N21</text>
</g>
<!-- N21&#45;&gt;N1 -->
<g id="edge22" class="edge"><title>N21&#45;&gt;N1</title>
<path fill="none" stroke="black" d="M89.641,-273.047C81.9317,-266.842 73.0321,-259.024 66,-251 59.1686,-243.205 52.692,-233.968 47.2102,-225.358"/>
<polygon fill="black" stroke="black" points="50.1046,-223.383 41.8845,-216.699 44.142,-227.05 50.1046,-223.383"/>
<text text-anchor="middle" x="84.5" y="-239.8" font-family="Times New Roman,serif" font-size="14.00">return;</text>
</g>
<!-- N24 -->
<g id="node25" class="node"><title>N24</title>
<ellipse fill="none" stroke="black" cx="107" cy="-196" rx="27" ry="18"/>
<text text-anchor="middle" x="107" y="-192.3" font-family="Times New Roman,serif" font-size="14.00">N32</text>
</g>
<!-- N21&#45;&gt;N24 -->
<g id="edge21" class="edge"><title>N21&#45;&gt;N24</title>
<path fill="none" stroke="black" d="M107,-268.84C107,-256.281 107,-238.979 107,-224.502"/>
<polygon fill="black" stroke="black" points="110.5,-224.107 107,-214.107 103.5,-224.107 110.5,-224.107"/>
<text text-anchor="middle" x="142.5" y="-239.8" font-family="Times New Roman,serif" font-size="14.00">i5 = (i5 + 1);</text>
</g>
<!-- N22 -->
<g id="node23" class="node"><title>N22</title>
<ellipse fill="none" stroke="black" cx="105" cy="-105" rx="27" ry="18"/>
<text text-anchor="middle" x="105" y="-101.3" font-family="Times New Roman,serif" font-size="14.00">N28</text>
</g>
<!-- N25 -->
<g id="node26" class="node"><title>N25</title>
<ellipse fill="none" stroke="black" cx="153" cy="-18" rx="27" ry="18"/>
<text text-anchor="middle" x="153" y="-14.3" font-family="Times New Roman,serif" font-size="14.00">N34</text>
</g>
<!-- N22&#45;&gt;N25 -->
<g id="edge23" class="edge"><title>N22&#45;&gt;N25</title>
<path fill="none" stroke="black" d="M101.734,-86.8792C100.657,-76.7725 100.834,-64.0356 106,-54 109.863,-46.4949 116.159,-40.1782 122.905,-35.0679"/>
<polygon fill="black" stroke="black" points="125.209,-37.7356 131.541,-29.2414 121.294,-31.9327 125.209,-37.7356"/>
<text text-anchor="middle" x="146.5" y="-57.8" font-family="Times New Roman,serif" font-size="14.00">loc_SLL = r5;</text>
</g>
<!-- N23&#45;&gt;N21 -->
<g id="edge24" class="edge"><title>N23&#45;&gt;N21</title>
<path fill="none" stroke="black" d="M133.697,-361.607C125.189,-355.717 116.103,-347.714 111,-338 107.38,-331.11 105.801,-322.936 105.277,-315.216"/>
<polygon fill="black" stroke="black" points="108.776,-315.077 105.127,-305.131 101.777,-315.182 108.776,-315.077"/>
<text text-anchor="middle" x="149" y="-326.8" font-family="Times New Roman,serif" font-size="14.00">i4 = (i4 + &#45;1);</text>
</g>
<!-- N24&#45;&gt;N22 -->
<g id="edge25" class="edge"><title>N24&#45;&gt;N22</title>
<path fill="none" stroke="black" d="M106.614,-177.84C106.332,-165.281 105.943,-147.979 105.618,-133.502"/>
<polygon fill="black" stroke="black" points="109.108,-133.026 105.384,-123.107 102.11,-133.184 109.108,-133.026"/>
<text text-anchor="middle" x="133" y="-144.8" font-family="Times New Roman,serif" font-size="14.00">i0 = r5.d;</text>
</g>
<!-- N25&#45;&gt;N23 -->
<g id="edge26" class="edge"><title>N25&#45;&gt;N23</title>
<path fill="none" stroke="black" d="M169.378,-32.616C175.674,-38.6007 182.438,-46.0691 187,-54 198.506,-74.0041 201,-80.9231 201,-104 201,-288 201,-288 201,-288 201,-311.077 198.356,-317.911 187,-338 184.226,-342.907 180.62,-347.66 176.815,-351.999"/>
<polygon fill="black" stroke="black" points="174.228,-349.641 169.885,-359.305 179.306,-354.458 174.228,-349.641"/>
<text text-anchor="middle" x="245" y="-192.3" font-family="Times New Roman,serif" font-size="14.00">r5 = loc_SLL.l;</text>
</g>
</g>
</svg>
