<?xml version="1.0" encoding="UTF-8" standalone="no"?>
<!DOCTYPE svg PUBLIC "-//W3C//DTD SVG 1.1//EN"
 "http://www.w3.org/Graphics/SVG/1.1/DTD/svg11.dtd">
<!-- Generated by graphviz version 2.38.0 (20140413.2041)
 -->
<!-- Title: anonymous_graph Pages: 1 -->
<svg width="127pt" height="313pt"
 viewBox="0.00 0.00 127.00 313.00" xmlns="http://www.w3.org/2000/svg" xmlns:xlink="http://www.w3.org/1999/xlink">
<g id="graph0" class="graph" transform="scale(1 1) rotate(0) translate(4 309)">
<title>anonymous_graph</title>
<polygon fill="white" stroke="none" points="-4,4 -4,-309 123,-309 123,4 -4,4"/>
<!-- N0 -->
<g id="node1" class="node"><title>N0</title>
<ellipse fill="none" stroke="black" cx="31" cy="-287" rx="29.4969" ry="18"/>
<text text-anchor="middle" x="31" y="-283.3" font-family="Times New Roman,serif" font-size="14.00">initial</text>
</g>
<!-- N2 -->
<g id="node3" class="node"><title>N2</title>
<ellipse fill="none" stroke="black" cx="31" cy="-200" rx="27" ry="18"/>
<text text-anchor="middle" x="31" y="-196.3" font-family="Times New Roman,serif" font-size="14.00">N1</text>
</g>
<!-- N0&#45;&gt;N2 -->
<g id="edge1" class="edge"><title>N0&#45;&gt;N2</title>
<path fill="none" stroke="black" d="M31,-268.799C31,-257.163 31,-241.548 31,-228.237"/>
<polygon fill="black" stroke="black" points="34.5001,-228.175 31,-218.175 27.5001,-228.175 34.5001,-228.175"/>
<text text-anchor="middle" x="71.5" y="-239.8" font-family="Times New Roman,serif" font-size="14.00">loc_SLL = r0;</text>
</g>
<!-- N1 -->
<g id="node2" class="node"><title>N1</title>
<ellipse fill="none" stroke="black" cx="31" cy="-22" rx="27" ry="18"/>
<ellipse fill="none" stroke="black" cx="31" cy="-22" rx="31" ry="22"/>
<text text-anchor="middle" x="31" y="-18.3" font-family="Times New Roman,serif" font-size="14.00">final</text>
</g>
<!-- N3 -->
<g id="node4" class="node"><title>N3</title>
<ellipse fill="none" stroke="black" cx="31" cy="-113" rx="27" ry="18"/>
<text text-anchor="middle" x="31" y="-109.3" font-family="Times New Roman,serif" font-size="14.00">N2</text>
</g>
<!-- N2&#45;&gt;N3 -->
<g id="edge2" class="edge"><title>N2&#45;&gt;N3</title>
<path fill="none" stroke="black" d="M31,-181.799C31,-170.163 31,-154.548 31,-141.237"/>
<polygon fill="black" stroke="black" points="34.5001,-141.175 31,-131.175 27.5001,-141.175 34.5001,-141.175"/>
<text text-anchor="middle" x="75" y="-152.8" font-family="Times New Roman,serif" font-size="14.00">loc_SLL.d = 3;</text>
</g>
<!-- N3&#45;&gt;N1 -->
<g id="edge3" class="edge"><title>N3&#45;&gt;N1</title>
<path fill="none" stroke="black" d="M31,-94.8399C31,-83.4407 31,-68.1336 31,-54.5781"/>
<polygon fill="black" stroke="black" points="34.5001,-54.1905 31,-44.1905 27.5001,-54.1906 34.5001,-54.1905"/>
<text text-anchor="middle" x="49.5" y="-65.8" font-family="Times New Roman,serif" font-size="14.00">return;</text>
</g>
</g>
</svg>
