<?xml version="1.0" encoding="UTF-8" standalone="no"?>
<!DOCTYPE svg PUBLIC "-//W3C//DTD SVG 1.1//EN"
 "http://www.w3.org/Graphics/SVG/1.1/DTD/svg11.dtd">
<!-- Generated by graphviz version 2.38.0 (20140413.2041)
 -->
<!-- Title: anonymous_graph Pages: 1 -->
<svg width="140pt" height="229pt"
 viewBox="0.00 0.00 140.00 229.00" xmlns="http://www.w3.org/2000/svg" xmlns:xlink="http://www.w3.org/1999/xlink">
<g id="graph0" class="graph" transform="scale(1 1) rotate(0) translate(4 225)">
<title>anonymous_graph</title>
<polygon fill="white" stroke="none" points="-4,4 -4,-225 136,-225 136,4 -4,4"/>
<!-- N0 -->
<g id="node1" class="node"><title>N0</title>
<ellipse fill="none" stroke="black" cx="31" cy="-203" rx="29.4969" ry="18"/>
<text text-anchor="middle" x="31" y="-199.3" font-family="Times New Roman,serif" font-size="14.00">initial</text>
</g>
<!-- N1 -->
<g id="node2" class="node"><title>N1</title>
<ellipse fill="none" stroke="black" cx="31" cy="-22" rx="27" ry="18"/>
<ellipse fill="none" stroke="black" cx="31" cy="-22" rx="31" ry="22"/>
<text text-anchor="middle" x="31" y="-18.3" font-family="Times New Roman,serif" font-size="14.00">final</text>
</g>
<!-- N0&#45;&gt;N1 -->
<g id="edge1" class="edge"><title>N0&#45;&gt;N1</title>
<path fill="none" stroke="black" d="M31,-184.837C31,-154.891 31,-92.6755 31,-54.7064"/>
<polygon fill="black" stroke="black" points="34.5001,-54.2255 31,-44.2255 27.5001,-54.2255 34.5001,-54.2255"/>
<text text-anchor="middle" x="81.5" y="-155.8" font-family="Times New Roman,serif" font-size="14.00">i1 = 1;</text>
<text text-anchor="middle" x="81.5" y="-140.8" font-family="Times New Roman,serif" font-size="14.00">i2 = 1;</text>
<text text-anchor="middle" x="81.5" y="-125.8" font-family="Times New Roman,serif" font-size="14.00">while (!(i0 &lt; i2)) {</text>
<text text-anchor="middle" x="81.5" y="-110.8" font-family="Times New Roman,serif" font-size="14.00"> &#160;i1 = (i1 * i2);</text>
<text text-anchor="middle" x="81.5" y="-95.8" font-family="Times New Roman,serif" font-size="14.00"> &#160;i2 = (i2 + 1);</text>
<text text-anchor="middle" x="81.5" y="-80.8" font-family="Times New Roman,serif" font-size="14.00">}</text>
<text text-anchor="middle" x="81.5" y="-65.8" font-family="Times New Roman,serif" font-size="14.00">return;</text>
</g>
</g>
</svg>
