<?xml version="1.0" encoding="UTF-8" standalone="no"?>
<!DOCTYPE svg PUBLIC "-//W3C//DTD SVG 1.1//EN"
 "http://www.w3.org/Graphics/SVG/1.1/DTD/svg11.dtd">
<!-- Generated by graphviz version 2.38.0 (20140413.2041)
 -->
<!-- Title: anonymous_graph Pages: 1 -->
<svg width="159pt" height="517pt"
 viewBox="0.00 0.00 159.44 517.00" xmlns="http://www.w3.org/2000/svg" xmlns:xlink="http://www.w3.org/1999/xlink">
<g id="graph0" class="graph" transform="scale(1 1) rotate(0) translate(4 513)">
<title>anonymous_graph</title>
<polygon fill="white" stroke="none" points="-4,4 -4,-513 155.441,-513 155.441,4 -4,4"/>
<!-- N0 -->
<g id="node1" class="node"><title>N0</title>
<ellipse fill="none" stroke="black" cx="50.4412" cy="-491" rx="29.4969" ry="18"/>
<text text-anchor="middle" x="50.4412" y="-487.3" font-family="Times New Roman,serif" font-size="14.00">initial</text>
</g>
<!-- N2 -->
<g id="node3" class="node"><title>N2</title>
<ellipse fill="none" stroke="black" cx="50.4412" cy="-404" rx="27" ry="18"/>
<text text-anchor="middle" x="50.4412" y="-400.3" font-family="Times New Roman,serif" font-size="14.00">N1</text>
</g>
<!-- N0&#45;&gt;N2 -->
<g id="edge1" class="edge"><title>N0&#45;&gt;N2</title>
<path fill="none" stroke="black" d="M50.4412,-472.799C50.4412,-461.163 50.4412,-445.548 50.4412,-432.237"/>
<polygon fill="black" stroke="black" points="53.9413,-432.175 50.4412,-422.175 46.9413,-432.175 53.9413,-432.175"/>
<text text-anchor="middle" x="68.9412" y="-443.8" font-family="Times New Roman,serif" font-size="14.00">i1 = 1;</text>
</g>
<!-- N1 -->
<g id="node2" class="node"><title>N1</title>
<ellipse fill="none" stroke="black" cx="50.4412" cy="-22" rx="27" ry="18"/>
<ellipse fill="none" stroke="black" cx="50.4412" cy="-22" rx="31" ry="22"/>
<text text-anchor="middle" x="50.4412" y="-18.3" font-family="Times New Roman,serif" font-size="14.00">final</text>
</g>
<!-- N3 -->
<g id="node4" class="node"><title>N3</title>
<ellipse fill="none" stroke="black" cx="50.4412" cy="-317" rx="27" ry="18"/>
<text text-anchor="middle" x="50.4412" y="-313.3" font-family="Times New Roman,serif" font-size="14.00">N2</text>
</g>
<!-- N2&#45;&gt;N3 -->
<g id="edge2" class="edge"><title>N2&#45;&gt;N3</title>
<path fill="none" stroke="black" d="M50.4412,-385.799C50.4412,-374.163 50.4412,-358.548 50.4412,-345.237"/>
<polygon fill="black" stroke="black" points="53.9413,-345.175 50.4412,-335.175 46.9413,-345.175 53.9413,-345.175"/>
<text text-anchor="middle" x="68.9412" y="-356.8" font-family="Times New Roman,serif" font-size="14.00">i2 = 1;</text>
</g>
<!-- N4 -->
<g id="node5" class="node"><title>N4</title>
<ellipse fill="none" stroke="black" cx="50.4412" cy="-230" rx="27" ry="18"/>
<text text-anchor="middle" x="50.4412" y="-226.3" font-family="Times New Roman,serif" font-size="14.00">N7</text>
</g>
<!-- N3&#45;&gt;N4 -->
<g id="edge3" class="edge"><title>N3&#45;&gt;N4</title>
<path fill="none" stroke="black" d="M50.4412,-298.799C50.4412,-287.163 50.4412,-271.548 50.4412,-258.237"/>
<polygon fill="black" stroke="black" points="53.9413,-258.175 50.4412,-248.175 46.9413,-258.175 53.9413,-258.175"/>
<text text-anchor="middle" x="86.9412" y="-269.8" font-family="Times New Roman,serif" font-size="14.00">i1 = (i1 * i2);</text>
</g>
<!-- N5 -->
<g id="node6" class="node"><title>N5</title>
<ellipse fill="none" stroke="black" cx="50.4412" cy="-128" rx="27" ry="18"/>
<text text-anchor="middle" x="50.4412" y="-124.3" font-family="Times New Roman,serif" font-size="14.00">N10</text>
</g>
<!-- N4&#45;&gt;N5 -->
<g id="edge4" class="edge"><title>N4&#45;&gt;N5</title>
<path fill="none" stroke="black" d="M29.3359,-218.702C19.8842,-212.874 9.70005,-204.609 4.44116,-194 -1.48039,-182.054 -1.48039,-175.946 4.44116,-164 8.13882,-156.54 14.2715,-150.24 20.8723,-145.13"/>
<polygon fill="black" stroke="black" points="23.0877,-147.854 29.3359,-139.298 19.1156,-142.09 23.0877,-147.854"/>
<text text-anchor="middle" x="39.9412" y="-175.3" font-family="Times New Roman,serif" font-size="14.00">i2 = (i2 + 1);</text>
</g>
<!-- N5&#45;&gt;N1 -->
<g id="edge5" class="edge"><title>N5&#45;&gt;N1</title>
<path fill="none" stroke="black" d="M50.4412,-109.827C50.4412,-94.7794 50.4412,-72.5319 50.4412,-54.3242"/>
<polygon fill="black" stroke="black" points="53.9413,-54.1556 50.4412,-44.1556 46.9413,-54.1557 53.9413,-54.1556"/>
<text text-anchor="middle" x="70.4412" y="-80.8" font-family="Times New Roman,serif" font-size="14.00">i0 &lt; i2/</text>
<text text-anchor="middle" x="70.4412" y="-65.8" font-family="Times New Roman,serif" font-size="14.00">return;</text>
</g>
<!-- N5&#45;&gt;N4 -->
<g id="edge6" class="edge"><title>N5&#45;&gt;N4</title>
<path fill="none" stroke="black" d="M64.1739,-143.884C68.6758,-149.717 73.1167,-156.747 75.4412,-164 79.5102,-176.697 79.5102,-181.303 75.4412,-194 74.1337,-198.08 72.1565,-202.089 69.8755,-205.854"/>
<polygon fill="black" stroke="black" points="66.9735,-203.897 64.1739,-214.116 72.7347,-207.874 66.9735,-203.897"/>
<text text-anchor="middle" x="114.941" y="-182.8" font-family="Times New Roman,serif" font-size="14.00">!(i0 &lt; i2)/</text>
<text text-anchor="middle" x="114.941" y="-167.8" font-family="Times New Roman,serif" font-size="14.00">i1 = (i1 * i2);</text>
</g>
</g>
</svg>
