<?xml version="1.0" encoding="UTF-8" standalone="no"?>
<!DOCTYPE svg PUBLIC "-//W3C//DTD SVG 1.1//EN"
 "http://www.w3.org/Graphics/SVG/1.1/DTD/svg11.dtd">
<!-- Generated by graphviz version 2.38.0 (20140413.2041)
 -->
<!-- Title: anonymous_graph Pages: 1 -->
<svg width="317pt" height="328pt"
 viewBox="0.00 0.00 316.83 328.00" xmlns="http://www.w3.org/2000/svg" xmlns:xlink="http://www.w3.org/1999/xlink">
<g id="graph0" class="graph" transform="scale(1 1) rotate(0) translate(4 324)">
<title>anonymous_graph</title>
<polygon fill="white" stroke="none" points="-4,4 -4,-324 312.83,-324 312.83,4 -4,4"/>
<!-- N0 -->
<g id="node1" class="node"><title>N0</title>
<ellipse fill="none" stroke="black" cx="134.83" cy="-302" rx="29.4969" ry="18"/>
<text text-anchor="middle" x="134.83" y="-298.3" font-family="Times New Roman,serif" font-size="14.00">initial</text>
</g>
<!-- N2 -->
<g id="node3" class="node"><title>N2</title>
<ellipse fill="none" stroke="black" cx="134.83" cy="-215" rx="27" ry="18"/>
<text text-anchor="middle" x="134.83" y="-211.3" font-family="Times New Roman,serif" font-size="14.00">N1</text>
</g>
<!-- N0&#45;&gt;N2 -->
<g id="edge1" class="edge"><title>N0&#45;&gt;N2</title>
<path fill="none" stroke="black" d="M134.83,-283.799C134.83,-272.163 134.83,-256.548 134.83,-243.237"/>
<polygon fill="black" stroke="black" points="138.33,-243.175 134.83,-233.175 131.33,-243.175 138.33,-243.175"/>
<text text-anchor="middle" x="153.33" y="-254.8" font-family="Times New Roman,serif" font-size="14.00">i1 = 1;</text>
</g>
<!-- N1 -->
<g id="node2" class="node"><title>N1</title>
<ellipse fill="none" stroke="black" cx="277.83" cy="-22" rx="27" ry="18"/>
<ellipse fill="none" stroke="black" cx="277.83" cy="-22" rx="31" ry="22"/>
<text text-anchor="middle" x="277.83" y="-18.3" font-family="Times New Roman,serif" font-size="14.00">final</text>
</g>
<!-- N4 -->
<g id="node5" class="node"><title>N4</title>
<ellipse fill="none" stroke="black" cx="134.83" cy="-128" rx="27" ry="18"/>
<text text-anchor="middle" x="134.83" y="-124.3" font-family="Times New Roman,serif" font-size="14.00">N10</text>
</g>
<!-- N2&#45;&gt;N4 -->
<g id="edge2" class="edge"><title>N2&#45;&gt;N4</title>
<path fill="none" stroke="black" d="M134.83,-196.799C134.83,-185.163 134.83,-169.548 134.83,-156.237"/>
<polygon fill="black" stroke="black" points="138.33,-156.175 134.83,-146.175 131.33,-156.175 138.33,-156.175"/>
<text text-anchor="middle" x="153.33" y="-167.8" font-family="Times New Roman,serif" font-size="14.00">i2 = 1;</text>
</g>
<!-- N3 -->
<g id="node4" class="node"><title>N3</title>
<ellipse fill="none" stroke="black" cx="87.8304" cy="-22" rx="27" ry="18"/>
<text text-anchor="middle" x="87.8304" y="-18.3" font-family="Times New Roman,serif" font-size="14.00">N7</text>
</g>
<!-- N3&#45;&gt;N4 -->
<g id="edge3" class="edge"><title>N3&#45;&gt;N4</title>
<path fill="none" stroke="black" d="M84.1287,-39.8616C81.8109,-54.4662 80.6249,-75.7432 88.8304,-92 92.582,-99.4327 98.7336,-105.724 105.336,-110.833"/>
<polygon fill="black" stroke="black" points="103.574,-113.87 113.792,-116.669 107.55,-108.108 103.574,-113.87"/>
<text text-anchor="middle" x="124.33" y="-73.3" font-family="Times New Roman,serif" font-size="14.00">i2 = (i2 + 1);</text>
</g>
<!-- N4&#45;&gt;N1 -->
<g id="edge4" class="edge"><title>N4&#45;&gt;N1</title>
<path fill="none" stroke="black" d="M161.475,-123.825C184.7,-119.85 218.128,-111.074 240.83,-92 252.89,-81.8682 261.613,-66.7718 267.549,-53.2808"/>
<polygon fill="black" stroke="black" points="270.865,-54.417 271.387,-43.835 264.38,-51.7821 270.865,-54.417"/>
<text text-anchor="middle" x="281.83" y="-80.8" font-family="Times New Roman,serif" font-size="14.00">i0 &lt; i2/</text>
<text text-anchor="middle" x="281.83" y="-65.8" font-family="Times New Roman,serif" font-size="14.00">return;</text>
</g>
<!-- N4&#45;&gt;N3 -->
<g id="edge5" class="edge"><title>N4&#45;&gt;N3</title>
<path fill="none" stroke="black" d="M147.912,-112.149C158.233,-98.5331 169.42,-78.1009 159.83,-62 151.615,-48.2062 136.635,-38.9926 122.458,-33.0027"/>
<polygon fill="black" stroke="black" points="123.456,-29.6376 112.865,-29.3542 120.968,-36.1804 123.456,-29.6376"/>
<text text-anchor="middle" x="200.33" y="-80.8" font-family="Times New Roman,serif" font-size="14.00">!(i0 &lt; i2)/</text>
<text text-anchor="middle" x="200.33" y="-65.8" font-family="Times New Roman,serif" font-size="14.00">i1 = (i1 * i2);</text>
</g>
<!-- N4&#45;&gt;N3 -->
<g id="edge6" class="edge"><title>N4&#45;&gt;N3</title>
<path fill="none" stroke="black" d="M108.546,-123.634C74.5568,-118.681 18.2364,-108.22 5.83038,-92 -2.26982,-81.4092 -1.29075,-73.2724 5.83038,-62 16.0357,-45.8455 34.96,-36.2455 52.0589,-30.6148"/>
<polygon fill="black" stroke="black" points="53.2302,-33.9186 61.8359,-27.7386 51.2546,-27.2032 53.2302,-33.9186"/>
<text text-anchor="middle" x="42.3304" y="-73.3" font-family="Times New Roman,serif" font-size="14.00">i1 = (i1 * i2);</text>
</g>
</g>
</svg>
