<?xml version="1.0" encoding="UTF-8" standalone="no"?>
<!DOCTYPE svg PUBLIC "-//W3C//DTD SVG 1.1//EN"
 "http://www.w3.org/Graphics/SVG/1.1/DTD/svg11.dtd">
<!-- Generated by graphviz version 2.38.0 (20140413.2041)
 -->
<!-- Title: anonymous_graph Pages: 1 -->
<svg width="336pt" height="1273pt"
 viewBox="0.00 0.00 336.25 1273.00" xmlns="http://www.w3.org/2000/svg" xmlns:xlink="http://www.w3.org/1999/xlink">
<g id="graph0" class="graph" transform="scale(1 1) rotate(0) translate(4 1269)">
<title>anonymous_graph</title>
<polygon fill="white" stroke="none" points="-4,4 -4,-1269 332.247,-1269 332.247,4 -4,4"/>
<!-- N0 -->
<g id="node1" class="node"><title>N0</title>
<ellipse fill="none" stroke="black" cx="29.2474" cy="-1247" rx="29.4969" ry="18"/>
<text text-anchor="middle" x="29.2474" y="-1243.3" font-family="Times New Roman,serif" font-size="14.00">initial</text>
</g>
<!-- N2 -->
<g id="node3" class="node"><title>N2</title>
<ellipse fill="none" stroke="black" cx="29.2474" cy="-1160" rx="27" ry="18"/>
<text text-anchor="middle" x="29.2474" y="-1156.3" font-family="Times New Roman,serif" font-size="14.00">N1</text>
</g>
<!-- N0&#45;&gt;N2 -->
<g id="edge1" class="edge"><title>N0&#45;&gt;N2</title>
<path fill="none" stroke="black" d="M29.2474,-1228.8C29.2474,-1217.16 29.2474,-1201.55 29.2474,-1188.24"/>
<polygon fill="black" stroke="black" points="32.7475,-1188.18 29.2474,-1178.18 25.7475,-1188.18 32.7475,-1188.18"/>
<text text-anchor="middle" x="47.7474" y="-1199.8" font-family="Times New Roman,serif" font-size="14.00">i1 = 1;</text>
</g>
<!-- N1 -->
<g id="node2" class="node"><title>N1</title>
<ellipse fill="none" stroke="black" cx="143.247" cy="-22" rx="27" ry="18"/>
<ellipse fill="none" stroke="black" cx="143.247" cy="-22" rx="31" ry="22"/>
<text text-anchor="middle" x="143.247" y="-18.3" font-family="Times New Roman,serif" font-size="14.00">final</text>
</g>
<!-- N3 -->
<g id="node4" class="node"><title>N3</title>
<ellipse fill="none" stroke="black" cx="29.2474" cy="-1073" rx="27" ry="18"/>
<text text-anchor="middle" x="29.2474" y="-1069.3" font-family="Times New Roman,serif" font-size="14.00">N2</text>
</g>
<!-- N2&#45;&gt;N3 -->
<g id="edge2" class="edge"><title>N2&#45;&gt;N3</title>
<path fill="none" stroke="black" d="M29.2474,-1141.8C29.2474,-1130.16 29.2474,-1114.55 29.2474,-1101.24"/>
<polygon fill="black" stroke="black" points="32.7475,-1101.18 29.2474,-1091.18 25.7475,-1101.18 32.7475,-1101.18"/>
<text text-anchor="middle" x="47.7474" y="-1112.8" font-family="Times New Roman,serif" font-size="14.00">i2 = 1;</text>
</g>
<!-- N4 -->
<g id="node5" class="node"><title>N4</title>
<ellipse fill="none" stroke="black" cx="29.2474" cy="-986" rx="27" ry="18"/>
<text text-anchor="middle" x="29.2474" y="-982.3" font-family="Times New Roman,serif" font-size="14.00">N3</text>
</g>
<!-- N3&#45;&gt;N4 -->
<g id="edge3" class="edge"><title>N3&#45;&gt;N4</title>
<path fill="none" stroke="black" d="M29.2474,-1054.8C29.2474,-1043.16 29.2474,-1027.55 29.2474,-1014.24"/>
<polygon fill="black" stroke="black" points="32.7475,-1014.18 29.2474,-1004.18 25.7475,-1014.18 32.7475,-1014.18"/>
<text text-anchor="middle" x="65.7474" y="-1025.8" font-family="Times New Roman,serif" font-size="14.00">i1 = (i1 * i2);</text>
</g>
<!-- N5 -->
<g id="node6" class="node"><title>N5</title>
<ellipse fill="none" stroke="black" cx="29.2474" cy="-899" rx="27" ry="18"/>
<text text-anchor="middle" x="29.2474" y="-895.3" font-family="Times New Roman,serif" font-size="14.00">N4</text>
</g>
<!-- N4&#45;&gt;N5 -->
<g id="edge4" class="edge"><title>N4&#45;&gt;N5</title>
<path fill="none" stroke="black" d="M29.2474,-967.799C29.2474,-956.163 29.2474,-940.548 29.2474,-927.237"/>
<polygon fill="black" stroke="black" points="32.7475,-927.175 29.2474,-917.175 25.7475,-927.175 32.7475,-927.175"/>
<text text-anchor="middle" x="64.7474" y="-938.8" font-family="Times New Roman,serif" font-size="14.00">i2 = (i2 + 1);</text>
</g>
<!-- N5&#45;&gt;N1 -->
<g id="edge6" class="edge"><title>N5&#45;&gt;N1</title>
<path fill="none" stroke="black" d="M23.2358,-881.261C16.722,-861.598 7.2474,-827.864 7.2474,-798 7.2474,-798 7.2474,-798 7.2474,-112 7.2474,-65.5667 63.4401,-42.0542 103.585,-31.1812"/>
<polygon fill="black" stroke="black" points="104.574,-34.5412 113.402,-28.6829 102.847,-27.7574 104.574,-34.5412"/>
<text text-anchor="middle" x="33.7474" y="-473.8" font-family="Times New Roman,serif" font-size="14.00">!(i1 &lt; i0)/</text>
<text text-anchor="middle" x="33.7474" y="-458.8" font-family="Times New Roman,serif" font-size="14.00">return;</text>
</g>
<!-- N6 -->
<g id="node7" class="node"><title>N6</title>
<ellipse fill="none" stroke="black" cx="68.2474" cy="-797" rx="27" ry="18"/>
<text text-anchor="middle" x="68.2474" y="-793.3" font-family="Times New Roman,serif" font-size="14.00">N5</text>
</g>
<!-- N5&#45;&gt;N6 -->
<g id="edge5" class="edge"><title>N5&#45;&gt;N6</title>
<path fill="none" stroke="black" d="M35.6875,-881.487C41.7845,-865.854 51.034,-842.137 58.1185,-823.972"/>
<polygon fill="black" stroke="black" points="61.4251,-825.126 61.7978,-814.537 54.9035,-822.582 61.4251,-825.126"/>
<text text-anchor="middle" x="90.7474" y="-851.8" font-family="Times New Roman,serif" font-size="14.00">i1 &lt; i0/</text>
<text text-anchor="middle" x="90.7474" y="-836.8" font-family="Times New Roman,serif" font-size="14.00">i1 = (i1 * i2);</text>
</g>
<!-- N7 -->
<g id="node8" class="node"><title>N7</title>
<ellipse fill="none" stroke="black" cx="75.2474" cy="-710" rx="27" ry="18"/>
<text text-anchor="middle" x="75.2474" y="-706.3" font-family="Times New Roman,serif" font-size="14.00">N6</text>
</g>
<!-- N6&#45;&gt;N7 -->
<g id="edge7" class="edge"><title>N6&#45;&gt;N7</title>
<path fill="none" stroke="black" d="M69.664,-778.799C70.6223,-767.163 71.9082,-751.548 73.0044,-738.237"/>
<polygon fill="black" stroke="black" points="76.5003,-738.429 73.833,-728.175 69.5239,-737.854 76.5003,-738.429"/>
<text text-anchor="middle" x="106.747" y="-749.8" font-family="Times New Roman,serif" font-size="14.00">i2 = (i2 + 1);</text>
</g>
<!-- N7&#45;&gt;N1 -->
<g id="edge9" class="edge"><title>N7&#45;&gt;N1</title>
<path fill="none" stroke="black" d="M75.2474,-691.657C75.2474,-671.714 75.2474,-637.993 75.2474,-609 75.2474,-609 75.2474,-609 75.2474,-112 75.2474,-84.7767 95.5843,-60.7114 114.015,-44.4919"/>
<polygon fill="black" stroke="black" points="116.308,-47.1362 121.732,-38.0346 111.816,-41.7676 116.308,-47.1362"/>
<text text-anchor="middle" x="101.747" y="-371.8" font-family="Times New Roman,serif" font-size="14.00">!(i1 &lt; i0)/</text>
<text text-anchor="middle" x="101.747" y="-356.8" font-family="Times New Roman,serif" font-size="14.00">return;</text>
</g>
<!-- N8 -->
<g id="node9" class="node"><title>N8</title>
<ellipse fill="none" stroke="black" cx="136.247" cy="-608" rx="27" ry="18"/>
<text text-anchor="middle" x="136.247" y="-604.3" font-family="Times New Roman,serif" font-size="14.00">N7</text>
</g>
<!-- N7&#45;&gt;N8 -->
<g id="edge8" class="edge"><title>N7&#45;&gt;N8</title>
<path fill="none" stroke="black" d="M85.0481,-692.933C94.7861,-676.969 109.854,-652.267 121.127,-633.788"/>
<polygon fill="black" stroke="black" points="124.251,-635.387 126.471,-625.027 118.275,-631.741 124.251,-635.387"/>
<text text-anchor="middle" x="150.747" y="-662.8" font-family="Times New Roman,serif" font-size="14.00">i1 &lt; i0/</text>
<text text-anchor="middle" x="150.747" y="-647.8" font-family="Times New Roman,serif" font-size="14.00">i1 = (i1 * i2);</text>
</g>
<!-- N9 -->
<g id="node10" class="node"><title>N9</title>
<ellipse fill="none" stroke="black" cx="143.247" cy="-521" rx="27" ry="18"/>
<text text-anchor="middle" x="143.247" y="-517.3" font-family="Times New Roman,serif" font-size="14.00">N8</text>
</g>
<!-- N8&#45;&gt;N9 -->
<g id="edge10" class="edge"><title>N8&#45;&gt;N9</title>
<path fill="none" stroke="black" d="M137.664,-589.799C138.622,-578.163 139.908,-562.548 141.004,-549.237"/>
<polygon fill="black" stroke="black" points="144.5,-549.429 141.833,-539.175 137.524,-548.854 144.5,-549.429"/>
<text text-anchor="middle" x="174.747" y="-560.8" font-family="Times New Roman,serif" font-size="14.00">i2 = (i2 + 1);</text>
</g>
<!-- N9&#45;&gt;N1 -->
<g id="edge11" class="edge"><title>N9&#45;&gt;N1</title>
<path fill="none" stroke="black" d="M143.247,-502.657C143.247,-482.714 143.247,-448.993 143.247,-420 143.247,-420 143.247,-420 143.247,-112 143.247,-92.9875 143.247,-71.6905 143.247,-54.6974"/>
<polygon fill="black" stroke="black" points="146.748,-54.2193 143.247,-44.2193 139.748,-54.2194 146.748,-54.2193"/>
<text text-anchor="middle" x="163.247" y="-269.8" font-family="Times New Roman,serif" font-size="14.00">i0 &lt; i2/</text>
<text text-anchor="middle" x="163.247" y="-254.8" font-family="Times New Roman,serif" font-size="14.00">return;</text>
</g>
<!-- N10 -->
<g id="node11" class="node"><title>N10</title>
<ellipse fill="none" stroke="black" cx="198.247" cy="-419" rx="27" ry="18"/>
<text text-anchor="middle" x="198.247" y="-415.3" font-family="Times New Roman,serif" font-size="14.00">N9</text>
</g>
<!-- N9&#45;&gt;N10 -->
<g id="edge12" class="edge"><title>N9&#45;&gt;N10</title>
<path fill="none" stroke="black" d="M152.084,-503.933C160.824,-488.042 174.326,-463.493 184.475,-445.042"/>
<polygon fill="black" stroke="black" points="187.68,-446.476 189.433,-436.027 181.547,-443.102 187.68,-446.476"/>
<text text-anchor="middle" x="214.747" y="-473.8" font-family="Times New Roman,serif" font-size="14.00">!(i0 &lt; i2)/</text>
<text text-anchor="middle" x="214.747" y="-458.8" font-family="Times New Roman,serif" font-size="14.00">i1 = (i1 * i2);</text>
</g>
<!-- N11 -->
<g id="node12" class="node"><title>N11</title>
<ellipse fill="none" stroke="black" cx="198.247" cy="-317" rx="27" ry="18"/>
<text text-anchor="middle" x="198.247" y="-313.3" font-family="Times New Roman,serif" font-size="14.00">N10</text>
</g>
<!-- N10&#45;&gt;N11 -->
<g id="edge13" class="edge"><title>N10&#45;&gt;N11</title>
<path fill="none" stroke="black" d="M198.247,-400.581C198.247,-385.382 198.247,-363.067 198.247,-345.464"/>
<polygon fill="black" stroke="black" points="201.748,-345.219 198.247,-335.219 194.748,-345.219 201.748,-345.219"/>
<text text-anchor="middle" x="233.747" y="-364.3" font-family="Times New Roman,serif" font-size="14.00">i2 = (i2 + 1);</text>
</g>
<!-- N11&#45;&gt;N1 -->
<g id="edge14" class="edge"><title>N11&#45;&gt;N1</title>
<path fill="none" stroke="black" d="M196.583,-298.833C192.341,-257.538 179.831,-149.588 157.247,-62 156.482,-59.0307 155.583,-55.969 154.617,-52.928"/>
<polygon fill="black" stroke="black" points="157.917,-51.7608 151.38,-43.423 151.29,-54.0175 157.917,-51.7608"/>
<text text-anchor="middle" x="200.247" y="-167.8" font-family="Times New Roman,serif" font-size="14.00">i0 &lt; i2/</text>
<text text-anchor="middle" x="200.247" y="-152.8" font-family="Times New Roman,serif" font-size="14.00">return;</text>
</g>
<!-- N12 -->
<g id="node13" class="node"><title>N12</title>
<ellipse fill="none" stroke="black" cx="257.247" cy="-215" rx="27" ry="18"/>
<text text-anchor="middle" x="257.247" y="-211.3" font-family="Times New Roman,serif" font-size="14.00">N11</text>
</g>
<!-- N11&#45;&gt;N12 -->
<g id="edge15" class="edge"><title>N11&#45;&gt;N12</title>
<path fill="none" stroke="black" d="M207.727,-299.933C217.146,-283.969 231.72,-259.267 242.622,-240.788"/>
<polygon fill="black" stroke="black" points="245.724,-242.418 247.792,-232.027 239.696,-238.861 245.724,-242.418"/>
<text text-anchor="middle" x="272.747" y="-269.8" font-family="Times New Roman,serif" font-size="14.00">!(i0 &lt; i2)/</text>
<text text-anchor="middle" x="272.747" y="-254.8" font-family="Times New Roman,serif" font-size="14.00">i1 = (i1 * i2);</text>
</g>
<!-- N13 -->
<g id="node14" class="node"><title>N13</title>
<ellipse fill="none" stroke="black" cx="257.247" cy="-113" rx="27" ry="18"/>
<text text-anchor="middle" x="257.247" y="-109.3" font-family="Times New Roman,serif" font-size="14.00">N12</text>
</g>
<!-- N12&#45;&gt;N13 -->
<g id="edge16" class="edge"><title>N12&#45;&gt;N13</title>
<path fill="none" stroke="black" d="M257.247,-196.581C257.247,-181.382 257.247,-159.067 257.247,-141.464"/>
<polygon fill="black" stroke="black" points="260.748,-141.219 257.247,-131.219 253.748,-141.219 260.748,-141.219"/>
<text text-anchor="middle" x="292.747" y="-160.3" font-family="Times New Roman,serif" font-size="14.00">i2 = (i2 + 1);</text>
</g>
<!-- N13&#45;&gt;N1 -->
<g id="edge17" class="edge"><title>N13&#45;&gt;N1</title>
<path fill="none" stroke="black" d="M245.391,-96.3527C236.912,-85.8278 224.817,-72.0863 212.247,-62 201.747,-53.5739 189.193,-45.8917 177.69,-39.6156"/>
<polygon fill="black" stroke="black" points="179.227,-36.4691 168.75,-34.8964 175.959,-42.6597 179.227,-36.4691"/>
<text text-anchor="middle" x="244.747" y="-65.8" font-family="Times New Roman,serif" font-size="14.00">return;</text>
</g>
</g>
</svg>
