<?xml version="1.0" encoding="UTF-8" standalone="no"?>
<!DOCTYPE svg PUBLIC "-//W3C//DTD SVG 1.1//EN"
 "http://www.w3.org/Graphics/SVG/1.1/DTD/svg11.dtd">
<!-- Generated by graphviz version 2.38.0 (20140413.2041)
 -->
<!-- Title: anonymous_graph Pages: 1 -->
<svg width="237pt" height="328pt"
 viewBox="0.00 0.00 237.33 328.00" xmlns="http://www.w3.org/2000/svg" xmlns:xlink="http://www.w3.org/1999/xlink">
<g id="graph0" class="graph" transform="scale(1 1) rotate(0) translate(4 324)">
<title>anonymous_graph</title>
<polygon fill="white" stroke="none" points="-4,4 -4,-324 233.326,-324 233.326,4 -4,4"/>
<!-- N0 -->
<g id="node1" class="node"><title>N0</title>
<ellipse fill="none" stroke="black" cx="104.326" cy="-302" rx="29.4969" ry="18"/>
<text text-anchor="middle" x="104.326" y="-298.3" font-family="Times New Roman,serif" font-size="14.00">initial</text>
</g>
<!-- N2 -->
<g id="node3" class="node"><title>N2</title>
<ellipse fill="none" stroke="black" cx="104.326" cy="-215" rx="27" ry="18"/>
<text text-anchor="middle" x="104.326" y="-211.3" font-family="Times New Roman,serif" font-size="14.00">N1</text>
</g>
<!-- N0&#45;&gt;N2 -->
<g id="edge1" class="edge"><title>N0&#45;&gt;N2</title>
<path fill="none" stroke="black" d="M104.326,-283.799C104.326,-272.163 104.326,-256.548 104.326,-243.237"/>
<polygon fill="black" stroke="black" points="107.826,-243.175 104.326,-233.175 100.826,-243.175 107.826,-243.175"/>
<text text-anchor="middle" x="122.826" y="-254.8" font-family="Times New Roman,serif" font-size="14.00">i1 = 1;</text>
</g>
<!-- N1 -->
<g id="node2" class="node"><title>N1</title>
<ellipse fill="none" stroke="black" cx="198.326" cy="-22" rx="27" ry="18"/>
<ellipse fill="none" stroke="black" cx="198.326" cy="-22" rx="31" ry="22"/>
<text text-anchor="middle" x="198.326" y="-18.3" font-family="Times New Roman,serif" font-size="14.00">final</text>
</g>
<!-- N4 -->
<g id="node5" class="node"><title>N4</title>
<ellipse fill="none" stroke="black" cx="104.326" cy="-128" rx="27" ry="18"/>
<text text-anchor="middle" x="104.326" y="-124.3" font-family="Times New Roman,serif" font-size="14.00">N10</text>
</g>
<!-- N2&#45;&gt;N4 -->
<g id="edge2" class="edge"><title>N2&#45;&gt;N4</title>
<path fill="none" stroke="black" d="M104.326,-196.799C104.326,-185.163 104.326,-169.548 104.326,-156.237"/>
<polygon fill="black" stroke="black" points="107.826,-156.175 104.326,-146.175 100.826,-156.175 107.826,-156.175"/>
<text text-anchor="middle" x="122.826" y="-167.8" font-family="Times New Roman,serif" font-size="14.00">i2 = 1;</text>
</g>
<!-- N3 -->
<g id="node4" class="node"><title>N3</title>
<ellipse fill="none" stroke="black" cx="56.3258" cy="-22" rx="27" ry="18"/>
<text text-anchor="middle" x="56.3258" y="-18.3" font-family="Times New Roman,serif" font-size="14.00">N7</text>
</g>
<!-- N3&#45;&gt;N4 -->
<g id="edge3" class="edge"><title>N3&#45;&gt;N4</title>
<path fill="none" stroke="black" d="M67.9318,-38.3745C72.8232,-45.3349 78.3027,-53.822 82.3258,-62 88.3049,-74.1541 93.3125,-88.3333 97.0322,-100.341"/>
<polygon fill="black" stroke="black" points="93.7652,-101.636 99.9615,-110.23 100.477,-99.6475 93.7652,-101.636"/>
<text text-anchor="middle" x="129.826" y="-73.3" font-family="Times New Roman,serif" font-size="14.00">i2 = (i2 + 1);</text>
</g>
<!-- N4&#45;&gt;N1 -->
<g id="edge4" class="edge"><title>N4&#45;&gt;N1</title>
<path fill="none" stroke="black" d="M127.923,-118.874C141.537,-113.167 158.123,-104.334 169.326,-92 179.142,-81.1923 185.928,-66.5798 190.453,-53.5843"/>
<polygon fill="black" stroke="black" points="193.789,-54.642 193.485,-44.0515 187.118,-52.5202 193.789,-54.642"/>
<text text-anchor="middle" x="206.326" y="-80.8" font-family="Times New Roman,serif" font-size="14.00">i0 &lt; i2/</text>
<text text-anchor="middle" x="206.326" y="-65.8" font-family="Times New Roman,serif" font-size="14.00">return;</text>
</g>
<!-- N4&#45;&gt;N3 -->
<g id="edge5" class="edge"><title>N4&#45;&gt;N3</title>
<path fill="none" stroke="black" d="M77.42,-125.676C54.0681,-122.932 21.5346,-114.922 5.32581,-92 -2.37228,-81.1134 -0.581247,-73.9534 5.32581,-62 9.99236,-52.5568 18.1632,-44.7711 26.6153,-38.7058"/>
<polygon fill="black" stroke="black" points="28.5733,-41.6075 35.0417,-33.2164 24.7524,-35.7423 28.5733,-41.6075"/>
<text text-anchor="middle" x="41.8258" y="-80.8" font-family="Times New Roman,serif" font-size="14.00">!(i0 &lt; i2)/</text>
<text text-anchor="middle" x="41.8258" y="-65.8" font-family="Times New Roman,serif" font-size="14.00">i1 = (i1 * i2);</text>
</g>
</g>
</svg>
