<?xml version="1.0" encoding="UTF-8" standalone="no"?>
<!DOCTYPE svg PUBLIC "-//W3C//DTD SVG 1.1//EN"
 "http://www.w3.org/Graphics/SVG/1.1/DTD/svg11.dtd">
<!-- Generated by graphviz version 2.38.0 (20140413.2041)
 -->
<!-- Title: anonymous_graph Pages: 1 -->
<svg width="192pt" height="259pt"
 viewBox="0.00 0.00 192.00 259.00" xmlns="http://www.w3.org/2000/svg" xmlns:xlink="http://www.w3.org/1999/xlink">
<g id="graph0" class="graph" transform="scale(1 1) rotate(0) translate(4 255)">
<title>anonymous_graph</title>
<polygon fill="white" stroke="none" points="-4,4 -4,-255 188,-255 188,4 -4,4"/>
<!-- N0 -->
<g id="node1" class="node"><title>N0</title>
<ellipse fill="none" stroke="black" cx="31" cy="-233" rx="29.4969" ry="18"/>
<text text-anchor="middle" x="31" y="-229.3" font-family="Times New Roman,serif" font-size="14.00">initial</text>
</g>
<!-- N1 -->
<g id="node2" class="node"><title>N1</title>
<ellipse fill="none" stroke="black" cx="31" cy="-22" rx="27" ry="18"/>
<ellipse fill="none" stroke="black" cx="31" cy="-22" rx="31" ry="22"/>
<text text-anchor="middle" x="31" y="-18.3" font-family="Times New Roman,serif" font-size="14.00">final</text>
</g>
<!-- N0&#45;&gt;N1 -->
<g id="edge1" class="edge"><title>N0&#45;&gt;N1</title>
<path fill="none" stroke="black" d="M31,-214.897C31,-179.697 31,-98.7145 31,-54.0241"/>
<polygon fill="black" stroke="black" points="34.5001,-54.0177 31,-44.0178 27.5001,-54.0178 34.5001,-54.0177"/>
<text text-anchor="middle" x="107.5" y="-185.8" font-family="Times New Roman,serif" font-size="14.00">while (true) {</text>
<text text-anchor="middle" x="107.5" y="-170.8" font-family="Times New Roman,serif" font-size="14.00"> &#160;if (!(i1 &lt; i0) &amp;&amp; i0 &lt; i1) {</text>
<text text-anchor="middle" x="107.5" y="-155.8" font-family="Times New Roman,serif" font-size="14.00"> &#160;&#160;&#160;i1 = (i1 &#45; i0);</text>
<text text-anchor="middle" x="107.5" y="-140.8" font-family="Times New Roman,serif" font-size="14.00"> &#160;}</text>
<text text-anchor="middle" x="107.5" y="-125.8" font-family="Times New Roman,serif" font-size="14.00"> &#160;else {</text>
<text text-anchor="middle" x="107.5" y="-110.8" font-family="Times New Roman,serif" font-size="14.00"> &#160;&#160;&#160;i0 = (i0 &#45; i1);</text>
<text text-anchor="middle" x="107.5" y="-95.8" font-family="Times New Roman,serif" font-size="14.00"> &#160;}</text>
<text text-anchor="middle" x="107.5" y="-80.8" font-family="Times New Roman,serif" font-size="14.00">}</text>
<text text-anchor="middle" x="107.5" y="-65.8" font-family="Times New Roman,serif" font-size="14.00">return;</text>
</g>
</g>
</svg>
