<?xml version="1.0" encoding="UTF-8" standalone="no"?>
<!DOCTYPE svg PUBLIC "-//W3C//DTD SVG 1.1//EN"
 "http://www.w3.org/Graphics/SVG/1.1/DTD/svg11.dtd">
<!-- Generated by graphviz version 2.38.0 (20140413.2041)
 -->
<!-- Title: anonymous_graph Pages: 1 -->
<svg width="775pt" height="517pt"
 viewBox="0.00 0.00 775.05 517.00" xmlns="http://www.w3.org/2000/svg" xmlns:xlink="http://www.w3.org/1999/xlink">
<g id="graph0" class="graph" transform="scale(1 1) rotate(0) translate(4 513)">
<title>anonymous_graph</title>
<polygon fill="white" stroke="none" points="-4,4 -4,-513 771.051,-513 771.051,4 -4,4"/>
<!-- N0 -->
<g id="node1" class="node"><title>N0</title>
<ellipse fill="none" stroke="black" cx="357.051" cy="-491" rx="29.4969" ry="18"/>
<text text-anchor="middle" x="357.051" y="-487.3" font-family="Times New Roman,serif" font-size="14.00">initial</text>
</g>
<!-- N2 -->
<g id="node3" class="node"><title>N2</title>
<ellipse fill="none" stroke="black" cx="357.051" cy="-404" rx="27" ry="18"/>
<text text-anchor="middle" x="357.051" y="-400.3" font-family="Times New Roman,serif" font-size="14.00">N1</text>
</g>
<!-- N0&#45;&gt;N2 -->
<g id="edge1" class="edge"><title>N0&#45;&gt;N2</title>
<path fill="none" stroke="black" d="M357.051,-472.799C357.051,-461.163 357.051,-445.548 357.051,-432.237"/>
<polygon fill="black" stroke="black" points="360.552,-432.175 357.051,-422.175 353.552,-432.175 360.552,-432.175"/>
<text text-anchor="middle" x="375.551" y="-443.8" font-family="Times New Roman,serif" font-size="14.00">i1 = 1;</text>
</g>
<!-- N1 -->
<g id="node2" class="node"><title>N1</title>
<ellipse fill="none" stroke="black" cx="404.051" cy="-22" rx="27" ry="18"/>
<ellipse fill="none" stroke="black" cx="404.051" cy="-22" rx="31" ry="22"/>
<text text-anchor="middle" x="404.051" y="-18.3" font-family="Times New Roman,serif" font-size="14.00">final</text>
</g>
<!-- N3 -->
<g id="node4" class="node"><title>N3</title>
<ellipse fill="none" stroke="black" cx="357.051" cy="-317" rx="27" ry="18"/>
<text text-anchor="middle" x="357.051" y="-313.3" font-family="Times New Roman,serif" font-size="14.00">N2</text>
</g>
<!-- N2&#45;&gt;N3 -->
<g id="edge2" class="edge"><title>N2&#45;&gt;N3</title>
<path fill="none" stroke="black" d="M357.051,-385.799C357.051,-374.163 357.051,-358.548 357.051,-345.237"/>
<polygon fill="black" stroke="black" points="360.552,-345.175 357.051,-335.175 353.552,-345.175 360.552,-345.175"/>
<text text-anchor="middle" x="375.551" y="-356.8" font-family="Times New Roman,serif" font-size="14.00">i2 = 1;</text>
</g>
<!-- N6 -->
<g id="node7" class="node"><title>N6</title>
<ellipse fill="none" stroke="black" cx="357.051" cy="-230" rx="27" ry="18"/>
<text text-anchor="middle" x="357.051" y="-226.3" font-family="Times New Roman,serif" font-size="14.00">N7</text>
</g>
<!-- N3&#45;&gt;N6 -->
<g id="edge3" class="edge"><title>N3&#45;&gt;N6</title>
<path fill="none" stroke="black" d="M357.051,-298.799C357.051,-287.163 357.051,-271.548 357.051,-258.237"/>
<polygon fill="black" stroke="black" points="360.552,-258.175 357.051,-248.175 353.552,-258.175 360.552,-258.175"/>
<text text-anchor="middle" x="393.551" y="-269.8" font-family="Times New Roman,serif" font-size="14.00">i1 = (i1 * i2);</text>
</g>
<!-- N4 -->
<g id="node5" class="node"><title>N4</title>
<ellipse fill="none" stroke="black" cx="71.0514" cy="-128" rx="27" ry="18"/>
<text text-anchor="middle" x="71.0514" y="-124.3" font-family="Times New Roman,serif" font-size="14.00">N4</text>
</g>
<!-- N4&#45;&gt;N1 -->
<g id="edge5" class="edge"><title>N4&#45;&gt;N1</title>
<path fill="none" stroke="black" d="M93.5554,-117.928C127.082,-104.608 192.292,-79.4527 249.051,-62 287.893,-50.0568 333.019,-39.0153 364.528,-31.7523"/>
<polygon fill="black" stroke="black" points="365.693,-35.0764 374.663,-29.4382 364.135,-28.2521 365.693,-35.0764"/>
<text text-anchor="middle" x="275.551" y="-80.8" font-family="Times New Roman,serif" font-size="14.00">!(i1 &lt; i0)/</text>
<text text-anchor="middle" x="275.551" y="-65.8" font-family="Times New Roman,serif" font-size="14.00">return;</text>
</g>
<!-- N4&#45;&gt;N6 -->
<g id="edge4" class="edge"><title>N4&#45;&gt;N6</title>
<path fill="none" stroke="black" d="M74.6817,-146.042C78.846,-161.169 87.2423,-182.591 103.051,-194 136.917,-218.44 257.603,-225.856 319.638,-228.074"/>
<polygon fill="black" stroke="black" points="319.677,-231.577 329.787,-228.409 319.908,-224.581 319.677,-231.577"/>
<text text-anchor="middle" x="139.551" y="-182.8" font-family="Times New Roman,serif" font-size="14.00">i1 &lt; i0/</text>
<text text-anchor="middle" x="139.551" y="-167.8" font-family="Times New Roman,serif" font-size="14.00">i1 = (i1 * i2);</text>
</g>
<!-- N5 -->
<g id="node6" class="node"><title>N5</title>
<ellipse fill="none" stroke="black" cx="261.051" cy="-128" rx="27" ry="18"/>
<text text-anchor="middle" x="261.051" y="-124.3" font-family="Times New Roman,serif" font-size="14.00">N6</text>
</g>
<!-- N5&#45;&gt;N1 -->
<g id="edge6" class="edge"><title>N5&#45;&gt;N1</title>
<path fill="none" stroke="black" d="M278.007,-113.811C295.227,-100.506 322.743,-79.4873 347.051,-62 355.593,-55.8555 364.975,-49.3411 373.62,-43.4323"/>
<polygon fill="black" stroke="black" points="375.658,-46.2789 381.959,-37.7615 371.721,-40.4905 375.658,-46.2789"/>
<text text-anchor="middle" x="373.551" y="-80.8" font-family="Times New Roman,serif" font-size="14.00">!(i1 &lt; i0)/</text>
<text text-anchor="middle" x="373.551" y="-65.8" font-family="Times New Roman,serif" font-size="14.00">return;</text>
</g>
<!-- N5&#45;&gt;N6 -->
<g id="edge7" class="edge"><title>N5&#45;&gt;N6</title>
<path fill="none" stroke="black" d="M260.273,-146.04C260.515,-160.342 263.063,-180.538 274.051,-194 285.762,-208.347 304.399,-216.91 321.048,-221.97"/>
<polygon fill="black" stroke="black" points="320.511,-225.451 331.079,-224.689 322.342,-218.694 320.511,-225.451"/>
<text text-anchor="middle" x="310.551" y="-182.8" font-family="Times New Roman,serif" font-size="14.00">i1 &lt; i0/</text>
<text text-anchor="middle" x="310.551" y="-167.8" font-family="Times New Roman,serif" font-size="14.00">i1 = (i1 * i2);</text>
</g>
<!-- N6&#45;&gt;N4 -->
<g id="edge11" class="edge"><title>N6&#45;&gt;N4</title>
<path fill="none" stroke="black" d="M330.059,-228.348C251.589,-226.177 27.7052,-217.92 6.05142,-194 -2.89671,-184.115 -0.785736,-175.447 6.05142,-164 12.8968,-152.539 24.9318,-144.611 36.8003,-139.237"/>
<polygon fill="black" stroke="black" points="38.2137,-142.441 46.1806,-135.457 35.5971,-135.949 38.2137,-142.441"/>
<text text-anchor="middle" x="41.5514" y="-175.3" font-family="Times New Roman,serif" font-size="14.00">i2 = (i2 + 1);</text>
</g>
<!-- N6&#45;&gt;N5 -->
<g id="edge9" class="edge"><title>N6&#45;&gt;N5</title>
<path fill="none" stroke="black" d="M330.035,-227.503C286.508,-224.463 203.917,-215.893 186.051,-194 177.621,-183.67 178.889,-175.246 186.051,-164 194.769,-150.312 210.391,-141.89 225.13,-136.751"/>
<polygon fill="black" stroke="black" points="226.563,-139.972 235.097,-133.693 224.51,-133.28 226.563,-139.972"/>
<text text-anchor="middle" x="221.551" y="-175.3" font-family="Times New Roman,serif" font-size="14.00">i2 = (i2 + 1);</text>
</g>
<!-- N7 -->
<g id="node8" class="node"><title>N7</title>
<ellipse fill="none" stroke="black" cx="404.051" cy="-128" rx="27" ry="18"/>
<text text-anchor="middle" x="404.051" y="-124.3" font-family="Times New Roman,serif" font-size="14.00">N8</text>
</g>
<!-- N6&#45;&gt;N7 -->
<g id="edge12" class="edge"><title>N6&#45;&gt;N7</title>
<path fill="none" stroke="black" d="M353.413,-212.015C351.361,-198.304 350.518,-178.908 358.051,-164 361.806,-156.569 367.959,-150.278 374.561,-145.169"/>
<polygon fill="black" stroke="black" points="376.775,-147.894 383.017,-139.333 372.799,-142.133 376.775,-147.894"/>
<text text-anchor="middle" x="393.551" y="-175.3" font-family="Times New Roman,serif" font-size="14.00">i2 = (i2 + 1);</text>
</g>
<!-- N8 -->
<g id="node9" class="node"><title>N8</title>
<ellipse fill="none" stroke="black" cx="547.051" cy="-128" rx="27" ry="18"/>
<text text-anchor="middle" x="547.051" y="-124.3" font-family="Times New Roman,serif" font-size="14.00">N10</text>
</g>
<!-- N6&#45;&gt;N8 -->
<g id="edge10" class="edge"><title>N6&#45;&gt;N8</title>
<path fill="none" stroke="black" d="M384.143,-229.048C416.781,-227.795 471.855,-221.352 509.051,-194 522.186,-184.342 531.543,-168.665 537.684,-155.127"/>
<polygon fill="black" stroke="black" points="540.97,-156.341 541.596,-145.764 534.512,-153.642 540.97,-156.341"/>
<text text-anchor="middle" x="568.551" y="-175.3" font-family="Times New Roman,serif" font-size="14.00">i2 = (i2 + 1);</text>
</g>
<!-- N9 -->
<g id="node10" class="node"><title>N9</title>
<ellipse fill="none" stroke="black" cx="678.051" cy="-128" rx="27" ry="18"/>
<text text-anchor="middle" x="678.051" y="-124.3" font-family="Times New Roman,serif" font-size="14.00">N12</text>
</g>
<!-- N6&#45;&gt;N9 -->
<g id="edge8" class="edge"><title>N6&#45;&gt;N9</title>
<path fill="none" stroke="black" d="M384.004,-228.195C459.636,-225.659 669.679,-216.626 690.051,-194 699.69,-183.295 696.991,-167.459 691.736,-154.099"/>
<polygon fill="black" stroke="black" points="694.897,-152.595 687.597,-144.916 688.515,-155.471 694.897,-152.595"/>
<text text-anchor="middle" x="731.551" y="-175.3" font-family="Times New Roman,serif" font-size="14.00">i2 = (i2 + 1);</text>
</g>
<!-- N7&#45;&gt;N1 -->
<g id="edge14" class="edge"><title>N7&#45;&gt;N1</title>
<path fill="none" stroke="black" d="M404.051,-109.827C404.051,-94.7794 404.051,-72.5319 404.051,-54.3242"/>
<polygon fill="black" stroke="black" points="407.552,-54.1556 404.051,-44.1556 400.552,-54.1557 407.552,-54.1556"/>
<text text-anchor="middle" x="424.051" y="-80.8" font-family="Times New Roman,serif" font-size="14.00">i0 &lt; i2/</text>
<text text-anchor="middle" x="424.051" y="-65.8" font-family="Times New Roman,serif" font-size="14.00">return;</text>
</g>
<!-- N7&#45;&gt;N6 -->
<g id="edge13" class="edge"><title>N7&#45;&gt;N6</title>
<path fill="none" stroke="black" d="M417.297,-143.951C427.731,-157.636 438.993,-178.114 429.051,-194 420.923,-206.989 406.444,-215.281 392.59,-220.514"/>
<polygon fill="black" stroke="black" points="391.093,-217.323 382.713,-223.806 393.307,-223.964 391.093,-217.323"/>
<text text-anchor="middle" x="468.551" y="-182.8" font-family="Times New Roman,serif" font-size="14.00">!(i0 &lt; i2)/</text>
<text text-anchor="middle" x="468.551" y="-167.8" font-family="Times New Roman,serif" font-size="14.00">i1 = (i1 * i2);</text>
</g>
<!-- N8&#45;&gt;N1 -->
<g id="edge15" class="edge"><title>N8&#45;&gt;N1</title>
<path fill="none" stroke="black" d="M529.517,-114.248C505.623,-96.8703 462.507,-65.5129 433.579,-44.4749"/>
<polygon fill="black" stroke="black" points="435.606,-41.621 425.46,-38.5699 431.489,-47.2822 435.606,-41.621"/>
<text text-anchor="middle" x="516.051" y="-80.8" font-family="Times New Roman,serif" font-size="14.00">i0 &lt; i2/</text>
<text text-anchor="middle" x="516.051" y="-65.8" font-family="Times New Roman,serif" font-size="14.00">return;</text>
</g>
<!-- N8&#45;&gt;N6 -->
<g id="edge16" class="edge"><title>N8&#45;&gt;N6</title>
<path fill="none" stroke="black" d="M571.366,-136.232C584.73,-141.589 600.158,-150.37 608.051,-164 614.734,-175.538 616.804,-183.942 608.051,-194 580.816,-225.297 457.491,-229.476 394.432,-229.508"/>
<polygon fill="black" stroke="black" points="394.134,-226.007 384.123,-229.476 394.112,-233.007 394.134,-226.007"/>
<text text-anchor="middle" x="649.551" y="-182.8" font-family="Times New Roman,serif" font-size="14.00">!(i0 &lt; i2)/</text>
<text text-anchor="middle" x="649.551" y="-167.8" font-family="Times New Roman,serif" font-size="14.00">i1 = (i1 * i2);</text>
</g>
<!-- N9&#45;&gt;N1 -->
<g id="edge17" class="edge"><title>N9&#45;&gt;N1</title>
<path fill="none" stroke="black" d="M657.462,-116.019C630.88,-102.142 582.934,-78.1281 540.051,-62 508.045,-49.9626 470.631,-39.4839 443.155,-32.4284"/>
<polygon fill="black" stroke="black" points="443.696,-28.9552 433.143,-29.8959 441.979,-35.7414 443.696,-28.9552"/>
<text text-anchor="middle" x="626.551" y="-73.3" font-family="Times New Roman,serif" font-size="14.00">return;</text>
</g>
</g>
</svg>
