<?xml version="1.0" encoding="UTF-8" standalone="no"?>
<!DOCTYPE svg PUBLIC "-//W3C//DTD SVG 1.1//EN"
 "http://www.w3.org/Graphics/SVG/1.1/DTD/svg11.dtd">
<!-- Generated by graphviz version 2.38.0 (20140413.2041)
 -->
<!-- Title: anonymous_graph Pages: 1 -->
<svg width="244pt" height="139pt"
 viewBox="0.00 0.00 244.25 139.00" xmlns="http://www.w3.org/2000/svg" xmlns:xlink="http://www.w3.org/1999/xlink">
<g id="graph0" class="graph" transform="scale(1 1) rotate(0) translate(4 135)">
<title>anonymous_graph</title>
<polygon fill="white" stroke="none" points="-4,4 -4,-135 240.247,-135 240.247,4 -4,4"/>
<!-- N0 -->
<g id="node1" class="node"><title>N0</title>
<ellipse fill="none" stroke="black" cx="31" cy="-113" rx="29.4969" ry="18"/>
<text text-anchor="middle" x="31" y="-109.3" font-family="Times New Roman,serif" font-size="14.00">initial</text>
</g>
<!-- N0&#45;&gt;N0 -->
<g id="edge2" class="edge"><title>N0&#45;&gt;N0</title>
<path fill="none" stroke="black" d="M59.6012,-116.934C69.873,-117.018 78.2474,-115.707 78.2474,-113 78.2474,-111.266 74.8105,-110.104 69.6397,-109.516"/>
<polygon fill="black" stroke="black" points="69.7479,-106.017 59.6012,-109.066 69.4346,-113.01 69.7479,-106.017"/>
<text text-anchor="middle" x="113.247" y="-116.8" font-family="Times New Roman,serif" font-size="14.00">i0 &lt; i1/</text>
<text text-anchor="middle" x="113.247" y="-101.8" font-family="Times New Roman,serif" font-size="14.00">i1 = (i1 &#45; i0);</text>
</g>
<!-- N0&#45;&gt;N0 -->
<g id="edge3" class="edge"><title>N0&#45;&gt;N0</title>
<path fill="none" stroke="black" d="M58.7772,-118.937C94.809,-122.833 148.247,-120.854 148.247,-113 148.247,-105.851 103.98,-103.57 68.859,-106.155"/>
<polygon fill="black" stroke="black" points="68.4229,-102.68 58.7772,-107.063 69.0509,-109.652 68.4229,-102.68"/>
<text text-anchor="middle" x="183.247" y="-109.3" font-family="Times New Roman,serif" font-size="14.00">i0 = (i0 &#45; i1);</text>
</g>
<!-- N1 -->
<g id="node2" class="node"><title>N1</title>
<ellipse fill="none" stroke="black" cx="31" cy="-22" rx="27" ry="18"/>
<ellipse fill="none" stroke="black" cx="31" cy="-22" rx="31" ry="22"/>
<text text-anchor="middle" x="31" y="-18.3" font-family="Times New Roman,serif" font-size="14.00">final</text>
</g>
<!-- N0&#45;&gt;N1 -->
<g id="edge1" class="edge"><title>N0&#45;&gt;N1</title>
<path fill="none" stroke="black" d="M31,-94.8399C31,-83.4407 31,-68.1336 31,-54.5781"/>
<polygon fill="black" stroke="black" points="34.5001,-54.1905 31,-44.1905 27.5001,-54.1906 34.5001,-54.1905"/>
<text text-anchor="middle" x="49.5" y="-65.8" font-family="Times New Roman,serif" font-size="14.00">return;</text>
</g>
</g>
</svg>
