<?xml version="1.0" encoding="UTF-8" standalone="no"?>
<!DOCTYPE svg PUBLIC "-//W3C//DTD SVG 1.1//EN"
 "http://www.w3.org/Graphics/SVG/1.1/DTD/svg11.dtd">
<!-- Generated by graphviz version 2.38.0 (20140413.2041)
 -->
<!-- Title: anonymous_graph Pages: 1 -->
<svg width="350pt" height="1096pt"
 viewBox="0.00 0.00 350.25 1096.00" xmlns="http://www.w3.org/2000/svg" xmlns:xlink="http://www.w3.org/1999/xlink">
<g id="graph0" class="graph" transform="scale(1 1) rotate(0) translate(4 1092)">
<title>anonymous_graph</title>
<polygon fill="white" stroke="none" points="-4,4 -4,-1092 346.247,-1092 346.247,4 -4,4"/>
<!-- N0 -->
<g id="node1" class="node"><title>N0</title>
<ellipse fill="none" stroke="black" cx="29.2474" cy="-1070" rx="29.4969" ry="18"/>
<text text-anchor="middle" x="29.2474" y="-1066.3" font-family="Times New Roman,serif" font-size="14.00">initial</text>
</g>
<!-- N7 -->
<g id="node8" class="node"><title>N7</title>
<ellipse fill="none" stroke="black" cx="29.2474" cy="-983" rx="27" ry="18"/>
<text text-anchor="middle" x="29.2474" y="-979.3" font-family="Times New Roman,serif" font-size="14.00">N9</text>
</g>
<!-- N0&#45;&gt;N7 -->
<g id="edge1" class="edge"><title>N0&#45;&gt;N7</title>
<path fill="none" stroke="black" d="M29.2474,-1051.8C29.2474,-1040.16 29.2474,-1024.55 29.2474,-1011.24"/>
<polygon fill="black" stroke="black" points="32.7475,-1011.18 29.2474,-1001.18 25.7475,-1011.18 32.7475,-1011.18"/>
<text text-anchor="middle" x="50.7474" y="-1022.8" font-family="Times New Roman,serif" font-size="14.00">i5 = 33;</text>
</g>
<!-- N1 -->
<g id="node2" class="node"><title>N1</title>
<ellipse fill="none" stroke="black" cx="103.247" cy="-283" rx="27" ry="18"/>
<ellipse fill="none" stroke="black" cx="103.247" cy="-283" rx="31" ry="22"/>
<text text-anchor="middle" x="103.247" y="-279.3" font-family="Times New Roman,serif" font-size="14.00">final</text>
</g>
<!-- N2 -->
<g id="node3" class="node"><title>N2</title>
<ellipse fill="none" stroke="black" cx="62.2474" cy="-896" rx="27" ry="18"/>
<text text-anchor="middle" x="62.2474" y="-892.3" font-family="Times New Roman,serif" font-size="14.00">N2</text>
</g>
<!-- N8 -->
<g id="node9" class="node"><title>N8</title>
<ellipse fill="none" stroke="black" cx="157.247" cy="-809" rx="27" ry="18"/>
<text text-anchor="middle" x="157.247" y="-805.3" font-family="Times New Roman,serif" font-size="14.00">N11</text>
</g>
<!-- N2&#45;&gt;N8 -->
<g id="edge2" class="edge"><title>N2&#45;&gt;N8</title>
<path fill="none" stroke="black" d="M53.0752,-878.779C48.4701,-868.268 45.2079,-854.767 52.2474,-845 67.6131,-823.681 96.5279,-815.152 120.13,-811.831"/>
<polygon fill="black" stroke="black" points="120.663,-815.293 130.198,-810.674 119.864,-808.339 120.663,-815.293"/>
<text text-anchor="middle" x="99.2474" y="-848.8" font-family="Times New Roman,serif" font-size="14.00">loc_SLL.d = 13;</text>
</g>
<!-- N2&#45;&gt;N8 -->
<g id="edge3" class="edge"><title>N2&#45;&gt;N8</title>
<path fill="none" stroke="black" d="M88.4289,-890.694C107.245,-886.223 131.758,-877.333 146.247,-860 151.618,-853.575 154.526,-845.107 156.056,-836.969"/>
<polygon fill="black" stroke="black" points="159.531,-837.383 157.338,-827.018 152.589,-836.488 159.531,-837.383"/>
<text text-anchor="middle" x="197.247" y="-848.8" font-family="Times New Roman,serif" font-size="14.00">loc_SLL.l = r2;</text>
</g>
<!-- N3 -->
<g id="node4" class="node"><title>N3</title>
<ellipse fill="none" stroke="black" cx="157.247" cy="-635" rx="27" ry="18"/>
<text text-anchor="middle" x="157.247" y="-631.3" font-family="Times New Roman,serif" font-size="14.00">N5</text>
</g>
<!-- N4 -->
<g id="node5" class="node"><title>N4</title>
<ellipse fill="none" stroke="black" cx="157.247" cy="-548" rx="27" ry="18"/>
<text text-anchor="middle" x="157.247" y="-544.3" font-family="Times New Roman,serif" font-size="14.00">N6</text>
</g>
<!-- N3&#45;&gt;N4 -->
<g id="edge4" class="edge"><title>N3&#45;&gt;N4</title>
<path fill="none" stroke="black" d="M157.247,-616.799C157.247,-605.163 157.247,-589.548 157.247,-576.237"/>
<polygon fill="black" stroke="black" points="160.748,-576.175 157.247,-566.175 153.748,-576.175 160.748,-576.175"/>
<text text-anchor="middle" x="197.747" y="-587.8" font-family="Times New Roman,serif" font-size="14.00">loc_SLL = r3;</text>
</g>
<!-- N5 -->
<g id="node6" class="node"><title>N5</title>
<ellipse fill="none" stroke="black" cx="62.2474" cy="-461" rx="27" ry="18"/>
<text text-anchor="middle" x="62.2474" y="-457.3" font-family="Times New Roman,serif" font-size="14.00">N7</text>
</g>
<!-- N4&#45;&gt;N5 -->
<g id="edge5" class="edge"><title>N4&#45;&gt;N5</title>
<path fill="none" stroke="black" d="M130.698,-543.872C110.299,-539.988 83.1686,-531.314 68.2474,-512 63.3417,-505.65 61.1824,-497.426 60.4307,-489.489"/>
<polygon fill="black" stroke="black" points="63.9267,-489.296 60.1409,-479.4 56.9296,-489.497 63.9267,-489.296"/>
<text text-anchor="middle" x="115.247" y="-500.8" font-family="Times New Roman,serif" font-size="14.00">loc_SLL.d = 11;</text>
</g>
<!-- N10 -->
<g id="node11" class="node"><title>N10</title>
<ellipse fill="none" stroke="black" cx="179.247" cy="-461" rx="27" ry="18"/>
<text text-anchor="middle" x="179.247" y="-457.3" font-family="Times New Roman,serif" font-size="14.00">N15</text>
</g>
<!-- N4&#45;&gt;N10 -->
<g id="edge6" class="edge"><title>N4&#45;&gt;N10</title>
<path fill="none" stroke="black" d="M161.594,-530.207C164.647,-518.409 168.797,-502.378 172.305,-488.822"/>
<polygon fill="black" stroke="black" points="175.717,-489.607 174.835,-479.049 168.941,-487.853 175.717,-489.607"/>
<text text-anchor="middle" x="213.247" y="-500.8" font-family="Times New Roman,serif" font-size="14.00">loc_SLL.l = r4;</text>
</g>
<!-- N6 -->
<g id="node7" class="node"><title>N6</title>
<ellipse fill="none" stroke="black" cx="29.2474" cy="-374" rx="27" ry="18"/>
<text text-anchor="middle" x="29.2474" y="-370.3" font-family="Times New Roman,serif" font-size="14.00">N8</text>
</g>
<!-- N5&#45;&gt;N6 -->
<g id="edge7" class="edge"><title>N5&#45;&gt;N6</title>
<path fill="none" stroke="black" d="M55.7277,-443.207C51.0723,-431.216 44.719,-414.851 39.4025,-401.157"/>
<polygon fill="black" stroke="black" points="42.6356,-399.814 35.7536,-391.758 36.1101,-402.347 42.6356,-399.814"/>
<text text-anchor="middle" x="88.7474" y="-413.8" font-family="Times New Roman,serif" font-size="14.00">loc_SLL = r4;</text>
</g>
<!-- N6&#45;&gt;N7 -->
<g id="edge8" class="edge"><title>N6&#45;&gt;N7</title>
<path fill="none" stroke="black" d="M22.2865,-391.605C15.8412,-408.505 7.2474,-435.611 7.2474,-460 7.2474,-897 7.2474,-897 7.2474,-897 7.2474,-917.197 13.1409,-939.258 18.8272,-955.842"/>
<polygon fill="black" stroke="black" points="15.5907,-957.184 22.2865,-965.395 22.1725,-954.8 15.5907,-957.184"/>
<text text-anchor="middle" x="54.2474" y="-674.8" font-family="Times New Roman,serif" font-size="14.00">loc_SLL.d = 10;</text>
</g>
<!-- N7&#45;&gt;N2 -->
<g id="edge9" class="edge"><title>N7&#45;&gt;N2</title>
<path fill="none" stroke="black" d="M35.7671,-965.207C40.4225,-953.216 46.7758,-936.851 52.0923,-923.157"/>
<polygon fill="black" stroke="black" points="55.3847,-924.347 55.7412,-913.758 48.8592,-921.814 55.3847,-924.347"/>
<text text-anchor="middle" x="88.7474" y="-935.8" font-family="Times New Roman,serif" font-size="14.00">loc_SLL = r1;</text>
</g>
<!-- N9 -->
<g id="node10" class="node"><title>N9</title>
<ellipse fill="none" stroke="black" cx="157.247" cy="-722" rx="27" ry="18"/>
<text text-anchor="middle" x="157.247" y="-718.3" font-family="Times New Roman,serif" font-size="14.00">N12</text>
</g>
<!-- N8&#45;&gt;N9 -->
<g id="edge10" class="edge"><title>N8&#45;&gt;N9</title>
<path fill="none" stroke="black" d="M157.247,-790.799C157.247,-779.163 157.247,-763.548 157.247,-750.237"/>
<polygon fill="black" stroke="black" points="160.748,-750.175 157.247,-740.175 153.748,-750.175 160.748,-750.175"/>
<text text-anchor="middle" x="197.747" y="-761.8" font-family="Times New Roman,serif" font-size="14.00">loc_SLL = r2;</text>
</g>
<!-- N9&#45;&gt;N3 -->
<g id="edge11" class="edge"><title>N9&#45;&gt;N3</title>
<path fill="none" stroke="black" d="M144.904,-705.602C138.617,-695.896 132.93,-682.977 136.247,-671 137.252,-667.372 138.744,-663.743 140.478,-660.268"/>
<polygon fill="black" stroke="black" points="143.542,-661.962 145.464,-651.543 137.464,-658.489 143.542,-661.962"/>
<text text-anchor="middle" x="183.247" y="-674.8" font-family="Times New Roman,serif" font-size="14.00">loc_SLL.d = 12;</text>
</g>
<!-- N9&#45;&gt;N3 -->
<g id="edge12" class="edge"><title>N9&#45;&gt;N3</title>
<path fill="none" stroke="black" d="M182.892,-716.009C199.508,-711.302 219.914,-702.414 230.247,-686 242.26,-666.919 216.5,-653.282 192.333,-645.118"/>
<polygon fill="black" stroke="black" points="193.126,-641.699 182.538,-642.056 191.038,-648.381 193.126,-641.699"/>
<text text-anchor="middle" x="277.247" y="-674.8" font-family="Times New Roman,serif" font-size="14.00">loc_SLL.l = r3;</text>
</g>
<!-- N11 -->
<g id="node12" class="node"><title>N11</title>
<ellipse fill="none" stroke="black" cx="179.247" cy="-374" rx="27" ry="18"/>
<text text-anchor="middle" x="179.247" y="-370.3" font-family="Times New Roman,serif" font-size="14.00">N21</text>
</g>
<!-- N10&#45;&gt;N11 -->
<g id="edge13" class="edge"><title>N10&#45;&gt;N11</title>
<path fill="none" stroke="black" d="M179.247,-442.799C179.247,-431.163 179.247,-415.548 179.247,-402.237"/>
<polygon fill="black" stroke="black" points="182.748,-402.175 179.247,-392.175 175.748,-402.175 182.748,-402.175"/>
<text text-anchor="middle" x="200.747" y="-413.8" font-family="Times New Roman,serif" font-size="14.00">r5 = r1;</text>
</g>
<!-- N11&#45;&gt;N1 -->
<g id="edge15" class="edge"><title>N11&#45;&gt;N1</title>
<path fill="none" stroke="black" d="M161.888,-360.047C154.179,-353.842 145.279,-346.024 138.247,-338 131.416,-330.205 124.939,-320.968 119.458,-312.358"/>
<polygon fill="black" stroke="black" points="122.352,-310.383 114.132,-303.699 116.389,-314.05 122.352,-310.383"/>
<text text-anchor="middle" x="156.747" y="-326.8" font-family="Times New Roman,serif" font-size="14.00">return;</text>
</g>
<!-- N14 -->
<g id="node15" class="node"><title>N14</title>
<ellipse fill="none" stroke="black" cx="179.247" cy="-283" rx="27" ry="18"/>
<text text-anchor="middle" x="179.247" y="-279.3" font-family="Times New Roman,serif" font-size="14.00">N32</text>
</g>
<!-- N11&#45;&gt;N14 -->
<g id="edge14" class="edge"><title>N11&#45;&gt;N14</title>
<path fill="none" stroke="black" d="M179.247,-355.84C179.247,-343.281 179.247,-325.979 179.247,-311.502"/>
<polygon fill="black" stroke="black" points="182.748,-311.107 179.247,-301.107 175.748,-311.107 182.748,-311.107"/>
<text text-anchor="middle" x="214.747" y="-326.8" font-family="Times New Roman,serif" font-size="14.00">i5 = (i5 + 1);</text>
</g>
<!-- N12 -->
<g id="node13" class="node"><title>N12</title>
<ellipse fill="none" stroke="black" cx="167.247" cy="-192" rx="27" ry="18"/>
<text text-anchor="middle" x="167.247" y="-188.3" font-family="Times New Roman,serif" font-size="14.00">N28</text>
</g>
<!-- N15 -->
<g id="node16" class="node"><title>N15</title>
<ellipse fill="none" stroke="black" cx="164.247" cy="-105" rx="27" ry="18"/>
<text text-anchor="middle" x="164.247" y="-101.3" font-family="Times New Roman,serif" font-size="14.00">N34</text>
</g>
<!-- N12&#45;&gt;N15 -->
<g id="edge16" class="edge"><title>N12&#45;&gt;N15</title>
<path fill="none" stroke="black" d="M166.64,-173.799C166.23,-162.163 165.679,-146.548 165.209,-133.237"/>
<polygon fill="black" stroke="black" points="168.704,-133.046 164.854,-123.175 161.709,-133.293 168.704,-133.046"/>
<text text-anchor="middle" x="205.747" y="-144.8" font-family="Times New Roman,serif" font-size="14.00">loc_SLL = r5;</text>
</g>
<!-- N13 -->
<g id="node14" class="node"><title>N13</title>
<ellipse fill="none" stroke="black" cx="214.247" cy="-18" rx="27" ry="18"/>
<text text-anchor="middle" x="214.247" y="-14.3" font-family="Times New Roman,serif" font-size="14.00">N30</text>
</g>
<!-- N13&#45;&gt;N11 -->
<g id="edge17" class="edge"><title>N13&#45;&gt;N11</title>
<path fill="none" stroke="black" d="M232.199,-31.9585C239.352,-37.9425 247.093,-45.5876 252.247,-54 264.304,-73.6768 266.247,-80.9231 266.247,-104 266.247,-284 266.247,-284 266.247,-284 266.247,-308.793 268.004,-318.858 252.247,-338 242.472,-349.876 227.714,-357.994 214.019,-363.397"/>
<polygon fill="black" stroke="black" points="212.559,-360.203 204.322,-366.867 214.917,-366.793 212.559,-360.203"/>
<text text-anchor="middle" x="304.247" y="-188.3" font-family="Times New Roman,serif" font-size="14.00">i4 = (i4 + &#45;1);</text>
</g>
<!-- N14&#45;&gt;N12 -->
<g id="edge18" class="edge"><title>N14&#45;&gt;N12</title>
<path fill="none" stroke="black" d="M176.934,-264.84C175.224,-252.158 172.862,-234.64 170.898,-220.077"/>
<polygon fill="black" stroke="black" points="174.359,-219.55 169.554,-210.107 167.422,-220.485 174.359,-219.55"/>
<text text-anchor="middle" x="199.247" y="-231.8" font-family="Times New Roman,serif" font-size="14.00">i0 = r5.d;</text>
</g>
<!-- N15&#45;&gt;N13 -->
<g id="edge19" class="edge"><title>N15&#45;&gt;N13</title>
<path fill="none" stroke="black" d="M160.46,-86.8601C159.117,-76.7466 159.036,-64.0093 164.247,-54 168.503,-45.8263 175.638,-39.1668 183.204,-33.936"/>
<polygon fill="black" stroke="black" points="185.45,-36.6639 192.138,-28.4467 181.786,-30.6997 185.45,-36.6639"/>
<text text-anchor="middle" x="208.247" y="-57.8" font-family="Times New Roman,serif" font-size="14.00">r5 = loc_SLL.l;</text>
</g>
</g>
</svg>
