<?xml version="1.0" encoding="UTF-8" standalone="no"?>
<!DOCTYPE svg PUBLIC "-//W3C//DTD SVG 1.1//EN"
 "http://www.w3.org/Graphics/SVG/1.1/DTD/svg11.dtd">
<!-- Generated by graphviz version 2.38.0 (20140413.2041)
 -->
<!-- Title: anonymous_graph Pages: 1 -->
<svg width="348pt" height="1096pt"
 viewBox="0.00 0.00 348.00 1096.00" xmlns="http://www.w3.org/2000/svg" xmlns:xlink="http://www.w3.org/1999/xlink">
<g id="graph0" class="graph" transform="scale(1 1) rotate(0) translate(4 1092)">
<title>anonymous_graph</title>
<polygon fill="white" stroke="none" points="-4,4 -4,-1092 344,-1092 344,4 -4,4"/>
<!-- N0 -->
<g id="node1" class="node"><title>N0</title>
<ellipse fill="none" stroke="black" cx="60" cy="-1070" rx="29.4969" ry="18"/>
<text text-anchor="middle" x="60" y="-1066.3" font-family="Times New Roman,serif" font-size="14.00">initial</text>
</g>
<!-- N7 -->
<g id="node8" class="node"><title>N7</title>
<ellipse fill="none" stroke="black" cx="60" cy="-983" rx="27" ry="18"/>
<text text-anchor="middle" x="60" y="-979.3" font-family="Times New Roman,serif" font-size="14.00">N9</text>
</g>
<!-- N0&#45;&gt;N7 -->
<g id="edge1" class="edge"><title>N0&#45;&gt;N7</title>
<path fill="none" stroke="black" d="M60,-1051.8C60,-1040.16 60,-1024.55 60,-1011.24"/>
<polygon fill="black" stroke="black" points="63.5001,-1011.18 60,-1001.18 56.5001,-1011.18 63.5001,-1011.18"/>
<text text-anchor="middle" x="81.5" y="-1022.8" font-family="Times New Roman,serif" font-size="14.00">i5 = 33;</text>
</g>
<!-- N1 -->
<g id="node2" class="node"><title>N1</title>
<ellipse fill="none" stroke="black" cx="101" cy="-283" rx="27" ry="18"/>
<ellipse fill="none" stroke="black" cx="101" cy="-283" rx="31" ry="22"/>
<text text-anchor="middle" x="101" y="-279.3" font-family="Times New Roman,serif" font-size="14.00">final</text>
</g>
<!-- N2 -->
<g id="node3" class="node"><title>N2</title>
<ellipse fill="none" stroke="black" cx="60" cy="-896" rx="27" ry="18"/>
<text text-anchor="middle" x="60" y="-892.3" font-family="Times New Roman,serif" font-size="14.00">N2</text>
</g>
<!-- N9 -->
<g id="node10" class="node"><title>N9</title>
<ellipse fill="none" stroke="black" cx="161" cy="-809" rx="27" ry="18"/>
<text text-anchor="middle" x="161" y="-805.3" font-family="Times New Roman,serif" font-size="14.00">N11</text>
</g>
<!-- N2&#45;&gt;N9 -->
<g id="edge2" class="edge"><title>N2&#45;&gt;N9</title>
<path fill="none" stroke="black" d="M58.2425,-877.996C58.0714,-867.427 59.6445,-854.157 67,-845 80.93,-827.658 104.361,-818.909 124.345,-814.494"/>
<polygon fill="black" stroke="black" points="125.252,-817.884 134.412,-812.558 123.931,-811.01 125.252,-817.884"/>
<text text-anchor="middle" x="114" y="-848.8" font-family="Times New Roman,serif" font-size="14.00">loc_SLL.d = 13;</text>
</g>
<!-- N3 -->
<g id="node4" class="node"><title>N3</title>
<ellipse fill="none" stroke="black" cx="156" cy="-635" rx="27" ry="18"/>
<text text-anchor="middle" x="156" y="-631.3" font-family="Times New Roman,serif" font-size="14.00">N5</text>
</g>
<!-- N4 -->
<g id="node5" class="node"><title>N4</title>
<ellipse fill="none" stroke="black" cx="156" cy="-548" rx="27" ry="18"/>
<text text-anchor="middle" x="156" y="-544.3" font-family="Times New Roman,serif" font-size="14.00">N6</text>
</g>
<!-- N3&#45;&gt;N4 -->
<g id="edge3" class="edge"><title>N3&#45;&gt;N4</title>
<path fill="none" stroke="black" d="M156,-616.799C156,-605.163 156,-589.548 156,-576.237"/>
<polygon fill="black" stroke="black" points="159.5,-576.175 156,-566.175 152.5,-576.175 159.5,-576.175"/>
<text text-anchor="middle" x="196.5" y="-587.8" font-family="Times New Roman,serif" font-size="14.00">loc_SLL = r3;</text>
</g>
<!-- N5 -->
<g id="node6" class="node"><title>N5</title>
<ellipse fill="none" stroke="black" cx="60" cy="-461" rx="27" ry="18"/>
<text text-anchor="middle" x="60" y="-457.3" font-family="Times New Roman,serif" font-size="14.00">N7</text>
</g>
<!-- N4&#45;&gt;N5 -->
<g id="edge4" class="edge"><title>N4&#45;&gt;N5</title>
<path fill="none" stroke="black" d="M129.554,-543.792C109.213,-539.862 82.1104,-531.167 67,-512 62.0194,-505.682 59.7103,-497.468 58.7974,-489.529"/>
<polygon fill="black" stroke="black" points="62.2878,-489.247 58.2942,-479.433 55.2964,-489.595 62.2878,-489.247"/>
<text text-anchor="middle" x="114" y="-500.8" font-family="Times New Roman,serif" font-size="14.00">loc_SLL.d = 11;</text>
</g>
<!-- N11 -->
<g id="node12" class="node"><title>N11</title>
<ellipse fill="none" stroke="black" cx="177" cy="-461" rx="27" ry="18"/>
<text text-anchor="middle" x="177" y="-457.3" font-family="Times New Roman,serif" font-size="14.00">N15</text>
</g>
<!-- N4&#45;&gt;N11 -->
<g id="edge5" class="edge"><title>N4&#45;&gt;N11</title>
<path fill="none" stroke="black" d="M160.149,-530.207C163.064,-518.409 167.024,-502.378 170.373,-488.822"/>
<polygon fill="black" stroke="black" points="173.787,-489.597 172.788,-479.049 166.991,-487.918 173.787,-489.597"/>
<text text-anchor="middle" x="211" y="-500.8" font-family="Times New Roman,serif" font-size="14.00">loc_SLL.l = r4;</text>
</g>
<!-- N6 -->
<g id="node7" class="node"><title>N6</title>
<ellipse fill="none" stroke="black" cx="27" cy="-374" rx="27" ry="18"/>
<text text-anchor="middle" x="27" y="-370.3" font-family="Times New Roman,serif" font-size="14.00">N8</text>
</g>
<!-- N5&#45;&gt;N6 -->
<g id="edge6" class="edge"><title>N5&#45;&gt;N6</title>
<path fill="none" stroke="black" d="M53.4803,-443.207C48.8249,-431.216 42.4716,-414.851 37.1551,-401.157"/>
<polygon fill="black" stroke="black" points="40.3882,-399.814 33.5062,-391.758 33.8627,-402.347 40.3882,-399.814"/>
<text text-anchor="middle" x="86.5" y="-413.8" font-family="Times New Roman,serif" font-size="14.00">loc_SLL = r4;</text>
</g>
<!-- N6&#45;&gt;N7 -->
<g id="edge7" class="edge"><title>N6&#45;&gt;N7</title>
<path fill="none" stroke="black" d="M20.0391,-391.605C13.5938,-408.505 5,-435.611 5,-460 5,-897 5,-897 5,-897 5,-921.923 21.8739,-945.315 36.929,-961.225"/>
<polygon fill="black" stroke="black" points="34.5524,-963.798 44.0917,-968.408 39.5093,-958.856 34.5524,-963.798"/>
<text text-anchor="middle" x="52" y="-674.8" font-family="Times New Roman,serif" font-size="14.00">loc_SLL.d = 10;</text>
</g>
<!-- N7&#45;&gt;N2 -->
<g id="edge8" class="edge"><title>N7&#45;&gt;N2</title>
<path fill="none" stroke="black" d="M60,-964.799C60,-953.163 60,-937.548 60,-924.237"/>
<polygon fill="black" stroke="black" points="63.5001,-924.175 60,-914.175 56.5001,-924.175 63.5001,-924.175"/>
<text text-anchor="middle" x="100.5" y="-935.8" font-family="Times New Roman,serif" font-size="14.00">loc_SLL = r1;</text>
</g>
<!-- N8 -->
<g id="node9" class="node"><title>N8</title>
<ellipse fill="none" stroke="black" cx="172" cy="-896" rx="27" ry="18"/>
<text text-anchor="middle" x="172" y="-892.3" font-family="Times New Roman,serif" font-size="14.00">N10</text>
</g>
<!-- N7&#45;&gt;N8 -->
<g id="edge9" class="edge"><title>N7&#45;&gt;N8</title>
<path fill="none" stroke="black" d="M85.1698,-976.235C103.234,-971.056 127.246,-961.92 144,-947 151.342,-940.462 157.187,-931.522 161.598,-923.008"/>
<polygon fill="black" stroke="black" points="164.875,-924.266 165.972,-913.728 158.543,-921.282 164.875,-924.266"/>
<text text-anchor="middle" x="195.5" y="-935.8" font-family="Times New Roman,serif" font-size="14.00">loc_SLL = r1;</text>
</g>
<!-- N8&#45;&gt;N9 -->
<g id="edge10" class="edge"><title>N8&#45;&gt;N9</title>
<path fill="none" stroke="black" d="M169.774,-877.799C168.268,-866.163 166.247,-850.548 164.525,-837.237"/>
<polygon fill="black" stroke="black" points="167.977,-836.644 163.223,-827.175 161.035,-837.542 167.977,-836.644"/>
<text text-anchor="middle" x="211" y="-848.8" font-family="Times New Roman,serif" font-size="14.00">loc_SLL.l = r2;</text>
</g>
<!-- N10 -->
<g id="node11" class="node"><title>N10</title>
<ellipse fill="none" stroke="black" cx="161" cy="-722" rx="27" ry="18"/>
<text text-anchor="middle" x="161" y="-718.3" font-family="Times New Roman,serif" font-size="14.00">N12</text>
</g>
<!-- N9&#45;&gt;N10 -->
<g id="edge11" class="edge"><title>N9&#45;&gt;N10</title>
<path fill="none" stroke="black" d="M161,-790.799C161,-779.163 161,-763.548 161,-750.237"/>
<polygon fill="black" stroke="black" points="164.5,-750.175 161,-740.175 157.5,-750.175 164.5,-750.175"/>
<text text-anchor="middle" x="201.5" y="-761.8" font-family="Times New Roman,serif" font-size="14.00">loc_SLL = r2;</text>
</g>
<!-- N10&#45;&gt;N3 -->
<g id="edge12" class="edge"><title>N10&#45;&gt;N3</title>
<path fill="none" stroke="black" d="M147.267,-706.116C142.765,-700.283 138.324,-693.253 136,-686 133.293,-677.553 135.339,-668.5 138.988,-660.449"/>
<polygon fill="black" stroke="black" points="142.121,-662.015 143.818,-651.557 135.969,-658.674 142.121,-662.015"/>
<text text-anchor="middle" x="183" y="-674.8" font-family="Times New Roman,serif" font-size="14.00">loc_SLL.d = 12;</text>
</g>
<!-- N10&#45;&gt;N3 -->
<g id="edge13" class="edge"><title>N10&#45;&gt;N3</title>
<path fill="none" stroke="black" d="M185.908,-714.355C210.62,-706.432 243.059,-691.623 230,-671 221.413,-657.44 206,-649.032 191.456,-643.87"/>
<polygon fill="black" stroke="black" points="192.209,-640.438 181.62,-640.791 190.118,-647.119 192.209,-640.438"/>
<text text-anchor="middle" x="276" y="-674.8" font-family="Times New Roman,serif" font-size="14.00">loc_SLL.l = r3;</text>
</g>
<!-- N12 -->
<g id="node13" class="node"><title>N12</title>
<ellipse fill="none" stroke="black" cx="177" cy="-374" rx="27" ry="18"/>
<text text-anchor="middle" x="177" y="-370.3" font-family="Times New Roman,serif" font-size="14.00">N21</text>
</g>
<!-- N11&#45;&gt;N12 -->
<g id="edge14" class="edge"><title>N11&#45;&gt;N12</title>
<path fill="none" stroke="black" d="M177,-442.799C177,-431.163 177,-415.548 177,-402.237"/>
<polygon fill="black" stroke="black" points="180.5,-402.175 177,-392.175 173.5,-402.175 180.5,-402.175"/>
<text text-anchor="middle" x="198.5" y="-413.8" font-family="Times New Roman,serif" font-size="14.00">r5 = r1;</text>
</g>
<!-- N12&#45;&gt;N1 -->
<g id="edge16" class="edge"><title>N12&#45;&gt;N1</title>
<path fill="none" stroke="black" d="M159.641,-360.047C151.932,-353.842 143.032,-346.024 136,-338 129.169,-330.205 122.692,-320.968 117.21,-312.358"/>
<polygon fill="black" stroke="black" points="120.105,-310.383 111.884,-303.699 114.142,-314.05 120.105,-310.383"/>
<text text-anchor="middle" x="154.5" y="-326.8" font-family="Times New Roman,serif" font-size="14.00">return;</text>
</g>
<!-- N15 -->
<g id="node16" class="node"><title>N15</title>
<ellipse fill="none" stroke="black" cx="177" cy="-283" rx="27" ry="18"/>
<text text-anchor="middle" x="177" y="-279.3" font-family="Times New Roman,serif" font-size="14.00">N32</text>
</g>
<!-- N12&#45;&gt;N15 -->
<g id="edge15" class="edge"><title>N12&#45;&gt;N15</title>
<path fill="none" stroke="black" d="M177,-355.84C177,-343.281 177,-325.979 177,-311.502"/>
<polygon fill="black" stroke="black" points="180.5,-311.107 177,-301.107 173.5,-311.107 180.5,-311.107"/>
<text text-anchor="middle" x="212.5" y="-326.8" font-family="Times New Roman,serif" font-size="14.00">i5 = (i5 + 1);</text>
</g>
<!-- N13 -->
<g id="node14" class="node"><title>N13</title>
<ellipse fill="none" stroke="black" cx="165" cy="-192" rx="27" ry="18"/>
<text text-anchor="middle" x="165" y="-188.3" font-family="Times New Roman,serif" font-size="14.00">N28</text>
</g>
<!-- N16 -->
<g id="node17" class="node"><title>N16</title>
<ellipse fill="none" stroke="black" cx="162" cy="-105" rx="27" ry="18"/>
<text text-anchor="middle" x="162" y="-101.3" font-family="Times New Roman,serif" font-size="14.00">N34</text>
</g>
<!-- N13&#45;&gt;N16 -->
<g id="edge17" class="edge"><title>N13&#45;&gt;N16</title>
<path fill="none" stroke="black" d="M164.393,-173.799C163.982,-162.163 163.431,-146.548 162.961,-133.237"/>
<polygon fill="black" stroke="black" points="166.457,-133.046 162.606,-123.175 159.461,-133.293 166.457,-133.046"/>
<text text-anchor="middle" x="203.5" y="-144.8" font-family="Times New Roman,serif" font-size="14.00">loc_SLL = r5;</text>
</g>
<!-- N14 -->
<g id="node15" class="node"><title>N14</title>
<ellipse fill="none" stroke="black" cx="212" cy="-18" rx="27" ry="18"/>
<text text-anchor="middle" x="212" y="-14.3" font-family="Times New Roman,serif" font-size="14.00">N30</text>
</g>
<!-- N14&#45;&gt;N12 -->
<g id="edge18" class="edge"><title>N14&#45;&gt;N12</title>
<path fill="none" stroke="black" d="M229.952,-31.9585C237.104,-37.9425 244.845,-45.5876 250,-54 262.057,-73.6768 264,-80.9231 264,-104 264,-284 264,-284 264,-284 264,-308.793 265.757,-318.858 250,-338 240.225,-349.876 225.466,-357.994 211.772,-363.397"/>
<polygon fill="black" stroke="black" points="210.311,-360.203 202.075,-366.867 212.669,-366.793 210.311,-360.203"/>
<text text-anchor="middle" x="302" y="-188.3" font-family="Times New Roman,serif" font-size="14.00">i4 = (i4 + &#45;1);</text>
</g>
<!-- N15&#45;&gt;N13 -->
<g id="edge19" class="edge"><title>N15&#45;&gt;N13</title>
<path fill="none" stroke="black" d="M174.686,-264.84C172.976,-252.158 170.614,-234.64 168.651,-220.077"/>
<polygon fill="black" stroke="black" points="172.112,-219.55 167.307,-210.107 165.174,-220.485 172.112,-219.55"/>
<text text-anchor="middle" x="197" y="-231.8" font-family="Times New Roman,serif" font-size="14.00">i0 = r5.d;</text>
</g>
<!-- N16&#45;&gt;N14 -->
<g id="edge20" class="edge"><title>N16&#45;&gt;N14</title>
<path fill="none" stroke="black" d="M158.213,-86.8601C156.87,-76.7466 156.789,-64.0093 162,-54 166.256,-45.8263 173.39,-39.1668 180.957,-33.936"/>
<polygon fill="black" stroke="black" points="183.203,-36.6639 189.891,-28.4467 179.538,-30.6997 183.203,-36.6639"/>
<text text-anchor="middle" x="206" y="-57.8" font-family="Times New Roman,serif" font-size="14.00">r5 = loc_SLL.l;</text>
</g>
</g>
</svg>
