<?xml version="1.0" encoding="UTF-8" standalone="no"?>
<!DOCTYPE svg PUBLIC "-//W3C//DTD SVG 1.1//EN"
 "http://www.w3.org/Graphics/SVG/1.1/DTD/svg11.dtd">
<!-- Generated by graphviz version 2.38.0 (20140413.2041)
 -->
<!-- Title: anonymous_graph Pages: 1 -->
<svg width="156pt" height="241pt"
 viewBox="0.00 0.00 156.25 241.00" xmlns="http://www.w3.org/2000/svg" xmlns:xlink="http://www.w3.org/1999/xlink">
<g id="graph0" class="graph" transform="scale(1 1) rotate(0) translate(4 237)">
<title>anonymous_graph</title>
<polygon fill="white" stroke="none" points="-4,4 -4,-237 152.247,-237 152.247,4 -4,4"/>
<!-- N0 -->
<g id="node1" class="node"><title>N0</title>
<ellipse fill="none" stroke="black" cx="31" cy="-215" rx="29.4969" ry="18"/>
<text text-anchor="middle" x="31" y="-211.3" font-family="Times New Roman,serif" font-size="14.00">initial</text>
</g>
<!-- N0&#45;&gt;N0 -->
<g id="edge1" class="edge"><title>N0&#45;&gt;N0</title>
<path fill="none" stroke="black" d="M56.2767,-224.19C68.0024,-225.192 78.2474,-222.129 78.2474,-215 78.2474,-210.099 73.405,-207.119 66.5683,-206.062"/>
<polygon fill="black" stroke="black" points="66.3591,-202.556 56.2767,-205.81 66.1882,-209.554 66.3591,-202.556"/>
<text text-anchor="middle" x="113.247" y="-218.8" font-family="Times New Roman,serif" font-size="14.00">!(i0 &lt; i1)/</text>
<text text-anchor="middle" x="113.247" y="-203.8" font-family="Times New Roman,serif" font-size="14.00">i0 = (i0 &#45; i1);</text>
</g>
<!-- N2 -->
<g id="node3" class="node"><title>N2</title>
<ellipse fill="none" stroke="black" cx="31" cy="-113" rx="27" ry="18"/>
<text text-anchor="middle" x="31" y="-109.3" font-family="Times New Roman,serif" font-size="14.00">N8</text>
</g>
<!-- N0&#45;&gt;N2 -->
<g id="edge2" class="edge"><title>N0&#45;&gt;N2</title>
<path fill="none" stroke="black" d="M31,-196.581C31,-181.382 31,-159.067 31,-141.464"/>
<polygon fill="black" stroke="black" points="34.5001,-141.219 31,-131.219 27.5001,-141.219 34.5001,-141.219"/>
<text text-anchor="middle" x="66" y="-167.8" font-family="Times New Roman,serif" font-size="14.00">i0 &lt; i1/</text>
<text text-anchor="middle" x="66" y="-152.8" font-family="Times New Roman,serif" font-size="14.00">i1 = (i1 &#45; i0);</text>
</g>
<!-- N1 -->
<g id="node2" class="node"><title>N1</title>
<ellipse fill="none" stroke="black" cx="31" cy="-22" rx="27" ry="18"/>
<ellipse fill="none" stroke="black" cx="31" cy="-22" rx="31" ry="22"/>
<text text-anchor="middle" x="31" y="-18.3" font-family="Times New Roman,serif" font-size="14.00">final</text>
</g>
<!-- N2&#45;&gt;N1 -->
<g id="edge3" class="edge"><title>N2&#45;&gt;N1</title>
<path fill="none" stroke="black" d="M31,-94.8399C31,-83.4407 31,-68.1336 31,-54.5781"/>
<polygon fill="black" stroke="black" points="34.5001,-54.1905 31,-44.1905 27.5001,-54.1906 34.5001,-54.1905"/>
<text text-anchor="middle" x="49.5" y="-65.8" font-family="Times New Roman,serif" font-size="14.00">return;</text>
</g>
</g>
</svg>
