<?xml version="1.0" encoding="UTF-8" standalone="no"?>
<!DOCTYPE svg PUBLIC "-//W3C//DTD SVG 1.1//EN"
 "http://www.w3.org/Graphics/SVG/1.1/DTD/svg11.dtd">
<!-- Generated by graphviz version 2.38.0 (20140413.2041)
 -->
<!-- Title: anonymous_graph Pages: 1 -->
<svg width="109pt" height="835pt"
 viewBox="0.00 0.00 109.00 835.00" xmlns="http://www.w3.org/2000/svg" xmlns:xlink="http://www.w3.org/1999/xlink">
<g id="graph0" class="graph" transform="scale(1 1) rotate(0) translate(4 831)">
<title>anonymous_graph</title>
<polygon fill="white" stroke="none" points="-4,4 -4,-831 105,-831 105,4 -4,4"/>
<!-- N0 -->
<g id="node1" class="node"><title>N0</title>
<ellipse fill="none" stroke="black" cx="31" cy="-809" rx="29.4969" ry="18"/>
<text text-anchor="middle" x="31" y="-805.3" font-family="Times New Roman,serif" font-size="14.00">initial</text>
</g>
<!-- N2 -->
<g id="node3" class="node"><title>N2</title>
<ellipse fill="none" stroke="black" cx="31" cy="-722" rx="27" ry="18"/>
<text text-anchor="middle" x="31" y="-718.3" font-family="Times New Roman,serif" font-size="14.00">N1</text>
</g>
<!-- N0&#45;&gt;N2 -->
<g id="edge1" class="edge"><title>N0&#45;&gt;N2</title>
<path fill="none" stroke="black" d="M31,-790.799C31,-779.163 31,-763.548 31,-750.237"/>
<polygon fill="black" stroke="black" points="34.5001,-750.175 31,-740.175 27.5001,-750.175 34.5001,-750.175"/>
<text text-anchor="middle" x="66" y="-761.8" font-family="Times New Roman,serif" font-size="14.00">i0 = (i0 &#45; i1);</text>
</g>
<!-- N1 -->
<g id="node2" class="node"><title>N1</title>
<ellipse fill="none" stroke="black" cx="31" cy="-22" rx="27" ry="18"/>
<ellipse fill="none" stroke="black" cx="31" cy="-22" rx="31" ry="22"/>
<text text-anchor="middle" x="31" y="-18.3" font-family="Times New Roman,serif" font-size="14.00">final</text>
</g>
<!-- N3 -->
<g id="node4" class="node"><title>N3</title>
<ellipse fill="none" stroke="black" cx="31" cy="-635" rx="27" ry="18"/>
<text text-anchor="middle" x="31" y="-631.3" font-family="Times New Roman,serif" font-size="14.00">N2</text>
</g>
<!-- N2&#45;&gt;N3 -->
<g id="edge2" class="edge"><title>N2&#45;&gt;N3</title>
<path fill="none" stroke="black" d="M31,-703.799C31,-692.163 31,-676.548 31,-663.237"/>
<polygon fill="black" stroke="black" points="34.5001,-663.175 31,-653.175 27.5001,-663.175 34.5001,-663.175"/>
<text text-anchor="middle" x="66" y="-674.8" font-family="Times New Roman,serif" font-size="14.00">i0 = (i0 &#45; i1);</text>
</g>
<!-- N4 -->
<g id="node5" class="node"><title>N4</title>
<ellipse fill="none" stroke="black" cx="31" cy="-548" rx="27" ry="18"/>
<text text-anchor="middle" x="31" y="-544.3" font-family="Times New Roman,serif" font-size="14.00">N3</text>
</g>
<!-- N3&#45;&gt;N4 -->
<g id="edge3" class="edge"><title>N3&#45;&gt;N4</title>
<path fill="none" stroke="black" d="M31,-616.799C31,-605.163 31,-589.548 31,-576.237"/>
<polygon fill="black" stroke="black" points="34.5001,-576.175 31,-566.175 27.5001,-576.175 34.5001,-576.175"/>
<text text-anchor="middle" x="66" y="-587.8" font-family="Times New Roman,serif" font-size="14.00">i0 = (i0 &#45; i1);</text>
</g>
<!-- N5 -->
<g id="node6" class="node"><title>N5</title>
<ellipse fill="none" stroke="black" cx="31" cy="-461" rx="27" ry="18"/>
<text text-anchor="middle" x="31" y="-457.3" font-family="Times New Roman,serif" font-size="14.00">N4</text>
</g>
<!-- N4&#45;&gt;N5 -->
<g id="edge4" class="edge"><title>N4&#45;&gt;N5</title>
<path fill="none" stroke="black" d="M31,-529.799C31,-518.163 31,-502.548 31,-489.237"/>
<polygon fill="black" stroke="black" points="34.5001,-489.175 31,-479.175 27.5001,-489.175 34.5001,-489.175"/>
<text text-anchor="middle" x="66" y="-500.8" font-family="Times New Roman,serif" font-size="14.00">i0 = (i0 &#45; i1);</text>
</g>
<!-- N6 -->
<g id="node7" class="node"><title>N6</title>
<ellipse fill="none" stroke="black" cx="31" cy="-374" rx="27" ry="18"/>
<text text-anchor="middle" x="31" y="-370.3" font-family="Times New Roman,serif" font-size="14.00">N5</text>
</g>
<!-- N5&#45;&gt;N6 -->
<g id="edge5" class="edge"><title>N5&#45;&gt;N6</title>
<path fill="none" stroke="black" d="M31,-442.799C31,-431.163 31,-415.548 31,-402.237"/>
<polygon fill="black" stroke="black" points="34.5001,-402.175 31,-392.175 27.5001,-402.175 34.5001,-402.175"/>
<text text-anchor="middle" x="66" y="-413.8" font-family="Times New Roman,serif" font-size="14.00">i0 = (i0 &#45; i1);</text>
</g>
<!-- N7 -->
<g id="node8" class="node"><title>N7</title>
<ellipse fill="none" stroke="black" cx="31" cy="-287" rx="27" ry="18"/>
<text text-anchor="middle" x="31" y="-283.3" font-family="Times New Roman,serif" font-size="14.00">N6</text>
</g>
<!-- N6&#45;&gt;N7 -->
<g id="edge6" class="edge"><title>N6&#45;&gt;N7</title>
<path fill="none" stroke="black" d="M31,-355.799C31,-344.163 31,-328.548 31,-315.237"/>
<polygon fill="black" stroke="black" points="34.5001,-315.175 31,-305.175 27.5001,-315.175 34.5001,-315.175"/>
<text text-anchor="middle" x="66" y="-326.8" font-family="Times New Roman,serif" font-size="14.00">i0 = (i0 &#45; i1);</text>
</g>
<!-- N8 -->
<g id="node9" class="node"><title>N8</title>
<ellipse fill="none" stroke="black" cx="31" cy="-200" rx="27" ry="18"/>
<text text-anchor="middle" x="31" y="-196.3" font-family="Times New Roman,serif" font-size="14.00">N7</text>
</g>
<!-- N7&#45;&gt;N8 -->
<g id="edge7" class="edge"><title>N7&#45;&gt;N8</title>
<path fill="none" stroke="black" d="M31,-268.799C31,-257.163 31,-241.548 31,-228.237"/>
<polygon fill="black" stroke="black" points="34.5001,-228.175 31,-218.175 27.5001,-228.175 34.5001,-228.175"/>
<text text-anchor="middle" x="66" y="-239.8" font-family="Times New Roman,serif" font-size="14.00">i0 = (i0 &#45; i1);</text>
</g>
<!-- N9 -->
<g id="node10" class="node"><title>N9</title>
<ellipse fill="none" stroke="black" cx="31" cy="-113" rx="27" ry="18"/>
<text text-anchor="middle" x="31" y="-109.3" font-family="Times New Roman,serif" font-size="14.00">N8</text>
</g>
<!-- N8&#45;&gt;N9 -->
<g id="edge8" class="edge"><title>N8&#45;&gt;N9</title>
<path fill="none" stroke="black" d="M31,-181.799C31,-170.163 31,-154.548 31,-141.237"/>
<polygon fill="black" stroke="black" points="34.5001,-141.175 31,-131.175 27.5001,-141.175 34.5001,-141.175"/>
<text text-anchor="middle" x="66" y="-152.8" font-family="Times New Roman,serif" font-size="14.00">i1 = (i1 &#45; i0);</text>
</g>
<!-- N9&#45;&gt;N1 -->
<g id="edge9" class="edge"><title>N9&#45;&gt;N1</title>
<path fill="none" stroke="black" d="M31,-94.8399C31,-83.4407 31,-68.1336 31,-54.5781"/>
<polygon fill="black" stroke="black" points="34.5001,-54.1905 31,-44.1905 27.5001,-54.1906 34.5001,-54.1905"/>
<text text-anchor="middle" x="49.5" y="-65.8" font-family="Times New Roman,serif" font-size="14.00">return;</text>
</g>
</g>
</svg>
