<?xml version="1.0" encoding="UTF-8" standalone="no"?>
<!DOCTYPE svg PUBLIC "-//W3C//DTD SVG 1.1//EN"
 "http://www.w3.org/Graphics/SVG/1.1/DTD/svg11.dtd">
<!-- Generated by graphviz version 2.38.0 (20140413.2041)
 -->
<!-- Title: store Pages: 1 -->
<svg width="458pt" height="206pt"
 viewBox="0.00 0.00 458.00 206.00" xmlns="http://www.w3.org/2000/svg" xmlns:xlink="http://www.w3.org/1999/xlink">
<g id="graph0" class="graph" transform="scale(1 1) rotate(0) translate(4 202)">
<title>store</title>
<polygon fill="white" stroke="none" points="-4,4 -4,-202 454,-202 454,4 -4,4"/>
<!-- null -->
<g id="node1" class="node"><title>null</title>
<text text-anchor="middle" x="197" y="-14.3" font-family="Times New Roman,serif" font-size="14.00">null</text>
</g>
<!-- N0 -->
<g id="node2" class="node"><title>N0</title>
<polygon fill="none" stroke="black" points="62,-125 0,-125 0,-87 62,-87 62,-125"/>
<text text-anchor="middle" x="31" y="-109.8" font-family="Times New Roman,serif" font-size="14.00">SLL#40</text>
<text text-anchor="middle" x="31" y="-94.8" font-family="Times New Roman,serif" font-size="14.00"> &#160;d=0</text>
</g>
<!-- N0&#45;&gt;null -->
<g id="edge6" class="edge"><title>N0&#45;&gt;null</title>
<path fill="none" stroke="black" d="M34.124,-86.9803C36.96,-75.9312 42.2571,-62.3493 52,-54 81.9453,-28.3382 127.574,-20.8217 159.631,-18.9434"/>
<polygon fill="black" stroke="black" points="160.097,-22.4268 169.939,-18.5044 159.799,-15.4331 160.097,-22.4268"/>
<text text-anchor="middle" x="54.5" y="-57.8" font-family="Times New Roman,serif" font-size="14.00">r</text>
</g>
<!-- N0&#45;&gt;null -->
<g id="edge7" class="edge"><title>N0&#45;&gt;null</title>
<path fill="none" stroke="black" d="M55.5017,-86.8489C70.243,-76.4241 89.6516,-63.5487 108,-54 124.588,-45.3676 143.806,-37.5566 160.13,-31.5149"/>
<polygon fill="black" stroke="black" points="161.658,-34.6841 169.87,-27.9902 159.276,-28.1018 161.658,-34.6841"/>
<text text-anchor="middle" x="110" y="-57.8" font-family="Times New Roman,serif" font-size="14.00">l</text>
</g>
<!-- N1 -->
<g id="node3" class="node"><title>N1</title>
<polygon fill="none" stroke="black" points="142,-125 80,-125 80,-87 142,-87 142,-125"/>
<text text-anchor="middle" x="111" y="-109.8" font-family="Times New Roman,serif" font-size="14.00">SLL#41</text>
<text text-anchor="middle" x="111" y="-94.8" font-family="Times New Roman,serif" font-size="14.00"> &#160;d=2</text>
</g>
<!-- N1&#45;&gt;null -->
<g id="edge8" class="edge"><title>N1&#45;&gt;null</title>
<path fill="none" stroke="black" d="M111.875,-86.7738C113.235,-76.1945 116.47,-63.1865 124,-54 133.321,-42.6292 147.214,-34.7071 160.385,-29.3138"/>
<polygon fill="black" stroke="black" points="161.622,-32.5883 169.773,-25.8205 159.181,-26.0277 161.622,-32.5883"/>
<text text-anchor="middle" x="126.5" y="-57.8" font-family="Times New Roman,serif" font-size="14.00">r</text>
</g>
<!-- N1&#45;&gt;null -->
<g id="edge9" class="edge"><title>N1&#45;&gt;null</title>
<path fill="none" stroke="black" d="M129.238,-86.7616C141.885,-74.1147 158.867,-57.1328 172.667,-43.3334"/>
<polygon fill="black" stroke="black" points="175.362,-45.5882 179.958,-36.0422 170.412,-40.6384 175.362,-45.5882"/>
<text text-anchor="middle" x="164" y="-57.8" font-family="Times New Roman,serif" font-size="14.00">l</text>
</g>
<!-- N2 -->
<g id="node4" class="node"><title>N2</title>
<polygon fill="none" stroke="black" points="222,-125 160,-125 160,-87 222,-87 222,-125"/>
<text text-anchor="middle" x="191" y="-109.8" font-family="Times New Roman,serif" font-size="14.00">SLL#42</text>
<text text-anchor="middle" x="191" y="-94.8" font-family="Times New Roman,serif" font-size="14.00"> &#160;d=3</text>
</g>
<!-- N2&#45;&gt;null -->
<g id="edge10" class="edge"><title>N2&#45;&gt;null</title>
<path fill="none" stroke="black" d="M188.278,-86.5322C187.26,-76.8211 186.642,-64.7352 188,-54 188.324,-51.4402 188.776,-48.7996 189.307,-46.1702"/>
<polygon fill="black" stroke="black" points="192.75,-46.8159 191.638,-36.2796 185.937,-45.2095 192.75,-46.8159"/>
<text text-anchor="middle" x="190.5" y="-57.8" font-family="Times New Roman,serif" font-size="14.00">r</text>
</g>
<!-- N2&#45;&gt;null -->
<g id="edge11" class="edge"><title>N2&#45;&gt;null</title>
<path fill="none" stroke="black" d="M192.272,-86.7616C193.098,-74.9344 194.187,-59.3159 195.112,-46.0547"/>
<polygon fill="black" stroke="black" points="198.606,-46.2616 195.811,-36.0422 191.623,-45.7743 198.606,-46.2616"/>
<text text-anchor="middle" x="197" y="-57.8" font-family="Times New Roman,serif" font-size="14.00">l</text>
</g>
<!-- N3 -->
<g id="node5" class="node"><title>N3</title>
<polygon fill="none" stroke="black" points="302,-125 240,-125 240,-87 302,-87 302,-125"/>
<text text-anchor="middle" x="271" y="-109.8" font-family="Times New Roman,serif" font-size="14.00">SLL#43</text>
<text text-anchor="middle" x="271" y="-94.8" font-family="Times New Roman,serif" font-size="14.00"> &#160;d=4</text>
</g>
<!-- N3&#45;&gt;null -->
<g id="edge12" class="edge"><title>N3&#45;&gt;null</title>
<path fill="none" stroke="black" d="M255.307,-86.7616C244.525,-74.2318 230.082,-57.4469 218.269,-43.7175"/>
<polygon fill="black" stroke="black" points="220.84,-41.3395 211.664,-36.0422 215.534,-45.9052 220.84,-41.3395"/>
<text text-anchor="middle" x="241.5" y="-57.8" font-family="Times New Roman,serif" font-size="14.00">r</text>
</g>
<!-- N3&#45;&gt;null -->
<g id="edge13" class="edge"><title>N3&#45;&gt;null</title>
<path fill="none" stroke="black" d="M265.482,-86.6526C261.726,-76.2869 255.976,-63.5369 248,-54 243.556,-48.6868 238.114,-43.8292 232.459,-39.5348"/>
<polygon fill="black" stroke="black" points="234.305,-36.5535 224.113,-33.6586 230.275,-42.2772 234.305,-36.5535"/>
<text text-anchor="middle" x="259" y="-57.8" font-family="Times New Roman,serif" font-size="14.00">l</text>
</g>
<!-- N4 -->
<g id="node6" class="node"><title>N4</title>
<polygon fill="none" stroke="black" points="382,-125 320,-125 320,-87 382,-87 382,-125"/>
<text text-anchor="middle" x="351" y="-109.8" font-family="Times New Roman,serif" font-size="14.00">SLL#44</text>
<text text-anchor="middle" x="351" y="-94.8" font-family="Times New Roman,serif" font-size="14.00"> &#160;d=5</text>
</g>
<!-- N4&#45;&gt;null -->
<g id="edge14" class="edge"><title>N4&#45;&gt;null</title>
<path fill="none" stroke="black" d="M321.404,-86.855C304.935,-76.9091 283.986,-64.5036 265,-54 254.771,-48.3409 243.534,-42.4344 233.193,-37.12"/>
<polygon fill="black" stroke="black" points="234.501,-33.858 224.002,-32.43 231.319,-40.0931 234.501,-33.858"/>
<text text-anchor="middle" x="293.5" y="-57.8" font-family="Times New Roman,serif" font-size="14.00">r</text>
</g>
<!-- N4&#45;&gt;null -->
<g id="edge15" class="edge"><title>N4&#45;&gt;null</title>
<path fill="none" stroke="black" d="M336.573,-86.8399C327.156,-76.0169 314.035,-62.7304 300,-54 279.833,-41.4552 254.625,-32.7894 234.195,-27.2189"/>
<polygon fill="black" stroke="black" points="234.854,-23.7743 224.296,-24.6567 233.1,-30.5509 234.854,-23.7743"/>
<text text-anchor="middle" x="320" y="-57.8" font-family="Times New Roman,serif" font-size="14.00">l</text>
</g>
<!-- r1 -->
<g id="node7" class="node"><title>r1</title>
<text text-anchor="middle" x="111" y="-176.3" font-family="Times New Roman,serif" font-size="14.00">r1</text>
</g>
<!-- r1&#45;&gt;N1 -->
<g id="edge1" class="edge"><title>r1&#45;&gt;N1</title>
<path fill="none" stroke="black" d="M111,-161.937C111,-153.987 111,-144.313 111,-135.313"/>
<polygon fill="black" stroke="black" points="114.5,-135.199 111,-125.199 107.5,-135.199 114.5,-135.199"/>
</g>
<!-- r2 -->
<g id="node8" class="node"><title>r2</title>
<text text-anchor="middle" x="191" y="-176.3" font-family="Times New Roman,serif" font-size="14.00">r2</text>
</g>
<!-- r2&#45;&gt;N2 -->
<g id="edge2" class="edge"><title>r2&#45;&gt;N2</title>
<path fill="none" stroke="black" d="M191,-161.937C191,-153.987 191,-144.313 191,-135.313"/>
<polygon fill="black" stroke="black" points="194.5,-135.199 191,-125.199 187.5,-135.199 194.5,-135.199"/>
</g>
<!-- r3 -->
<g id="node9" class="node"><title>r3</title>
<text text-anchor="middle" x="271" y="-176.3" font-family="Times New Roman,serif" font-size="14.00">r3</text>
</g>
<!-- r3&#45;&gt;N3 -->
<g id="edge3" class="edge"><title>r3&#45;&gt;N3</title>
<path fill="none" stroke="black" d="M271,-161.937C271,-153.987 271,-144.313 271,-135.313"/>
<polygon fill="black" stroke="black" points="274.5,-135.199 271,-125.199 267.5,-135.199 274.5,-135.199"/>
</g>
<!-- r4 -->
<g id="node10" class="node"><title>r4</title>
<text text-anchor="middle" x="351" y="-176.3" font-family="Times New Roman,serif" font-size="14.00">r4</text>
</g>
<!-- r4&#45;&gt;N4 -->
<g id="edge4" class="edge"><title>r4&#45;&gt;N4</title>
<path fill="none" stroke="black" d="M351,-161.937C351,-153.987 351,-144.313 351,-135.313"/>
<polygon fill="black" stroke="black" points="354.5,-135.199 351,-125.199 347.5,-135.199 354.5,-135.199"/>
</g>
<!-- r0 -->
<g id="node11" class="node"><title>r0</title>
<text text-anchor="middle" x="31" y="-176.3" font-family="Times New Roman,serif" font-size="14.00">r0</text>
</g>
<!-- r0&#45;&gt;N0 -->
<g id="edge5" class="edge"><title>r0&#45;&gt;N0</title>
<path fill="none" stroke="black" d="M31,-161.937C31,-153.987 31,-144.313 31,-135.313"/>
<polygon fill="black" stroke="black" points="34.5001,-135.199 31,-125.199 27.5001,-135.199 34.5001,-135.199"/>
</g>
<!-- i4 -->
<g id="node12" class="node"><title>i4</title>
<text text-anchor="middle" x="423" y="-176.3" font-family="Times New Roman,serif" font-size="14.00">i4==3</text>
</g>
</g>
</svg>
