<?xml version="1.0" encoding="UTF-8" standalone="no"?>
<!DOCTYPE svg PUBLIC "-//W3C//DTD SVG 1.1//EN"
 "http://www.w3.org/Graphics/SVG/1.1/DTD/svg11.dtd">
<!-- Generated by graphviz version 2.38.0 (20140413.2041)
 -->
<!-- Title: store Pages: 1 -->
<svg width="431pt" height="206pt"
 viewBox="0.00 0.00 431.00 206.00" xmlns="http://www.w3.org/2000/svg" xmlns:xlink="http://www.w3.org/1999/xlink">
<g id="graph0" class="graph" transform="scale(1 1) rotate(0) translate(4 202)">
<title>store</title>
<polygon fill="white" stroke="none" points="-4,4 -4,-202 427,-202 427,4 -4,4"/>
<!-- null -->
<g id="node1" class="node"><title>null</title>
<text text-anchor="middle" x="178" y="-14.3" font-family="Times New Roman,serif" font-size="14.00">null</text>
</g>
<!-- N0 -->
<g id="node2" class="node"><title>N0</title>
<polygon fill="none" stroke="black" points="56,-125 3.55271e-015,-125 3.55271e-015,-87 56,-87 56,-125"/>
<text text-anchor="middle" x="28" y="-109.8" font-family="Times New Roman,serif" font-size="14.00">SLL#5</text>
<text text-anchor="middle" x="28" y="-94.8" font-family="Times New Roman,serif" font-size="14.00"> &#160;d=0</text>
</g>
<!-- N0&#45;&gt;null -->
<g id="edge6" class="edge"><title>N0&#45;&gt;null</title>
<path fill="none" stroke="black" d="M28.9879,-86.6593C30.5328,-75.7683 34.2473,-62.4738 43,-54 68.9868,-28.8413 110.615,-21.1267 140.781,-19.0645"/>
<polygon fill="black" stroke="black" points="141.118,-22.552 150.929,-18.5515 140.765,-15.5609 141.118,-22.552"/>
<text text-anchor="middle" x="45.5" y="-57.8" font-family="Times New Roman,serif" font-size="14.00">r</text>
</g>
<!-- N0&#45;&gt;null -->
<g id="edge7" class="edge"><title>N0&#45;&gt;null</title>
<path fill="none" stroke="black" d="M48.3974,-86.9705C60.9577,-76.4609 77.7231,-63.4571 94,-54 108.792,-45.406 126.098,-37.8203 141.146,-31.9275"/>
<polygon fill="black" stroke="black" points="142.559,-35.1347 150.66,-28.306 140.069,-28.5927 142.559,-35.1347"/>
<text text-anchor="middle" x="96" y="-57.8" font-family="Times New Roman,serif" font-size="14.00">l</text>
</g>
<!-- N1 -->
<g id="node3" class="node"><title>N1</title>
<polygon fill="none" stroke="black" points="130,-125 74,-125 74,-87 130,-87 130,-125"/>
<text text-anchor="middle" x="102" y="-109.8" font-family="Times New Roman,serif" font-size="14.00">SLL#6</text>
<text text-anchor="middle" x="102" y="-94.8" font-family="Times New Roman,serif" font-size="14.00"> &#160;d=2</text>
</g>
<!-- N1&#45;&gt;null -->
<g id="edge8" class="edge"><title>N1&#45;&gt;null</title>
<path fill="none" stroke="black" d="M100.09,-86.9911C99.8972,-76.4887 101.34,-63.4854 108,-54 116.026,-42.5688 128.893,-34.6746 141.419,-29.3199"/>
<polygon fill="black" stroke="black" points="142.763,-32.5531 150.846,-25.7036 140.256,-26.0175 142.763,-32.5531"/>
<text text-anchor="middle" x="110.5" y="-57.8" font-family="Times New Roman,serif" font-size="14.00">r</text>
</g>
<!-- N1&#45;&gt;null -->
<g id="edge9" class="edge"><title>N1&#45;&gt;null</title>
<path fill="none" stroke="black" d="M118.118,-86.7616C129.191,-74.2318 144.024,-57.4469 156.157,-43.7175"/>
<polygon fill="black" stroke="black" points="158.94,-45.8532 162.939,-36.0422 153.695,-41.2178 158.94,-45.8532"/>
<text text-anchor="middle" x="149" y="-57.8" font-family="Times New Roman,serif" font-size="14.00">l</text>
</g>
<!-- N2 -->
<g id="node4" class="node"><title>N2</title>
<polygon fill="none" stroke="black" points="204,-125 148,-125 148,-87 204,-87 204,-125"/>
<text text-anchor="middle" x="176" y="-109.8" font-family="Times New Roman,serif" font-size="14.00">SLL#7</text>
<text text-anchor="middle" x="176" y="-94.8" font-family="Times New Roman,serif" font-size="14.00"> &#160;d=3</text>
</g>
<!-- N2&#45;&gt;null -->
<g id="edge10" class="edge"><title>N2&#45;&gt;null</title>
<path fill="none" stroke="black" d="M171.129,-86.5996C169.157,-76.9069 167.631,-64.8171 169,-54 169.324,-51.4402 169.776,-48.7996 170.307,-46.1702"/>
<polygon fill="black" stroke="black" points="173.75,-46.8159 172.638,-36.2796 166.937,-45.2095 173.75,-46.8159"/>
<text text-anchor="middle" x="171.5" y="-57.8" font-family="Times New Roman,serif" font-size="14.00">r</text>
</g>
<!-- N2&#45;&gt;null -->
<g id="edge11" class="edge"><title>N2&#45;&gt;null</title>
<path fill="none" stroke="black" d="M176.424,-86.7616C176.699,-74.9344 177.062,-59.3159 177.371,-46.0547"/>
<polygon fill="black" stroke="black" points="180.87,-46.1209 177.604,-36.0422 173.872,-45.9581 180.87,-46.1209"/>
<text text-anchor="middle" x="180" y="-57.8" font-family="Times New Roman,serif" font-size="14.00">l</text>
</g>
<!-- N3 -->
<g id="node5" class="node"><title>N3</title>
<polygon fill="none" stroke="black" points="278,-125 222,-125 222,-87 278,-87 278,-125"/>
<text text-anchor="middle" x="250" y="-109.8" font-family="Times New Roman,serif" font-size="14.00">SLL#8</text>
<text text-anchor="middle" x="250" y="-94.8" font-family="Times New Roman,serif" font-size="14.00"> &#160;d=4</text>
</g>
<!-- N3&#45;&gt;null -->
<g id="edge12" class="edge"><title>N3&#45;&gt;null</title>
<path fill="none" stroke="black" d="M234.731,-86.7616C224.241,-74.2318 210.188,-57.4469 198.694,-43.7175"/>
<polygon fill="black" stroke="black" points="201.371,-41.463 192.268,-36.0422 196.004,-45.9566 201.371,-41.463"/>
<text text-anchor="middle" x="221.5" y="-57.8" font-family="Times New Roman,serif" font-size="14.00">r</text>
</g>
<!-- N3&#45;&gt;null -->
<g id="edge13" class="edge"><title>N3&#45;&gt;null</title>
<path fill="none" stroke="black" d="M244.415,-86.7085C240.636,-76.3614 234.886,-63.6114 227,-54 222.996,-49.1205 218.156,-44.5958 213.096,-40.5301"/>
<polygon fill="black" stroke="black" points="215.162,-37.7045 205.052,-34.5336 210.978,-43.3166 215.162,-37.7045"/>
<text text-anchor="middle" x="238" y="-57.8" font-family="Times New Roman,serif" font-size="14.00">l</text>
</g>
<!-- N4 -->
<g id="node6" class="node"><title>N4</title>
<polygon fill="none" stroke="black" points="352,-125 296,-125 296,-87 352,-87 352,-125"/>
<text text-anchor="middle" x="324" y="-109.8" font-family="Times New Roman,serif" font-size="14.00">SLL#9</text>
<text text-anchor="middle" x="324" y="-94.8" font-family="Times New Roman,serif" font-size="14.00"> &#160;d=5</text>
</g>
<!-- N4&#45;&gt;null -->
<g id="edge14" class="edge"><title>N4&#45;&gt;null</title>
<path fill="none" stroke="black" d="M296.935,-86.9852C281.592,-76.966 261.932,-64.448 244,-54 234.489,-48.4582 224.029,-42.7438 214.296,-37.5805"/>
<polygon fill="black" stroke="black" points="215.722,-34.3759 205.242,-32.8226 212.466,-40.5725 215.722,-34.3759"/>
<text text-anchor="middle" x="270.5" y="-57.8" font-family="Times New Roman,serif" font-size="14.00">r</text>
</g>
<!-- N4&#45;&gt;null -->
<g id="edge15" class="edge"><title>N4&#45;&gt;null</title>
<path fill="none" stroke="black" d="M310.94,-86.8537C302.349,-76.0359 290.268,-62.75 277,-54 258.209,-41.6076 234.513,-33.0271 215.016,-27.4644"/>
<polygon fill="black" stroke="black" points="215.817,-24.0556 205.251,-24.8264 213.992,-30.8134 215.817,-24.0556"/>
<text text-anchor="middle" x="296" y="-57.8" font-family="Times New Roman,serif" font-size="14.00">l</text>
</g>
<!-- r1 -->
<g id="node7" class="node"><title>r1</title>
<text text-anchor="middle" x="102" y="-176.3" font-family="Times New Roman,serif" font-size="14.00">r1</text>
</g>
<!-- r1&#45;&gt;N1 -->
<g id="edge1" class="edge"><title>r1&#45;&gt;N1</title>
<path fill="none" stroke="black" d="M102,-161.937C102,-153.987 102,-144.313 102,-135.313"/>
<polygon fill="black" stroke="black" points="105.5,-135.199 102,-125.199 98.5001,-135.199 105.5,-135.199"/>
</g>
<!-- r2 -->
<g id="node8" class="node"><title>r2</title>
<text text-anchor="middle" x="176" y="-176.3" font-family="Times New Roman,serif" font-size="14.00">r2</text>
</g>
<!-- r2&#45;&gt;N2 -->
<g id="edge2" class="edge"><title>r2&#45;&gt;N2</title>
<path fill="none" stroke="black" d="M176,-161.937C176,-153.987 176,-144.313 176,-135.313"/>
<polygon fill="black" stroke="black" points="179.5,-135.199 176,-125.199 172.5,-135.199 179.5,-135.199"/>
</g>
<!-- r3 -->
<g id="node9" class="node"><title>r3</title>
<text text-anchor="middle" x="250" y="-176.3" font-family="Times New Roman,serif" font-size="14.00">r3</text>
</g>
<!-- r3&#45;&gt;N3 -->
<g id="edge3" class="edge"><title>r3&#45;&gt;N3</title>
<path fill="none" stroke="black" d="M250,-161.937C250,-153.987 250,-144.313 250,-135.313"/>
<polygon fill="black" stroke="black" points="253.5,-135.199 250,-125.199 246.5,-135.199 253.5,-135.199"/>
</g>
<!-- r4 -->
<g id="node10" class="node"><title>r4</title>
<text text-anchor="middle" x="324" y="-176.3" font-family="Times New Roman,serif" font-size="14.00">r4</text>
</g>
<!-- r4&#45;&gt;N4 -->
<g id="edge4" class="edge"><title>r4&#45;&gt;N4</title>
<path fill="none" stroke="black" d="M324,-161.937C324,-153.987 324,-144.313 324,-135.313"/>
<polygon fill="black" stroke="black" points="327.5,-135.199 324,-125.199 320.5,-135.199 327.5,-135.199"/>
</g>
<!-- r0 -->
<g id="node11" class="node"><title>r0</title>
<text text-anchor="middle" x="28" y="-176.3" font-family="Times New Roman,serif" font-size="14.00">r0</text>
</g>
<!-- r0&#45;&gt;N0 -->
<g id="edge5" class="edge"><title>r0&#45;&gt;N0</title>
<path fill="none" stroke="black" d="M28,-161.937C28,-153.987 28,-144.313 28,-135.313"/>
<polygon fill="black" stroke="black" points="31.5001,-135.199 28,-125.199 24.5001,-135.199 31.5001,-135.199"/>
</g>
<!-- i4 -->
<g id="node12" class="node"><title>i4</title>
<text text-anchor="middle" x="396" y="-176.3" font-family="Times New Roman,serif" font-size="14.00">i4==3</text>
</g>
</g>
</svg>
