<?xml version="1.0" encoding="UTF-8" standalone="no"?>
<!DOCTYPE svg PUBLIC "-//W3C//DTD SVG 1.1//EN"
 "http://www.w3.org/Graphics/SVG/1.1/DTD/svg11.dtd">
<!-- Generated by graphviz version 2.38.0 (20140413.2041)
 -->
<!-- Title: anonymous_graph Pages: 1 -->
<svg width="133pt" height="3271pt"
 viewBox="0.00 0.00 133.00 3271.00" xmlns="http://www.w3.org/2000/svg" xmlns:xlink="http://www.w3.org/1999/xlink">
<g id="graph0" class="graph" transform="scale(1 1) rotate(0) translate(4 3267)">
<title>anonymous_graph</title>
<polygon fill="white" stroke="none" points="-4,4 -4,-3267 129,-3267 129,4 -4,4"/>
<!-- N0 -->
<g id="node1" class="node"><title>N0</title>
<ellipse fill="none" stroke="black" cx="31" cy="-3245" rx="29.4969" ry="18"/>
<text text-anchor="middle" x="31" y="-3241.3" font-family="Times New Roman,serif" font-size="14.00">initial</text>
</g>
<!-- N2 -->
<g id="node3" class="node"><title>N2</title>
<ellipse fill="none" stroke="black" cx="31" cy="-3158" rx="27" ry="18"/>
<text text-anchor="middle" x="31" y="-3154.3" font-family="Times New Roman,serif" font-size="14.00">N1</text>
</g>
<!-- N0&#45;&gt;N2 -->
<g id="edge1" class="edge"><title>N0&#45;&gt;N2</title>
<path fill="none" stroke="black" d="M31,-3226.8C31,-3215.16 31,-3199.55 31,-3186.24"/>
<polygon fill="black" stroke="black" points="34.5001,-3186.18 31,-3176.18 27.5001,-3186.18 34.5001,-3186.18"/>
<text text-anchor="middle" x="52.5" y="-3197.8" font-family="Times New Roman,serif" font-size="14.00">i5 = 33;</text>
</g>
<!-- N1 -->
<g id="node2" class="node"><title>N1</title>
<ellipse fill="none" stroke="black" cx="31" cy="-22" rx="27" ry="18"/>
<ellipse fill="none" stroke="black" cx="31" cy="-22" rx="31" ry="22"/>
<text text-anchor="middle" x="31" y="-18.3" font-family="Times New Roman,serif" font-size="14.00">final</text>
</g>
<!-- N3 -->
<g id="node4" class="node"><title>N3</title>
<ellipse fill="none" stroke="black" cx="31" cy="-3071" rx="27" ry="18"/>
<text text-anchor="middle" x="31" y="-3067.3" font-family="Times New Roman,serif" font-size="14.00">N2</text>
</g>
<!-- N2&#45;&gt;N3 -->
<g id="edge2" class="edge"><title>N2&#45;&gt;N3</title>
<path fill="none" stroke="black" d="M31,-3139.8C31,-3128.16 31,-3112.55 31,-3099.24"/>
<polygon fill="black" stroke="black" points="34.5001,-3099.18 31,-3089.18 27.5001,-3099.18 34.5001,-3099.18"/>
<text text-anchor="middle" x="71.5" y="-3110.8" font-family="Times New Roman,serif" font-size="14.00">loc_SLL = r1;</text>
</g>
<!-- N4 -->
<g id="node5" class="node"><title>N4</title>
<ellipse fill="none" stroke="black" cx="31" cy="-2984" rx="27" ry="18"/>
<text text-anchor="middle" x="31" y="-2980.3" font-family="Times New Roman,serif" font-size="14.00">N3</text>
</g>
<!-- N3&#45;&gt;N4 -->
<g id="edge3" class="edge"><title>N3&#45;&gt;N4</title>
<path fill="none" stroke="black" d="M31,-3052.8C31,-3041.16 31,-3025.55 31,-3012.24"/>
<polygon fill="black" stroke="black" points="34.5001,-3012.18 31,-3002.18 27.5001,-3012.18 34.5001,-3012.18"/>
<text text-anchor="middle" x="78" y="-3023.8" font-family="Times New Roman,serif" font-size="14.00">loc_SLL.d = 13;</text>
</g>
<!-- N5 -->
<g id="node6" class="node"><title>N5</title>
<ellipse fill="none" stroke="black" cx="31" cy="-2897" rx="27" ry="18"/>
<text text-anchor="middle" x="31" y="-2893.3" font-family="Times New Roman,serif" font-size="14.00">N4</text>
</g>
<!-- N4&#45;&gt;N5 -->
<g id="edge4" class="edge"><title>N4&#45;&gt;N5</title>
<path fill="none" stroke="black" d="M31,-2965.8C31,-2954.16 31,-2938.55 31,-2925.24"/>
<polygon fill="black" stroke="black" points="34.5001,-2925.18 31,-2915.18 27.5001,-2925.18 34.5001,-2925.18"/>
<text text-anchor="middle" x="71.5" y="-2936.8" font-family="Times New Roman,serif" font-size="14.00">loc_SLL = r2;</text>
</g>
<!-- N6 -->
<g id="node7" class="node"><title>N6</title>
<ellipse fill="none" stroke="black" cx="31" cy="-2810" rx="27" ry="18"/>
<text text-anchor="middle" x="31" y="-2806.3" font-family="Times New Roman,serif" font-size="14.00">N5</text>
</g>
<!-- N5&#45;&gt;N6 -->
<g id="edge5" class="edge"><title>N5&#45;&gt;N6</title>
<path fill="none" stroke="black" d="M31,-2878.8C31,-2867.16 31,-2851.55 31,-2838.24"/>
<polygon fill="black" stroke="black" points="34.5001,-2838.18 31,-2828.18 27.5001,-2838.18 34.5001,-2838.18"/>
<text text-anchor="middle" x="78" y="-2849.8" font-family="Times New Roman,serif" font-size="14.00">loc_SLL.d = 12;</text>
</g>
<!-- N7 -->
<g id="node8" class="node"><title>N7</title>
<ellipse fill="none" stroke="black" cx="31" cy="-2723" rx="27" ry="18"/>
<text text-anchor="middle" x="31" y="-2719.3" font-family="Times New Roman,serif" font-size="14.00">N6</text>
</g>
<!-- N6&#45;&gt;N7 -->
<g id="edge6" class="edge"><title>N6&#45;&gt;N7</title>
<path fill="none" stroke="black" d="M31,-2791.8C31,-2780.16 31,-2764.55 31,-2751.24"/>
<polygon fill="black" stroke="black" points="34.5001,-2751.18 31,-2741.18 27.5001,-2751.18 34.5001,-2751.18"/>
<text text-anchor="middle" x="71.5" y="-2762.8" font-family="Times New Roman,serif" font-size="14.00">loc_SLL = r3;</text>
</g>
<!-- N8 -->
<g id="node9" class="node"><title>N8</title>
<ellipse fill="none" stroke="black" cx="31" cy="-2636" rx="27" ry="18"/>
<text text-anchor="middle" x="31" y="-2632.3" font-family="Times New Roman,serif" font-size="14.00">N7</text>
</g>
<!-- N7&#45;&gt;N8 -->
<g id="edge7" class="edge"><title>N7&#45;&gt;N8</title>
<path fill="none" stroke="black" d="M31,-2704.8C31,-2693.16 31,-2677.55 31,-2664.24"/>
<polygon fill="black" stroke="black" points="34.5001,-2664.18 31,-2654.18 27.5001,-2664.18 34.5001,-2664.18"/>
<text text-anchor="middle" x="78" y="-2675.8" font-family="Times New Roman,serif" font-size="14.00">loc_SLL.d = 11;</text>
</g>
<!-- N9 -->
<g id="node10" class="node"><title>N9</title>
<ellipse fill="none" stroke="black" cx="31" cy="-2549" rx="27" ry="18"/>
<text text-anchor="middle" x="31" y="-2545.3" font-family="Times New Roman,serif" font-size="14.00">N8</text>
</g>
<!-- N8&#45;&gt;N9 -->
<g id="edge8" class="edge"><title>N8&#45;&gt;N9</title>
<path fill="none" stroke="black" d="M31,-2617.8C31,-2606.16 31,-2590.55 31,-2577.24"/>
<polygon fill="black" stroke="black" points="34.5001,-2577.18 31,-2567.18 27.5001,-2577.18 34.5001,-2577.18"/>
<text text-anchor="middle" x="71.5" y="-2588.8" font-family="Times New Roman,serif" font-size="14.00">loc_SLL = r4;</text>
</g>
<!-- N10 -->
<g id="node11" class="node"><title>N10</title>
<ellipse fill="none" stroke="black" cx="31" cy="-2462" rx="27" ry="18"/>
<text text-anchor="middle" x="31" y="-2458.3" font-family="Times New Roman,serif" font-size="14.00">N9</text>
</g>
<!-- N9&#45;&gt;N10 -->
<g id="edge9" class="edge"><title>N9&#45;&gt;N10</title>
<path fill="none" stroke="black" d="M31,-2530.8C31,-2519.16 31,-2503.55 31,-2490.24"/>
<polygon fill="black" stroke="black" points="34.5001,-2490.18 31,-2480.18 27.5001,-2490.18 34.5001,-2490.18"/>
<text text-anchor="middle" x="78" y="-2501.8" font-family="Times New Roman,serif" font-size="14.00">loc_SLL.d = 10;</text>
</g>
<!-- N11 -->
<g id="node12" class="node"><title>N11</title>
<ellipse fill="none" stroke="black" cx="31" cy="-2375" rx="27" ry="18"/>
<text text-anchor="middle" x="31" y="-2371.3" font-family="Times New Roman,serif" font-size="14.00">N10</text>
</g>
<!-- N10&#45;&gt;N11 -->
<g id="edge10" class="edge"><title>N10&#45;&gt;N11</title>
<path fill="none" stroke="black" d="M31,-2443.8C31,-2432.16 31,-2416.55 31,-2403.24"/>
<polygon fill="black" stroke="black" points="34.5001,-2403.18 31,-2393.18 27.5001,-2403.18 34.5001,-2403.18"/>
<text text-anchor="middle" x="71.5" y="-2414.8" font-family="Times New Roman,serif" font-size="14.00">loc_SLL = r1;</text>
</g>
<!-- N12 -->
<g id="node13" class="node"><title>N12</title>
<ellipse fill="none" stroke="black" cx="31" cy="-2288" rx="27" ry="18"/>
<text text-anchor="middle" x="31" y="-2284.3" font-family="Times New Roman,serif" font-size="14.00">N11</text>
</g>
<!-- N11&#45;&gt;N12 -->
<g id="edge11" class="edge"><title>N11&#45;&gt;N12</title>
<path fill="none" stroke="black" d="M31,-2356.8C31,-2345.16 31,-2329.55 31,-2316.24"/>
<polygon fill="black" stroke="black" points="34.5001,-2316.18 31,-2306.18 27.5001,-2316.18 34.5001,-2316.18"/>
<text text-anchor="middle" x="75" y="-2327.8" font-family="Times New Roman,serif" font-size="14.00">loc_SLL.l = r2;</text>
</g>
<!-- N13 -->
<g id="node14" class="node"><title>N13</title>
<ellipse fill="none" stroke="black" cx="31" cy="-2201" rx="27" ry="18"/>
<text text-anchor="middle" x="31" y="-2197.3" font-family="Times New Roman,serif" font-size="14.00">N12</text>
</g>
<!-- N12&#45;&gt;N13 -->
<g id="edge12" class="edge"><title>N12&#45;&gt;N13</title>
<path fill="none" stroke="black" d="M31,-2269.8C31,-2258.16 31,-2242.55 31,-2229.24"/>
<polygon fill="black" stroke="black" points="34.5001,-2229.18 31,-2219.18 27.5001,-2229.18 34.5001,-2229.18"/>
<text text-anchor="middle" x="71.5" y="-2240.8" font-family="Times New Roman,serif" font-size="14.00">loc_SLL = r2;</text>
</g>
<!-- N14 -->
<g id="node15" class="node"><title>N14</title>
<ellipse fill="none" stroke="black" cx="31" cy="-2114" rx="27" ry="18"/>
<text text-anchor="middle" x="31" y="-2110.3" font-family="Times New Roman,serif" font-size="14.00">N13</text>
</g>
<!-- N13&#45;&gt;N14 -->
<g id="edge13" class="edge"><title>N13&#45;&gt;N14</title>
<path fill="none" stroke="black" d="M31,-2182.8C31,-2171.16 31,-2155.55 31,-2142.24"/>
<polygon fill="black" stroke="black" points="34.5001,-2142.18 31,-2132.18 27.5001,-2142.18 34.5001,-2142.18"/>
<text text-anchor="middle" x="75" y="-2153.8" font-family="Times New Roman,serif" font-size="14.00">loc_SLL.l = r3;</text>
</g>
<!-- N15 -->
<g id="node16" class="node"><title>N15</title>
<ellipse fill="none" stroke="black" cx="31" cy="-2027" rx="27" ry="18"/>
<text text-anchor="middle" x="31" y="-2023.3" font-family="Times New Roman,serif" font-size="14.00">N14</text>
</g>
<!-- N14&#45;&gt;N15 -->
<g id="edge14" class="edge"><title>N14&#45;&gt;N15</title>
<path fill="none" stroke="black" d="M31,-2095.8C31,-2084.16 31,-2068.55 31,-2055.24"/>
<polygon fill="black" stroke="black" points="34.5001,-2055.18 31,-2045.18 27.5001,-2055.18 34.5001,-2055.18"/>
<text text-anchor="middle" x="71.5" y="-2066.8" font-family="Times New Roman,serif" font-size="14.00">loc_SLL = r3;</text>
</g>
<!-- N16 -->
<g id="node17" class="node"><title>N16</title>
<ellipse fill="none" stroke="black" cx="31" cy="-1940" rx="27" ry="18"/>
<text text-anchor="middle" x="31" y="-1936.3" font-family="Times New Roman,serif" font-size="14.00">N15</text>
</g>
<!-- N15&#45;&gt;N16 -->
<g id="edge15" class="edge"><title>N15&#45;&gt;N16</title>
<path fill="none" stroke="black" d="M31,-2008.8C31,-1997.16 31,-1981.55 31,-1968.24"/>
<polygon fill="black" stroke="black" points="34.5001,-1968.18 31,-1958.18 27.5001,-1968.18 34.5001,-1968.18"/>
<text text-anchor="middle" x="75" y="-1979.8" font-family="Times New Roman,serif" font-size="14.00">loc_SLL.l = r4;</text>
</g>
<!-- N17 -->
<g id="node18" class="node"><title>N17</title>
<ellipse fill="none" stroke="black" cx="31" cy="-1853" rx="27" ry="18"/>
<text text-anchor="middle" x="31" y="-1849.3" font-family="Times New Roman,serif" font-size="14.00">N16</text>
</g>
<!-- N16&#45;&gt;N17 -->
<g id="edge16" class="edge"><title>N16&#45;&gt;N17</title>
<path fill="none" stroke="black" d="M31,-1921.8C31,-1910.16 31,-1894.55 31,-1881.24"/>
<polygon fill="black" stroke="black" points="34.5001,-1881.18 31,-1871.18 27.5001,-1881.18 34.5001,-1881.18"/>
<text text-anchor="middle" x="52.5" y="-1892.8" font-family="Times New Roman,serif" font-size="14.00">r5 = r1;</text>
</g>
<!-- N18 -->
<g id="node19" class="node"><title>N18</title>
<ellipse fill="none" stroke="black" cx="31" cy="-1766" rx="27" ry="18"/>
<text text-anchor="middle" x="31" y="-1762.3" font-family="Times New Roman,serif" font-size="14.00">N17</text>
</g>
<!-- N17&#45;&gt;N18 -->
<g id="edge17" class="edge"><title>N17&#45;&gt;N18</title>
<path fill="none" stroke="black" d="M31,-1834.8C31,-1823.16 31,-1807.55 31,-1794.24"/>
<polygon fill="black" stroke="black" points="34.5001,-1794.18 31,-1784.18 27.5001,-1794.18 34.5001,-1794.18"/>
<text text-anchor="middle" x="66.5" y="-1805.8" font-family="Times New Roman,serif" font-size="14.00">i5 = (i5 + 1);</text>
</g>
<!-- N19 -->
<g id="node20" class="node"><title>N19</title>
<ellipse fill="none" stroke="black" cx="31" cy="-1679" rx="27" ry="18"/>
<text text-anchor="middle" x="31" y="-1675.3" font-family="Times New Roman,serif" font-size="14.00">N18</text>
</g>
<!-- N18&#45;&gt;N19 -->
<g id="edge18" class="edge"><title>N18&#45;&gt;N19</title>
<path fill="none" stroke="black" d="M31,-1747.8C31,-1736.16 31,-1720.55 31,-1707.24"/>
<polygon fill="black" stroke="black" points="34.5001,-1707.18 31,-1697.18 27.5001,-1707.18 34.5001,-1707.18"/>
<text text-anchor="middle" x="57" y="-1718.8" font-family="Times New Roman,serif" font-size="14.00">i0 = r5.d;</text>
</g>
<!-- N20 -->
<g id="node21" class="node"><title>N20</title>
<ellipse fill="none" stroke="black" cx="31" cy="-1592" rx="27" ry="18"/>
<text text-anchor="middle" x="31" y="-1588.3" font-family="Times New Roman,serif" font-size="14.00">N19</text>
</g>
<!-- N19&#45;&gt;N20 -->
<g id="edge19" class="edge"><title>N19&#45;&gt;N20</title>
<path fill="none" stroke="black" d="M31,-1660.8C31,-1649.16 31,-1633.55 31,-1620.24"/>
<polygon fill="black" stroke="black" points="34.5001,-1620.18 31,-1610.18 27.5001,-1620.18 34.5001,-1620.18"/>
<text text-anchor="middle" x="71.5" y="-1631.8" font-family="Times New Roman,serif" font-size="14.00">loc_SLL = r5;</text>
</g>
<!-- N21 -->
<g id="node22" class="node"><title>N21</title>
<ellipse fill="none" stroke="black" cx="31" cy="-1505" rx="27" ry="18"/>
<text text-anchor="middle" x="31" y="-1501.3" font-family="Times New Roman,serif" font-size="14.00">N20</text>
</g>
<!-- N20&#45;&gt;N21 -->
<g id="edge20" class="edge"><title>N20&#45;&gt;N21</title>
<path fill="none" stroke="black" d="M31,-1573.8C31,-1562.16 31,-1546.55 31,-1533.24"/>
<polygon fill="black" stroke="black" points="34.5001,-1533.18 31,-1523.18 27.5001,-1533.18 34.5001,-1533.18"/>
<text text-anchor="middle" x="75" y="-1544.8" font-family="Times New Roman,serif" font-size="14.00">r5 = loc_SLL.l;</text>
</g>
<!-- N22 -->
<g id="node23" class="node"><title>N22</title>
<ellipse fill="none" stroke="black" cx="31" cy="-1418" rx="27" ry="18"/>
<text text-anchor="middle" x="31" y="-1414.3" font-family="Times New Roman,serif" font-size="14.00">N21</text>
</g>
<!-- N21&#45;&gt;N22 -->
<g id="edge21" class="edge"><title>N21&#45;&gt;N22</title>
<path fill="none" stroke="black" d="M31,-1486.8C31,-1475.16 31,-1459.55 31,-1446.24"/>
<polygon fill="black" stroke="black" points="34.5001,-1446.18 31,-1436.18 27.5001,-1446.18 34.5001,-1446.18"/>
<text text-anchor="middle" x="69" y="-1457.8" font-family="Times New Roman,serif" font-size="14.00">i4 = (i4 + &#45;1);</text>
</g>
<!-- N23 -->
<g id="node24" class="node"><title>N23</title>
<ellipse fill="none" stroke="black" cx="31" cy="-1331" rx="27" ry="18"/>
<text text-anchor="middle" x="31" y="-1327.3" font-family="Times New Roman,serif" font-size="14.00">N22</text>
</g>
<!-- N22&#45;&gt;N23 -->
<g id="edge22" class="edge"><title>N22&#45;&gt;N23</title>
<path fill="none" stroke="black" d="M31,-1399.8C31,-1388.16 31,-1372.55 31,-1359.24"/>
<polygon fill="black" stroke="black" points="34.5001,-1359.18 31,-1349.18 27.5001,-1359.18 34.5001,-1359.18"/>
<text text-anchor="middle" x="66.5" y="-1370.8" font-family="Times New Roman,serif" font-size="14.00">i5 = (i5 + 1);</text>
</g>
<!-- N24 -->
<g id="node25" class="node"><title>N24</title>
<ellipse fill="none" stroke="black" cx="31" cy="-1244" rx="27" ry="18"/>
<text text-anchor="middle" x="31" y="-1240.3" font-family="Times New Roman,serif" font-size="14.00">N23</text>
</g>
<!-- N23&#45;&gt;N24 -->
<g id="edge23" class="edge"><title>N23&#45;&gt;N24</title>
<path fill="none" stroke="black" d="M31,-1312.8C31,-1301.16 31,-1285.55 31,-1272.24"/>
<polygon fill="black" stroke="black" points="34.5001,-1272.18 31,-1262.18 27.5001,-1272.18 34.5001,-1272.18"/>
<text text-anchor="middle" x="57" y="-1283.8" font-family="Times New Roman,serif" font-size="14.00">i0 = r5.d;</text>
</g>
<!-- N25 -->
<g id="node26" class="node"><title>N25</title>
<ellipse fill="none" stroke="black" cx="31" cy="-1157" rx="27" ry="18"/>
<text text-anchor="middle" x="31" y="-1153.3" font-family="Times New Roman,serif" font-size="14.00">N24</text>
</g>
<!-- N24&#45;&gt;N25 -->
<g id="edge24" class="edge"><title>N24&#45;&gt;N25</title>
<path fill="none" stroke="black" d="M31,-1225.8C31,-1214.16 31,-1198.55 31,-1185.24"/>
<polygon fill="black" stroke="black" points="34.5001,-1185.18 31,-1175.18 27.5001,-1185.18 34.5001,-1185.18"/>
<text text-anchor="middle" x="71.5" y="-1196.8" font-family="Times New Roman,serif" font-size="14.00">loc_SLL = r5;</text>
</g>
<!-- N26 -->
<g id="node27" class="node"><title>N26</title>
<ellipse fill="none" stroke="black" cx="31" cy="-1070" rx="27" ry="18"/>
<text text-anchor="middle" x="31" y="-1066.3" font-family="Times New Roman,serif" font-size="14.00">N25</text>
</g>
<!-- N25&#45;&gt;N26 -->
<g id="edge25" class="edge"><title>N25&#45;&gt;N26</title>
<path fill="none" stroke="black" d="M31,-1138.8C31,-1127.16 31,-1111.55 31,-1098.24"/>
<polygon fill="black" stroke="black" points="34.5001,-1098.18 31,-1088.18 27.5001,-1098.18 34.5001,-1098.18"/>
<text text-anchor="middle" x="75" y="-1109.8" font-family="Times New Roman,serif" font-size="14.00">r5 = loc_SLL.l;</text>
</g>
<!-- N27 -->
<g id="node28" class="node"><title>N27</title>
<ellipse fill="none" stroke="black" cx="31" cy="-983" rx="27" ry="18"/>
<text text-anchor="middle" x="31" y="-979.3" font-family="Times New Roman,serif" font-size="14.00">N26</text>
</g>
<!-- N26&#45;&gt;N27 -->
<g id="edge26" class="edge"><title>N26&#45;&gt;N27</title>
<path fill="none" stroke="black" d="M31,-1051.8C31,-1040.16 31,-1024.55 31,-1011.24"/>
<polygon fill="black" stroke="black" points="34.5001,-1011.18 31,-1001.18 27.5001,-1011.18 34.5001,-1011.18"/>
<text text-anchor="middle" x="69" y="-1022.8" font-family="Times New Roman,serif" font-size="14.00">i4 = (i4 + &#45;1);</text>
</g>
<!-- N28 -->
<g id="node29" class="node"><title>N28</title>
<ellipse fill="none" stroke="black" cx="31" cy="-896" rx="27" ry="18"/>
<text text-anchor="middle" x="31" y="-892.3" font-family="Times New Roman,serif" font-size="14.00">N27</text>
</g>
<!-- N27&#45;&gt;N28 -->
<g id="edge27" class="edge"><title>N27&#45;&gt;N28</title>
<path fill="none" stroke="black" d="M31,-964.799C31,-953.163 31,-937.548 31,-924.237"/>
<polygon fill="black" stroke="black" points="34.5001,-924.175 31,-914.175 27.5001,-924.175 34.5001,-924.175"/>
<text text-anchor="middle" x="66.5" y="-935.8" font-family="Times New Roman,serif" font-size="14.00">i5 = (i5 + 1);</text>
</g>
<!-- N29 -->
<g id="node30" class="node"><title>N29</title>
<ellipse fill="none" stroke="black" cx="31" cy="-809" rx="27" ry="18"/>
<text text-anchor="middle" x="31" y="-805.3" font-family="Times New Roman,serif" font-size="14.00">N28</text>
</g>
<!-- N28&#45;&gt;N29 -->
<g id="edge28" class="edge"><title>N28&#45;&gt;N29</title>
<path fill="none" stroke="black" d="M31,-877.799C31,-866.163 31,-850.548 31,-837.237"/>
<polygon fill="black" stroke="black" points="34.5001,-837.175 31,-827.175 27.5001,-837.175 34.5001,-837.175"/>
<text text-anchor="middle" x="57" y="-848.8" font-family="Times New Roman,serif" font-size="14.00">i0 = r5.d;</text>
</g>
<!-- N30 -->
<g id="node31" class="node"><title>N30</title>
<ellipse fill="none" stroke="black" cx="31" cy="-722" rx="27" ry="18"/>
<text text-anchor="middle" x="31" y="-718.3" font-family="Times New Roman,serif" font-size="14.00">N29</text>
</g>
<!-- N29&#45;&gt;N30 -->
<g id="edge29" class="edge"><title>N29&#45;&gt;N30</title>
<path fill="none" stroke="black" d="M31,-790.799C31,-779.163 31,-763.548 31,-750.237"/>
<polygon fill="black" stroke="black" points="34.5001,-750.175 31,-740.175 27.5001,-750.175 34.5001,-750.175"/>
<text text-anchor="middle" x="71.5" y="-761.8" font-family="Times New Roman,serif" font-size="14.00">loc_SLL = r5;</text>
</g>
<!-- N31 -->
<g id="node32" class="node"><title>N31</title>
<ellipse fill="none" stroke="black" cx="31" cy="-635" rx="27" ry="18"/>
<text text-anchor="middle" x="31" y="-631.3" font-family="Times New Roman,serif" font-size="14.00">N30</text>
</g>
<!-- N30&#45;&gt;N31 -->
<g id="edge30" class="edge"><title>N30&#45;&gt;N31</title>
<path fill="none" stroke="black" d="M31,-703.799C31,-692.163 31,-676.548 31,-663.237"/>
<polygon fill="black" stroke="black" points="34.5001,-663.175 31,-653.175 27.5001,-663.175 34.5001,-663.175"/>
<text text-anchor="middle" x="75" y="-674.8" font-family="Times New Roman,serif" font-size="14.00">r5 = loc_SLL.l;</text>
</g>
<!-- N32 -->
<g id="node33" class="node"><title>N32</title>
<ellipse fill="none" stroke="black" cx="31" cy="-548" rx="27" ry="18"/>
<text text-anchor="middle" x="31" y="-544.3" font-family="Times New Roman,serif" font-size="14.00">N31</text>
</g>
<!-- N31&#45;&gt;N32 -->
<g id="edge31" class="edge"><title>N31&#45;&gt;N32</title>
<path fill="none" stroke="black" d="M31,-616.799C31,-605.163 31,-589.548 31,-576.237"/>
<polygon fill="black" stroke="black" points="34.5001,-576.175 31,-566.175 27.5001,-576.175 34.5001,-576.175"/>
<text text-anchor="middle" x="69" y="-587.8" font-family="Times New Roman,serif" font-size="14.00">i4 = (i4 + &#45;1);</text>
</g>
<!-- N33 -->
<g id="node34" class="node"><title>N33</title>
<ellipse fill="none" stroke="black" cx="31" cy="-461" rx="27" ry="18"/>
<text text-anchor="middle" x="31" y="-457.3" font-family="Times New Roman,serif" font-size="14.00">N32</text>
</g>
<!-- N32&#45;&gt;N33 -->
<g id="edge32" class="edge"><title>N32&#45;&gt;N33</title>
<path fill="none" stroke="black" d="M31,-529.799C31,-518.163 31,-502.548 31,-489.237"/>
<polygon fill="black" stroke="black" points="34.5001,-489.175 31,-479.175 27.5001,-489.175 34.5001,-489.175"/>
<text text-anchor="middle" x="66.5" y="-500.8" font-family="Times New Roman,serif" font-size="14.00">i5 = (i5 + 1);</text>
</g>
<!-- N34 -->
<g id="node35" class="node"><title>N34</title>
<ellipse fill="none" stroke="black" cx="31" cy="-374" rx="27" ry="18"/>
<text text-anchor="middle" x="31" y="-370.3" font-family="Times New Roman,serif" font-size="14.00">N33</text>
</g>
<!-- N33&#45;&gt;N34 -->
<g id="edge33" class="edge"><title>N33&#45;&gt;N34</title>
<path fill="none" stroke="black" d="M31,-442.799C31,-431.163 31,-415.548 31,-402.237"/>
<polygon fill="black" stroke="black" points="34.5001,-402.175 31,-392.175 27.5001,-402.175 34.5001,-402.175"/>
<text text-anchor="middle" x="57" y="-413.8" font-family="Times New Roman,serif" font-size="14.00">i0 = r5.d;</text>
</g>
<!-- N35 -->
<g id="node36" class="node"><title>N35</title>
<ellipse fill="none" stroke="black" cx="31" cy="-287" rx="27" ry="18"/>
<text text-anchor="middle" x="31" y="-283.3" font-family="Times New Roman,serif" font-size="14.00">N34</text>
</g>
<!-- N34&#45;&gt;N35 -->
<g id="edge34" class="edge"><title>N34&#45;&gt;N35</title>
<path fill="none" stroke="black" d="M31,-355.799C31,-344.163 31,-328.548 31,-315.237"/>
<polygon fill="black" stroke="black" points="34.5001,-315.175 31,-305.175 27.5001,-315.175 34.5001,-315.175"/>
<text text-anchor="middle" x="71.5" y="-326.8" font-family="Times New Roman,serif" font-size="14.00">loc_SLL = r5;</text>
</g>
<!-- N36 -->
<g id="node37" class="node"><title>N36</title>
<ellipse fill="none" stroke="black" cx="31" cy="-200" rx="27" ry="18"/>
<text text-anchor="middle" x="31" y="-196.3" font-family="Times New Roman,serif" font-size="14.00">N35</text>
</g>
<!-- N35&#45;&gt;N36 -->
<g id="edge35" class="edge"><title>N35&#45;&gt;N36</title>
<path fill="none" stroke="black" d="M31,-268.799C31,-257.163 31,-241.548 31,-228.237"/>
<polygon fill="black" stroke="black" points="34.5001,-228.175 31,-218.175 27.5001,-228.175 34.5001,-228.175"/>
<text text-anchor="middle" x="75" y="-239.8" font-family="Times New Roman,serif" font-size="14.00">r5 = loc_SLL.l;</text>
</g>
<!-- N37 -->
<g id="node38" class="node"><title>N37</title>
<ellipse fill="none" stroke="black" cx="31" cy="-113" rx="27" ry="18"/>
<text text-anchor="middle" x="31" y="-109.3" font-family="Times New Roman,serif" font-size="14.00">N36</text>
</g>
<!-- N36&#45;&gt;N37 -->
<g id="edge36" class="edge"><title>N36&#45;&gt;N37</title>
<path fill="none" stroke="black" d="M31,-181.799C31,-170.163 31,-154.548 31,-141.237"/>
<polygon fill="black" stroke="black" points="34.5001,-141.175 31,-131.175 27.5001,-141.175 34.5001,-141.175"/>
<text text-anchor="middle" x="69" y="-152.8" font-family="Times New Roman,serif" font-size="14.00">i4 = (i4 + &#45;1);</text>
</g>
<!-- N37&#45;&gt;N1 -->
<g id="edge37" class="edge"><title>N37&#45;&gt;N1</title>
<path fill="none" stroke="black" d="M31,-94.8399C31,-83.4407 31,-68.1336 31,-54.5781"/>
<polygon fill="black" stroke="black" points="34.5001,-54.1905 31,-44.1905 27.5001,-54.1906 34.5001,-54.1905"/>
<text text-anchor="middle" x="49.5" y="-65.8" font-family="Times New Roman,serif" font-size="14.00">return;</text>
</g>
</g>
</svg>
