<?xml version="1.0" encoding="UTF-8" standalone="no"?>
<!DOCTYPE svg PUBLIC "-//W3C//DTD SVG 1.1//EN"
 "http://www.w3.org/Graphics/SVG/1.1/DTD/svg11.dtd">
<!-- Generated by graphviz version 2.38.0 (20140413.2041)
 -->
<!-- Title: anonymous_graph Pages: 1 -->
<svg width="690pt" height="2140pt"
 viewBox="0.00 0.00 690.00 2140.00" xmlns="http://www.w3.org/2000/svg" xmlns:xlink="http://www.w3.org/1999/xlink">
<g id="graph0" class="graph" transform="scale(1 1) rotate(0) translate(4 2136)">
<title>anonymous_graph</title>
<polygon fill="white" stroke="none" points="-4,4 -4,-2136 686,-2136 686,4 -4,4"/>
<!-- N0 -->
<g id="node1" class="node"><title>N0</title>
<ellipse fill="none" stroke="black" cx="305" cy="-2114" rx="29.4969" ry="18"/>
<text text-anchor="middle" x="305" y="-2110.3" font-family="Times New Roman,serif" font-size="14.00">initial</text>
</g>
<!-- N2 -->
<g id="node3" class="node"><title>N2</title>
<ellipse fill="none" stroke="black" cx="305" cy="-2027" rx="27" ry="18"/>
<text text-anchor="middle" x="305" y="-2023.3" font-family="Times New Roman,serif" font-size="14.00">N1</text>
</g>
<!-- N0&#45;&gt;N2 -->
<g id="edge1" class="edge"><title>N0&#45;&gt;N2</title>
<path fill="none" stroke="black" d="M305,-2095.8C305,-2084.16 305,-2068.55 305,-2055.24"/>
<polygon fill="black" stroke="black" points="308.5,-2055.18 305,-2045.18 301.5,-2055.18 308.5,-2055.18"/>
<text text-anchor="middle" x="326.5" y="-2066.8" font-family="Times New Roman,serif" font-size="14.00">i5 = 33;</text>
</g>
<!-- N1 -->
<g id="node2" class="node"><title>N1</title>
<ellipse fill="none" stroke="black" cx="527" cy="-196" rx="27" ry="18"/>
<ellipse fill="none" stroke="black" cx="527" cy="-196" rx="31" ry="22"/>
<text text-anchor="middle" x="527" y="-192.3" font-family="Times New Roman,serif" font-size="14.00">final</text>
</g>
<!-- N3 -->
<g id="node4" class="node"><title>N3</title>
<ellipse fill="none" stroke="black" cx="305" cy="-1940" rx="27" ry="18"/>
<text text-anchor="middle" x="305" y="-1936.3" font-family="Times New Roman,serif" font-size="14.00">N2</text>
</g>
<!-- N2&#45;&gt;N3 -->
<g id="edge2" class="edge"><title>N2&#45;&gt;N3</title>
<path fill="none" stroke="black" d="M305,-2008.8C305,-1997.16 305,-1981.55 305,-1968.24"/>
<polygon fill="black" stroke="black" points="308.5,-1968.18 305,-1958.18 301.5,-1968.18 308.5,-1968.18"/>
<text text-anchor="middle" x="345.5" y="-1979.8" font-family="Times New Roman,serif" font-size="14.00">loc_SLL = r1;</text>
</g>
<!-- N4 -->
<g id="node5" class="node"><title>N4</title>
<ellipse fill="none" stroke="black" cx="305" cy="-1853" rx="27" ry="18"/>
<text text-anchor="middle" x="305" y="-1849.3" font-family="Times New Roman,serif" font-size="14.00">N3</text>
</g>
<!-- N3&#45;&gt;N4 -->
<g id="edge3" class="edge"><title>N3&#45;&gt;N4</title>
<path fill="none" stroke="black" d="M305,-1921.8C305,-1910.16 305,-1894.55 305,-1881.24"/>
<polygon fill="black" stroke="black" points="308.5,-1881.18 305,-1871.18 301.5,-1881.18 308.5,-1881.18"/>
<text text-anchor="middle" x="352" y="-1892.8" font-family="Times New Roman,serif" font-size="14.00">loc_SLL.d = 13;</text>
</g>
<!-- N5 -->
<g id="node6" class="node"><title>N5</title>
<ellipse fill="none" stroke="black" cx="305" cy="-1766" rx="27" ry="18"/>
<text text-anchor="middle" x="305" y="-1762.3" font-family="Times New Roman,serif" font-size="14.00">N4</text>
</g>
<!-- N4&#45;&gt;N5 -->
<g id="edge4" class="edge"><title>N4&#45;&gt;N5</title>
<path fill="none" stroke="black" d="M305,-1834.8C305,-1823.16 305,-1807.55 305,-1794.24"/>
<polygon fill="black" stroke="black" points="308.5,-1794.18 305,-1784.18 301.5,-1794.18 308.5,-1794.18"/>
<text text-anchor="middle" x="345.5" y="-1805.8" font-family="Times New Roman,serif" font-size="14.00">loc_SLL = r2;</text>
</g>
<!-- N6 -->
<g id="node7" class="node"><title>N6</title>
<ellipse fill="none" stroke="black" cx="305" cy="-1679" rx="27" ry="18"/>
<text text-anchor="middle" x="305" y="-1675.3" font-family="Times New Roman,serif" font-size="14.00">N5</text>
</g>
<!-- N5&#45;&gt;N6 -->
<g id="edge5" class="edge"><title>N5&#45;&gt;N6</title>
<path fill="none" stroke="black" d="M305,-1747.8C305,-1736.16 305,-1720.55 305,-1707.24"/>
<polygon fill="black" stroke="black" points="308.5,-1707.18 305,-1697.18 301.5,-1707.18 308.5,-1707.18"/>
<text text-anchor="middle" x="352" y="-1718.8" font-family="Times New Roman,serif" font-size="14.00">loc_SLL.d = 12;</text>
</g>
<!-- N7 -->
<g id="node8" class="node"><title>N7</title>
<ellipse fill="none" stroke="black" cx="305" cy="-1592" rx="27" ry="18"/>
<text text-anchor="middle" x="305" y="-1588.3" font-family="Times New Roman,serif" font-size="14.00">N6</text>
</g>
<!-- N6&#45;&gt;N7 -->
<g id="edge6" class="edge"><title>N6&#45;&gt;N7</title>
<path fill="none" stroke="black" d="M305,-1660.8C305,-1649.16 305,-1633.55 305,-1620.24"/>
<polygon fill="black" stroke="black" points="308.5,-1620.18 305,-1610.18 301.5,-1620.18 308.5,-1620.18"/>
<text text-anchor="middle" x="345.5" y="-1631.8" font-family="Times New Roman,serif" font-size="14.00">loc_SLL = r3;</text>
</g>
<!-- N8 -->
<g id="node9" class="node"><title>N8</title>
<ellipse fill="none" stroke="black" cx="305" cy="-1505" rx="27" ry="18"/>
<text text-anchor="middle" x="305" y="-1501.3" font-family="Times New Roman,serif" font-size="14.00">N7</text>
</g>
<!-- N7&#45;&gt;N8 -->
<g id="edge7" class="edge"><title>N7&#45;&gt;N8</title>
<path fill="none" stroke="black" d="M305,-1573.8C305,-1562.16 305,-1546.55 305,-1533.24"/>
<polygon fill="black" stroke="black" points="308.5,-1533.18 305,-1523.18 301.5,-1533.18 308.5,-1533.18"/>
<text text-anchor="middle" x="352" y="-1544.8" font-family="Times New Roman,serif" font-size="14.00">loc_SLL.d = 11;</text>
</g>
<!-- N9 -->
<g id="node10" class="node"><title>N9</title>
<ellipse fill="none" stroke="black" cx="305" cy="-1418" rx="27" ry="18"/>
<text text-anchor="middle" x="305" y="-1414.3" font-family="Times New Roman,serif" font-size="14.00">N8</text>
</g>
<!-- N8&#45;&gt;N9 -->
<g id="edge8" class="edge"><title>N8&#45;&gt;N9</title>
<path fill="none" stroke="black" d="M305,-1486.8C305,-1475.16 305,-1459.55 305,-1446.24"/>
<polygon fill="black" stroke="black" points="308.5,-1446.18 305,-1436.18 301.5,-1446.18 308.5,-1446.18"/>
<text text-anchor="middle" x="345.5" y="-1457.8" font-family="Times New Roman,serif" font-size="14.00">loc_SLL = r4;</text>
</g>
<!-- N10 -->
<g id="node11" class="node"><title>N10</title>
<ellipse fill="none" stroke="black" cx="305" cy="-1331" rx="27" ry="18"/>
<text text-anchor="middle" x="305" y="-1327.3" font-family="Times New Roman,serif" font-size="14.00">N9</text>
</g>
<!-- N9&#45;&gt;N10 -->
<g id="edge9" class="edge"><title>N9&#45;&gt;N10</title>
<path fill="none" stroke="black" d="M305,-1399.8C305,-1388.16 305,-1372.55 305,-1359.24"/>
<polygon fill="black" stroke="black" points="308.5,-1359.18 305,-1349.18 301.5,-1359.18 308.5,-1359.18"/>
<text text-anchor="middle" x="352" y="-1370.8" font-family="Times New Roman,serif" font-size="14.00">loc_SLL.d = 10;</text>
</g>
<!-- N11 -->
<g id="node12" class="node"><title>N11</title>
<ellipse fill="none" stroke="black" cx="305" cy="-1244" rx="27" ry="18"/>
<text text-anchor="middle" x="305" y="-1240.3" font-family="Times New Roman,serif" font-size="14.00">N10</text>
</g>
<!-- N10&#45;&gt;N11 -->
<g id="edge10" class="edge"><title>N10&#45;&gt;N11</title>
<path fill="none" stroke="black" d="M305,-1312.8C305,-1301.16 305,-1285.55 305,-1272.24"/>
<polygon fill="black" stroke="black" points="308.5,-1272.18 305,-1262.18 301.5,-1272.18 308.5,-1272.18"/>
<text text-anchor="middle" x="345.5" y="-1283.8" font-family="Times New Roman,serif" font-size="14.00">loc_SLL = r1;</text>
</g>
<!-- N12 -->
<g id="node13" class="node"><title>N12</title>
<ellipse fill="none" stroke="black" cx="305" cy="-1157" rx="27" ry="18"/>
<text text-anchor="middle" x="305" y="-1153.3" font-family="Times New Roman,serif" font-size="14.00">N11</text>
</g>
<!-- N11&#45;&gt;N12 -->
<g id="edge11" class="edge"><title>N11&#45;&gt;N12</title>
<path fill="none" stroke="black" d="M305,-1225.8C305,-1214.16 305,-1198.55 305,-1185.24"/>
<polygon fill="black" stroke="black" points="308.5,-1185.18 305,-1175.18 301.5,-1185.18 308.5,-1185.18"/>
<text text-anchor="middle" x="349" y="-1196.8" font-family="Times New Roman,serif" font-size="14.00">loc_SLL.l = r2;</text>
</g>
<!-- N13 -->
<g id="node14" class="node"><title>N13</title>
<ellipse fill="none" stroke="black" cx="305" cy="-1070" rx="27" ry="18"/>
<text text-anchor="middle" x="305" y="-1066.3" font-family="Times New Roman,serif" font-size="14.00">N12</text>
</g>
<!-- N12&#45;&gt;N13 -->
<g id="edge12" class="edge"><title>N12&#45;&gt;N13</title>
<path fill="none" stroke="black" d="M305,-1138.8C305,-1127.16 305,-1111.55 305,-1098.24"/>
<polygon fill="black" stroke="black" points="308.5,-1098.18 305,-1088.18 301.5,-1098.18 308.5,-1098.18"/>
<text text-anchor="middle" x="345.5" y="-1109.8" font-family="Times New Roman,serif" font-size="14.00">loc_SLL = r2;</text>
</g>
<!-- N14 -->
<g id="node15" class="node"><title>N14</title>
<ellipse fill="none" stroke="black" cx="305" cy="-983" rx="27" ry="18"/>
<text text-anchor="middle" x="305" y="-979.3" font-family="Times New Roman,serif" font-size="14.00">N13</text>
</g>
<!-- N13&#45;&gt;N14 -->
<g id="edge13" class="edge"><title>N13&#45;&gt;N14</title>
<path fill="none" stroke="black" d="M305,-1051.8C305,-1040.16 305,-1024.55 305,-1011.24"/>
<polygon fill="black" stroke="black" points="308.5,-1011.18 305,-1001.18 301.5,-1011.18 308.5,-1011.18"/>
<text text-anchor="middle" x="349" y="-1022.8" font-family="Times New Roman,serif" font-size="14.00">loc_SLL.l = r3;</text>
</g>
<!-- N15 -->
<g id="node16" class="node"><title>N15</title>
<ellipse fill="none" stroke="black" cx="305" cy="-896" rx="27" ry="18"/>
<text text-anchor="middle" x="305" y="-892.3" font-family="Times New Roman,serif" font-size="14.00">N14</text>
</g>
<!-- N14&#45;&gt;N15 -->
<g id="edge14" class="edge"><title>N14&#45;&gt;N15</title>
<path fill="none" stroke="black" d="M305,-964.799C305,-953.163 305,-937.548 305,-924.237"/>
<polygon fill="black" stroke="black" points="308.5,-924.175 305,-914.175 301.5,-924.175 308.5,-924.175"/>
<text text-anchor="middle" x="345.5" y="-935.8" font-family="Times New Roman,serif" font-size="14.00">loc_SLL = r3;</text>
</g>
<!-- N16 -->
<g id="node17" class="node"><title>N16</title>
<ellipse fill="none" stroke="black" cx="305" cy="-809" rx="27" ry="18"/>
<text text-anchor="middle" x="305" y="-805.3" font-family="Times New Roman,serif" font-size="14.00">N15</text>
</g>
<!-- N15&#45;&gt;N16 -->
<g id="edge15" class="edge"><title>N15&#45;&gt;N16</title>
<path fill="none" stroke="black" d="M305,-877.799C305,-866.163 305,-850.548 305,-837.237"/>
<polygon fill="black" stroke="black" points="308.5,-837.175 305,-827.175 301.5,-837.175 308.5,-837.175"/>
<text text-anchor="middle" x="349" y="-848.8" font-family="Times New Roman,serif" font-size="14.00">loc_SLL.l = r4;</text>
</g>
<!-- N17 -->
<g id="node18" class="node"><title>N17</title>
<ellipse fill="none" stroke="black" cx="305" cy="-722" rx="27" ry="18"/>
<text text-anchor="middle" x="305" y="-718.3" font-family="Times New Roman,serif" font-size="14.00">N16</text>
</g>
<!-- N16&#45;&gt;N17 -->
<g id="edge16" class="edge"><title>N16&#45;&gt;N17</title>
<path fill="none" stroke="black" d="M305,-790.799C305,-779.163 305,-763.548 305,-750.237"/>
<polygon fill="black" stroke="black" points="308.5,-750.175 305,-740.175 301.5,-750.175 308.5,-750.175"/>
<text text-anchor="middle" x="326.5" y="-761.8" font-family="Times New Roman,serif" font-size="14.00">r5 = r1;</text>
</g>
<!-- N18 -->
<g id="node19" class="node"><title>N18</title>
<ellipse fill="none" stroke="black" cx="305" cy="-635" rx="27" ry="18"/>
<text text-anchor="middle" x="305" y="-631.3" font-family="Times New Roman,serif" font-size="14.00">N17</text>
</g>
<!-- N17&#45;&gt;N18 -->
<g id="edge17" class="edge"><title>N17&#45;&gt;N18</title>
<path fill="none" stroke="black" d="M305,-703.799C305,-692.163 305,-676.548 305,-663.237"/>
<polygon fill="black" stroke="black" points="308.5,-663.175 305,-653.175 301.5,-663.175 308.5,-663.175"/>
<text text-anchor="middle" x="340.5" y="-674.8" font-family="Times New Roman,serif" font-size="14.00">i5 = (i5 + 1);</text>
</g>
<!-- N19 -->
<g id="node20" class="node"><title>N19</title>
<ellipse fill="none" stroke="black" cx="305" cy="-548" rx="27" ry="18"/>
<text text-anchor="middle" x="305" y="-544.3" font-family="Times New Roman,serif" font-size="14.00">N18</text>
</g>
<!-- N18&#45;&gt;N19 -->
<g id="edge18" class="edge"><title>N18&#45;&gt;N19</title>
<path fill="none" stroke="black" d="M305,-616.799C305,-605.163 305,-589.548 305,-576.237"/>
<polygon fill="black" stroke="black" points="308.5,-576.175 305,-566.175 301.5,-576.175 308.5,-576.175"/>
<text text-anchor="middle" x="331" y="-587.8" font-family="Times New Roman,serif" font-size="14.00">i0 = r5.d;</text>
</g>
<!-- N20 -->
<g id="node21" class="node"><title>N20</title>
<ellipse fill="none" stroke="black" cx="305" cy="-461" rx="27" ry="18"/>
<text text-anchor="middle" x="305" y="-457.3" font-family="Times New Roman,serif" font-size="14.00">N19</text>
</g>
<!-- N19&#45;&gt;N20 -->
<g id="edge19" class="edge"><title>N19&#45;&gt;N20</title>
<path fill="none" stroke="black" d="M305,-529.799C305,-518.163 305,-502.548 305,-489.237"/>
<polygon fill="black" stroke="black" points="308.5,-489.175 305,-479.175 301.5,-489.175 308.5,-489.175"/>
<text text-anchor="middle" x="345.5" y="-500.8" font-family="Times New Roman,serif" font-size="14.00">loc_SLL = r5;</text>
</g>
<!-- N29 -->
<g id="node30" class="node"><title>N29</title>
<ellipse fill="none" stroke="black" cx="305" cy="-374" rx="27" ry="18"/>
<text text-anchor="middle" x="305" y="-370.3" font-family="Times New Roman,serif" font-size="14.00">N30</text>
</g>
<!-- N20&#45;&gt;N29 -->
<g id="edge20" class="edge"><title>N20&#45;&gt;N29</title>
<path fill="none" stroke="black" d="M305,-442.799C305,-431.163 305,-415.548 305,-402.237"/>
<polygon fill="black" stroke="black" points="308.5,-402.175 305,-392.175 301.5,-402.175 308.5,-402.175"/>
<text text-anchor="middle" x="349" y="-413.8" font-family="Times New Roman,serif" font-size="14.00">r5 = loc_SLL.l;</text>
</g>
<!-- N21 -->
<g id="node22" class="node"><title>N21</title>
<ellipse fill="none" stroke="black" cx="31" cy="-287" rx="27" ry="18"/>
<text text-anchor="middle" x="31" y="-283.3" font-family="Times New Roman,serif" font-size="14.00">N21</text>
</g>
<!-- N22 -->
<g id="node23" class="node"><title>N22</title>
<ellipse fill="none" stroke="black" cx="30" cy="-196" rx="27" ry="18"/>
<text text-anchor="middle" x="30" y="-192.3" font-family="Times New Roman,serif" font-size="14.00">N22</text>
</g>
<!-- N21&#45;&gt;N22 -->
<g id="edge21" class="edge"><title>N21&#45;&gt;N22</title>
<path fill="none" stroke="black" d="M30.8072,-268.84C30.6661,-256.281 30.4717,-238.979 30.309,-224.502"/>
<polygon fill="black" stroke="black" points="33.8044,-224.067 30.1922,-214.107 26.8049,-224.146 33.8044,-224.067"/>
<text text-anchor="middle" x="66.5" y="-239.8" font-family="Times New Roman,serif" font-size="14.00">i5 = (i5 + 1);</text>
</g>
<!-- N23 -->
<g id="node24" class="node"><title>N23</title>
<ellipse fill="none" stroke="black" cx="27" cy="-105" rx="27" ry="18"/>
<text text-anchor="middle" x="27" y="-101.3" font-family="Times New Roman,serif" font-size="14.00">N23</text>
</g>
<!-- N22&#45;&gt;N23 -->
<g id="edge22" class="edge"><title>N22&#45;&gt;N23</title>
<path fill="none" stroke="black" d="M29.4216,-177.84C28.9982,-165.281 28.415,-147.979 27.927,-133.502"/>
<polygon fill="black" stroke="black" points="31.4116,-132.984 27.5767,-123.107 24.4156,-133.22 31.4116,-132.984"/>
<text text-anchor="middle" x="55" y="-144.8" font-family="Times New Roman,serif" font-size="14.00">i0 = r5.d;</text>
</g>
<!-- N24 -->
<g id="node25" class="node"><title>N24</title>
<ellipse fill="none" stroke="black" cx="74" cy="-18" rx="27" ry="18"/>
<text text-anchor="middle" x="74" y="-14.3" font-family="Times New Roman,serif" font-size="14.00">N24</text>
</g>
<!-- N23&#45;&gt;N24 -->
<g id="edge23" class="edge"><title>N23&#45;&gt;N24</title>
<path fill="none" stroke="black" d="M23.3198,-86.9149C22.0152,-76.8208 21.9361,-64.0847 27,-54 30.7878,-46.4566 37.0572,-40.1265 43.8017,-35.0155"/>
<polygon fill="black" stroke="black" points="46.1077,-37.6823 52.448,-29.194 42.1981,-31.8758 46.1077,-37.6823"/>
<text text-anchor="middle" x="67.5" y="-57.8" font-family="Times New Roman,serif" font-size="14.00">loc_SLL = r5;</text>
</g>
<!-- N24&#45;&gt;N29 -->
<g id="edge24" class="edge"><title>N24&#45;&gt;N29</title>
<path fill="none" stroke="black" d="M90.3781,-32.616C96.6744,-38.6007 103.438,-46.0691 108,-54 119.506,-74.0041 122,-80.9231 122,-104 122,-288 122,-288 122,-288 122,-351.712 214.367,-367.799 267.857,-371.773"/>
<polygon fill="black" stroke="black" points="267.796,-375.276 277.998,-372.416 268.24,-368.29 267.796,-375.276"/>
<text text-anchor="middle" x="166" y="-192.3" font-family="Times New Roman,serif" font-size="14.00">r5 = loc_SLL.l;</text>
</g>
<!-- N25 -->
<g id="node26" class="node"><title>N25</title>
<ellipse fill="none" stroke="black" cx="315" cy="-287" rx="27" ry="18"/>
<text text-anchor="middle" x="315" y="-283.3" font-family="Times New Roman,serif" font-size="14.00">N26</text>
</g>
<!-- N26 -->
<g id="node27" class="node"><title>N26</title>
<ellipse fill="none" stroke="black" cx="379" cy="-196" rx="27" ry="18"/>
<text text-anchor="middle" x="379" y="-192.3" font-family="Times New Roman,serif" font-size="14.00">N27</text>
</g>
<!-- N25&#45;&gt;N26 -->
<g id="edge25" class="edge"><title>N25&#45;&gt;N26</title>
<path fill="none" stroke="black" d="M326.148,-270.497C335.999,-256.798 350.519,-236.606 361.849,-220.851"/>
<polygon fill="black" stroke="black" points="364.768,-222.786 367.765,-212.624 359.085,-218.699 364.768,-222.786"/>
<text text-anchor="middle" x="385.5" y="-239.8" font-family="Times New Roman,serif" font-size="14.00">i5 = (i5 + 1);</text>
</g>
<!-- N27 -->
<g id="node28" class="node"><title>N27</title>
<ellipse fill="none" stroke="black" cx="337" cy="-105" rx="27" ry="18"/>
<text text-anchor="middle" x="337" y="-101.3" font-family="Times New Roman,serif" font-size="14.00">N28</text>
</g>
<!-- N26&#45;&gt;N27 -->
<g id="edge26" class="edge"><title>N26&#45;&gt;N27</title>
<path fill="none" stroke="black" d="M371.297,-178.676C365.119,-165.585 356.333,-146.969 349.201,-131.855"/>
<polygon fill="black" stroke="black" points="352.23,-130.072 344.797,-122.522 345.899,-133.059 352.23,-130.072"/>
<text text-anchor="middle" x="386" y="-144.8" font-family="Times New Roman,serif" font-size="14.00">i0 = r5.d;</text>
</g>
<!-- N28 -->
<g id="node29" class="node"><title>N28</title>
<ellipse fill="none" stroke="black" cx="291" cy="-18" rx="27" ry="18"/>
<text text-anchor="middle" x="291" y="-14.3" font-family="Times New Roman,serif" font-size="14.00">N29</text>
</g>
<!-- N27&#45;&gt;N28 -->
<g id="edge27" class="edge"><title>N27&#45;&gt;N28</title>
<path fill="none" stroke="black" d="M328.131,-87.6111C321.47,-75.3034 312.228,-58.2256 304.631,-44.1874"/>
<polygon fill="black" stroke="black" points="307.524,-42.1792 299.686,-35.0503 301.367,-45.5109 307.524,-42.1792"/>
<text text-anchor="middle" x="356.5" y="-57.8" font-family="Times New Roman,serif" font-size="14.00">loc_SLL = r5;</text>
</g>
<!-- N28&#45;&gt;N29 -->
<g id="edge28" class="edge"><title>N28&#45;&gt;N29</title>
<path fill="none" stroke="black" d="M277.499,-33.7272C264.243,-49.7654 246,-76.7833 246,-104 246,-288 246,-288 246,-288 246,-313.472 264.101,-336.804 280.251,-352.552"/>
<polygon fill="black" stroke="black" points="278.214,-355.436 287.935,-359.65 282.964,-350.294 278.214,-355.436"/>
<text text-anchor="middle" x="290" y="-192.3" font-family="Times New Roman,serif" font-size="14.00">r5 = loc_SLL.l;</text>
</g>
<!-- N29&#45;&gt;N21 -->
<g id="edge30" class="edge"><title>N29&#45;&gt;N21</title>
<path fill="none" stroke="black" d="M277.799,-371.499C211.972,-367.592 48.2812,-356.133 32,-338 26.4532,-331.822 24.9107,-323.283 25.155,-315.009"/>
<polygon fill="black" stroke="black" points="28.6562,-315.186 26.2531,-304.868 21.6968,-314.433 28.6562,-315.186"/>
<text text-anchor="middle" x="70" y="-326.8" font-family="Times New Roman,serif" font-size="14.00">i4 = (i4 + &#45;1);</text>
</g>
<!-- N29&#45;&gt;N25 -->
<g id="edge31" class="edge"><title>N29&#45;&gt;N25</title>
<path fill="none" stroke="black" d="M304.366,-355.799C304.253,-346.121 304.518,-333.839 306,-323 306.37,-320.296 306.873,-317.5 307.455,-314.722"/>
<polygon fill="black" stroke="black" points="310.874,-315.473 309.804,-304.932 304.067,-313.84 310.874,-315.473"/>
<text text-anchor="middle" x="344" y="-326.8" font-family="Times New Roman,serif" font-size="14.00">i4 = (i4 + &#45;1);</text>
</g>
<!-- N30 -->
<g id="node31" class="node"><title>N30</title>
<ellipse fill="none" stroke="black" cx="412" cy="-287" rx="27" ry="18"/>
<text text-anchor="middle" x="412" y="-283.3" font-family="Times New Roman,serif" font-size="14.00">N31</text>
</g>
<!-- N29&#45;&gt;N30 -->
<g id="edge29" class="edge"><title>N29&#45;&gt;N30</title>
<path fill="none" stroke="black" d="M329.36,-366.146C345.685,-360.608 366.879,-351.491 382,-338 389.544,-331.269 395.768,-322.18 400.554,-313.597"/>
<polygon fill="black" stroke="black" points="403.711,-315.11 405.176,-304.617 397.487,-311.906 403.711,-315.11"/>
<text text-anchor="middle" x="432" y="-326.8" font-family="Times New Roman,serif" font-size="14.00">i4 = (i4 + &#45;1);</text>
</g>
<!-- N34 -->
<g id="node35" class="node"><title>N34</title>
<ellipse fill="none" stroke="black" cx="516" cy="-287" rx="27" ry="18"/>
<text text-anchor="middle" x="516" y="-283.3" font-family="Times New Roman,serif" font-size="14.00">N36</text>
</g>
<!-- N29&#45;&gt;N34 -->
<g id="edge32" class="edge"><title>N29&#45;&gt;N34</title>
<path fill="none" stroke="black" d="M332.131,-372.753C367.248,-371.289 429.234,-364.723 474,-338 484.583,-331.683 493.752,-321.713 500.799,-312.333"/>
<polygon fill="black" stroke="black" points="503.766,-314.199 506.655,-304.006 498.04,-310.173 503.766,-314.199"/>
<text text-anchor="middle" x="529" y="-326.8" font-family="Times New Roman,serif" font-size="14.00">i4 = (i4 + &#45;1);</text>
</g>
<!-- N31 -->
<g id="node32" class="node"><title>N31</title>
<ellipse fill="none" stroke="black" cx="451" cy="-196" rx="27" ry="18"/>
<text text-anchor="middle" x="451" y="-192.3" font-family="Times New Roman,serif" font-size="14.00">N32</text>
</g>
<!-- N30&#45;&gt;N31 -->
<g id="edge33" class="edge"><title>N30&#45;&gt;N31</title>
<path fill="none" stroke="black" d="M419.336,-269.26C425.091,-256.125 433.202,-237.617 439.773,-222.62"/>
<polygon fill="black" stroke="black" points="443.021,-223.928 443.829,-213.364 436.61,-221.119 443.021,-223.928"/>
<text text-anchor="middle" x="468.5" y="-239.8" font-family="Times New Roman,serif" font-size="14.00">i5 = (i5 + 1);</text>
</g>
<!-- N32 -->
<g id="node33" class="node"><title>N32</title>
<ellipse fill="none" stroke="black" cx="474" cy="-105" rx="27" ry="18"/>
<text text-anchor="middle" x="474" y="-101.3" font-family="Times New Roman,serif" font-size="14.00">N33</text>
</g>
<!-- N31&#45;&gt;N32 -->
<g id="edge34" class="edge"><title>N31&#45;&gt;N32</title>
<path fill="none" stroke="black" d="M455.435,-177.84C458.733,-165.077 463.297,-147.415 467.075,-132.798"/>
<polygon fill="black" stroke="black" points="470.544,-133.363 469.657,-122.806 463.766,-131.612 470.544,-133.363"/>
<text text-anchor="middle" x="490" y="-144.8" font-family="Times New Roman,serif" font-size="14.00">i0 = r5.d;</text>
</g>
<!-- N33 -->
<g id="node34" class="node"><title>N33</title>
<ellipse fill="none" stroke="black" cx="535" cy="-18" rx="27" ry="18"/>
<text text-anchor="middle" x="535" y="-14.3" font-family="Times New Roman,serif" font-size="14.00">N34</text>
</g>
<!-- N32&#45;&gt;N33 -->
<g id="edge35" class="edge"><title>N32&#45;&gt;N33</title>
<path fill="none" stroke="black" d="M480.591,-87.4491C485.026,-77.31 491.436,-64.3397 499,-54 502.627,-49.0422 506.985,-44.1618 511.396,-39.6918"/>
<polygon fill="black" stroke="black" points="513.972,-42.0707 518.752,-32.6156 509.119,-37.026 513.972,-42.0707"/>
<text text-anchor="middle" x="539.5" y="-57.8" font-family="Times New Roman,serif" font-size="14.00">loc_SLL = r5;</text>
</g>
<!-- N33&#45;&gt;N29 -->
<g id="edge36" class="edge"><title>N33&#45;&gt;N29</title>
<path fill="none" stroke="black" d="M554.912,-30.4022C563.76,-36.389 573.599,-44.4689 580,-54 592.866,-73.1578 594,-80.9231 594,-104 594,-288 594,-288 594,-288 594,-312.461 590.689,-323.486 571,-338 535.485,-364.181 406.854,-370.78 342.379,-372.442"/>
<polygon fill="black" stroke="black" points="342.151,-368.946 332.235,-372.676 342.313,-375.944 342.151,-368.946"/>
<text text-anchor="middle" x="638" y="-192.3" font-family="Times New Roman,serif" font-size="14.00">r5 = loc_SLL.l;</text>
</g>
<!-- N34&#45;&gt;N1 -->
<g id="edge37" class="edge"><title>N34&#45;&gt;N1</title>
<path fill="none" stroke="black" d="M518.121,-268.84C519.544,-257.328 521.459,-241.83 523.147,-228.176"/>
<polygon fill="black" stroke="black" points="526.628,-228.544 524.381,-218.191 519.681,-227.686 526.628,-228.544"/>
<text text-anchor="middle" x="540.5" y="-239.8" font-family="Times New Roman,serif" font-size="14.00">return;</text>
</g>
</g>
</svg>
