<?xml version="1.0" encoding="UTF-8" standalone="no"?>
<!DOCTYPE svg PUBLIC "-//W3C//DTD SVG 1.1//EN"
 "http://www.w3.org/Graphics/SVG/1.1/DTD/svg11.dtd">
<!-- Generated by graphviz version 2.38.0 (20140413.2041)
 -->
<!-- Title: anonymous_graph Pages: 1 -->
<svg width="285pt" height="1792pt"
 viewBox="0.00 0.00 285.00 1792.00" xmlns="http://www.w3.org/2000/svg" xmlns:xlink="http://www.w3.org/1999/xlink">
<g id="graph0" class="graph" transform="scale(1 1) rotate(0) translate(4 1788)">
<title>anonymous_graph</title>
<polygon fill="white" stroke="none" points="-4,4 -4,-1788 281,-1788 281,4 -4,4"/>
<!-- N0 -->
<g id="node1" class="node"><title>N0</title>
<ellipse fill="none" stroke="black" cx="107" cy="-1766" rx="29.4969" ry="18"/>
<text text-anchor="middle" x="107" y="-1762.3" font-family="Times New Roman,serif" font-size="14.00">initial</text>
</g>
<!-- N2 -->
<g id="node3" class="node"><title>N2</title>
<ellipse fill="none" stroke="black" cx="107" cy="-1679" rx="27" ry="18"/>
<text text-anchor="middle" x="107" y="-1675.3" font-family="Times New Roman,serif" font-size="14.00">N1</text>
</g>
<!-- N0&#45;&gt;N2 -->
<g id="edge1" class="edge"><title>N0&#45;&gt;N2</title>
<path fill="none" stroke="black" d="M107,-1747.8C107,-1736.16 107,-1720.55 107,-1707.24"/>
<polygon fill="black" stroke="black" points="110.5,-1707.18 107,-1697.18 103.5,-1707.18 110.5,-1707.18"/>
<text text-anchor="middle" x="128.5" y="-1718.8" font-family="Times New Roman,serif" font-size="14.00">i5 = 33;</text>
</g>
<!-- N1 -->
<g id="node2" class="node"><title>N1</title>
<ellipse fill="none" stroke="black" cx="31" cy="-283" rx="27" ry="18"/>
<ellipse fill="none" stroke="black" cx="31" cy="-283" rx="31" ry="22"/>
<text text-anchor="middle" x="31" y="-279.3" font-family="Times New Roman,serif" font-size="14.00">final</text>
</g>
<!-- N3 -->
<g id="node4" class="node"><title>N3</title>
<ellipse fill="none" stroke="black" cx="107" cy="-1592" rx="27" ry="18"/>
<text text-anchor="middle" x="107" y="-1588.3" font-family="Times New Roman,serif" font-size="14.00">N2</text>
</g>
<!-- N2&#45;&gt;N3 -->
<g id="edge2" class="edge"><title>N2&#45;&gt;N3</title>
<path fill="none" stroke="black" d="M107,-1660.8C107,-1649.16 107,-1633.55 107,-1620.24"/>
<polygon fill="black" stroke="black" points="110.5,-1620.18 107,-1610.18 103.5,-1620.18 110.5,-1620.18"/>
<text text-anchor="middle" x="147.5" y="-1631.8" font-family="Times New Roman,serif" font-size="14.00">loc_SLL = r1;</text>
</g>
<!-- N4 -->
<g id="node5" class="node"><title>N4</title>
<ellipse fill="none" stroke="black" cx="107" cy="-1505" rx="27" ry="18"/>
<text text-anchor="middle" x="107" y="-1501.3" font-family="Times New Roman,serif" font-size="14.00">N3</text>
</g>
<!-- N3&#45;&gt;N4 -->
<g id="edge3" class="edge"><title>N3&#45;&gt;N4</title>
<path fill="none" stroke="black" d="M107,-1573.8C107,-1562.16 107,-1546.55 107,-1533.24"/>
<polygon fill="black" stroke="black" points="110.5,-1533.18 107,-1523.18 103.5,-1533.18 110.5,-1533.18"/>
<text text-anchor="middle" x="154" y="-1544.8" font-family="Times New Roman,serif" font-size="14.00">loc_SLL.d = 13;</text>
</g>
<!-- N5 -->
<g id="node6" class="node"><title>N5</title>
<ellipse fill="none" stroke="black" cx="107" cy="-1418" rx="27" ry="18"/>
<text text-anchor="middle" x="107" y="-1414.3" font-family="Times New Roman,serif" font-size="14.00">N4</text>
</g>
<!-- N4&#45;&gt;N5 -->
<g id="edge4" class="edge"><title>N4&#45;&gt;N5</title>
<path fill="none" stroke="black" d="M107,-1486.8C107,-1475.16 107,-1459.55 107,-1446.24"/>
<polygon fill="black" stroke="black" points="110.5,-1446.18 107,-1436.18 103.5,-1446.18 110.5,-1446.18"/>
<text text-anchor="middle" x="147.5" y="-1457.8" font-family="Times New Roman,serif" font-size="14.00">loc_SLL = r2;</text>
</g>
<!-- N6 -->
<g id="node7" class="node"><title>N6</title>
<ellipse fill="none" stroke="black" cx="107" cy="-1331" rx="27" ry="18"/>
<text text-anchor="middle" x="107" y="-1327.3" font-family="Times New Roman,serif" font-size="14.00">N5</text>
</g>
<!-- N5&#45;&gt;N6 -->
<g id="edge5" class="edge"><title>N5&#45;&gt;N6</title>
<path fill="none" stroke="black" d="M107,-1399.8C107,-1388.16 107,-1372.55 107,-1359.24"/>
<polygon fill="black" stroke="black" points="110.5,-1359.18 107,-1349.18 103.5,-1359.18 110.5,-1359.18"/>
<text text-anchor="middle" x="154" y="-1370.8" font-family="Times New Roman,serif" font-size="14.00">loc_SLL.d = 12;</text>
</g>
<!-- N7 -->
<g id="node8" class="node"><title>N7</title>
<ellipse fill="none" stroke="black" cx="107" cy="-1244" rx="27" ry="18"/>
<text text-anchor="middle" x="107" y="-1240.3" font-family="Times New Roman,serif" font-size="14.00">N6</text>
</g>
<!-- N6&#45;&gt;N7 -->
<g id="edge6" class="edge"><title>N6&#45;&gt;N7</title>
<path fill="none" stroke="black" d="M107,-1312.8C107,-1301.16 107,-1285.55 107,-1272.24"/>
<polygon fill="black" stroke="black" points="110.5,-1272.18 107,-1262.18 103.5,-1272.18 110.5,-1272.18"/>
<text text-anchor="middle" x="147.5" y="-1283.8" font-family="Times New Roman,serif" font-size="14.00">loc_SLL = r3;</text>
</g>
<!-- N8 -->
<g id="node9" class="node"><title>N8</title>
<ellipse fill="none" stroke="black" cx="107" cy="-1157" rx="27" ry="18"/>
<text text-anchor="middle" x="107" y="-1153.3" font-family="Times New Roman,serif" font-size="14.00">N7</text>
</g>
<!-- N7&#45;&gt;N8 -->
<g id="edge7" class="edge"><title>N7&#45;&gt;N8</title>
<path fill="none" stroke="black" d="M107,-1225.8C107,-1214.16 107,-1198.55 107,-1185.24"/>
<polygon fill="black" stroke="black" points="110.5,-1185.18 107,-1175.18 103.5,-1185.18 110.5,-1185.18"/>
<text text-anchor="middle" x="154" y="-1196.8" font-family="Times New Roman,serif" font-size="14.00">loc_SLL.d = 11;</text>
</g>
<!-- N9 -->
<g id="node10" class="node"><title>N9</title>
<ellipse fill="none" stroke="black" cx="107" cy="-1070" rx="27" ry="18"/>
<text text-anchor="middle" x="107" y="-1066.3" font-family="Times New Roman,serif" font-size="14.00">N8</text>
</g>
<!-- N8&#45;&gt;N9 -->
<g id="edge8" class="edge"><title>N8&#45;&gt;N9</title>
<path fill="none" stroke="black" d="M107,-1138.8C107,-1127.16 107,-1111.55 107,-1098.24"/>
<polygon fill="black" stroke="black" points="110.5,-1098.18 107,-1088.18 103.5,-1098.18 110.5,-1098.18"/>
<text text-anchor="middle" x="147.5" y="-1109.8" font-family="Times New Roman,serif" font-size="14.00">loc_SLL = r4;</text>
</g>
<!-- N10 -->
<g id="node11" class="node"><title>N10</title>
<ellipse fill="none" stroke="black" cx="107" cy="-983" rx="27" ry="18"/>
<text text-anchor="middle" x="107" y="-979.3" font-family="Times New Roman,serif" font-size="14.00">N9</text>
</g>
<!-- N9&#45;&gt;N10 -->
<g id="edge9" class="edge"><title>N9&#45;&gt;N10</title>
<path fill="none" stroke="black" d="M107,-1051.8C107,-1040.16 107,-1024.55 107,-1011.24"/>
<polygon fill="black" stroke="black" points="110.5,-1011.18 107,-1001.18 103.5,-1011.18 110.5,-1011.18"/>
<text text-anchor="middle" x="154" y="-1022.8" font-family="Times New Roman,serif" font-size="14.00">loc_SLL.d = 10;</text>
</g>
<!-- N11 -->
<g id="node12" class="node"><title>N11</title>
<ellipse fill="none" stroke="black" cx="107" cy="-896" rx="27" ry="18"/>
<text text-anchor="middle" x="107" y="-892.3" font-family="Times New Roman,serif" font-size="14.00">N10</text>
</g>
<!-- N10&#45;&gt;N11 -->
<g id="edge10" class="edge"><title>N10&#45;&gt;N11</title>
<path fill="none" stroke="black" d="M107,-964.799C107,-953.163 107,-937.548 107,-924.237"/>
<polygon fill="black" stroke="black" points="110.5,-924.175 107,-914.175 103.5,-924.175 110.5,-924.175"/>
<text text-anchor="middle" x="147.5" y="-935.8" font-family="Times New Roman,serif" font-size="14.00">loc_SLL = r1;</text>
</g>
<!-- N12 -->
<g id="node13" class="node"><title>N12</title>
<ellipse fill="none" stroke="black" cx="107" cy="-809" rx="27" ry="18"/>
<text text-anchor="middle" x="107" y="-805.3" font-family="Times New Roman,serif" font-size="14.00">N11</text>
</g>
<!-- N11&#45;&gt;N12 -->
<g id="edge11" class="edge"><title>N11&#45;&gt;N12</title>
<path fill="none" stroke="black" d="M107,-877.799C107,-866.163 107,-850.548 107,-837.237"/>
<polygon fill="black" stroke="black" points="110.5,-837.175 107,-827.175 103.5,-837.175 110.5,-837.175"/>
<text text-anchor="middle" x="151" y="-848.8" font-family="Times New Roman,serif" font-size="14.00">loc_SLL.l = r2;</text>
</g>
<!-- N13 -->
<g id="node14" class="node"><title>N13</title>
<ellipse fill="none" stroke="black" cx="107" cy="-722" rx="27" ry="18"/>
<text text-anchor="middle" x="107" y="-718.3" font-family="Times New Roman,serif" font-size="14.00">N12</text>
</g>
<!-- N12&#45;&gt;N13 -->
<g id="edge12" class="edge"><title>N12&#45;&gt;N13</title>
<path fill="none" stroke="black" d="M107,-790.799C107,-779.163 107,-763.548 107,-750.237"/>
<polygon fill="black" stroke="black" points="110.5,-750.175 107,-740.175 103.5,-750.175 110.5,-750.175"/>
<text text-anchor="middle" x="147.5" y="-761.8" font-family="Times New Roman,serif" font-size="14.00">loc_SLL = r2;</text>
</g>
<!-- N14 -->
<g id="node15" class="node"><title>N14</title>
<ellipse fill="none" stroke="black" cx="107" cy="-635" rx="27" ry="18"/>
<text text-anchor="middle" x="107" y="-631.3" font-family="Times New Roman,serif" font-size="14.00">N13</text>
</g>
<!-- N13&#45;&gt;N14 -->
<g id="edge13" class="edge"><title>N13&#45;&gt;N14</title>
<path fill="none" stroke="black" d="M107,-703.799C107,-692.163 107,-676.548 107,-663.237"/>
<polygon fill="black" stroke="black" points="110.5,-663.175 107,-653.175 103.5,-663.175 110.5,-663.175"/>
<text text-anchor="middle" x="151" y="-674.8" font-family="Times New Roman,serif" font-size="14.00">loc_SLL.l = r3;</text>
</g>
<!-- N15 -->
<g id="node16" class="node"><title>N15</title>
<ellipse fill="none" stroke="black" cx="107" cy="-548" rx="27" ry="18"/>
<text text-anchor="middle" x="107" y="-544.3" font-family="Times New Roman,serif" font-size="14.00">N14</text>
</g>
<!-- N14&#45;&gt;N15 -->
<g id="edge14" class="edge"><title>N14&#45;&gt;N15</title>
<path fill="none" stroke="black" d="M107,-616.799C107,-605.163 107,-589.548 107,-576.237"/>
<polygon fill="black" stroke="black" points="110.5,-576.175 107,-566.175 103.5,-576.175 110.5,-576.175"/>
<text text-anchor="middle" x="147.5" y="-587.8" font-family="Times New Roman,serif" font-size="14.00">loc_SLL = r3;</text>
</g>
<!-- N16 -->
<g id="node17" class="node"><title>N16</title>
<ellipse fill="none" stroke="black" cx="107" cy="-461" rx="27" ry="18"/>
<text text-anchor="middle" x="107" y="-457.3" font-family="Times New Roman,serif" font-size="14.00">N15</text>
</g>
<!-- N15&#45;&gt;N16 -->
<g id="edge15" class="edge"><title>N15&#45;&gt;N16</title>
<path fill="none" stroke="black" d="M107,-529.799C107,-518.163 107,-502.548 107,-489.237"/>
<polygon fill="black" stroke="black" points="110.5,-489.175 107,-479.175 103.5,-489.175 110.5,-489.175"/>
<text text-anchor="middle" x="151" y="-500.8" font-family="Times New Roman,serif" font-size="14.00">loc_SLL.l = r4;</text>
</g>
<!-- N17 -->
<g id="node18" class="node"><title>N17</title>
<ellipse fill="none" stroke="black" cx="107" cy="-374" rx="27" ry="18"/>
<text text-anchor="middle" x="107" y="-370.3" font-family="Times New Roman,serif" font-size="14.00">N21</text>
</g>
<!-- N16&#45;&gt;N17 -->
<g id="edge16" class="edge"><title>N16&#45;&gt;N17</title>
<path fill="none" stroke="black" d="M107,-442.799C107,-431.163 107,-415.548 107,-402.237"/>
<polygon fill="black" stroke="black" points="110.5,-402.175 107,-392.175 103.5,-402.175 110.5,-402.175"/>
<text text-anchor="middle" x="128.5" y="-413.8" font-family="Times New Roman,serif" font-size="14.00">r5 = r1;</text>
</g>
<!-- N17&#45;&gt;N1 -->
<g id="edge18" class="edge"><title>N17&#45;&gt;N1</title>
<path fill="none" stroke="black" d="M89.641,-360.047C81.9317,-353.842 73.0321,-346.024 66,-338 59.1686,-330.205 52.692,-320.968 47.2102,-312.358"/>
<polygon fill="black" stroke="black" points="50.1046,-310.383 41.8845,-303.699 44.142,-314.05 50.1046,-310.383"/>
<text text-anchor="middle" x="84.5" y="-326.8" font-family="Times New Roman,serif" font-size="14.00">return;</text>
</g>
<!-- N20 -->
<g id="node21" class="node"><title>N20</title>
<ellipse fill="none" stroke="black" cx="107" cy="-283" rx="27" ry="18"/>
<text text-anchor="middle" x="107" y="-279.3" font-family="Times New Roman,serif" font-size="14.00">N32</text>
</g>
<!-- N17&#45;&gt;N20 -->
<g id="edge17" class="edge"><title>N17&#45;&gt;N20</title>
<path fill="none" stroke="black" d="M107,-355.84C107,-343.281 107,-325.979 107,-311.502"/>
<polygon fill="black" stroke="black" points="110.5,-311.107 107,-301.107 103.5,-311.107 110.5,-311.107"/>
<text text-anchor="middle" x="142.5" y="-326.8" font-family="Times New Roman,serif" font-size="14.00">i5 = (i5 + 1);</text>
</g>
<!-- N18 -->
<g id="node19" class="node"><title>N18</title>
<ellipse fill="none" stroke="black" cx="102" cy="-192" rx="27" ry="18"/>
<text text-anchor="middle" x="102" y="-188.3" font-family="Times New Roman,serif" font-size="14.00">N28</text>
</g>
<!-- N21 -->
<g id="node22" class="node"><title>N21</title>
<ellipse fill="none" stroke="black" cx="99" cy="-105" rx="27" ry="18"/>
<text text-anchor="middle" x="99" y="-101.3" font-family="Times New Roman,serif" font-size="14.00">N34</text>
</g>
<!-- N18&#45;&gt;N21 -->
<g id="edge19" class="edge"><title>N18&#45;&gt;N21</title>
<path fill="none" stroke="black" d="M101.393,-173.799C100.982,-162.163 100.431,-146.548 99.9613,-133.237"/>
<polygon fill="black" stroke="black" points="103.457,-133.046 99.6062,-123.175 96.4612,-133.293 103.457,-133.046"/>
<text text-anchor="middle" x="141.5" y="-144.8" font-family="Times New Roman,serif" font-size="14.00">loc_SLL = r5;</text>
</g>
<!-- N19 -->
<g id="node20" class="node"><title>N19</title>
<ellipse fill="none" stroke="black" cx="149" cy="-18" rx="27" ry="18"/>
<text text-anchor="middle" x="149" y="-14.3" font-family="Times New Roman,serif" font-size="14.00">N30</text>
</g>
<!-- N19&#45;&gt;N17 -->
<g id="edge20" class="edge"><title>N19&#45;&gt;N17</title>
<path fill="none" stroke="black" d="M166.952,-31.9585C174.104,-37.9425 181.845,-45.5876 187,-54 199.057,-73.6768 201,-80.9231 201,-104 201,-284 201,-284 201,-284 201,-309.442 199.085,-319.147 182,-338 171.26,-349.852 155.68,-358.014 141.499,-363.455"/>
<polygon fill="black" stroke="black" points="140.257,-360.181 131.982,-366.798 142.577,-366.786 140.257,-360.181"/>
<text text-anchor="middle" x="239" y="-188.3" font-family="Times New Roman,serif" font-size="14.00">i4 = (i4 + &#45;1);</text>
</g>
<!-- N20&#45;&gt;N18 -->
<g id="edge21" class="edge"><title>N20&#45;&gt;N18</title>
<path fill="none" stroke="black" d="M106.036,-264.84C105.33,-252.281 104.358,-234.979 103.545,-220.502"/>
<polygon fill="black" stroke="black" points="107.017,-219.895 102.961,-210.107 100.028,-220.288 107.017,-219.895"/>
<text text-anchor="middle" x="131" y="-231.8" font-family="Times New Roman,serif" font-size="14.00">i0 = r5.d;</text>
</g>
<!-- N21&#45;&gt;N19 -->
<g id="edge22" class="edge"><title>N21&#45;&gt;N19</title>
<path fill="none" stroke="black" d="M95.2126,-86.8601C93.87,-76.7466 93.7886,-64.0093 99,-54 103.256,-45.8263 110.39,-39.1668 117.957,-33.936"/>
<polygon fill="black" stroke="black" points="120.203,-36.6639 126.891,-28.4467 116.538,-30.6997 120.203,-36.6639"/>
<text text-anchor="middle" x="143" y="-57.8" font-family="Times New Roman,serif" font-size="14.00">r5 = loc_SLL.l;</text>
</g>
</g>
</svg>
