<?xml version="1.0" encoding="UTF-8" standalone="no"?>
<!DOCTYPE svg PUBLIC "-//W3C//DTD SVG 1.1//EN"
 "http://www.w3.org/Graphics/SVG/1.1/DTD/svg11.dtd">
<!-- Generated by graphviz version 2.38.0 (20140413.2041)
 -->
<!-- Title: anonymous_graph Pages: 1 -->
<svg width="388pt" height="1792pt"
 viewBox="0.00 0.00 388.00 1792.00" xmlns="http://www.w3.org/2000/svg" xmlns:xlink="http://www.w3.org/1999/xlink">
<g id="graph0" class="graph" transform="scale(1 1) rotate(0) translate(4 1788)">
<title>anonymous_graph</title>
<polygon fill="white" stroke="none" points="-4,4 -4,-1788 384,-1788 384,4 -4,4"/>
<!-- N0 -->
<g id="node1" class="node"><title>N0</title>
<ellipse fill="none" stroke="black" cx="154" cy="-1766" rx="29.4969" ry="18"/>
<text text-anchor="middle" x="154" y="-1762.3" font-family="Times New Roman,serif" font-size="14.00">initial</text>
</g>
<!-- N2 -->
<g id="node3" class="node"><title>N2</title>
<ellipse fill="none" stroke="black" cx="154" cy="-1679" rx="27" ry="18"/>
<text text-anchor="middle" x="154" y="-1675.3" font-family="Times New Roman,serif" font-size="14.00">N1</text>
</g>
<!-- N0&#45;&gt;N2 -->
<g id="edge1" class="edge"><title>N0&#45;&gt;N2</title>
<path fill="none" stroke="black" d="M154,-1747.8C154,-1736.16 154,-1720.55 154,-1707.24"/>
<polygon fill="black" stroke="black" points="157.5,-1707.18 154,-1697.18 150.5,-1707.18 157.5,-1707.18"/>
<text text-anchor="middle" x="175.5" y="-1718.8" font-family="Times New Roman,serif" font-size="14.00">i5 = 33;</text>
</g>
<!-- N1 -->
<g id="node2" class="node"><title>N1</title>
<ellipse fill="none" stroke="black" cx="31" cy="-283" rx="27" ry="18"/>
<ellipse fill="none" stroke="black" cx="31" cy="-283" rx="31" ry="22"/>
<text text-anchor="middle" x="31" y="-279.3" font-family="Times New Roman,serif" font-size="14.00">final</text>
</g>
<!-- N3 -->
<g id="node4" class="node"><title>N3</title>
<ellipse fill="none" stroke="black" cx="154" cy="-1592" rx="27" ry="18"/>
<text text-anchor="middle" x="154" y="-1588.3" font-family="Times New Roman,serif" font-size="14.00">N2</text>
</g>
<!-- N2&#45;&gt;N3 -->
<g id="edge2" class="edge"><title>N2&#45;&gt;N3</title>
<path fill="none" stroke="black" d="M154,-1660.8C154,-1649.16 154,-1633.55 154,-1620.24"/>
<polygon fill="black" stroke="black" points="157.5,-1620.18 154,-1610.18 150.5,-1620.18 157.5,-1620.18"/>
<text text-anchor="middle" x="194.5" y="-1631.8" font-family="Times New Roman,serif" font-size="14.00">loc_SLL = r1;</text>
</g>
<!-- N4 -->
<g id="node5" class="node"><title>N4</title>
<ellipse fill="none" stroke="black" cx="154" cy="-1505" rx="27" ry="18"/>
<text text-anchor="middle" x="154" y="-1501.3" font-family="Times New Roman,serif" font-size="14.00">N3</text>
</g>
<!-- N3&#45;&gt;N4 -->
<g id="edge3" class="edge"><title>N3&#45;&gt;N4</title>
<path fill="none" stroke="black" d="M154,-1573.8C154,-1562.16 154,-1546.55 154,-1533.24"/>
<polygon fill="black" stroke="black" points="157.5,-1533.18 154,-1523.18 150.5,-1533.18 157.5,-1533.18"/>
<text text-anchor="middle" x="201" y="-1544.8" font-family="Times New Roman,serif" font-size="14.00">loc_SLL.d = 13;</text>
</g>
<!-- N5 -->
<g id="node6" class="node"><title>N5</title>
<ellipse fill="none" stroke="black" cx="154" cy="-1418" rx="27" ry="18"/>
<text text-anchor="middle" x="154" y="-1414.3" font-family="Times New Roman,serif" font-size="14.00">N4</text>
</g>
<!-- N4&#45;&gt;N5 -->
<g id="edge4" class="edge"><title>N4&#45;&gt;N5</title>
<path fill="none" stroke="black" d="M154,-1486.8C154,-1475.16 154,-1459.55 154,-1446.24"/>
<polygon fill="black" stroke="black" points="157.5,-1446.18 154,-1436.18 150.5,-1446.18 157.5,-1446.18"/>
<text text-anchor="middle" x="194.5" y="-1457.8" font-family="Times New Roman,serif" font-size="14.00">loc_SLL = r2;</text>
</g>
<!-- N6 -->
<g id="node7" class="node"><title>N6</title>
<ellipse fill="none" stroke="black" cx="154" cy="-1331" rx="27" ry="18"/>
<text text-anchor="middle" x="154" y="-1327.3" font-family="Times New Roman,serif" font-size="14.00">N5</text>
</g>
<!-- N5&#45;&gt;N6 -->
<g id="edge5" class="edge"><title>N5&#45;&gt;N6</title>
<path fill="none" stroke="black" d="M154,-1399.8C154,-1388.16 154,-1372.55 154,-1359.24"/>
<polygon fill="black" stroke="black" points="157.5,-1359.18 154,-1349.18 150.5,-1359.18 157.5,-1359.18"/>
<text text-anchor="middle" x="201" y="-1370.8" font-family="Times New Roman,serif" font-size="14.00">loc_SLL.d = 12;</text>
</g>
<!-- N7 -->
<g id="node8" class="node"><title>N7</title>
<ellipse fill="none" stroke="black" cx="154" cy="-1244" rx="27" ry="18"/>
<text text-anchor="middle" x="154" y="-1240.3" font-family="Times New Roman,serif" font-size="14.00">N6</text>
</g>
<!-- N6&#45;&gt;N7 -->
<g id="edge6" class="edge"><title>N6&#45;&gt;N7</title>
<path fill="none" stroke="black" d="M154,-1312.8C154,-1301.16 154,-1285.55 154,-1272.24"/>
<polygon fill="black" stroke="black" points="157.5,-1272.18 154,-1262.18 150.5,-1272.18 157.5,-1272.18"/>
<text text-anchor="middle" x="194.5" y="-1283.8" font-family="Times New Roman,serif" font-size="14.00">loc_SLL = r3;</text>
</g>
<!-- N8 -->
<g id="node9" class="node"><title>N8</title>
<ellipse fill="none" stroke="black" cx="154" cy="-1157" rx="27" ry="18"/>
<text text-anchor="middle" x="154" y="-1153.3" font-family="Times New Roman,serif" font-size="14.00">N7</text>
</g>
<!-- N7&#45;&gt;N8 -->
<g id="edge7" class="edge"><title>N7&#45;&gt;N8</title>
<path fill="none" stroke="black" d="M154,-1225.8C154,-1214.16 154,-1198.55 154,-1185.24"/>
<polygon fill="black" stroke="black" points="157.5,-1185.18 154,-1175.18 150.5,-1185.18 157.5,-1185.18"/>
<text text-anchor="middle" x="201" y="-1196.8" font-family="Times New Roman,serif" font-size="14.00">loc_SLL.d = 11;</text>
</g>
<!-- N9 -->
<g id="node10" class="node"><title>N9</title>
<ellipse fill="none" stroke="black" cx="154" cy="-1070" rx="27" ry="18"/>
<text text-anchor="middle" x="154" y="-1066.3" font-family="Times New Roman,serif" font-size="14.00">N8</text>
</g>
<!-- N8&#45;&gt;N9 -->
<g id="edge8" class="edge"><title>N8&#45;&gt;N9</title>
<path fill="none" stroke="black" d="M154,-1138.8C154,-1127.16 154,-1111.55 154,-1098.24"/>
<polygon fill="black" stroke="black" points="157.5,-1098.18 154,-1088.18 150.5,-1098.18 157.5,-1098.18"/>
<text text-anchor="middle" x="194.5" y="-1109.8" font-family="Times New Roman,serif" font-size="14.00">loc_SLL = r4;</text>
</g>
<!-- N10 -->
<g id="node11" class="node"><title>N10</title>
<ellipse fill="none" stroke="black" cx="154" cy="-983" rx="27" ry="18"/>
<text text-anchor="middle" x="154" y="-979.3" font-family="Times New Roman,serif" font-size="14.00">N9</text>
</g>
<!-- N9&#45;&gt;N10 -->
<g id="edge9" class="edge"><title>N9&#45;&gt;N10</title>
<path fill="none" stroke="black" d="M154,-1051.8C154,-1040.16 154,-1024.55 154,-1011.24"/>
<polygon fill="black" stroke="black" points="157.5,-1011.18 154,-1001.18 150.5,-1011.18 157.5,-1011.18"/>
<text text-anchor="middle" x="201" y="-1022.8" font-family="Times New Roman,serif" font-size="14.00">loc_SLL.d = 10;</text>
</g>
<!-- N11 -->
<g id="node12" class="node"><title>N11</title>
<ellipse fill="none" stroke="black" cx="154" cy="-896" rx="27" ry="18"/>
<text text-anchor="middle" x="154" y="-892.3" font-family="Times New Roman,serif" font-size="14.00">N10</text>
</g>
<!-- N10&#45;&gt;N11 -->
<g id="edge10" class="edge"><title>N10&#45;&gt;N11</title>
<path fill="none" stroke="black" d="M154,-964.799C154,-953.163 154,-937.548 154,-924.237"/>
<polygon fill="black" stroke="black" points="157.5,-924.175 154,-914.175 150.5,-924.175 157.5,-924.175"/>
<text text-anchor="middle" x="194.5" y="-935.8" font-family="Times New Roman,serif" font-size="14.00">loc_SLL = r1;</text>
</g>
<!-- N12 -->
<g id="node13" class="node"><title>N12</title>
<ellipse fill="none" stroke="black" cx="154" cy="-809" rx="27" ry="18"/>
<text text-anchor="middle" x="154" y="-805.3" font-family="Times New Roman,serif" font-size="14.00">N11</text>
</g>
<!-- N11&#45;&gt;N12 -->
<g id="edge11" class="edge"><title>N11&#45;&gt;N12</title>
<path fill="none" stroke="black" d="M154,-877.799C154,-866.163 154,-850.548 154,-837.237"/>
<polygon fill="black" stroke="black" points="157.5,-837.175 154,-827.175 150.5,-837.175 157.5,-837.175"/>
<text text-anchor="middle" x="198" y="-848.8" font-family="Times New Roman,serif" font-size="14.00">loc_SLL.l = r2;</text>
</g>
<!-- N13 -->
<g id="node14" class="node"><title>N13</title>
<ellipse fill="none" stroke="black" cx="154" cy="-722" rx="27" ry="18"/>
<text text-anchor="middle" x="154" y="-718.3" font-family="Times New Roman,serif" font-size="14.00">N12</text>
</g>
<!-- N12&#45;&gt;N13 -->
<g id="edge12" class="edge"><title>N12&#45;&gt;N13</title>
<path fill="none" stroke="black" d="M154,-790.799C154,-779.163 154,-763.548 154,-750.237"/>
<polygon fill="black" stroke="black" points="157.5,-750.175 154,-740.175 150.5,-750.175 157.5,-750.175"/>
<text text-anchor="middle" x="194.5" y="-761.8" font-family="Times New Roman,serif" font-size="14.00">loc_SLL = r2;</text>
</g>
<!-- N14 -->
<g id="node15" class="node"><title>N14</title>
<ellipse fill="none" stroke="black" cx="154" cy="-635" rx="27" ry="18"/>
<text text-anchor="middle" x="154" y="-631.3" font-family="Times New Roman,serif" font-size="14.00">N13</text>
</g>
<!-- N13&#45;&gt;N14 -->
<g id="edge13" class="edge"><title>N13&#45;&gt;N14</title>
<path fill="none" stroke="black" d="M154,-703.799C154,-692.163 154,-676.548 154,-663.237"/>
<polygon fill="black" stroke="black" points="157.5,-663.175 154,-653.175 150.5,-663.175 157.5,-663.175"/>
<text text-anchor="middle" x="198" y="-674.8" font-family="Times New Roman,serif" font-size="14.00">loc_SLL.l = r3;</text>
</g>
<!-- N15 -->
<g id="node16" class="node"><title>N15</title>
<ellipse fill="none" stroke="black" cx="154" cy="-548" rx="27" ry="18"/>
<text text-anchor="middle" x="154" y="-544.3" font-family="Times New Roman,serif" font-size="14.00">N14</text>
</g>
<!-- N14&#45;&gt;N15 -->
<g id="edge14" class="edge"><title>N14&#45;&gt;N15</title>
<path fill="none" stroke="black" d="M154,-616.799C154,-605.163 154,-589.548 154,-576.237"/>
<polygon fill="black" stroke="black" points="157.5,-576.175 154,-566.175 150.5,-576.175 157.5,-576.175"/>
<text text-anchor="middle" x="194.5" y="-587.8" font-family="Times New Roman,serif" font-size="14.00">loc_SLL = r3;</text>
</g>
<!-- N16 -->
<g id="node17" class="node"><title>N16</title>
<ellipse fill="none" stroke="black" cx="154" cy="-461" rx="27" ry="18"/>
<text text-anchor="middle" x="154" y="-457.3" font-family="Times New Roman,serif" font-size="14.00">N15</text>
</g>
<!-- N15&#45;&gt;N16 -->
<g id="edge15" class="edge"><title>N15&#45;&gt;N16</title>
<path fill="none" stroke="black" d="M154,-529.799C154,-518.163 154,-502.548 154,-489.237"/>
<polygon fill="black" stroke="black" points="157.5,-489.175 154,-479.175 150.5,-489.175 157.5,-489.175"/>
<text text-anchor="middle" x="198" y="-500.8" font-family="Times New Roman,serif" font-size="14.00">loc_SLL.l = r4;</text>
</g>
<!-- N20 -->
<g id="node21" class="node"><title>N20</title>
<ellipse fill="none" stroke="black" cx="154" cy="-374" rx="27" ry="18"/>
<text text-anchor="middle" x="154" y="-370.3" font-family="Times New Roman,serif" font-size="14.00">N21</text>
</g>
<!-- N16&#45;&gt;N20 -->
<g id="edge16" class="edge"><title>N16&#45;&gt;N20</title>
<path fill="none" stroke="black" d="M154,-442.799C154,-431.163 154,-415.548 154,-402.237"/>
<polygon fill="black" stroke="black" points="157.5,-402.175 154,-392.175 150.5,-402.175 157.5,-402.175"/>
<text text-anchor="middle" x="175.5" y="-413.8" font-family="Times New Roman,serif" font-size="14.00">r5 = r1;</text>
</g>
<!-- N17 -->
<g id="node18" class="node"><title>N17</title>
<ellipse fill="none" stroke="black" cx="107" cy="-283" rx="27" ry="18"/>
<text text-anchor="middle" x="107" y="-279.3" font-family="Times New Roman,serif" font-size="14.00">N17</text>
</g>
<!-- N18 -->
<g id="node19" class="node"><title>N18</title>
<ellipse fill="none" stroke="black" cx="97" cy="-192" rx="27" ry="18"/>
<text text-anchor="middle" x="97" y="-188.3" font-family="Times New Roman,serif" font-size="14.00">N18</text>
</g>
<!-- N17&#45;&gt;N18 -->
<g id="edge17" class="edge"><title>N17&#45;&gt;N18</title>
<path fill="none" stroke="black" d="M105.072,-264.84C103.647,-252.158 101.679,-234.64 100.042,-220.077"/>
<polygon fill="black" stroke="black" points="103.517,-219.654 98.9222,-210.107 96.5607,-220.436 103.517,-219.654"/>
<text text-anchor="middle" x="129" y="-231.8" font-family="Times New Roman,serif" font-size="14.00">i0 = r5.d;</text>
</g>
<!-- N19 -->
<g id="node20" class="node"><title>N19</title>
<ellipse fill="none" stroke="black" cx="91" cy="-105" rx="27" ry="18"/>
<text text-anchor="middle" x="91" y="-101.3" font-family="Times New Roman,serif" font-size="14.00">N19</text>
</g>
<!-- N18&#45;&gt;N19 -->
<g id="edge18" class="edge"><title>N18&#45;&gt;N19</title>
<path fill="none" stroke="black" d="M95.7858,-173.799C94.9644,-162.163 93.8622,-146.548 92.9226,-133.237"/>
<polygon fill="black" stroke="black" points="96.4079,-132.904 92.2124,-123.175 89.4253,-133.397 96.4079,-132.904"/>
<text text-anchor="middle" x="135.5" y="-144.8" font-family="Times New Roman,serif" font-size="14.00">loc_SLL = r5;</text>
</g>
<!-- N22 -->
<g id="node23" class="node"><title>N22</title>
<ellipse fill="none" stroke="black" cx="201" cy="-18" rx="27" ry="18"/>
<text text-anchor="middle" x="201" y="-14.3" font-family="Times New Roman,serif" font-size="14.00">N30</text>
</g>
<!-- N19&#45;&gt;N22 -->
<g id="edge19" class="edge"><title>N19&#45;&gt;N22</title>
<path fill="none" stroke="black" d="M93.4653,-86.7659C95.8114,-76.1059 100.337,-62.82 109,-54 123.921,-38.8083 146.113,-30.1134 164.963,-25.1899"/>
<polygon fill="black" stroke="black" points="165.81,-28.5861 174.741,-22.8849 164.204,-21.7728 165.81,-28.5861"/>
<text text-anchor="middle" x="153" y="-57.8" font-family="Times New Roman,serif" font-size="14.00">r5 = loc_SLL.l;</text>
</g>
<!-- N20&#45;&gt;N1 -->
<g id="edge21" class="edge"><title>N20&#45;&gt;N1</title>
<path fill="none" stroke="black" d="M127.88,-368.519C107.423,-363.868 79.2924,-354.825 60,-338 52.5202,-331.477 46.6414,-322.539 42.1897,-313.812"/>
<polygon fill="black" stroke="black" points="45.282,-312.16 37.9112,-304.55 38.9272,-315.096 45.282,-312.16"/>
<text text-anchor="middle" x="78.5" y="-326.8" font-family="Times New Roman,serif" font-size="14.00">return;</text>
</g>
<!-- N20&#45;&gt;N17 -->
<g id="edge22" class="edge"><title>N20&#45;&gt;N17</title>
<path fill="none" stroke="black" d="M131.891,-363.553C121.415,-357.813 109.921,-349.372 104,-338 99.7614,-329.859 99.1971,-320.062 100.119,-311.061"/>
<polygon fill="black" stroke="black" points="103.604,-311.438 101.753,-301.006 96.6943,-310.315 103.604,-311.438"/>
<text text-anchor="middle" x="139.5" y="-326.8" font-family="Times New Roman,serif" font-size="14.00">i5 = (i5 + 1);</text>
</g>
<!-- N23 -->
<g id="node24" class="node"><title>N23</title>
<ellipse fill="none" stroke="black" cx="201" cy="-283" rx="27" ry="18"/>
<text text-anchor="middle" x="201" y="-279.3" font-family="Times New Roman,serif" font-size="14.00">N32</text>
</g>
<!-- N20&#45;&gt;N23 -->
<g id="edge20" class="edge"><title>N20&#45;&gt;N23</title>
<path fill="none" stroke="black" d="M166.011,-357.83C170.424,-351.854 175.253,-344.802 179,-338 183.756,-329.368 188.076,-319.491 191.605,-310.565"/>
<polygon fill="black" stroke="black" points="194.956,-311.599 195.233,-301.008 188.411,-309.115 194.956,-311.599"/>
<text text-anchor="middle" x="221.5" y="-326.8" font-family="Times New Roman,serif" font-size="14.00">i5 = (i5 + 1);</text>
</g>
<!-- N21 -->
<g id="node22" class="node"><title>N21</title>
<ellipse fill="none" stroke="black" cx="201" cy="-192" rx="27" ry="18"/>
<text text-anchor="middle" x="201" y="-188.3" font-family="Times New Roman,serif" font-size="14.00">N28</text>
</g>
<!-- N24 -->
<g id="node25" class="node"><title>N24</title>
<ellipse fill="none" stroke="black" cx="201" cy="-105" rx="27" ry="18"/>
<text text-anchor="middle" x="201" y="-101.3" font-family="Times New Roman,serif" font-size="14.00">N34</text>
</g>
<!-- N21&#45;&gt;N24 -->
<g id="edge23" class="edge"><title>N21&#45;&gt;N24</title>
<path fill="none" stroke="black" d="M201,-173.799C201,-162.163 201,-146.548 201,-133.237"/>
<polygon fill="black" stroke="black" points="204.5,-133.175 201,-123.175 197.5,-133.175 204.5,-133.175"/>
<text text-anchor="middle" x="241.5" y="-144.8" font-family="Times New Roman,serif" font-size="14.00">loc_SLL = r5;</text>
</g>
<!-- N22&#45;&gt;N20 -->
<g id="edge24" class="edge"><title>N22&#45;&gt;N20</title>
<path fill="none" stroke="black" d="M227.176,-22.8686C247.089,-27.1562 273.752,-36.0103 290,-54 305.468,-71.1259 304,-80.9231 304,-104 304,-284 304,-284 304,-284 304,-336.673 234.743,-358.856 190.349,-367.665"/>
<polygon fill="black" stroke="black" points="189.67,-364.232 180.472,-369.489 190.941,-371.115 189.67,-364.232"/>
<text text-anchor="middle" x="342" y="-188.3" font-family="Times New Roman,serif" font-size="14.00">i4 = (i4 + &#45;1);</text>
</g>
<!-- N23&#45;&gt;N21 -->
<g id="edge25" class="edge"><title>N23&#45;&gt;N21</title>
<path fill="none" stroke="black" d="M201,-264.84C201,-252.281 201,-234.979 201,-220.502"/>
<polygon fill="black" stroke="black" points="204.5,-220.107 201,-210.107 197.5,-220.107 204.5,-220.107"/>
<text text-anchor="middle" x="227" y="-231.8" font-family="Times New Roman,serif" font-size="14.00">i0 = r5.d;</text>
</g>
<!-- N24&#45;&gt;N22 -->
<g id="edge26" class="edge"><title>N24&#45;&gt;N22</title>
<path fill="none" stroke="black" d="M201,-86.799C201,-75.1626 201,-59.5479 201,-46.2368"/>
<polygon fill="black" stroke="black" points="204.5,-46.1754 201,-36.1754 197.5,-46.1755 204.5,-46.1754"/>
<text text-anchor="middle" x="245" y="-57.8" font-family="Times New Roman,serif" font-size="14.00">r5 = loc_SLL.l;</text>
</g>
</g>
</svg>
