<?xml version="1.0" encoding="UTF-8" standalone="no"?>
<!DOCTYPE svg PUBLIC "-//W3C//DTD SVG 1.1//EN"
 "http://www.w3.org/Graphics/SVG/1.1/DTD/svg11.dtd">
<!-- Generated by graphviz version 2.38.0 (20140413.2041)
 -->
<!-- Title: anonymous_graph Pages: 1 -->
<svg width="350pt" height="1156pt"
 viewBox="0.00 0.00 350.25 1156.00" xmlns="http://www.w3.org/2000/svg" xmlns:xlink="http://www.w3.org/1999/xlink">
<g id="graph0" class="graph" transform="scale(1 1) rotate(0) translate(4 1152)">
<title>anonymous_graph</title>
<polygon fill="white" stroke="none" points="-4,4 -4,-1152 346.247,-1152 346.247,4 -4,4"/>
<!-- N0 -->
<g id="node1" class="node"><title>N0</title>
<ellipse fill="none" stroke="black" cx="29.2474" cy="-1130" rx="29.4969" ry="18"/>
<text text-anchor="middle" x="29.2474" y="-1126.3" font-family="Times New Roman,serif" font-size="14.00">initial</text>
</g>
<!-- N7 -->
<g id="node8" class="node"><title>N7</title>
<ellipse fill="none" stroke="black" cx="29.2474" cy="-1043" rx="27" ry="18"/>
<text text-anchor="middle" x="29.2474" y="-1039.3" font-family="Times New Roman,serif" font-size="14.00">N9</text>
</g>
<!-- N0&#45;&gt;N7 -->
<g id="edge1" class="edge"><title>N0&#45;&gt;N7</title>
<path fill="none" stroke="black" d="M29.2474,-1111.8C29.2474,-1100.16 29.2474,-1084.55 29.2474,-1071.24"/>
<polygon fill="black" stroke="black" points="32.7475,-1071.18 29.2474,-1061.18 25.7475,-1071.18 32.7475,-1071.18"/>
<text text-anchor="middle" x="50.7474" y="-1082.8" font-family="Times New Roman,serif" font-size="14.00">i5 = 33;</text>
</g>
<!-- N1 -->
<g id="node2" class="node"><title>N1</title>
<ellipse fill="none" stroke="black" cx="103.247" cy="-283" rx="27" ry="18"/>
<ellipse fill="none" stroke="black" cx="103.247" cy="-283" rx="31" ry="22"/>
<text text-anchor="middle" x="103.247" y="-279.3" font-family="Times New Roman,serif" font-size="14.00">final</text>
</g>
<!-- N2 -->
<g id="node3" class="node"><title>N2</title>
<ellipse fill="none" stroke="black" cx="62.2474" cy="-956" rx="27" ry="18"/>
<text text-anchor="middle" x="62.2474" y="-952.3" font-family="Times New Roman,serif" font-size="14.00">N2</text>
</g>
<!-- N8 -->
<g id="node9" class="node"><title>N8</title>
<ellipse fill="none" stroke="black" cx="157.247" cy="-854" rx="27" ry="18"/>
<text text-anchor="middle" x="157.247" y="-850.3" font-family="Times New Roman,serif" font-size="14.00">N11</text>
</g>
<!-- N2&#45;&gt;N8 -->
<g id="edge2" class="edge"><title>N2&#45;&gt;N8</title>
<path fill="none" stroke="black" d="M53.7332,-938.783C47.6001,-924.621 42.0332,-904.171 52.2474,-890 67.6131,-868.681 96.5279,-860.152 120.13,-856.831"/>
<polygon fill="black" stroke="black" points="120.663,-860.293 130.198,-855.674 119.864,-853.339 120.663,-860.293"/>
<text text-anchor="middle" x="99.2474" y="-908.8" font-family="Times New Roman,serif" font-size="14.00">r1.d &lt; i4/</text>
<text text-anchor="middle" x="99.2474" y="-893.8" font-family="Times New Roman,serif" font-size="14.00">loc_SLL.d = 13;</text>
</g>
<!-- N2&#45;&gt;N8 -->
<g id="edge3" class="edge"><title>N2&#45;&gt;N8</title>
<path fill="none" stroke="black" d="M88.2825,-950.989C107.279,-946.655 132.087,-937.806 146.247,-920 154.651,-909.432 157.646,-894.801 158.432,-882.096"/>
<polygon fill="black" stroke="black" points="161.933,-882.079 158.643,-872.008 154.934,-881.932 161.933,-882.079"/>
<text text-anchor="middle" x="201.247" y="-908.8" font-family="Times New Roman,serif" font-size="14.00">!(r1.d &lt; i4)/</text>
<text text-anchor="middle" x="201.247" y="-893.8" font-family="Times New Roman,serif" font-size="14.00">loc_SLL.l = r2;</text>
</g>
<!-- N3 -->
<g id="node4" class="node"><title>N3</title>
<ellipse fill="none" stroke="black" cx="157.247" cy="-665" rx="27" ry="18"/>
<text text-anchor="middle" x="157.247" y="-661.3" font-family="Times New Roman,serif" font-size="14.00">N5</text>
</g>
<!-- N4 -->
<g id="node5" class="node"><title>N4</title>
<ellipse fill="none" stroke="black" cx="157.247" cy="-578" rx="27" ry="18"/>
<text text-anchor="middle" x="157.247" y="-574.3" font-family="Times New Roman,serif" font-size="14.00">N6</text>
</g>
<!-- N3&#45;&gt;N4 -->
<g id="edge4" class="edge"><title>N3&#45;&gt;N4</title>
<path fill="none" stroke="black" d="M157.247,-646.799C157.247,-635.163 157.247,-619.548 157.247,-606.237"/>
<polygon fill="black" stroke="black" points="160.748,-606.175 157.247,-596.175 153.748,-606.175 160.748,-606.175"/>
<text text-anchor="middle" x="197.747" y="-617.8" font-family="Times New Roman,serif" font-size="14.00">loc_SLL = r3;</text>
</g>
<!-- N5 -->
<g id="node6" class="node"><title>N5</title>
<ellipse fill="none" stroke="black" cx="62.2474" cy="-476" rx="27" ry="18"/>
<text text-anchor="middle" x="62.2474" y="-472.3" font-family="Times New Roman,serif" font-size="14.00">N7</text>
</g>
<!-- N4&#45;&gt;N5 -->
<g id="edge5" class="edge"><title>N4&#45;&gt;N5</title>
<path fill="none" stroke="black" d="M130.659,-574.429C109.539,-570.861 81.158,-562.341 66.2474,-542 58.3622,-531.243 56.8949,-516.597 57.6049,-503.931"/>
<polygon fill="black" stroke="black" points="61.0968,-504.187 58.6204,-493.885 54.1323,-503.483 61.0968,-504.187"/>
<text text-anchor="middle" x="113.247" y="-530.8" font-family="Times New Roman,serif" font-size="14.00">r3.d &lt; 10/</text>
<text text-anchor="middle" x="113.247" y="-515.8" font-family="Times New Roman,serif" font-size="14.00">loc_SLL.d = 11;</text>
</g>
<!-- N10 -->
<g id="node11" class="node"><title>N10</title>
<ellipse fill="none" stroke="black" cx="179.247" cy="-476" rx="27" ry="18"/>
<text text-anchor="middle" x="179.247" y="-472.3" font-family="Times New Roman,serif" font-size="14.00">N15</text>
</g>
<!-- N4&#45;&gt;N10 -->
<g id="edge6" class="edge"><title>N4&#45;&gt;N10</title>
<path fill="none" stroke="black" d="M160.979,-560.036C164.361,-544.665 169.402,-521.752 173.332,-503.887"/>
<polygon fill="black" stroke="black" points="176.767,-504.565 175.497,-494.047 169.93,-503.061 176.767,-504.565"/>
<text text-anchor="middle" x="215.247" y="-530.8" font-family="Times New Roman,serif" font-size="14.00">!(r3.d &lt; 10)/</text>
<text text-anchor="middle" x="215.247" y="-515.8" font-family="Times New Roman,serif" font-size="14.00">loc_SLL.l = r4;</text>
</g>
<!-- N6 -->
<g id="node7" class="node"><title>N6</title>
<ellipse fill="none" stroke="black" cx="29.2474" cy="-389" rx="27" ry="18"/>
<text text-anchor="middle" x="29.2474" y="-385.3" font-family="Times New Roman,serif" font-size="14.00">N8</text>
</g>
<!-- N5&#45;&gt;N6 -->
<g id="edge7" class="edge"><title>N5&#45;&gt;N6</title>
<path fill="none" stroke="black" d="M55.7277,-458.207C51.0723,-446.216 44.719,-429.851 39.4025,-416.157"/>
<polygon fill="black" stroke="black" points="42.6356,-414.814 35.7536,-406.758 36.1101,-417.347 42.6356,-414.814"/>
<text text-anchor="middle" x="88.7474" y="-428.8" font-family="Times New Roman,serif" font-size="14.00">loc_SLL = r4;</text>
</g>
<!-- N6&#45;&gt;N7 -->
<g id="edge8" class="edge"><title>N6&#45;&gt;N7</title>
<path fill="none" stroke="black" d="M22.2865,-406.605C15.8412,-423.505 7.2474,-450.611 7.2474,-475 7.2474,-957 7.2474,-957 7.2474,-957 7.2474,-977.197 13.1409,-999.258 18.8272,-1015.84"/>
<polygon fill="black" stroke="black" points="15.5907,-1017.18 22.2865,-1025.39 22.1725,-1014.8 15.5907,-1017.18"/>
<text text-anchor="middle" x="54.2474" y="-712.3" font-family="Times New Roman,serif" font-size="14.00">loc_SLL.d = 10;</text>
</g>
<!-- N7&#45;&gt;N2 -->
<g id="edge9" class="edge"><title>N7&#45;&gt;N2</title>
<path fill="none" stroke="black" d="M35.7671,-1025.21C40.4225,-1013.22 46.7758,-996.851 52.0923,-983.157"/>
<polygon fill="black" stroke="black" points="55.3847,-984.347 55.7412,-973.758 48.8592,-981.814 55.3847,-984.347"/>
<text text-anchor="middle" x="88.7474" y="-995.8" font-family="Times New Roman,serif" font-size="14.00">loc_SLL = r1;</text>
</g>
<!-- N9 -->
<g id="node10" class="node"><title>N9</title>
<ellipse fill="none" stroke="black" cx="157.247" cy="-767" rx="27" ry="18"/>
<text text-anchor="middle" x="157.247" y="-763.3" font-family="Times New Roman,serif" font-size="14.00">N12</text>
</g>
<!-- N8&#45;&gt;N9 -->
<g id="edge10" class="edge"><title>N8&#45;&gt;N9</title>
<path fill="none" stroke="black" d="M157.247,-835.799C157.247,-824.163 157.247,-808.548 157.247,-795.237"/>
<polygon fill="black" stroke="black" points="160.748,-795.175 157.247,-785.175 153.748,-795.175 160.748,-795.175"/>
<text text-anchor="middle" x="197.747" y="-806.8" font-family="Times New Roman,serif" font-size="14.00">loc_SLL = r2;</text>
</g>
<!-- N9&#45;&gt;N3 -->
<g id="edge11" class="edge"><title>N9&#45;&gt;N3</title>
<path fill="none" stroke="black" d="M145.464,-750.457C141.757,-744.664 138.139,-737.829 136.247,-731 132.688,-718.15 132.688,-713.85 136.247,-701 137.252,-697.372 138.744,-693.743 140.478,-690.268"/>
<polygon fill="black" stroke="black" points="143.542,-691.962 145.464,-681.543 137.464,-688.489 143.542,-691.962"/>
<text text-anchor="middle" x="183.247" y="-719.8" font-family="Times New Roman,serif" font-size="14.00">!(i4 &lt; r2.d)/</text>
<text text-anchor="middle" x="183.247" y="-704.8" font-family="Times New Roman,serif" font-size="14.00">loc_SLL.d = 12;</text>
</g>
<!-- N9&#45;&gt;N3 -->
<g id="edge12" class="edge"><title>N9&#45;&gt;N3</title>
<path fill="none" stroke="black" d="M182.892,-761.009C199.508,-756.302 219.914,-747.414 230.247,-731 237.351,-719.716 237.351,-712.284 230.247,-701 221.852,-687.664 206.806,-679.295 192.547,-674.102"/>
<polygon fill="black" stroke="black" points="193.484,-670.726 182.892,-670.991 191.337,-677.389 193.484,-670.726"/>
<text text-anchor="middle" x="279.247" y="-719.8" font-family="Times New Roman,serif" font-size="14.00">i4 &lt; r2.d/</text>
<text text-anchor="middle" x="279.247" y="-704.8" font-family="Times New Roman,serif" font-size="14.00">loc_SLL.l = r3;</text>
</g>
<!-- N11 -->
<g id="node12" class="node"><title>N11</title>
<ellipse fill="none" stroke="black" cx="179.247" cy="-389" rx="27" ry="18"/>
<text text-anchor="middle" x="179.247" y="-385.3" font-family="Times New Roman,serif" font-size="14.00">N21</text>
</g>
<!-- N10&#45;&gt;N11 -->
<g id="edge13" class="edge"><title>N10&#45;&gt;N11</title>
<path fill="none" stroke="black" d="M179.247,-457.799C179.247,-446.163 179.247,-430.548 179.247,-417.237"/>
<polygon fill="black" stroke="black" points="182.748,-417.175 179.247,-407.175 175.748,-417.175 182.748,-417.175"/>
<text text-anchor="middle" x="200.747" y="-428.8" font-family="Times New Roman,serif" font-size="14.00">r5 = r1;</text>
</g>
<!-- N11&#45;&gt;N1 -->
<g id="edge15" class="edge"><title>N11&#45;&gt;N1</title>
<path fill="none" stroke="black" d="M156.772,-378.726C145.225,-372.908 131.819,-364.342 123.247,-353 115.023,-342.117 110.175,-327.938 107.32,-315.266"/>
<polygon fill="black" stroke="black" points="110.687,-314.24 105.361,-305.082 103.813,-315.563 110.687,-314.24"/>
<text text-anchor="middle" x="149.247" y="-341.8" font-family="Times New Roman,serif" font-size="14.00">i0 == 10/</text>
<text text-anchor="middle" x="149.247" y="-326.8" font-family="Times New Roman,serif" font-size="14.00">return;</text>
</g>
<!-- N14 -->
<g id="node15" class="node"><title>N14</title>
<ellipse fill="none" stroke="black" cx="179.247" cy="-283" rx="27" ry="18"/>
<text text-anchor="middle" x="179.247" y="-279.3" font-family="Times New Roman,serif" font-size="14.00">N32</text>
</g>
<!-- N11&#45;&gt;N14 -->
<g id="edge14" class="edge"><title>N11&#45;&gt;N14</title>
<path fill="none" stroke="black" d="M179.247,-370.827C179.247,-354.643 179.247,-330.131 179.247,-311.273"/>
<polygon fill="black" stroke="black" points="182.748,-311.199 179.247,-301.199 175.748,-311.199 182.748,-311.199"/>
<text text-anchor="middle" x="214.747" y="-341.8" font-family="Times New Roman,serif" font-size="14.00">!(i0 == 10)/</text>
<text text-anchor="middle" x="214.747" y="-326.8" font-family="Times New Roman,serif" font-size="14.00">i5 = (i5 + 1);</text>
</g>
<!-- N12 -->
<g id="node13" class="node"><title>N12</title>
<ellipse fill="none" stroke="black" cx="167.247" cy="-192" rx="27" ry="18"/>
<text text-anchor="middle" x="167.247" y="-188.3" font-family="Times New Roman,serif" font-size="14.00">N28</text>
</g>
<!-- N15 -->
<g id="node16" class="node"><title>N15</title>
<ellipse fill="none" stroke="black" cx="164.247" cy="-105" rx="27" ry="18"/>
<text text-anchor="middle" x="164.247" y="-101.3" font-family="Times New Roman,serif" font-size="14.00">N34</text>
</g>
<!-- N12&#45;&gt;N15 -->
<g id="edge16" class="edge"><title>N12&#45;&gt;N15</title>
<path fill="none" stroke="black" d="M166.64,-173.799C166.23,-162.163 165.679,-146.548 165.209,-133.237"/>
<polygon fill="black" stroke="black" points="168.704,-133.046 164.854,-123.175 161.709,-133.293 168.704,-133.046"/>
<text text-anchor="middle" x="205.747" y="-144.8" font-family="Times New Roman,serif" font-size="14.00">loc_SLL = r5;</text>
</g>
<!-- N13 -->
<g id="node14" class="node"><title>N13</title>
<ellipse fill="none" stroke="black" cx="214.247" cy="-18" rx="27" ry="18"/>
<text text-anchor="middle" x="214.247" y="-14.3" font-family="Times New Roman,serif" font-size="14.00">N30</text>
</g>
<!-- N13&#45;&gt;N11 -->
<g id="edge17" class="edge"><title>N13&#45;&gt;N11</title>
<path fill="none" stroke="black" d="M232.199,-31.9585C239.352,-37.9425 247.093,-45.5876 252.247,-54 264.304,-73.6768 266.247,-80.9231 266.247,-104 266.247,-284 266.247,-284 266.247,-284 266.247,-315.292 271.481,-328.317 252.247,-353 242.793,-365.133 228.081,-373.288 214.335,-378.65"/>
<polygon fill="black" stroke="black" points="212.859,-375.459 204.585,-382.077 215.18,-382.063 212.859,-375.459"/>
<text text-anchor="middle" x="304.247" y="-188.3" font-family="Times New Roman,serif" font-size="14.00">i4 = (i4 + &#45;1);</text>
</g>
<!-- N14&#45;&gt;N12 -->
<g id="edge18" class="edge"><title>N14&#45;&gt;N12</title>
<path fill="none" stroke="black" d="M176.934,-264.84C175.224,-252.158 172.862,-234.64 170.898,-220.077"/>
<polygon fill="black" stroke="black" points="174.359,-219.55 169.554,-210.107 167.422,-220.485 174.359,-219.55"/>
<text text-anchor="middle" x="199.247" y="-231.8" font-family="Times New Roman,serif" font-size="14.00">i0 = r5.d;</text>
</g>
<!-- N15&#45;&gt;N13 -->
<g id="edge19" class="edge"><title>N15&#45;&gt;N13</title>
<path fill="none" stroke="black" d="M160.46,-86.8601C159.117,-76.7466 159.036,-64.0093 164.247,-54 168.503,-45.8263 175.638,-39.1668 183.204,-33.936"/>
<polygon fill="black" stroke="black" points="185.45,-36.6639 192.138,-28.4467 181.786,-30.6997 185.45,-36.6639"/>
<text text-anchor="middle" x="208.247" y="-57.8" font-family="Times New Roman,serif" font-size="14.00">r5 = loc_SLL.l;</text>
</g>
</g>
</svg>
