<?xml version="1.0" encoding="UTF-8" standalone="no"?>
<!DOCTYPE svg PUBLIC "-//W3C//DTD SVG 1.1//EN"
 "http://www.w3.org/Graphics/SVG/1.1/DTD/svg11.dtd">
<!-- Generated by graphviz version 2.38.0 (20140413.2041)
 -->
<!-- Title: anonymous_graph Pages: 1 -->
<svg width="277pt" height="673pt"
 viewBox="0.00 0.00 277.46 673.00" xmlns="http://www.w3.org/2000/svg" xmlns:xlink="http://www.w3.org/1999/xlink">
<g id="graph0" class="graph" transform="scale(1 1) rotate(0) translate(4 669)">
<title>anonymous_graph</title>
<polygon fill="white" stroke="none" points="-4,4 -4,-669 273.459,-669 273.459,4 -4,4"/>
<!-- N0 -->
<g id="node1" class="node"><title>N0</title>
<ellipse fill="none" stroke="black" cx="103.459" cy="-647" rx="29.4969" ry="18"/>
<text text-anchor="middle" x="103.459" y="-643.3" font-family="Times New Roman,serif" font-size="14.00">initial</text>
</g>
<!-- N3 -->
<g id="node4" class="node"><title>N3</title>
<ellipse fill="none" stroke="black" cx="103.459" cy="-560" rx="27" ry="18"/>
<text text-anchor="middle" x="103.459" y="-556.3" font-family="Times New Roman,serif" font-size="14.00">N9</text>
</g>
<!-- N0&#45;&gt;N3 -->
<g id="edge1" class="edge"><title>N0&#45;&gt;N3</title>
<path fill="none" stroke="black" d="M103.459,-628.799C103.459,-617.163 103.459,-601.548 103.459,-588.237"/>
<polygon fill="black" stroke="black" points="106.959,-588.175 103.459,-578.175 99.9591,-588.175 106.959,-588.175"/>
<text text-anchor="middle" x="124.959" y="-599.8" font-family="Times New Roman,serif" font-size="14.00">i5 = 33;</text>
</g>
<!-- N1 -->
<g id="node2" class="node"><title>N1</title>
<ellipse fill="none" stroke="black" cx="103.459" cy="-22" rx="27" ry="18"/>
<ellipse fill="none" stroke="black" cx="103.459" cy="-22" rx="31" ry="22"/>
<text text-anchor="middle" x="103.459" y="-18.3" font-family="Times New Roman,serif" font-size="14.00">final</text>
</g>
<!-- N2 -->
<g id="node3" class="node"><title>N2</title>
<ellipse fill="none" stroke="black" cx="103.459" cy="-263" rx="27" ry="18"/>
<text text-anchor="middle" x="103.459" y="-259.3" font-family="Times New Roman,serif" font-size="14.00">N6</text>
</g>
<!-- N2&#45;&gt;N1 -->
<g id="edge2" class="edge"><title>N2&#45;&gt;N1</title>
<path fill="none" stroke="black" d="M103.459,-244.812C103.459,-204.842 103.459,-105.178 103.459,-54.1615"/>
<polygon fill="black" stroke="black" points="106.959,-54.0524 103.459,-44.0525 99.9591,-54.0525 106.959,-54.0524"/>
<text text-anchor="middle" x="159.959" y="-215.8" font-family="Times New Roman,serif" font-size="14.00">!(r3.d &lt; 10)/</text>
<text text-anchor="middle" x="159.959" y="-200.8" font-family="Times New Roman,serif" font-size="14.00">loc_SLL.l = r4;</text>
<text text-anchor="middle" x="159.959" y="-185.8" font-family="Times New Roman,serif" font-size="14.00">r5 = r1;</text>
<text text-anchor="middle" x="159.959" y="-170.8" font-family="Times New Roman,serif" font-size="14.00">while (!(i0 == 10)) {</text>
<text text-anchor="middle" x="159.959" y="-155.8" font-family="Times New Roman,serif" font-size="14.00"> &#160;i5 = (i5 + 1);</text>
<text text-anchor="middle" x="159.959" y="-140.8" font-family="Times New Roman,serif" font-size="14.00"> &#160;i0 = r5.d;</text>
<text text-anchor="middle" x="159.959" y="-125.8" font-family="Times New Roman,serif" font-size="14.00"> &#160;loc_SLL = r5;</text>
<text text-anchor="middle" x="159.959" y="-110.8" font-family="Times New Roman,serif" font-size="14.00"> &#160;r5 = loc_SLL.l;</text>
<text text-anchor="middle" x="159.959" y="-95.8" font-family="Times New Roman,serif" font-size="14.00"> &#160;i4 = (i4 + &#45;1);</text>
<text text-anchor="middle" x="159.959" y="-80.8" font-family="Times New Roman,serif" font-size="14.00">}</text>
<text text-anchor="middle" x="159.959" y="-65.8" font-family="Times New Roman,serif" font-size="14.00">return;</text>
</g>
<!-- N2&#45;&gt;N3 -->
<g id="edge3" class="edge"><title>N2&#45;&gt;N3</title>
<path fill="none" stroke="black" d="M123.185,-275.417C131.372,-281.311 139.991,-289.311 144.459,-299 186.336,-389.809 186.336,-433.191 144.459,-524 141.457,-530.51 136.581,-536.257 131.222,-541.116"/>
<polygon fill="black" stroke="black" points="128.781,-538.587 123.185,-547.583 133.17,-544.04 128.781,-538.587"/>
<text text-anchor="middle" x="222.459" y="-430.3" font-family="Times New Roman,serif" font-size="14.00">r3.d &lt; 10/</text>
<text text-anchor="middle" x="222.459" y="-415.3" font-family="Times New Roman,serif" font-size="14.00">loc_SLL.d = 11;</text>
<text text-anchor="middle" x="222.459" y="-400.3" font-family="Times New Roman,serif" font-size="14.00">loc_SLL = r4;</text>
<text text-anchor="middle" x="222.459" y="-385.3" font-family="Times New Roman,serif" font-size="14.00">loc_SLL.d = 10;</text>
</g>
<!-- N3&#45;&gt;N2 -->
<g id="edge4" class="edge"><title>N3&#45;&gt;N2</title>
<path fill="none" stroke="black" d="M78.5881,-552.543C64.1447,-547.376 47.1343,-538.524 38.459,-524 -12.8197,-438.148 -12.8197,-384.852 38.459,-299 45.3044,-287.539 57.3393,-279.611 69.2078,-274.237"/>
<polygon fill="black" stroke="black" points="70.6213,-277.441 78.5881,-270.457 68.0047,-270.949 70.6213,-277.441"/>
<text text-anchor="middle" x="89.459" y="-512.8" font-family="Times New Roman,serif" font-size="14.00">loc_SLL = r1;</text>
<text text-anchor="middle" x="89.459" y="-497.8" font-family="Times New Roman,serif" font-size="14.00">if (r1.d &lt; i4) {</text>
<text text-anchor="middle" x="89.459" y="-482.8" font-family="Times New Roman,serif" font-size="14.00"> &#160;loc_SLL.d = 13;</text>
<text text-anchor="middle" x="89.459" y="-467.8" font-family="Times New Roman,serif" font-size="14.00">}</text>
<text text-anchor="middle" x="89.459" y="-452.8" font-family="Times New Roman,serif" font-size="14.00">else {</text>
<text text-anchor="middle" x="89.459" y="-437.8" font-family="Times New Roman,serif" font-size="14.00"> &#160;loc_SLL.l = r2;</text>
<text text-anchor="middle" x="89.459" y="-422.8" font-family="Times New Roman,serif" font-size="14.00">}</text>
<text text-anchor="middle" x="89.459" y="-407.8" font-family="Times New Roman,serif" font-size="14.00">loc_SLL = r2;</text>
<text text-anchor="middle" x="89.459" y="-392.8" font-family="Times New Roman,serif" font-size="14.00">if (!(i4 &lt; r2.d)) {</text>
<text text-anchor="middle" x="89.459" y="-377.8" font-family="Times New Roman,serif" font-size="14.00"> &#160;loc_SLL.d = 12;</text>
<text text-anchor="middle" x="89.459" y="-362.8" font-family="Times New Roman,serif" font-size="14.00">}</text>
<text text-anchor="middle" x="89.459" y="-347.8" font-family="Times New Roman,serif" font-size="14.00">else {</text>
<text text-anchor="middle" x="89.459" y="-332.8" font-family="Times New Roman,serif" font-size="14.00"> &#160;loc_SLL.l = r3;</text>
<text text-anchor="middle" x="89.459" y="-317.8" font-family="Times New Roman,serif" font-size="14.00">}</text>
<text text-anchor="middle" x="89.459" y="-302.8" font-family="Times New Roman,serif" font-size="14.00">loc_SLL = r3;</text>
</g>
</g>
</svg>
