<?xml version="1.0" encoding="UTF-8" standalone="no"?>
<!DOCTYPE svg PUBLIC "-//W3C//DTD SVG 1.1//EN"
 "http://www.w3.org/Graphics/SVG/1.1/DTD/svg11.dtd">
<!-- Generated by graphviz version 2.38.0 (20140413.2041)
 -->
<!-- Title: anonymous_graph Pages: 1 -->
<svg width="425pt" height="1096pt"
 viewBox="0.00 0.00 425.25 1096.00" xmlns="http://www.w3.org/2000/svg" xmlns:xlink="http://www.w3.org/1999/xlink">
<g id="graph0" class="graph" transform="scale(1 1) rotate(0) translate(4 1092)">
<title>anonymous_graph</title>
<polygon fill="white" stroke="none" points="-4,4 -4,-1092 421.247,-1092 421.247,4 -4,4"/>
<!-- N0 -->
<g id="node1" class="node"><title>N0</title>
<ellipse fill="none" stroke="black" cx="29.2474" cy="-1070" rx="29.4969" ry="18"/>
<text text-anchor="middle" x="29.2474" y="-1066.3" font-family="Times New Roman,serif" font-size="14.00">initial</text>
</g>
<!-- N2 -->
<g id="node3" class="node"><title>N2</title>
<ellipse fill="none" stroke="black" cx="29.2474" cy="-983" rx="27" ry="18"/>
<text text-anchor="middle" x="29.2474" y="-979.3" font-family="Times New Roman,serif" font-size="14.00">N1</text>
</g>
<!-- N0&#45;&gt;N2 -->
<g id="edge1" class="edge"><title>N0&#45;&gt;N2</title>
<path fill="none" stroke="black" d="M29.2474,-1051.8C29.2474,-1040.16 29.2474,-1024.55 29.2474,-1011.24"/>
<polygon fill="black" stroke="black" points="32.7475,-1011.18 29.2474,-1001.18 25.7475,-1011.18 32.7475,-1011.18"/>
<text text-anchor="middle" x="50.7474" y="-1022.8" font-family="Times New Roman,serif" font-size="14.00">i5 = 33;</text>
</g>
<!-- N1 -->
<g id="node2" class="node"><title>N1</title>
<ellipse fill="none" stroke="black" cx="175.247" cy="-283" rx="27" ry="18"/>
<ellipse fill="none" stroke="black" cx="175.247" cy="-283" rx="31" ry="22"/>
<text text-anchor="middle" x="175.247" y="-279.3" font-family="Times New Roman,serif" font-size="14.00">final</text>
</g>
<!-- N3 -->
<g id="node4" class="node"><title>N3</title>
<ellipse fill="none" stroke="black" cx="29.2474" cy="-896" rx="27" ry="18"/>
<text text-anchor="middle" x="29.2474" y="-892.3" font-family="Times New Roman,serif" font-size="14.00">N2</text>
</g>
<!-- N2&#45;&gt;N3 -->
<g id="edge2" class="edge"><title>N2&#45;&gt;N3</title>
<path fill="none" stroke="black" d="M29.2474,-964.799C29.2474,-953.163 29.2474,-937.548 29.2474,-924.237"/>
<polygon fill="black" stroke="black" points="32.7475,-924.175 29.2474,-914.175 25.7475,-924.175 32.7475,-924.175"/>
<text text-anchor="middle" x="69.7474" y="-935.8" font-family="Times New Roman,serif" font-size="14.00">loc_SLL = r1;</text>
</g>
<!-- N10 -->
<g id="node11" class="node"><title>N10</title>
<ellipse fill="none" stroke="black" cx="29.2474" cy="-809" rx="27" ry="18"/>
<text text-anchor="middle" x="29.2474" y="-805.3" font-family="Times New Roman,serif" font-size="14.00">N11</text>
</g>
<!-- N3&#45;&gt;N10 -->
<g id="edge3" class="edge"><title>N3&#45;&gt;N10</title>
<path fill="none" stroke="black" d="M29.2474,-877.799C29.2474,-866.163 29.2474,-850.548 29.2474,-837.237"/>
<polygon fill="black" stroke="black" points="32.7475,-837.175 29.2474,-827.175 25.7475,-837.175 32.7475,-837.175"/>
<text text-anchor="middle" x="76.2474" y="-848.8" font-family="Times New Roman,serif" font-size="14.00">loc_SLL.d = 13;</text>
</g>
<!-- N4 -->
<g id="node5" class="node"><title>N4</title>
<ellipse fill="none" stroke="black" cx="150.247" cy="-635" rx="27" ry="18"/>
<text text-anchor="middle" x="150.247" y="-631.3" font-family="Times New Roman,serif" font-size="14.00">N5</text>
</g>
<!-- N5 -->
<g id="node6" class="node"><title>N5</title>
<ellipse fill="none" stroke="black" cx="150.247" cy="-548" rx="27" ry="18"/>
<text text-anchor="middle" x="150.247" y="-544.3" font-family="Times New Roman,serif" font-size="14.00">N6</text>
</g>
<!-- N4&#45;&gt;N5 -->
<g id="edge4" class="edge"><title>N4&#45;&gt;N5</title>
<path fill="none" stroke="black" d="M150.247,-616.799C150.247,-605.163 150.247,-589.548 150.247,-576.237"/>
<polygon fill="black" stroke="black" points="153.748,-576.175 150.247,-566.175 146.748,-576.175 153.748,-576.175"/>
<text text-anchor="middle" x="190.747" y="-587.8" font-family="Times New Roman,serif" font-size="14.00">loc_SLL = r3;</text>
</g>
<!-- N6 -->
<g id="node7" class="node"><title>N6</title>
<ellipse fill="none" stroke="black" cx="114.247" cy="-461" rx="27" ry="18"/>
<text text-anchor="middle" x="114.247" y="-457.3" font-family="Times New Roman,serif" font-size="14.00">N7</text>
</g>
<!-- N5&#45;&gt;N6 -->
<g id="edge5" class="edge"><title>N5&#45;&gt;N6</title>
<path fill="none" stroke="black" d="M140.158,-530.986C136.734,-525.148 133.065,-518.406 130.247,-512 126.981,-504.575 124.052,-496.27 121.621,-488.593"/>
<polygon fill="black" stroke="black" points="124.963,-487.554 118.724,-478.991 118.261,-489.576 124.963,-487.554"/>
<text text-anchor="middle" x="177.247" y="-500.8" font-family="Times New Roman,serif" font-size="14.00">loc_SLL.d = 11;</text>
</g>
<!-- N12 -->
<g id="node13" class="node"><title>N12</title>
<ellipse fill="none" stroke="black" cx="246.247" cy="-461" rx="27" ry="18"/>
<text text-anchor="middle" x="246.247" y="-457.3" font-family="Times New Roman,serif" font-size="14.00">N15</text>
</g>
<!-- N5&#45;&gt;N12 -->
<g id="edge6" class="edge"><title>N5&#45;&gt;N12</title>
<path fill="none" stroke="black" d="M174.898,-540.27C190.726,-534.864 210.768,-525.852 224.247,-512 230.617,-505.454 235.308,-496.756 238.682,-488.452"/>
<polygon fill="black" stroke="black" points="241.977,-489.633 242.059,-479.038 235.388,-487.269 241.977,-489.633"/>
<text text-anchor="middle" x="278.247" y="-500.8" font-family="Times New Roman,serif" font-size="14.00">loc_SLL.l = r4;</text>
</g>
<!-- N7 -->
<g id="node8" class="node"><title>N7</title>
<ellipse fill="none" stroke="black" cx="92.2474" cy="-374" rx="27" ry="18"/>
<text text-anchor="middle" x="92.2474" y="-370.3" font-family="Times New Roman,serif" font-size="14.00">N8</text>
</g>
<!-- N6&#45;&gt;N7 -->
<g id="edge7" class="edge"><title>N6&#45;&gt;N7</title>
<path fill="none" stroke="black" d="M109.901,-443.207C106.847,-431.409 102.698,-415.378 99.1896,-401.822"/>
<polygon fill="black" stroke="black" points="102.554,-400.853 96.6602,-392.049 95.7776,-402.607 102.554,-400.853"/>
<text text-anchor="middle" x="144.747" y="-413.8" font-family="Times New Roman,serif" font-size="14.00">loc_SLL = r4;</text>
</g>
<!-- N8 -->
<g id="node9" class="node"><title>N8</title>
<ellipse fill="none" stroke="black" cx="62.2474" cy="-283" rx="27" ry="18"/>
<text text-anchor="middle" x="62.2474" y="-279.3" font-family="Times New Roman,serif" font-size="14.00">N9</text>
</g>
<!-- N7&#45;&gt;N8 -->
<g id="edge8" class="edge"><title>N7&#45;&gt;N8</title>
<path fill="none" stroke="black" d="M77.0423,-359.11C71.6286,-353.191 66.1566,-345.842 63.2474,-338 60.1407,-329.625 59.2077,-320.005 59.2608,-311.227"/>
<polygon fill="black" stroke="black" points="62.7644,-311.229 59.7349,-301.077 55.772,-310.902 62.7644,-311.229"/>
<text text-anchor="middle" x="110.247" y="-326.8" font-family="Times New Roman,serif" font-size="14.00">loc_SLL.d = 10;</text>
</g>
<!-- N9 -->
<g id="node10" class="node"><title>N9</title>
<ellipse fill="none" stroke="black" cx="29.2474" cy="-192" rx="27" ry="18"/>
<text text-anchor="middle" x="29.2474" y="-188.3" font-family="Times New Roman,serif" font-size="14.00">N10</text>
</g>
<!-- N8&#45;&gt;N9 -->
<g id="edge9" class="edge"><title>N8&#45;&gt;N9</title>
<path fill="none" stroke="black" d="M56.0404,-265.26C51.2467,-252.331 44.5232,-234.198 39.0108,-219.332"/>
<polygon fill="black" stroke="black" points="42.1849,-217.825 35.4266,-209.665 35.6216,-220.258 42.1849,-217.825"/>
<text text-anchor="middle" x="88.7474" y="-231.8" font-family="Times New Roman,serif" font-size="14.00">loc_SLL = r1;</text>
</g>
<!-- N9&#45;&gt;N10 -->
<g id="edge10" class="edge"><title>N9&#45;&gt;N10</title>
<path fill="none" stroke="black" d="M22.5271,-209.757C16.0573,-227.424 7.2474,-256.215 7.2474,-282 7.2474,-723 7.2474,-723 7.2474,-723 7.2474,-743.197 13.1409,-765.258 18.8272,-781.842"/>
<polygon fill="black" stroke="black" points="15.5907,-783.184 22.2865,-791.395 22.1725,-780.8 15.5907,-783.184"/>
<text text-anchor="middle" x="51.2474" y="-500.8" font-family="Times New Roman,serif" font-size="14.00">loc_SLL.l = r2;</text>
</g>
<!-- N11 -->
<g id="node12" class="node"><title>N11</title>
<ellipse fill="none" stroke="black" cx="62.2474" cy="-722" rx="27" ry="18"/>
<text text-anchor="middle" x="62.2474" y="-718.3" font-family="Times New Roman,serif" font-size="14.00">N12</text>
</g>
<!-- N10&#45;&gt;N11 -->
<g id="edge11" class="edge"><title>N10&#45;&gt;N11</title>
<path fill="none" stroke="black" d="M35.7671,-791.207C40.4225,-779.216 46.7758,-762.851 52.0923,-749.157"/>
<polygon fill="black" stroke="black" points="55.3847,-750.347 55.7412,-739.758 48.8592,-747.814 55.3847,-750.347"/>
<text text-anchor="middle" x="88.7474" y="-761.8" font-family="Times New Roman,serif" font-size="14.00">loc_SLL = r2;</text>
</g>
<!-- N11&#45;&gt;N4 -->
<g id="edge12" class="edge"><title>N11&#45;&gt;N4</title>
<path fill="none" stroke="black" d="M53.144,-704.828C48.5679,-694.337 45.3122,-680.841 52.2474,-671 65.9933,-651.494 91.6425,-642.8 113.253,-638.952"/>
<polygon fill="black" stroke="black" points="113.784,-642.412 123.153,-637.465 112.744,-635.489 113.784,-642.412"/>
<text text-anchor="middle" x="99.2474" y="-674.8" font-family="Times New Roman,serif" font-size="14.00">loc_SLL.d = 12;</text>
</g>
<!-- N11&#45;&gt;N4 -->
<g id="edge13" class="edge"><title>N11&#45;&gt;N4</title>
<path fill="none" stroke="black" d="M88.7391,-717.336C107.975,-713.183 132.883,-704.41 146.247,-686 150.943,-679.532 152.785,-671.275 153.218,-663.343"/>
<polygon fill="black" stroke="black" points="156.717,-663.237 153.094,-653.281 149.717,-663.323 156.717,-663.237"/>
<text text-anchor="middle" x="196.247" y="-674.8" font-family="Times New Roman,serif" font-size="14.00">loc_SLL.l = r3;</text>
</g>
<!-- N13 -->
<g id="node14" class="node"><title>N13</title>
<ellipse fill="none" stroke="black" cx="247.247" cy="-374" rx="27" ry="18"/>
<text text-anchor="middle" x="247.247" y="-370.3" font-family="Times New Roman,serif" font-size="14.00">N21</text>
</g>
<!-- N12&#45;&gt;N13 -->
<g id="edge14" class="edge"><title>N12&#45;&gt;N13</title>
<path fill="none" stroke="black" d="M246.45,-442.799C246.587,-431.163 246.77,-415.548 246.927,-402.237"/>
<polygon fill="black" stroke="black" points="250.427,-402.216 247.045,-392.175 243.428,-402.134 250.427,-402.216"/>
<text text-anchor="middle" x="267.747" y="-413.8" font-family="Times New Roman,serif" font-size="14.00">r5 = r1;</text>
</g>
<!-- N13&#45;&gt;N1 -->
<g id="edge16" class="edge"><title>N13&#45;&gt;N1</title>
<path fill="none" stroke="black" d="M229.788,-359.78C222.335,-353.641 213.853,-345.948 207.247,-338 200.904,-330.368 195.025,-321.333 190.082,-312.859"/>
<polygon fill="black" stroke="black" points="193.047,-310.992 185.108,-303.977 186.94,-314.412 193.047,-310.992"/>
<text text-anchor="middle" x="225.747" y="-326.8" font-family="Times New Roman,serif" font-size="14.00">return;</text>
</g>
<!-- N16 -->
<g id="node17" class="node"><title>N16</title>
<ellipse fill="none" stroke="black" cx="251.247" cy="-283" rx="27" ry="18"/>
<text text-anchor="middle" x="251.247" y="-279.3" font-family="Times New Roman,serif" font-size="14.00">N32</text>
</g>
<!-- N13&#45;&gt;N16 -->
<g id="edge15" class="edge"><title>N13&#45;&gt;N16</title>
<path fill="none" stroke="black" d="M248.019,-355.84C248.583,-343.281 249.361,-325.979 250.011,-311.502"/>
<polygon fill="black" stroke="black" points="253.526,-311.255 250.479,-301.107 246.533,-310.94 253.526,-311.255"/>
<text text-anchor="middle" x="284.747" y="-326.8" font-family="Times New Roman,serif" font-size="14.00">i5 = (i5 + 1);</text>
</g>
<!-- N14 -->
<g id="node15" class="node"><title>N14</title>
<ellipse fill="none" stroke="black" cx="243.247" cy="-192" rx="27" ry="18"/>
<text text-anchor="middle" x="243.247" y="-188.3" font-family="Times New Roman,serif" font-size="14.00">N28</text>
</g>
<!-- N17 -->
<g id="node18" class="node"><title>N17</title>
<ellipse fill="none" stroke="black" cx="239.247" cy="-105" rx="27" ry="18"/>
<text text-anchor="middle" x="239.247" y="-101.3" font-family="Times New Roman,serif" font-size="14.00">N34</text>
</g>
<!-- N14&#45;&gt;N17 -->
<g id="edge17" class="edge"><title>N14&#45;&gt;N17</title>
<path fill="none" stroke="black" d="M242.438,-173.799C241.89,-162.163 241.156,-146.548 240.529,-133.237"/>
<polygon fill="black" stroke="black" points="244.022,-133 240.056,-123.175 237.03,-133.329 244.022,-133"/>
<text text-anchor="middle" x="281.747" y="-144.8" font-family="Times New Roman,serif" font-size="14.00">loc_SLL = r5;</text>
</g>
<!-- N15 -->
<g id="node16" class="node"><title>N15</title>
<ellipse fill="none" stroke="black" cx="289.247" cy="-18" rx="27" ry="18"/>
<text text-anchor="middle" x="289.247" y="-14.3" font-family="Times New Roman,serif" font-size="14.00">N30</text>
</g>
<!-- N15&#45;&gt;N13 -->
<g id="edge18" class="edge"><title>N15&#45;&gt;N13</title>
<path fill="none" stroke="black" d="M307.199,-31.9585C314.352,-37.9425 322.093,-45.5876 327.247,-54 339.304,-73.6768 341.247,-80.9231 341.247,-104 341.247,-284 341.247,-284 341.247,-284 341.247,-309.161 340.925,-319.16 324.247,-338 313.334,-350.328 297.21,-358.572 282.532,-363.943"/>
<polygon fill="black" stroke="black" points="281.068,-360.741 272.684,-367.218 283.277,-367.384 281.068,-360.741"/>
<text text-anchor="middle" x="379.247" y="-188.3" font-family="Times New Roman,serif" font-size="14.00">i4 = (i4 + &#45;1);</text>
</g>
<!-- N16&#45;&gt;N14 -->
<g id="edge19" class="edge"><title>N16&#45;&gt;N14</title>
<path fill="none" stroke="black" d="M249.705,-264.84C248.565,-252.158 246.99,-234.64 245.681,-220.077"/>
<polygon fill="black" stroke="black" points="249.166,-219.754 244.785,-210.107 242.195,-220.381 249.166,-219.754"/>
<text text-anchor="middle" x="273.247" y="-231.8" font-family="Times New Roman,serif" font-size="14.00">i0 = r5.d;</text>
</g>
<!-- N17&#45;&gt;N15 -->
<g id="edge20" class="edge"><title>N17&#45;&gt;N15</title>
<path fill="none" stroke="black" d="M235.46,-86.8601C234.117,-76.7466 234.036,-64.0093 239.247,-54 243.503,-45.8263 250.638,-39.1668 258.204,-33.936"/>
<polygon fill="black" stroke="black" points="260.45,-36.6639 267.138,-28.4467 256.786,-30.6997 260.45,-36.6639"/>
<text text-anchor="middle" x="283.247" y="-57.8" font-family="Times New Roman,serif" font-size="14.00">r5 = loc_SLL.l;</text>
</g>
</g>
</svg>
