<?xml version="1.0" encoding="UTF-8" standalone="no"?>
<!DOCTYPE svg PUBLIC "-//W3C//DTD SVG 1.1//EN"
 "http://www.w3.org/Graphics/SVG/1.1/DTD/svg11.dtd">
<!-- Generated by graphviz version 2.38.0 (20140413.2041)
 -->
<!-- Title: anonymous_graph Pages: 1 -->
<svg width="292pt" height="154pt"
 viewBox="0.00 0.00 292.25 154.00" xmlns="http://www.w3.org/2000/svg" xmlns:xlink="http://www.w3.org/1999/xlink">
<g id="graph0" class="graph" transform="scale(1 1) rotate(0) translate(4 150)">
<title>anonymous_graph</title>
<polygon fill="white" stroke="none" points="-4,4 -4,-150 288.247,-150 288.247,4 -4,4"/>
<!-- N0 -->
<g id="node1" class="node"><title>N0</title>
<ellipse fill="none" stroke="black" cx="31" cy="-128" rx="29.4969" ry="18"/>
<text text-anchor="middle" x="31" y="-124.3" font-family="Times New Roman,serif" font-size="14.00">initial</text>
</g>
<!-- N0&#45;&gt;N0 -->
<g id="edge2" class="edge"><title>N0&#45;&gt;N0</title>
<path fill="none" stroke="black" d="M59.6012,-132.683C69.873,-132.784 78.2474,-131.223 78.2474,-128 78.2474,-125.935 74.8105,-124.553 69.6397,-123.852"/>
<polygon fill="black" stroke="black" points="69.7734,-120.355 59.6012,-123.317 69.4007,-127.345 69.7734,-120.355"/>
<text text-anchor="middle" x="137.247" y="-131.8" font-family="Times New Roman,serif" font-size="14.00">!(i1 &lt; i0) &amp;&amp; i0 &lt; i1/</text>
<text text-anchor="middle" x="137.247" y="-116.8" font-family="Times New Roman,serif" font-size="14.00">i1 = (i1 &#45; i0);</text>
</g>
<!-- N0&#45;&gt;N0 -->
<g id="edge3" class="edge"><title>N0&#45;&gt;N0</title>
<path fill="none" stroke="black" d="M58.5252,-134.242C106.903,-139.944 196.247,-137.863 196.247,-128 196.247,-118.792 118.375,-116.367 68.6667,-120.725"/>
<polygon fill="black" stroke="black" points="68.119,-117.263 58.5252,-121.758 68.8284,-124.227 68.119,-117.263"/>
<text text-anchor="middle" x="231.247" y="-131.8" font-family="Times New Roman,serif" font-size="14.00">i1 &lt; i0/</text>
<text text-anchor="middle" x="231.247" y="-116.8" font-family="Times New Roman,serif" font-size="14.00">i0 = (i0 &#45; i1);</text>
</g>
<!-- N1 -->
<g id="node2" class="node"><title>N1</title>
<ellipse fill="none" stroke="black" cx="31" cy="-22" rx="27" ry="18"/>
<ellipse fill="none" stroke="black" cx="31" cy="-22" rx="31" ry="22"/>
<text text-anchor="middle" x="31" y="-18.3" font-family="Times New Roman,serif" font-size="14.00">final</text>
</g>
<!-- N0&#45;&gt;N1 -->
<g id="edge1" class="edge"><title>N0&#45;&gt;N1</title>
<path fill="none" stroke="black" d="M31,-109.827C31,-94.7794 31,-72.5319 31,-54.3242"/>
<polygon fill="black" stroke="black" points="34.5001,-54.1556 31,-44.1556 27.5001,-54.1557 34.5001,-54.1556"/>
<text text-anchor="middle" x="97" y="-80.8" font-family="Times New Roman,serif" font-size="14.00">!(i1 &lt; i0) &amp;&amp; !(i0 &lt; i1)/</text>
<text text-anchor="middle" x="97" y="-65.8" font-family="Times New Roman,serif" font-size="14.00">return;</text>
</g>
</g>
</svg>
